solid Created by Gmsh
facet normal 0.992115 0.125333 0
  outer loop
    vertex 13.9304 0 0.5
    vertex 13.9304 0 -0.5
    vertex 13.4927 3.46435 -0.5
  endloop
endfacet
facet normal 0.992115 0.125333 0
  outer loop
    vertex 13.9304 0 0.5
    vertex 13.4927 3.46435 -0.5
    vertex 13.4927 3.46435 0.5
  endloop
endfacet
facet normal 0.929776 0.368125 0
  outer loop
    vertex 13.4927 3.46435 0.5
    vertex 13.4927 3.46435 -0.5
    vertex 12.2073 6.71101 -0.5
  endloop
endfacet
facet normal 0.929776 0.368125 0
  outer loop
    vertex 13.4927 3.46435 0.5
    vertex 12.2073 6.71101 -0.5
    vertex 12.2073 6.71101 0.5
  endloop
endfacet
facet normal 0.809017 0.587785 0
  outer loop
    vertex 12.2073 6.71101 0.5
    vertex 12.2073 6.71101 -0.5
    vertex 10.1548 9.536 0.5
  endloop
endfacet
facet normal 0.809017 0.587785 0
  outer loop
    vertex 12.2073 6.71101 -0.5
    vertex 10.1548 9.536 -0.5
    vertex 10.1548 9.536 0.5
  endloop
endfacet
facet normal 0.637424 0.770513 0
  outer loop
    vertex 10.1548 9.536 0.5
    vertex 10.1548 9.536 -0.5
    vertex 7.46427 11.7618 0.5
  endloop
endfacet
facet normal 0.637424 0.770513 0
  outer loop
    vertex 10.1548 9.536 -0.5
    vertex 7.46427 11.7618 -0.5
    vertex 7.46427 11.7618 0.5
  endloop
endfacet
facet normal 0.425779 0.904827 -0
  outer loop
    vertex 7.46427 11.7618 -0.5
    vertex 4.30473 13.2486 -0.5
    vertex 7.46427 11.7618 0.5
  endloop
endfacet
facet normal 0.425779 0.904827 0
  outer loop
    vertex 7.46427 11.7618 0.5
    vertex 4.30473 13.2486 -0.5
    vertex 4.30473 13.2486 0.5
  endloop
endfacet
facet normal 0.187381 0.982287 0
  outer loop
    vertex 4.30473 13.2486 0.5
    vertex 4.30473 13.2486 -0.5
    vertex 0.874696 13.9029 0.5
  endloop
endfacet
facet normal 0.187381 0.982287 0
  outer loop
    vertex 4.30473 13.2486 -0.5
    vertex 0.874696 13.9029 -0.5
    vertex 0.874696 13.9029 0.5
  endloop
endfacet
facet normal -0.0627905 0.998027 0
  outer loop
    vertex 0.874696 13.9029 -0.5
    vertex -2.61029 13.6836 -0.5
    vertex 0.874696 13.9029 0.5
  endloop
endfacet
facet normal -0.0627905 0.998027 0
  outer loop
    vertex 0.874696 13.9029 0.5
    vertex -2.61029 13.6836 -0.5
    vertex -2.61029 13.6836 0.5
  endloop
endfacet
facet normal -0.309017 0.951057 0
  outer loop
    vertex -2.61029 13.6836 0.5
    vertex -2.61029 13.6836 -0.5
    vertex -5.93127 12.6046 0.5
  endloop
endfacet
facet normal -0.309017 0.951057 0
  outer loop
    vertex -2.61029 13.6836 -0.5
    vertex -5.93127 12.6046 -0.5
    vertex -5.93127 12.6046 0.5
  endloop
endfacet
facet normal -0.535827 0.844328 0
  outer loop
    vertex -5.93127 12.6046 0.5
    vertex -5.93127 12.6046 -0.5
    vertex -8.87956 10.7335 -0.5
  endloop
endfacet
facet normal -0.535827 0.844328 0
  outer loop
    vertex -5.93127 12.6046 0.5
    vertex -8.87956 10.7335 -0.5
    vertex -8.87956 10.7335 0.5
  endloop
endfacet
facet normal -0.728969 0.684547 0
  outer loop
    vertex -8.87956 10.7335 0.5
    vertex -8.87956 10.7335 -0.5
    vertex -11.2699 8.18807 0.5
  endloop
endfacet
facet normal -0.728969 0.684547 0
  outer loop
    vertex -8.87956 10.7335 -0.5
    vertex -11.2699 8.18807 -0.5
    vertex -11.2699 8.18807 0.5
  endloop
endfacet
facet normal -0.876307 0.481754 0
  outer loop
    vertex -11.2699 8.18807 0.5
    vertex -11.2699 8.18807 -0.5
    vertex -12.9521 5.12812 0.5
  endloop
endfacet
facet normal -0.876307 0.481754 0
  outer loop
    vertex -11.2699 8.18807 -0.5
    vertex -12.9521 5.12812 -0.5
    vertex -12.9521 5.12812 0.5
  endloop
endfacet
facet normal -0.968583 0.24869 0
  outer loop
    vertex -12.9521 5.12812 0.5
    vertex -12.9521 5.12812 -0.5
    vertex -13.8205 1.74594 -0.5
  endloop
endfacet
facet normal -0.968583 0.24869 0
  outer loop
    vertex -12.9521 5.12812 0.5
    vertex -13.8205 1.74594 -0.5
    vertex -13.8205 1.74594 0.5
  endloop
endfacet
facet normal -1 -1.01742e-15 -0
  outer loop
    vertex -13.8205 1.74594 0.5
    vertex -13.8205 1.74594 -0.5
    vertex -13.8205 -1.74594 0.5
  endloop
endfacet
facet normal -1 -1.01742e-15 0
  outer loop
    vertex -13.8205 1.74594 -0.5
    vertex -13.8205 -1.74594 -0.5
    vertex -13.8205 -1.74594 0.5
  endloop
endfacet
facet normal -0.968583 -0.24869 0
  outer loop
    vertex -13.8205 -1.74594 -0.5
    vertex -12.9521 -5.12812 -0.5
    vertex -12.9521 -5.12812 0.5
  endloop
endfacet
facet normal -0.968583 -0.24869 0
  outer loop
    vertex -13.8205 -1.74594 -0.5
    vertex -12.9521 -5.12812 0.5
    vertex -13.8205 -1.74594 0.5
  endloop
endfacet
facet normal -0.876307 -0.481754 0
  outer loop
    vertex -12.9521 -5.12812 -0.5
    vertex -11.2699 -8.18807 -0.5
    vertex -12.9521 -5.12812 0.5
  endloop
endfacet
facet normal -0.876307 -0.481754 0
  outer loop
    vertex -12.9521 -5.12812 0.5
    vertex -11.2699 -8.18807 -0.5
    vertex -11.2699 -8.18807 0.5
  endloop
endfacet
facet normal -0.728969 -0.684547 -0
  outer loop
    vertex -11.2699 -8.18807 0.5
    vertex -11.2699 -8.18807 -0.5
    vertex -8.87956 -10.7335 0.5
  endloop
endfacet
facet normal -0.728969 -0.684547 0
  outer loop
    vertex -11.2699 -8.18807 -0.5
    vertex -8.87956 -10.7335 -0.5
    vertex -8.87956 -10.7335 0.5
  endloop
endfacet
facet normal -0.535827 -0.844328 0
  outer loop
    vertex -8.87956 -10.7335 -0.5
    vertex -5.93127 -12.6046 -0.5
    vertex -8.87956 -10.7335 0.5
  endloop
endfacet
facet normal -0.535827 -0.844328 0
  outer loop
    vertex -8.87956 -10.7335 0.5
    vertex -5.93127 -12.6046 -0.5
    vertex -5.93127 -12.6046 0.5
  endloop
endfacet
facet normal -0.309017 -0.951057 -0
  outer loop
    vertex -5.93127 -12.6046 0.5
    vertex -5.93127 -12.6046 -0.5
    vertex -2.61029 -13.6836 0.5
  endloop
endfacet
facet normal -0.309017 -0.951057 0
  outer loop
    vertex -5.93127 -12.6046 -0.5
    vertex -2.61029 -13.6836 -0.5
    vertex -2.61029 -13.6836 0.5
  endloop
endfacet
facet normal -0.0627905 -0.998027 -0
  outer loop
    vertex -2.61029 -13.6836 0.5
    vertex -2.61029 -13.6836 -0.5
    vertex 0.874696 -13.9029 0.5
  endloop
endfacet
facet normal -0.0627905 -0.998027 0
  outer loop
    vertex -2.61029 -13.6836 -0.5
    vertex 0.874696 -13.9029 -0.5
    vertex 0.874696 -13.9029 0.5
  endloop
endfacet
facet normal 0.187381 -0.982287 0
  outer loop
    vertex 0.874696 -13.9029 -0.5
    vertex 4.30473 -13.2486 -0.5
    vertex 0.874696 -13.9029 0.5
  endloop
endfacet
facet normal 0.187381 -0.982287 0
  outer loop
    vertex 0.874696 -13.9029 0.5
    vertex 4.30473 -13.2486 -0.5
    vertex 4.30473 -13.2486 0.5
  endloop
endfacet
facet normal 0.425779 -0.904827 0
  outer loop
    vertex 4.30473 -13.2486 -0.5
    vertex 7.46427 -11.7618 -0.5
    vertex 4.30473 -13.2486 0.5
  endloop
endfacet
facet normal 0.425779 -0.904827 0
  outer loop
    vertex 4.30473 -13.2486 0.5
    vertex 7.46427 -11.7618 -0.5
    vertex 7.46427 -11.7618 0.5
  endloop
endfacet
facet normal 0.637424 -0.770513 0
  outer loop
    vertex 7.46427 -11.7618 0.5
    vertex 7.46427 -11.7618 -0.5
    vertex 10.1548 -9.536 0.5
  endloop
endfacet
facet normal 0.637424 -0.770513 0
  outer loop
    vertex 7.46427 -11.7618 -0.5
    vertex 10.1548 -9.536 -0.5
    vertex 10.1548 -9.536 0.5
  endloop
endfacet
facet normal 0.809017 -0.587785 0
  outer loop
    vertex 10.1548 -9.536 -0.5
    vertex 12.2073 -6.71101 -0.5
    vertex 10.1548 -9.536 0.5
  endloop
endfacet
facet normal 0.809017 -0.587785 0
  outer loop
    vertex 10.1548 -9.536 0.5
    vertex 12.2073 -6.71101 -0.5
    vertex 12.2073 -6.71101 0.5
  endloop
endfacet
facet normal 0.929776 -0.368125 0
  outer loop
    vertex 12.2073 -6.71101 0.5
    vertex 12.2073 -6.71101 -0.5
    vertex 13.4927 -3.46435 -0.5
  endloop
endfacet
facet normal 0.929776 -0.368125 0
  outer loop
    vertex 12.2073 -6.71101 0.5
    vertex 13.4927 -3.46435 -0.5
    vertex 13.4927 -3.46435 0.5
  endloop
endfacet
facet normal 0.992115 -0.125333 0
  outer loop
    vertex 13.4927 -3.46435 -0.5
    vertex 13.9304 0 -0.5
    vertex 13.9304 0 0.5
  endloop
endfacet
facet normal 0.992115 -0.125333 0
  outer loop
    vertex 13.4927 -3.46435 -0.5
    vertex 13.9304 0 0.5
    vertex 13.4927 -3.46435 0.5
  endloop
endfacet
facet normal -0 0 -1
  outer loop
    vertex -2.10047 12.2091 -0.5
    vertex -3.07584 9.43799 -0.5
    vertex -5.93127 12.6046 -0.5
  endloop
endfacet
facet normal 0 -0 -1
  outer loop
    vertex 3.9624 -11.0682 -0.5
    vertex 4.30473 -13.2486 -0.5
    vertex 0.874696 -13.9029 -0.5
  endloop
endfacet
facet normal -0 0 -1
  outer loop
    vertex 7.46427 -11.7618 -0.5
    vertex 4.30473 -13.2486 -0.5
    vertex 3.9624 -11.0682 -0.5
  endloop
endfacet
facet normal -0 0 -1
  outer loop
    vertex -4.60646 -8.20018 -0.5
    vertex -7.57836 -8.66291 -0.5
    vertex -7.28875 -5.22868 -0.5
  endloop
endfacet
facet normal 0 0 -1
  outer loop
    vertex 0.509708 11.0594 -0.5
    vertex 0.091294 8.43845 -0.5
    vertex -3.07584 9.43799 -0.5
  endloop
endfacet
facet normal 0 0 -1
  outer loop
    vertex -3.07584 9.43799 -0.5
    vertex -2.10047 12.2091 -0.5
    vertex 0.509708 11.0594 -0.5
  endloop
endfacet
facet normal 0 0 -1
  outer loop
    vertex -13.8205 1.74594 -0.5
    vertex -12.9521 5.12812 -0.5
    vertex -9.55731 2.91904 -0.5
  endloop
endfacet
facet normal 0 0 -1
  outer loop
    vertex 13.9304 0 -0.5
    vertex 13.4927 -3.46435 -0.5
    vertex 10.2411 -2.23176 -0.5
  endloop
endfacet
facet normal 0 0 -1
  outer loop
    vertex 5.78687 -8.25695 -0.5
    vertex 5.08603 -5.22847 -0.5
    vertex 8.80038 -5.61744 -0.5
  endloop
endfacet
facet normal 0 0 -1
  outer loop
    vertex -8.67912 5.72782 -0.5
    vertex -9.55731 2.91904 -0.5
    vertex -12.9521 5.12812 -0.5
  endloop
endfacet
facet normal 0 0 -1
  outer loop
    vertex 4.30473 13.2486 -0.5
    vertex 7.46427 11.7618 -0.5
    vertex 5.87204 9.01488 -0.5
  endloop
endfacet
facet normal 0 0 -1
  outer loop
    vertex -7.57836 -8.66291 -0.5
    vertex -4.60646 -8.20018 -0.5
    vertex -5.55523 -10.8622 -0.5
  endloop
endfacet
facet normal 0 0 -1
  outer loop
    vertex 9.23962 5.30947 -0.5
    vertex 6.70853 5.83621 -0.5
    vertex 8.85083 8.02119 -0.5
  endloop
endfacet
facet normal 0 0 -1
  outer loop
    vertex -9.69987 -7.16421 -0.5
    vertex -7.28875 -5.22868 -0.5
    vertex -7.57836 -8.66291 -0.5
  endloop
endfacet
facet normal 0 0 -1
  outer loop
    vertex 6.83105 -10.441 -0.5
    vertex 5.78687 -8.25695 -0.5
    vertex 10.1548 -9.536 -0.5
  endloop
endfacet
facet normal 0 0 -1
  outer loop
    vertex 10.1548 -9.536 -0.5
    vertex 7.46427 -11.7618 -0.5
    vertex 6.83105 -10.441 -0.5
  endloop
endfacet
facet normal 0 0 -1
  outer loop
    vertex -2.10047 12.2091 -0.5
    vertex -2.61029 13.6836 -0.5
    vertex 0.874696 13.9029 -0.5
  endloop
endfacet
facet normal 0 0 -1
  outer loop
    vertex -5.93127 12.6046 -0.5
    vertex -2.61029 13.6836 -0.5
    vertex -2.10047 12.2091 -0.5
  endloop
endfacet
facet normal -0 0 -1
  outer loop
    vertex -5.55523 -10.8622 -0.5
    vertex -5.93127 -12.6046 -0.5
    vertex -8.87956 -10.7335 -0.5
  endloop
endfacet
facet normal 0 0 -1
  outer loop
    vertex -8.87956 -10.7335 -0.5
    vertex -7.57836 -8.66291 -0.5
    vertex -5.55523 -10.8622 -0.5
  endloop
endfacet
facet normal 0 0 -1
  outer loop
    vertex -2.61029 -13.6836 -0.5
    vertex -5.93127 -12.6046 -0.5
    vertex -5.55523 -10.8622 -0.5
  endloop
endfacet
facet normal 0 0 -1
  outer loop
    vertex 11.0082 3.18442 -0.5
    vertex 13.4927 3.46435 -0.5
    vertex 13.9304 0 -0.5
  endloop
endfacet
facet normal 0 0 -1
  outer loop
    vertex 11.0082 3.18442 -0.5
    vertex 9.23962 5.30947 -0.5
    vertex 12.2073 6.71101 -0.5
  endloop
endfacet
facet normal 0 -0 -1
  outer loop
    vertex 12.2073 6.71101 -0.5
    vertex 13.4927 3.46435 -0.5
    vertex 11.0082 3.18442 -0.5
  endloop
endfacet
facet normal 0 0 -1
  outer loop
    vertex 8.85083 8.02119 -0.5
    vertex 10.1548 9.536 -0.5
    vertex 12.2073 6.71101 -0.5
  endloop
endfacet
facet normal -0 0 -1
  outer loop
    vertex 12.2073 6.71101 -0.5
    vertex 9.23962 5.30947 -0.5
    vertex 8.85083 8.02119 -0.5
  endloop
endfacet
facet normal 0 0 -1
  outer loop
    vertex 7.46427 11.7618 -0.5
    vertex 10.1548 9.536 -0.5
    vertex 8.85083 8.02119 -0.5
  endloop
endfacet
facet normal 0 0 -1
  outer loop
    vertex 8.80038 -5.61744 -0.5
    vertex 12.2073 -6.71101 -0.5
    vertex 10.1548 -9.536 -0.5
  endloop
endfacet
facet normal 0 0 -1
  outer loop
    vertex 10.1548 -9.536 -0.5
    vertex 5.78687 -8.25695 -0.5
    vertex 8.80038 -5.61744 -0.5
  endloop
endfacet
facet normal -0 0 -1
  outer loop
    vertex -9.69987 -7.16421 -0.5
    vertex -11.2699 -8.18807 -0.5
    vertex -12.9521 -5.12812 -0.5
  endloop
endfacet
facet normal 0 0 -1
  outer loop
    vertex -9.69987 -7.16421 -0.5
    vertex -7.57836 -8.66291 -0.5
    vertex -8.87956 -10.7335 -0.5
  endloop
endfacet
facet normal 0 0 -1
  outer loop
    vertex -8.87956 -10.7335 -0.5
    vertex -11.2699 -8.18807 -0.5
    vertex -9.69987 -7.16421 -0.5
  endloop
endfacet
facet normal 0 -0 -1
  outer loop
    vertex 0.487605 -11.3639 -0.5
    vertex 0.874696 -13.9029 -0.5
    vertex -2.61029 -13.6836 -0.5
  endloop
endfacet
facet normal 0 0 -1
  outer loop
    vertex 3.9624 -11.0682 -0.5
    vertex 0.874696 -13.9029 -0.5
    vertex 0.487605 -11.3639 -0.5
  endloop
endfacet
facet normal 0 0 -1
  outer loop
    vertex -12.9521 -5.12812 -0.5
    vertex -13.8205 -1.74594 -0.5
    vertex -10.5148 -2.64256 -0.5
  endloop
endfacet
facet normal 0 0 -1
  outer loop
    vertex 8.85083 8.02119 -0.5
    vertex 5.87204 9.01488 -0.5
    vertex 7.46427 11.7618 -0.5
  endloop
endfacet
facet normal 0 0 -1
  outer loop
    vertex 6.70853 5.83621 -0.5
    vertex 5.87204 9.01488 -0.5
    vertex 8.85083 8.02119 -0.5
  endloop
endfacet
facet normal 0 0 -1
  outer loop
    vertex -1.65877 -9.76578 -0.5
    vertex -4.60646 -8.20018 -0.5
    vertex -1.54578 -6.19415 -0.5
  endloop
endfacet
facet normal 0 -0 -1
  outer loop
    vertex -1.54578 -6.19415 -0.5
    vertex 1.86999 -8.39892 -0.5
    vertex -1.65877 -9.76578 -0.5
  endloop
endfacet
facet normal 0 0 -1
  outer loop
    vertex 1.66921 6.28683 -0.5
    vertex 0.091294 8.43845 -0.5
    vertex 2.79884 9.10433 -0.5
  endloop
endfacet
facet normal 0 -0 -1
  outer loop
    vertex 4.30473 13.2486 -0.5
    vertex 5.87204 9.01488 -0.5
    vertex 2.79884 9.10433 -0.5
  endloop
endfacet
facet normal 0 0 -1
  outer loop
    vertex -13.8205 1.74594 -0.5
    vertex -9.55731 2.91904 -0.5
    vertex -9.97044 0.105407 -0.5
  endloop
endfacet
facet normal 0 0 -1
  outer loop
    vertex -9.97044 0.105407 -0.5
    vertex -9.55731 2.91904 -0.5
    vertex -6.32119 0.728019 -0.5
  endloop
endfacet
facet normal -0 0 -1
  outer loop
    vertex 13.9304 0 -0.5
    vertex 10.2411 -2.23176 -0.5
    vertex 9.71712 0.751764 -0.5
  endloop
endfacet
facet normal 0 -0 -1
  outer loop
    vertex 9.71712 0.751764 -0.5
    vertex 10.2411 -2.23176 -0.5
    vertex 6.49646 0.00112312 -0.5
  endloop
endfacet
facet normal -0 0 -1
  outer loop
    vertex -3.15955 0.49399 -0.5
    vertex -3.99975 -2.6493 -0.5
    vertex -6.32119 0.728019 -0.5
  endloop
endfacet
facet normal 0 0 -1
  outer loop
    vertex -3.15955 0.49399 -0.5
    vertex -2.65216 3.18179 -0.5
    vertex 0.487348 0.574666 -0.5
  endloop
endfacet
facet normal 0 0 -1
  outer loop
    vertex -1.40141 6.21587 -0.5
    vertex 0.091294 8.43845 -0.5
    vertex 1.66921 6.28683 -0.5
  endloop
endfacet
facet normal 0 0 -1
  outer loop
    vertex -1.40141 6.21587 -0.5
    vertex -2.65216 3.18179 -0.5
    vertex -4.87636 6.13173 -0.5
  endloop
endfacet
facet normal 0 0 -1
  outer loop
    vertex 2.04701 -5.25615 -0.5
    vertex 1.86999 -8.39892 -0.5
    vertex -1.54578 -6.19415 -0.5
  endloop
endfacet
facet normal 0 0 -1
  outer loop
    vertex 2.04701 -5.25615 -0.5
    vertex 3.48197 -2.06692 -0.5
    vertex 5.08603 -5.22847 -0.5
  endloop
endfacet
facet normal 0 0 -1
  outer loop
    vertex 0.487348 0.574666 -0.5
    vertex 4.01362 3.11719 -0.5
    vertex 3.68744 0.459066 -0.5
  endloop
endfacet
facet normal -0 0 -1
  outer loop
    vertex 6.49646 0.00112312 -0.5
    vertex 3.48197 -2.06692 -0.5
    vertex 3.68744 0.459066 -0.5
  endloop
endfacet
facet normal 0 0 -1
  outer loop
    vertex 3.68744 0.459066 -0.5
    vertex 4.01362 3.11719 -0.5
    vertex 6.49646 0.00112312 -0.5
  endloop
endfacet
facet normal -0 0 -1
  outer loop
    vertex 3.68744 0.459066 -0.5
    vertex 3.48197 -2.06692 -0.5
    vertex 0.487348 0.574666 -0.5
  endloop
endfacet
facet normal -0 0 -1
  outer loop
    vertex -4.36018 -5.56808 -0.5
    vertex -4.60646 -8.20018 -0.5
    vertex -7.28875 -5.22868 -0.5
  endloop
endfacet
facet normal 0 0 -1
  outer loop
    vertex -4.36018 -5.56808 -0.5
    vertex -3.99975 -2.6493 -0.5
    vertex -1.54578 -6.19415 -0.5
  endloop
endfacet
facet normal -0 0 -1
  outer loop
    vertex -1.54578 -6.19415 -0.5
    vertex -4.60646 -8.20018 -0.5
    vertex -4.36018 -5.56808 -0.5
  endloop
endfacet
facet normal 0 0 -1
  outer loop
    vertex -7.28875 -5.22868 -0.5
    vertex -3.99975 -2.6493 -0.5
    vertex -4.36018 -5.56808 -0.5
  endloop
endfacet
facet normal 0 0 -1
  outer loop
    vertex -1.54578 -6.19415 -0.5
    vertex -3.99975 -2.6493 -0.5
    vertex -0.203846 -2.76425 -0.5
  endloop
endfacet
facet normal 0 -0 -1
  outer loop
    vertex 0.487348 0.574666 -0.5
    vertex 3.48197 -2.06692 -0.5
    vertex -0.203846 -2.76425 -0.5
  endloop
endfacet
facet normal 0 0 -1
  outer loop
    vertex 0.43538 3.81844 -0.5
    vertex 4.01362 3.11719 -0.5
    vertex 0.487348 0.574666 -0.5
  endloop
endfacet
facet normal 0 -0 -1
  outer loop
    vertex 1.66921 6.28683 -0.5
    vertex 4.01362 3.11719 -0.5
    vertex 0.43538 3.81844 -0.5
  endloop
endfacet
facet normal 0 0 -1
  outer loop
    vertex 0.487348 0.574666 -0.5
    vertex -2.65216 3.18179 -0.5
    vertex 0.43538 3.81844 -0.5
  endloop
endfacet
facet normal 0 0 -1
  outer loop
    vertex -7.61899 -1.93742 -0.5
    vertex -3.99975 -2.6493 -0.5
    vertex -7.28875 -5.22868 -0.5
  endloop
endfacet
facet normal 0 -0 -1
  outer loop
    vertex -6.32119 0.728019 -0.5
    vertex -3.99975 -2.6493 -0.5
    vertex -7.61899 -1.93742 -0.5
  endloop
endfacet
facet normal 0 0 -1
  outer loop
    vertex -7.28875 -5.22868 -0.5
    vertex -10.5148 -2.64256 -0.5
    vertex -7.61899 -1.93742 -0.5
  endloop
endfacet
facet normal -0 0 -1
  outer loop
    vertex 6.70853 5.83621 -0.5
    vertex 4.01362 3.11719 -0.5
    vertex 4.34604 6.57788 -0.5
  endloop
endfacet
facet normal 0 0 -1
  outer loop
    vertex 4.34604 6.57788 -0.5
    vertex 4.01362 3.11719 -0.5
    vertex 1.66921 6.28683 -0.5
  endloop
endfacet
facet normal 0 0 -1
  outer loop
    vertex 4.34604 6.57788 -0.5
    vertex 5.87204 9.01488 -0.5
    vertex 6.70853 5.83621 -0.5
  endloop
endfacet
facet normal 0 0 -1
  outer loop
    vertex 6.87204 -2.8914 -0.5
    vertex 3.48197 -2.06692 -0.5
    vertex 6.49646 0.00112312 -0.5
  endloop
endfacet
facet normal 0 0 -1
  outer loop
    vertex 6.49646 0.00112312 -0.5
    vertex 10.2411 -2.23176 -0.5
    vertex 6.87204 -2.8914 -0.5
  endloop
endfacet
facet normal 0 0 -1
  outer loop
    vertex 5.08603 -5.22847 -0.5
    vertex 3.48197 -2.06692 -0.5
    vertex 6.87204 -2.8914 -0.5
  endloop
endfacet
facet normal 0 -0 -1
  outer loop
    vertex -10.1158 -4.90301 -0.5
    vertex -9.69987 -7.16421 -0.5
    vertex -12.9521 -5.12812 -0.5
  endloop
endfacet
facet normal 0 0 -1
  outer loop
    vertex -10.1158 -4.90301 -0.5
    vertex -10.5148 -2.64256 -0.5
    vertex -7.28875 -5.22868 -0.5
  endloop
endfacet
facet normal -0 0 -1
  outer loop
    vertex -7.28875 -5.22868 -0.5
    vertex -9.69987 -7.16421 -0.5
    vertex -10.1158 -4.90301 -0.5
  endloop
endfacet
facet normal 0 0 -1
  outer loop
    vertex -12.9521 -5.12812 -0.5
    vertex -10.5148 -2.64256 -0.5
    vertex -10.1158 -4.90301 -0.5
  endloop
endfacet
facet normal 0 0 -1
  outer loop
    vertex -6.32119 0.728019 -0.5
    vertex -9.55731 2.91904 -0.5
    vertex -6.10991 3.4408 -0.5
  endloop
endfacet
facet normal 0 -0 -1
  outer loop
    vertex -4.87636 6.13173 -0.5
    vertex -2.65216 3.18179 -0.5
    vertex -6.10991 3.4408 -0.5
  endloop
endfacet
facet normal 0 0 -1
  outer loop
    vertex -2.61029 -13.6836 -0.5
    vertex -5.55523 -10.8622 -0.5
    vertex -3.66524 -10.6503 -0.5
  endloop
endfacet
facet normal 0 0 -1
  outer loop
    vertex -4.60646 -8.20018 -0.5
    vertex -1.65877 -9.76578 -0.5
    vertex -3.66524 -10.6503 -0.5
  endloop
endfacet
facet normal -0 0 -1
  outer loop
    vertex -3.66524 -10.6503 -0.5
    vertex -5.55523 -10.8622 -0.5
    vertex -4.60646 -8.20018 -0.5
  endloop
endfacet
facet normal 0 0 -1
  outer loop
    vertex -3.66524 -10.6503 -0.5
    vertex -1.65877 -9.76578 -0.5
    vertex -2.61029 -13.6836 -0.5
  endloop
endfacet
facet normal 0 -0 -1
  outer loop
    vertex 5.08603 -5.22847 -0.5
    vertex 5.78687 -8.25695 -0.5
    vertex 3.62641 -6.92711 -0.5
  endloop
endfacet
facet normal 0 0 -1
  outer loop
    vertex 1.86999 -8.39892 -0.5
    vertex 2.04701 -5.25615 -0.5
    vertex 3.62641 -6.92711 -0.5
  endloop
endfacet
facet normal 0 -0 -1
  outer loop
    vertex 3.62641 -6.92711 -0.5
    vertex 5.78687 -8.25695 -0.5
    vertex 1.86999 -8.39892 -0.5
  endloop
endfacet
facet normal 0 0 -1
  outer loop
    vertex 3.62641 -6.92711 -0.5
    vertex 2.04701 -5.25615 -0.5
    vertex 5.08603 -5.22847 -0.5
  endloop
endfacet
facet normal 0 0 -1
  outer loop
    vertex 7.86392 3.03336 -0.5
    vertex 4.01362 3.11719 -0.5
    vertex 6.70853 5.83621 -0.5
  endloop
endfacet
facet normal 0 0 -1
  outer loop
    vertex 6.49646 0.00112312 -0.5
    vertex 4.01362 3.11719 -0.5
    vertex 7.86392 3.03336 -0.5
  endloop
endfacet
facet normal 0 -0 -1
  outer loop
    vertex -4.57335 1.95639 -0.5
    vertex -3.15955 0.49399 -0.5
    vertex -6.32119 0.728019 -0.5
  endloop
endfacet
facet normal 0 0 -1
  outer loop
    vertex -4.57335 1.95639 -0.5
    vertex -6.10991 3.4408 -0.5
    vertex -2.65216 3.18179 -0.5
  endloop
endfacet
facet normal 0 0 -1
  outer loop
    vertex -2.65216 3.18179 -0.5
    vertex -3.15955 0.49399 -0.5
    vertex -4.57335 1.95639 -0.5
  endloop
endfacet
facet normal 0 0 -1
  outer loop
    vertex -6.32119 0.728019 -0.5
    vertex -6.10991 3.4408 -0.5
    vertex -4.57335 1.95639 -0.5
  endloop
endfacet
facet normal 0 0 -1
  outer loop
    vertex -1.71895 -1.08622 -0.5
    vertex -3.15955 0.49399 -0.5
    vertex 0.487348 0.574666 -0.5
  endloop
endfacet
facet normal 0 -0 -1
  outer loop
    vertex -1.71895 -1.08622 -0.5
    vertex -0.203846 -2.76425 -0.5
    vertex -3.99975 -2.6493 -0.5
  endloop
endfacet
facet normal 0 0 -1
  outer loop
    vertex -3.99975 -2.6493 -0.5
    vertex -3.15955 0.49399 -0.5
    vertex -1.71895 -1.08622 -0.5
  endloop
endfacet
facet normal 0 0 -1
  outer loop
    vertex 0.487348 0.574666 -0.5
    vertex -0.203846 -2.76425 -0.5
    vertex -1.71895 -1.08622 -0.5
  endloop
endfacet
facet normal 0 0 -1
  outer loop
    vertex -3.07584 9.43799 -0.5
    vertex -4.87636 6.13173 -0.5
    vertex -7.11868 8.80396 -0.5
  endloop
endfacet
facet normal 0 -0 -1
  outer loop
    vertex 6.83105 -10.441 -0.5
    vertex 7.46427 -11.7618 -0.5
    vertex 3.9624 -11.0682 -0.5
  endloop
endfacet
facet normal 0 0 -1
  outer loop
    vertex 3.9624 -11.0682 -0.5
    vertex 5.78687 -8.25695 -0.5
    vertex 6.83105 -10.441 -0.5
  endloop
endfacet
facet normal 0 -0 -1
  outer loop
    vertex -7.11868 8.80396 -0.5
    vertex -4.87636 6.13173 -0.5
    vertex -8.67912 5.72782 -0.5
  endloop
endfacet
facet normal 0 0 -1
  outer loop
    vertex -1.54578 -6.19415 -0.5
    vertex -0.203846 -2.76425 -0.5
    vertex 2.04701 -5.25615 -0.5
  endloop
endfacet
facet normal 0 0 -1
  outer loop
    vertex 2.04701 -5.25615 -0.5
    vertex -0.203846 -2.76425 -0.5
    vertex 3.48197 -2.06692 -0.5
  endloop
endfacet
facet normal 0 0 -1
  outer loop
    vertex 1.66921 6.28683 -0.5
    vertex 0.43538 3.81844 -0.5
    vertex -1.40141 6.21587 -0.5
  endloop
endfacet
facet normal 0 -0 -1
  outer loop
    vertex -1.40141 6.21587 -0.5
    vertex 0.43538 3.81844 -0.5
    vertex -2.65216 3.18179 -0.5
  endloop
endfacet
facet normal 0 0 -1
  outer loop
    vertex 1.66921 6.28683 -0.5
    vertex 2.79884 9.10433 -0.5
    vertex 4.34604 6.57788 -0.5
  endloop
endfacet
facet normal 0 0 -1
  outer loop
    vertex 4.34604 6.57788 -0.5
    vertex 2.79884 9.10433 -0.5
    vertex 5.87204 9.01488 -0.5
  endloop
endfacet
facet normal 0 0 -1
  outer loop
    vertex -7.11868 8.80396 -0.5
    vertex -8.87956 10.7335 -0.5
    vertex -5.93127 12.6046 -0.5
  endloop
endfacet
facet normal 0 -0 -1
  outer loop
    vertex -5.93127 12.6046 -0.5
    vertex -3.07584 9.43799 -0.5
    vertex -7.11868 8.80396 -0.5
  endloop
endfacet
facet normal 0 0 -1
  outer loop
    vertex -11.2699 8.18807 -0.5
    vertex -8.87956 10.7335 -0.5
    vertex -7.11868 8.80396 -0.5
  endloop
endfacet
facet normal -0 0 -1
  outer loop
    vertex -12.0316 -0.634288 -0.5
    vertex -13.8205 -1.74594 -0.5
    vertex -13.8205 1.74594 -0.5
  endloop
endfacet
facet normal 0 0 -1
  outer loop
    vertex -12.0316 -0.634288 -0.5
    vertex -9.97044 0.105407 -0.5
    vertex -10.5148 -2.64256 -0.5
  endloop
endfacet
facet normal 0 0 -1
  outer loop
    vertex -10.5148 -2.64256 -0.5
    vertex -13.8205 -1.74594 -0.5
    vertex -12.0316 -0.634288 -0.5
  endloop
endfacet
facet normal 0 0 -1
  outer loop
    vertex -13.8205 1.74594 -0.5
    vertex -9.97044 0.105407 -0.5
    vertex -12.0316 -0.634288 -0.5
  endloop
endfacet
facet normal 0 0 -1
  outer loop
    vertex 0.509708 11.0594 -0.5
    vertex 0.874696 13.9029 -0.5
    vertex 4.30473 13.2486 -0.5
  endloop
endfacet
facet normal 0 0 -1
  outer loop
    vertex -2.10047 12.2091 -0.5
    vertex 0.874696 13.9029 -0.5
    vertex 0.509708 11.0594 -0.5
  endloop
endfacet
facet normal 0 0 -1
  outer loop
    vertex -2.61029 -13.6836 -0.5
    vertex -1.65877 -9.76578 -0.5
    vertex 0.487605 -11.3639 -0.5
  endloop
endfacet
facet normal 0 0 -1
  outer loop
    vertex 0.487605 -11.3639 -0.5
    vertex -1.65877 -9.76578 -0.5
    vertex 1.86999 -8.39892 -0.5
  endloop
endfacet
facet normal 0 0 -1
  outer loop
    vertex -12.9521 5.12812 -0.5
    vertex -11.2699 8.18807 -0.5
    vertex -8.67912 5.72782 -0.5
  endloop
endfacet
facet normal 0 0 -1
  outer loop
    vertex -8.67912 5.72782 -0.5
    vertex -11.2699 8.18807 -0.5
    vertex -7.11868 8.80396 -0.5
  endloop
endfacet
facet normal 0 -0 -1
  outer loop
    vertex 6.87204 -2.8914 -0.5
    vertex 8.80038 -5.61744 -0.5
    vertex 5.08603 -5.22847 -0.5
  endloop
endfacet
facet normal 0 0 -1
  outer loop
    vertex 10.2411 -2.23176 -0.5
    vertex 8.80038 -5.61744 -0.5
    vertex 6.87204 -2.8914 -0.5
  endloop
endfacet
facet normal 0 0 -1
  outer loop
    vertex -7.61899 -1.93742 -0.5
    vertex -9.97044 0.105407 -0.5
    vertex -6.32119 0.728019 -0.5
  endloop
endfacet
facet normal 0 0 -1
  outer loop
    vertex -10.5148 -2.64256 -0.5
    vertex -9.97044 0.105407 -0.5
    vertex -7.61899 -1.93742 -0.5
  endloop
endfacet
facet normal 0 0 -1
  outer loop
    vertex 4.30473 13.2486 -0.5
    vertex 2.79884 9.10433 -0.5
    vertex 0.509708 11.0594 -0.5
  endloop
endfacet
facet normal 0 -0 -1
  outer loop
    vertex 0.509708 11.0594 -0.5
    vertex 2.79884 9.10433 -0.5
    vertex 0.091294 8.43845 -0.5
  endloop
endfacet
facet normal 0 0 -1
  outer loop
    vertex -6.10991 3.4408 -0.5
    vertex -8.67912 5.72782 -0.5
    vertex -4.87636 6.13173 -0.5
  endloop
endfacet
facet normal 0 0 -1
  outer loop
    vertex -9.55731 2.91904 -0.5
    vertex -8.67912 5.72782 -0.5
    vertex -6.10991 3.4408 -0.5
  endloop
endfacet
facet normal 0 0 -1
  outer loop
    vertex -4.87636 6.13173 -0.5
    vertex -3.07584 9.43799 -0.5
    vertex -1.40141 6.21587 -0.5
  endloop
endfacet
facet normal 0 0 -1
  outer loop
    vertex -1.40141 6.21587 -0.5
    vertex -3.07584 9.43799 -0.5
    vertex 0.091294 8.43845 -0.5
  endloop
endfacet
facet normal 0 0 -1
  outer loop
    vertex 13.4927 -3.46435 -0.5
    vertex 12.2073 -6.71101 -0.5
    vertex 11.1854 -4.50614 -0.5
  endloop
endfacet
facet normal 0 0 -1
  outer loop
    vertex 8.80038 -5.61744 -0.5
    vertex 10.2411 -2.23176 -0.5
    vertex 11.1854 -4.50614 -0.5
  endloop
endfacet
facet normal 0 -0 -1
  outer loop
    vertex 11.1854 -4.50614 -0.5
    vertex 12.2073 -6.71101 -0.5
    vertex 8.80038 -5.61744 -0.5
  endloop
endfacet
facet normal 0 0 -1
  outer loop
    vertex 11.1854 -4.50614 -0.5
    vertex 10.2411 -2.23176 -0.5
    vertex 13.4927 -3.46435 -0.5
  endloop
endfacet
facet normal 0 0 -1
  outer loop
    vertex 9.71712 0.751764 -0.5
    vertex 11.0082 3.18442 -0.5
    vertex 13.9304 0 -0.5
  endloop
endfacet
facet normal 0 0 -1
  outer loop
    vertex 3.9624 -11.0682 -0.5
    vertex 1.86999 -8.39892 -0.5
    vertex 5.78687 -8.25695 -0.5
  endloop
endfacet
facet normal 0 -0 -1
  outer loop
    vertex 1.86999 -8.39892 -0.5
    vertex 3.9624 -11.0682 -0.5
    vertex 0.487605 -11.3639 -0.5
  endloop
endfacet
facet normal 0 0 -1
  outer loop
    vertex 6.70853 5.83621 -0.5
    vertex 9.23962 5.30947 -0.5
    vertex 7.86392 3.03336 -0.5
  endloop
endfacet
facet normal -0 0 -1
  outer loop
    vertex 11.0082 3.18442 -0.5
    vertex 7.86392 3.03336 -0.5
    vertex 9.23962 5.30947 -0.5
  endloop
endfacet
facet normal 0 0 -1
  outer loop
    vertex 6.49646 0.00112312 -0.5
    vertex 7.86392 3.03336 -0.5
    vertex 9.71712 0.751764 -0.5
  endloop
endfacet
facet normal 0 0 -1
  outer loop
    vertex 7.86392 3.03336 -0.5
    vertex 11.0082 3.18442 -0.5
    vertex 9.71712 0.751764 -0.5
  endloop
endfacet
facet normal -0 0 1
  outer loop
    vertex 9.41883 7.81325 0.5
    vertex 12.2073 6.71101 0.5
    vertex 10.1548 9.536 0.5
  endloop
endfacet
facet normal 0 0 1
  outer loop
    vertex 7.46427 11.7618 0.5
    vertex 9.41883 7.81325 0.5
    vertex 10.1548 9.536 0.5
  endloop
endfacet
facet normal 0 0 1
  outer loop
    vertex -11.2216 5.00967 0.5
    vertex -11.2699 8.18807 0.5
    vertex -12.9521 5.12812 0.5
  endloop
endfacet
facet normal 0 0 1
  outer loop
    vertex -13.8205 1.74594 0.5
    vertex -11.2216 5.00967 0.5
    vertex -12.9521 5.12812 0.5
  endloop
endfacet
facet normal 0 0 1
  outer loop
    vertex -11.2699 8.18807 0.5
    vertex -11.2216 5.00967 0.5
    vertex -9.33274 6.58956 0.5
  endloop
endfacet
facet normal 0 -0 1
  outer loop
    vertex 7.36612 -5.65109 0.5
    vertex 9.88592 -2.06989 0.5
    vertex 6.03477 -2.53075 0.5
  endloop
endfacet
facet normal 0 0 1
  outer loop
    vertex 9.88592 -2.06989 0.5
    vertex 7.36612 -5.65109 0.5
    vertex 10.5501 -5.30729 0.5
  endloop
endfacet
facet normal 0 -0 1
  outer loop
    vertex 2.50965 -10.3507 0.5
    vertex 3.98305 -6.99503 0.5
    vertex 0.185344 -7.49987 0.5
  endloop
endfacet
facet normal 0 0 1
  outer loop
    vertex -5.93127 -12.6046 0.5
    vertex -7.71169 -8.48779 0.5
    vertex -8.87956 -10.7335 0.5
  endloop
endfacet
facet normal 0 0 1
  outer loop
    vertex -9.67124 -5.32429 0.5
    vertex -7.71169 -8.48779 0.5
    vertex -6.68066 -5.88424 0.5
  endloop
endfacet
facet normal 0 -0 1
  outer loop
    vertex 5.68428 -9.39343 0.5
    vertex 7.36612 -5.65109 0.5
    vertex 3.98305 -6.99503 0.5
  endloop
endfacet
facet normal 0 0 1
  outer loop
    vertex 5.68428 -9.39343 0.5
    vertex 4.30473 -13.2486 0.5
    vertex 7.46427 -11.7618 0.5
  endloop
endfacet
facet normal 0 0 1
  outer loop
    vertex -8.08375 8.90959 0.5
    vertex -9.33274 6.58956 0.5
    vertex -6.71504 5.97212 0.5
  endloop
endfacet
facet normal 0 0 1
  outer loop
    vertex 3.98305 -6.99503 0.5
    vertex 2.76655 -4.07622 0.5
    vertex 0.185344 -7.49987 0.5
  endloop
endfacet
facet normal -0 0 1
  outer loop
    vertex -5.93127 12.6046 0.5
    vertex -3.17058 10.5573 0.5
    vertex -2.61029 13.6836 0.5
  endloop
endfacet
facet normal 0 0 1
  outer loop
    vertex 0.252245 11.3976 0.5
    vertex -3.17058 10.5573 0.5
    vertex -0.896536 8.57434 0.5
  endloop
endfacet
facet normal 0 0 1
  outer loop
    vertex -3.17058 10.5573 0.5
    vertex 0.252245 11.3976 0.5
    vertex -2.61029 13.6836 0.5
  endloop
endfacet
facet normal 0 0 1
  outer loop
    vertex 10.5501 -5.30729 0.5
    vertex 8.47783 -8.35337 0.5
    vertex 10.1548 -9.536 0.5
  endloop
endfacet
facet normal 0 -0 1
  outer loop
    vertex 8.47783 -8.35337 0.5
    vertex 10.5501 -5.30729 0.5
    vertex 7.36612 -5.65109 0.5
  endloop
endfacet
facet normal 0 0 1
  outer loop
    vertex 8.47783 -8.35337 0.5
    vertex 7.46427 -11.7618 0.5
    vertex 10.1548 -9.536 0.5
  endloop
endfacet
facet normal 0 0 1
  outer loop
    vertex -9.33274 6.58956 0.5
    vertex -9.38499 3.31132 0.5
    vertex -6.71504 5.97212 0.5
  endloop
endfacet
facet normal 0 0 1
  outer loop
    vertex -10.3555 0.753533 0.5
    vertex -13.8205 1.74594 0.5
    vertex -10.9375 -1.84913 0.5
  endloop
endfacet
facet normal -0 0 1
  outer loop
    vertex -10.3555 0.753533 0.5
    vertex -7.38492 0.0707836 0.5
    vertex -9.38499 3.31132 0.5
  endloop
endfacet
facet normal 0 0 1
  outer loop
    vertex -7.38492 0.0707836 0.5
    vertex -10.3555 0.753533 0.5
    vertex -10.9375 -1.84913 0.5
  endloop
endfacet
facet normal -0 0 1
  outer loop
    vertex -13.8205 1.74594 0.5
    vertex -10.3555 0.753533 0.5
    vertex -9.38499 3.31132 0.5
  endloop
endfacet
facet normal 0 -0 1
  outer loop
    vertex -9.67124 -5.32429 0.5
    vertex -7.99259 -3.19455 0.5
    vertex -10.9375 -1.84913 0.5
  endloop
endfacet
facet normal 0 0 1
  outer loop
    vertex -7.99259 -3.19455 0.5
    vertex -9.67124 -5.32429 0.5
    vertex -6.68066 -5.88424 0.5
  endloop
endfacet
facet normal 0 -0 1
  outer loop
    vertex -7.99259 -3.19455 0.5
    vertex -7.38492 0.0707836 0.5
    vertex -10.9375 -1.84913 0.5
  endloop
endfacet
facet normal -0 0 1
  outer loop
    vertex 11.8129 -2.12415 0.5
    vertex 13.4927 -3.46435 0.5
    vertex 13.9304 0 0.5
  endloop
endfacet
facet normal 0 0 1
  outer loop
    vertex -10.9375 -1.84913 0.5
    vertex -13.8205 1.74594 0.5
    vertex -13.8205 -1.74594 0.5
  endloop
endfacet
facet normal 0 -0 1
  outer loop
    vertex -12.9521 -5.12812 0.5
    vertex -10.9375 -1.84913 0.5
    vertex -13.8205 -1.74594 0.5
  endloop
endfacet
facet normal 0 0 1
  outer loop
    vertex -10.0969 -7.57236 0.5
    vertex -8.87956 -10.7335 0.5
    vertex -7.71169 -8.48779 0.5
  endloop
endfacet
facet normal 0 0 1
  outer loop
    vertex -9.67124 -5.32429 0.5
    vertex -10.0969 -7.57236 0.5
    vertex -7.71169 -8.48779 0.5
  endloop
endfacet
facet normal 0 -0 1
  outer loop
    vertex -8.08375 8.90959 0.5
    vertex -5.93127 12.6046 0.5
    vertex -8.87956 10.7335 0.5
  endloop
endfacet
facet normal 0 0 1
  outer loop
    vertex -8.08375 8.90959 0.5
    vertex -11.2699 8.18807 0.5
    vertex -9.33274 6.58956 0.5
  endloop
endfacet
facet normal 0 0 1
  outer loop
    vertex -11.2699 8.18807 0.5
    vertex -8.08375 8.90959 0.5
    vertex -8.87956 10.7335 0.5
  endloop
endfacet
facet normal 0 0 1
  outer loop
    vertex -10.0969 -7.57236 0.5
    vertex -12.9521 -5.12812 0.5
    vertex -11.2699 -8.18807 0.5
  endloop
endfacet
facet normal 0 0 1
  outer loop
    vertex -8.87956 -10.7335 0.5
    vertex -10.0969 -7.57236 0.5
    vertex -11.2699 -8.18807 0.5
  endloop
endfacet
facet normal -0 0 1
  outer loop
    vertex 6.20871 7.94248 0.5
    vertex 9.41883 7.81325 0.5
    vertex 7.46427 11.7618 0.5
  endloop
endfacet
facet normal 0 0 1
  outer loop
    vertex 9.41883 7.81325 0.5
    vertex 6.20871 7.94248 0.5
    vertex 7.98647 5.40732 0.5
  endloop
endfacet
facet normal 0 -0 1
  outer loop
    vertex 7.46427 -11.7618 0.5
    vertex 8.47783 -8.35337 0.5
    vertex 5.68428 -9.39343 0.5
  endloop
endfacet
facet normal 0 0 1
  outer loop
    vertex 8.47783 -8.35337 0.5
    vertex 7.36612 -5.65109 0.5
    vertex 5.68428 -9.39343 0.5
  endloop
endfacet
facet normal 0 0 1
  outer loop
    vertex -11.2216 5.00967 0.5
    vertex -13.8205 1.74594 0.5
    vertex -9.38499 3.31132 0.5
  endloop
endfacet
facet normal 0 0 1
  outer loop
    vertex -9.33274 6.58956 0.5
    vertex -11.2216 5.00967 0.5
    vertex -9.38499 3.31132 0.5
  endloop
endfacet
facet normal 0 0 1
  outer loop
    vertex 4.30473 -13.2486 0.5
    vertex 2.50965 -10.3507 0.5
    vertex 0.874696 -13.9029 0.5
  endloop
endfacet
facet normal -0 0 1
  outer loop
    vertex -2.61029 13.6836 0.5
    vertex 0.252245 11.3976 0.5
    vertex 0.874696 13.9029 0.5
  endloop
endfacet
facet normal 0 0 1
  outer loop
    vertex 7.93876 0.321524 0.5
    vertex 6.03477 -2.53075 0.5
    vertex 9.88592 -2.06989 0.5
  endloop
endfacet
facet normal 0 0 1
  outer loop
    vertex -2.61029 -13.6836 0.5
    vertex -2.96648 -9.8341 0.5
    vertex -5.93127 -12.6046 0.5
  endloop
endfacet
facet normal 0 0 1
  outer loop
    vertex -3.47594 -5.97586 0.5
    vertex -2.96648 -9.8341 0.5
    vertex 0.185344 -7.49987 0.5
  endloop
endfacet
facet normal 0 0 1
  outer loop
    vertex 9.68657 2.93008 0.5
    vertex 6.36363 2.93481 0.5
    vertex 7.93876 0.321524 0.5
  endloop
endfacet
facet normal -0 0 1
  outer loop
    vertex 6.36363 2.93481 0.5
    vertex 9.68657 2.93008 0.5
    vertex 7.98647 5.40732 0.5
  endloop
endfacet
facet normal 0 -0 1
  outer loop
    vertex -0.485352 -10.9915 0.5
    vertex 0.185344 -7.49987 0.5
    vertex -2.96648 -9.8341 0.5
  endloop
endfacet
facet normal 0 0 1
  outer loop
    vertex 0.185344 -7.49987 0.5
    vertex -0.485352 -10.9915 0.5
    vertex 2.50965 -10.3507 0.5
  endloop
endfacet
facet normal 0 -0 1
  outer loop
    vertex -2.61029 -13.6836 0.5
    vertex -0.485352 -10.9915 0.5
    vertex -2.96648 -9.8341 0.5
  endloop
endfacet
facet normal 0 0 1
  outer loop
    vertex -3.47594 -5.97586 0.5
    vertex -5.35321 -8.55732 0.5
    vertex -2.96648 -9.8341 0.5
  endloop
endfacet
facet normal 0 -0 1
  outer loop
    vertex -5.35321 -8.55732 0.5
    vertex -3.47594 -5.97586 0.5
    vertex -6.68066 -5.88424 0.5
  endloop
endfacet
facet normal 0 0 1
  outer loop
    vertex -5.35321 -8.55732 0.5
    vertex -5.93127 -12.6046 0.5
    vertex -2.96648 -9.8341 0.5
  endloop
endfacet
facet normal -0 0 1
  outer loop
    vertex -1.13509 1.9127 0.5
    vertex 1.19139 -0.7114 0.5
    vertex 2.38479 3.32649 0.5
  endloop
endfacet
facet normal 0 0 1
  outer loop
    vertex -1.56007 5.3057 0.5
    vertex -1.13509 1.9127 0.5
    vertex 2.38479 3.32649 0.5
  endloop
endfacet
facet normal 0 0 1
  outer loop
    vertex 1.19139 -0.7114 0.5
    vertex -1.13509 1.9127 0.5
    vertex -3.04381 -0.937926 0.5
  endloop
endfacet
facet normal 0 0 1
  outer loop
    vertex -4.43883 2.97578 0.5
    vertex -7.38492 0.0707836 0.5
    vertex -3.04381 -0.937926 0.5
  endloop
endfacet
facet normal 0 0 1
  outer loop
    vertex -0.934319 -3.75809 0.5
    vertex -3.47594 -5.97586 0.5
    vertex 0.185344 -7.49987 0.5
  endloop
endfacet
facet normal 0 -0 1
  outer loop
    vertex -0.934319 -3.75809 0.5
    vertex 1.19139 -0.7114 0.5
    vertex -3.04381 -0.937926 0.5
  endloop
endfacet
facet normal 0 0 1
  outer loop
    vertex -3.47594 -5.97586 0.5
    vertex -5.28271 -3.1377 0.5
    vertex -6.68066 -5.88424 0.5
  endloop
endfacet
facet normal 0 0 1
  outer loop
    vertex -7.38492 0.0707836 0.5
    vertex -5.28271 -3.1377 0.5
    vertex -3.04381 -0.937926 0.5
  endloop
endfacet
facet normal 0 -0 1
  outer loop
    vertex 9.88592 -2.06989 0.5
    vertex 11.1949 0.437519 0.5
    vertex 7.93876 0.321524 0.5
  endloop
endfacet
facet normal 0 0 1
  outer loop
    vertex -5.53537 9.10052 0.5
    vertex -5.93127 12.6046 0.5
    vertex -8.08375 8.90959 0.5
  endloop
endfacet
facet normal 0 0 1
  outer loop
    vertex -5.53537 9.10052 0.5
    vertex -6.71504 5.97212 0.5
    vertex -3.77623 7.45897 0.5
  endloop
endfacet
facet normal 0 -0 1
  outer loop
    vertex -6.71504 5.97212 0.5
    vertex -5.53537 9.10052 0.5
    vertex -8.08375 8.90959 0.5
  endloop
endfacet
facet normal 0 0 1
  outer loop
    vertex 0.965795 6.64012 0.5
    vertex -1.56007 5.3057 0.5
    vertex 2.38479 3.32649 0.5
  endloop
endfacet
facet normal 0 0 1
  outer loop
    vertex 3.34906 7.09616 0.5
    vertex 0.965795 6.64012 0.5
    vertex 2.38479 3.32649 0.5
  endloop
endfacet
facet normal 0 -0 1
  outer loop
    vertex 4.61386 0.26369 0.5
    vertex 6.36363 2.93481 0.5
    vertex 2.38479 3.32649 0.5
  endloop
endfacet
facet normal 0 0 1
  outer loop
    vertex 1.19139 -0.7114 0.5
    vertex 4.61386 0.26369 0.5
    vertex 2.38479 3.32649 0.5
  endloop
endfacet
facet normal 0 -0 1
  outer loop
    vertex -7.38492 0.0707836 0.5
    vertex -7.03128 3.07679 0.5
    vertex -9.38499 3.31132 0.5
  endloop
endfacet
facet normal 0 0 1
  outer loop
    vertex -6.71504 5.97212 0.5
    vertex -7.03128 3.07679 0.5
    vertex -4.43883 2.97578 0.5
  endloop
endfacet
facet normal 0 -0 1
  outer loop
    vertex -7.03128 3.07679 0.5
    vertex -6.71504 5.97212 0.5
    vertex -9.38499 3.31132 0.5
  endloop
endfacet
facet normal 0 0 1
  outer loop
    vertex -7.03128 3.07679 0.5
    vertex -7.38492 0.0707836 0.5
    vertex -4.43883 2.97578 0.5
  endloop
endfacet
facet normal 0 0 1
  outer loop
    vertex 5.24596 -4.83331 0.5
    vertex 3.98305 -6.99503 0.5
    vertex 7.36612 -5.65109 0.5
  endloop
endfacet
facet normal 0 -0 1
  outer loop
    vertex 5.24596 -4.83331 0.5
    vertex 6.03477 -2.53075 0.5
    vertex 2.76655 -4.07622 0.5
  endloop
endfacet
facet normal 0 0 1
  outer loop
    vertex 6.03477 -2.53075 0.5
    vertex 5.24596 -4.83331 0.5
    vertex 7.36612 -5.65109 0.5
  endloop
endfacet
facet normal 0 -0 1
  outer loop
    vertex 3.98305 -6.99503 0.5
    vertex 5.24596 -4.83331 0.5
    vertex 2.76655 -4.07622 0.5
  endloop
endfacet
facet normal 0 0 1
  outer loop
    vertex 3.76981 -1.75854 0.5
    vertex 1.19139 -0.7114 0.5
    vertex 2.76655 -4.07622 0.5
  endloop
endfacet
facet normal -0 0 1
  outer loop
    vertex 3.76981 -1.75854 0.5
    vertex 6.03477 -2.53075 0.5
    vertex 4.61386 0.26369 0.5
  endloop
endfacet
facet normal 0 0 1
  outer loop
    vertex 6.03477 -2.53075 0.5
    vertex 3.76981 -1.75854 0.5
    vertex 2.76655 -4.07622 0.5
  endloop
endfacet
facet normal -0 0 1
  outer loop
    vertex 1.19139 -0.7114 0.5
    vertex 3.76981 -1.75854 0.5
    vertex 4.61386 0.26369 0.5
  endloop
endfacet
facet normal 0 0 1
  outer loop
    vertex 10.5226 5.37155 0.5
    vertex 7.98647 5.40732 0.5
    vertex 9.68657 2.93008 0.5
  endloop
endfacet
facet normal 0 0 1
  outer loop
    vertex 13.4927 3.46435 0.5
    vertex 10.5226 5.37155 0.5
    vertex 9.68657 2.93008 0.5
  endloop
endfacet
facet normal 0 0 1
  outer loop
    vertex -3.22945 -3.34723 0.5
    vertex -3.47594 -5.97586 0.5
    vertex -0.934319 -3.75809 0.5
  endloop
endfacet
facet normal 0 -0 1
  outer loop
    vertex -3.22945 -3.34723 0.5
    vertex -3.04381 -0.937926 0.5
    vertex -5.28271 -3.1377 0.5
  endloop
endfacet
facet normal 0 0 1
  outer loop
    vertex -3.04381 -0.937926 0.5
    vertex -3.22945 -3.34723 0.5
    vertex -0.934319 -3.75809 0.5
  endloop
endfacet
facet normal 0 -0 1
  outer loop
    vertex -3.47594 -5.97586 0.5
    vertex -3.22945 -3.34723 0.5
    vertex -5.28271 -3.1377 0.5
  endloop
endfacet
facet normal 0 0 1
  outer loop
    vertex 6.36363 2.93481 0.5
    vertex 5.29605 5.29285 0.5
    vertex 2.38479 3.32649 0.5
  endloop
endfacet
facet normal -0 0 1
  outer loop
    vertex 5.29605 5.29285 0.5
    vertex 6.36363 2.93481 0.5
    vertex 7.98647 5.40732 0.5
  endloop
endfacet
facet normal 0 0 1
  outer loop
    vertex 5.29605 5.29285 0.5
    vertex 3.34906 7.09616 0.5
    vertex 2.38479 3.32649 0.5
  endloop
endfacet
facet normal 0 0 1
  outer loop
    vertex 1.55173 8.89792 0.5
    vertex -0.896536 8.57434 0.5
    vertex 0.965795 6.64012 0.5
  endloop
endfacet
facet normal 0 0 1
  outer loop
    vertex 3.34906 7.09616 0.5
    vertex 1.55173 8.89792 0.5
    vertex 0.965795 6.64012 0.5
  endloop
endfacet
facet normal -0 0 1
  outer loop
    vertex -4.2016 5.43028 0.5
    vertex -1.56007 5.3057 0.5
    vertex -3.77623 7.45897 0.5
  endloop
endfacet
facet normal 0 0 1
  outer loop
    vertex -4.2016 5.43028 0.5
    vertex -6.71504 5.97212 0.5
    vertex -4.43883 2.97578 0.5
  endloop
endfacet
facet normal -0 0 1
  outer loop
    vertex -6.71504 5.97212 0.5
    vertex -4.2016 5.43028 0.5
    vertex -3.77623 7.45897 0.5
  endloop
endfacet
facet normal 0 0 1
  outer loop
    vertex -1.56007 5.3057 0.5
    vertex -4.2016 5.43028 0.5
    vertex -4.43883 2.97578 0.5
  endloop
endfacet
facet normal 0 -0 1
  outer loop
    vertex 10.5501 -5.30729 0.5
    vertex 11.8129 -2.12415 0.5
    vertex 9.88592 -2.06989 0.5
  endloop
endfacet
facet normal 0 0 1
  outer loop
    vertex 11.1949 0.437519 0.5
    vertex 9.88592 -2.06989 0.5
    vertex 11.8129 -2.12415 0.5
  endloop
endfacet
facet normal 0 0 1
  outer loop
    vertex 10.5501 -5.30729 0.5
    vertex 10.1548 -9.536 0.5
    vertex 12.2073 -6.71101 0.5
  endloop
endfacet
facet normal 0 0 1
  outer loop
    vertex 13.4927 -3.46435 0.5
    vertex 10.5501 -5.30729 0.5
    vertex 12.2073 -6.71101 0.5
  endloop
endfacet
facet normal -0 0 1
  outer loop
    vertex 10.5226 5.37155 0.5
    vertex 13.4927 3.46435 0.5
    vertex 12.2073 6.71101 0.5
  endloop
endfacet
facet normal 0 0 1
  outer loop
    vertex 9.41883 7.81325 0.5
    vertex 10.5226 5.37155 0.5
    vertex 12.2073 6.71101 0.5
  endloop
endfacet
facet normal 0 0 1
  outer loop
    vertex 10.5226 5.37155 0.5
    vertex 9.41883 7.81325 0.5
    vertex 7.98647 5.40732 0.5
  endloop
endfacet
facet normal 0 0 1
  outer loop
    vertex -0.896536 8.57434 0.5
    vertex -3.17058 10.5573 0.5
    vertex -3.77623 7.45897 0.5
  endloop
endfacet
facet normal -0 0 1
  outer loop
    vertex 1.55173 8.89792 0.5
    vertex 3.34906 7.09616 0.5
    vertex 3.65078 10.5992 0.5
  endloop
endfacet
facet normal 0 0 1
  outer loop
    vertex 0.252245 11.3976 0.5
    vertex 1.55173 8.89792 0.5
    vertex 3.65078 10.5992 0.5
  endloop
endfacet
facet normal 0 0 1
  outer loop
    vertex 1.55173 8.89792 0.5
    vertex 0.252245 11.3976 0.5
    vertex -0.896536 8.57434 0.5
  endloop
endfacet
facet normal 0 0 1
  outer loop
    vertex -7.38492 0.0707836 0.5
    vertex -7.99259 -3.19455 0.5
    vertex -5.28271 -3.1377 0.5
  endloop
endfacet
facet normal -0 0 1
  outer loop
    vertex -7.99259 -3.19455 0.5
    vertex -6.68066 -5.88424 0.5
    vertex -5.28271 -3.1377 0.5
  endloop
endfacet
facet normal 0 -0 1
  outer loop
    vertex -5.93127 -12.6046 0.5
    vertex -5.35321 -8.55732 0.5
    vertex -7.71169 -8.48779 0.5
  endloop
endfacet
facet normal 0 0 1
  outer loop
    vertex -5.35321 -8.55732 0.5
    vertex -6.68066 -5.88424 0.5
    vertex -7.71169 -8.48779 0.5
  endloop
endfacet
facet normal 0 0 1
  outer loop
    vertex -10.9375 -1.84913 0.5
    vertex -12.9521 -5.12812 0.5
    vertex -9.67124 -5.32429 0.5
  endloop
endfacet
facet normal 0 0 1
  outer loop
    vertex -12.9521 -5.12812 0.5
    vertex -10.0969 -7.57236 0.5
    vertex -9.67124 -5.32429 0.5
  endloop
endfacet
facet normal 0 -0 1
  outer loop
    vertex 6.20871 7.94248 0.5
    vertex 7.46427 11.7618 0.5
    vertex 3.65078 10.5992 0.5
  endloop
endfacet
facet normal 0 0 1
  outer loop
    vertex 3.34906 7.09616 0.5
    vertex 6.20871 7.94248 0.5
    vertex 3.65078 10.5992 0.5
  endloop
endfacet
facet normal 0 0 1
  outer loop
    vertex 3.65078 10.5992 0.5
    vertex 7.46427 11.7618 0.5
    vertex 4.30473 13.2486 0.5
  endloop
endfacet
facet normal 0 0 1
  outer loop
    vertex 0.874696 13.9029 0.5
    vertex 3.65078 10.5992 0.5
    vertex 4.30473 13.2486 0.5
  endloop
endfacet
facet normal 0 0 1
  outer loop
    vertex 3.65078 10.5992 0.5
    vertex 0.874696 13.9029 0.5
    vertex 0.252245 11.3976 0.5
  endloop
endfacet
facet normal -0 0 1
  outer loop
    vertex 3.34906 7.09616 0.5
    vertex 5.29605 5.29285 0.5
    vertex 6.20871 7.94248 0.5
  endloop
endfacet
facet normal 0 0 1
  outer loop
    vertex 5.29605 5.29285 0.5
    vertex 7.98647 5.40732 0.5
    vertex 6.20871 7.94248 0.5
  endloop
endfacet
facet normal 0 0 1
  outer loop
    vertex -0.485352 -10.9915 0.5
    vertex -2.61029 -13.6836 0.5
    vertex 0.874696 -13.9029 0.5
  endloop
endfacet
facet normal 0 0 1
  outer loop
    vertex 2.50965 -10.3507 0.5
    vertex -0.485352 -10.9915 0.5
    vertex 0.874696 -13.9029 0.5
  endloop
endfacet
facet normal 0 0 1
  outer loop
    vertex 10.5501 -5.30729 0.5
    vertex 13.4927 -3.46435 0.5
    vertex 11.8129 -2.12415 0.5
  endloop
endfacet
facet normal 0 0 1
  outer loop
    vertex -1.13509 1.9127 0.5
    vertex -1.56007 5.3057 0.5
    vertex -4.43883 2.97578 0.5
  endloop
endfacet
facet normal 0 -0 1
  outer loop
    vertex -3.04381 -0.937926 0.5
    vertex -1.13509 1.9127 0.5
    vertex -4.43883 2.97578 0.5
  endloop
endfacet
facet normal 0 0 1
  outer loop
    vertex 13.4927 3.46435 0.5
    vertex 11.1949 0.437519 0.5
    vertex 13.9304 0 0.5
  endloop
endfacet
facet normal 0 0 1
  outer loop
    vertex 11.1949 0.437519 0.5
    vertex 11.8129 -2.12415 0.5
    vertex 13.9304 0 0.5
  endloop
endfacet
facet normal 0 -0 1
  outer loop
    vertex 11.1949 0.437519 0.5
    vertex 13.4927 3.46435 0.5
    vertex 9.68657 2.93008 0.5
  endloop
endfacet
facet normal 0 0 1
  outer loop
    vertex 7.93876 0.321524 0.5
    vertex 11.1949 0.437519 0.5
    vertex 9.68657 2.93008 0.5
  endloop
endfacet
facet normal 0 0 1
  outer loop
    vertex -5.93127 12.6046 0.5
    vertex -5.53537 9.10052 0.5
    vertex -3.17058 10.5573 0.5
  endloop
endfacet
facet normal -0 0 1
  outer loop
    vertex -5.53537 9.10052 0.5
    vertex -3.77623 7.45897 0.5
    vertex -3.17058 10.5573 0.5
  endloop
endfacet
facet normal 0 -0 1
  outer loop
    vertex -1.56007 5.3057 0.5
    vertex -0.896536 8.57434 0.5
    vertex -3.77623 7.45897 0.5
  endloop
endfacet
facet normal 0 0 1
  outer loop
    vertex -0.896536 8.57434 0.5
    vertex -1.56007 5.3057 0.5
    vertex 0.965795 6.64012 0.5
  endloop
endfacet
facet normal 0 -0 1
  outer loop
    vertex 6.03477 -2.53075 0.5
    vertex 7.93876 0.321524 0.5
    vertex 4.61386 0.26369 0.5
  endloop
endfacet
facet normal 0 0 1
  outer loop
    vertex 7.93876 0.321524 0.5
    vertex 6.36363 2.93481 0.5
    vertex 4.61386 0.26369 0.5
  endloop
endfacet
facet normal 0 0 1
  outer loop
    vertex 1.19139 -0.7114 0.5
    vertex -0.934319 -3.75809 0.5
    vertex 2.76655 -4.07622 0.5
  endloop
endfacet
facet normal 0 0 1
  outer loop
    vertex -0.934319 -3.75809 0.5
    vertex 0.185344 -7.49987 0.5
    vertex 2.76655 -4.07622 0.5
  endloop
endfacet
facet normal -0 0 1
  outer loop
    vertex 2.50965 -10.3507 0.5
    vertex 4.30473 -13.2486 0.5
    vertex 5.68428 -9.39343 0.5
  endloop
endfacet
facet normal 0 0 1
  outer loop
    vertex 3.98305 -6.99503 0.5
    vertex 2.50965 -10.3507 0.5
    vertex 5.68428 -9.39343 0.5
  endloop
endfacet
endsolid Created by Gmsh
