solid Created by Gmsh
facet normal 0.995974 0.0896393 0
  outer loop
    vertex 13.9304 0 0.5
    vertex 13.7065 2.48737 -0.5
    vertex 13.7065 2.48737 0.5
  endloop
endfacet
facet normal 0.995974 0.0896393 0
  outer loop
    vertex 13.9304 0 0.5
    vertex 13.9304 0 -0.5
    vertex 13.7065 2.48737 -0.5
  endloop
endfacet
facet normal 0.963963 0.266037 0
  outer loop
    vertex 13.7065 2.48737 -0.5
    vertex 13.0421 4.89479 -0.5
    vertex 13.0421 4.89479 0.5
  endloop
endfacet
facet normal 0.963963 0.266037 -0
  outer loop
    vertex 13.7065 2.48737 -0.5
    vertex 13.0421 4.89479 0.5
    vertex 13.7065 2.48737 0.5
  endloop
endfacet
facet normal 0.900969 0.433884 -0
  outer loop
    vertex 13.0421 4.89479 -0.5
    vertex 11.9585 7.14488 -0.5
    vertex 13.0421 4.89479 0.5
  endloop
endfacet
facet normal 0.900969 0.433884 0
  outer loop
    vertex 13.0421 4.89479 0.5
    vertex 11.9585 7.14488 -0.5
    vertex 11.9585 7.14488 0.5
  endloop
endfacet
facet normal 0.809017 0.587785 0
  outer loop
    vertex 11.9585 7.14488 -0.5
    vertex 10.4906 9.16534 -0.5
    vertex 10.4906 9.16534 0.5
  endloop
endfacet
facet normal 0.809017 0.587785 -0
  outer loop
    vertex 11.9585 7.14488 -0.5
    vertex 10.4906 9.16534 0.5
    vertex 11.9585 7.14488 0.5
  endloop
endfacet
facet normal 0.691063 0.722795 -0
  outer loop
    vertex 10.4906 9.16534 -0.5
    vertex 8.68545 10.8912 -0.5
    vertex 10.4906 9.16534 0.5
  endloop
endfacet
facet normal 0.691063 0.722795 0
  outer loop
    vertex 10.4906 9.16534 0.5
    vertex 8.68545 10.8912 -0.5
    vertex 8.68545 10.8912 0.5
  endloop
endfacet
facet normal 0.550897 0.834573 -0
  outer loop
    vertex 8.68545 10.8912 -0.5
    vertex 6.60117 12.267 -0.5
    vertex 8.68545 10.8912 0.5
  endloop
endfacet
facet normal 0.550897 0.834573 0
  outer loop
    vertex 8.68545 10.8912 0.5
    vertex 6.60117 12.267 -0.5
    vertex 6.60117 12.267 0.5
  endloop
endfacet
facet normal 0.393025 0.919528 -0
  outer loop
    vertex 6.60117 12.267 -0.5
    vertex 4.30473 13.2486 -0.5
    vertex 6.60117 12.267 0.5
  endloop
endfacet
facet normal 0.393025 0.919528 0
  outer loop
    vertex 6.60117 12.267 0.5
    vertex 4.30473 13.2486 -0.5
    vertex 4.30473 13.2486 0.5
  endloop
endfacet
facet normal 0.222521 0.974928 0
  outer loop
    vertex 4.30473 13.2486 -0.5
    vertex 1.86992 13.8043 -0.5
    vertex 1.86992 13.8043 0.5
  endloop
endfacet
facet normal 0.222521 0.974928 -0
  outer loop
    vertex 4.30473 13.2486 -0.5
    vertex 1.86992 13.8043 0.5
    vertex 4.30473 13.2486 0.5
  endloop
endfacet
facet normal 0.0448648 0.998993 0
  outer loop
    vertex 1.86992 13.8043 0.5
    vertex 1.86992 13.8043 -0.5
    vertex -0.624984 13.9164 -0.5
  endloop
endfacet
facet normal 0.0448648 0.998993 0
  outer loop
    vertex 1.86992 13.8043 0.5
    vertex -0.624984 13.9164 -0.5
    vertex -0.624984 13.9164 0.5
  endloop
endfacet
facet normal -0.134233 0.99095 0
  outer loop
    vertex -0.624984 13.9164 0.5
    vertex -0.624984 13.9164 -0.5
    vertex -3.0998 13.5811 0.5
  endloop
endfacet
facet normal -0.134233 0.99095 0
  outer loop
    vertex -0.624984 13.9164 -0.5
    vertex -3.0998 13.5811 -0.5
    vertex -3.0998 13.5811 0.5
  endloop
endfacet
facet normal -0.309017 0.951057 0
  outer loop
    vertex -3.0998 13.5811 0.5
    vertex -3.0998 13.5811 -0.5
    vertex -5.47499 12.8094 -0.5
  endloop
endfacet
facet normal -0.309017 0.951057 0
  outer loop
    vertex -3.0998 13.5811 0.5
    vertex -5.47499 12.8094 -0.5
    vertex -5.47499 12.8094 0.5
  endloop
endfacet
facet normal -0.473869 0.880596 0
  outer loop
    vertex -5.47499 12.8094 0.5
    vertex -5.47499 12.8094 -0.5
    vertex -7.67421 11.6259 -0.5
  endloop
endfacet
facet normal -0.473869 0.880596 0
  outer loop
    vertex -5.47499 12.8094 0.5
    vertex -7.67421 11.6259 -0.5
    vertex -7.67421 11.6259 0.5
  endloop
endfacet
facet normal -0.62349 0.781831 0
  outer loop
    vertex -7.67421 11.6259 -0.5
    vertex -9.62677 10.0688 -0.5
    vertex -9.62677 10.0688 0.5
  endloop
endfacet
facet normal -0.62349 0.781831 0
  outer loop
    vertex -7.67421 11.6259 -0.5
    vertex -9.62677 10.0688 0.5
    vertex -7.67421 11.6259 0.5
  endloop
endfacet
facet normal -0.753071 0.657939 0
  outer loop
    vertex -9.62677 10.0688 -0.5
    vertex -11.2699 8.18807 -0.5
    vertex -9.62677 10.0688 0.5
  endloop
endfacet
facet normal -0.753071 0.657939 0
  outer loop
    vertex -9.62677 10.0688 0.5
    vertex -11.2699 8.18807 -0.5
    vertex -11.2699 8.18807 0.5
  endloop
endfacet
facet normal -0.858449 0.512899 0
  outer loop
    vertex -11.2699 8.18807 0.5
    vertex -11.2699 8.18807 -0.5
    vertex -12.5508 6.04417 -0.5
  endloop
endfacet
facet normal -0.858449 0.512899 0
  outer loop
    vertex -11.2699 8.18807 0.5
    vertex -12.5508 6.04417 -0.5
    vertex -12.5508 6.04417 0.5
  endloop
endfacet
facet normal -0.936235 0.351375 0
  outer loop
    vertex -12.5508 6.04417 -0.5
    vertex -13.4284 3.706 -0.5
    vertex -13.4284 3.706 0.5
  endloop
endfacet
facet normal -0.936235 0.351375 0
  outer loop
    vertex -12.5508 6.04417 -0.5
    vertex -13.4284 3.706 0.5
    vertex -12.5508 6.04417 0.5
  endloop
endfacet
facet normal -0.98393 0.178557 0
  outer loop
    vertex -13.4284 3.706 -0.5
    vertex -13.8743 1.24871 -0.5
    vertex -13.8743 1.24871 0.5
  endloop
endfacet
facet normal -0.98393 0.178557 0
  outer loop
    vertex -13.4284 3.706 -0.5
    vertex -13.8743 1.24871 0.5
    vertex -13.4284 3.706 0.5
  endloop
endfacet
facet normal -1 4.26766e-15 0
  outer loop
    vertex -13.8743 1.24871 0.5
    vertex -13.8743 1.24871 -0.5
    vertex -13.8743 -1.24871 -0.5
  endloop
endfacet
facet normal -1 4.26766e-15 0
  outer loop
    vertex -13.8743 1.24871 0.5
    vertex -13.8743 -1.24871 -0.5
    vertex -13.8743 -1.24871 0.5
  endloop
endfacet
facet normal -0.98393 -0.178557 -0
  outer loop
    vertex -13.8743 -1.24871 0.5
    vertex -13.8743 -1.24871 -0.5
    vertex -13.4284 -3.706 0.5
  endloop
endfacet
facet normal -0.98393 -0.178557 0
  outer loop
    vertex -13.8743 -1.24871 -0.5
    vertex -13.4284 -3.706 -0.5
    vertex -13.4284 -3.706 0.5
  endloop
endfacet
facet normal -0.936235 -0.351375 -0
  outer loop
    vertex -13.4284 -3.706 0.5
    vertex -13.4284 -3.706 -0.5
    vertex -12.5508 -6.04417 0.5
  endloop
endfacet
facet normal -0.936235 -0.351375 0
  outer loop
    vertex -13.4284 -3.706 -0.5
    vertex -12.5508 -6.04417 -0.5
    vertex -12.5508 -6.04417 0.5
  endloop
endfacet
facet normal -0.858449 -0.512899 0
  outer loop
    vertex -12.5508 -6.04417 -0.5
    vertex -11.2699 -8.18807 -0.5
    vertex -12.5508 -6.04417 0.5
  endloop
endfacet
facet normal -0.858449 -0.512899 0
  outer loop
    vertex -12.5508 -6.04417 0.5
    vertex -11.2699 -8.18807 -0.5
    vertex -11.2699 -8.18807 0.5
  endloop
endfacet
facet normal -0.753071 -0.657939 -0
  outer loop
    vertex -11.2699 -8.18807 0.5
    vertex -11.2699 -8.18807 -0.5
    vertex -9.62677 -10.0688 -0.5
  endloop
endfacet
facet normal -0.753071 -0.657939 0
  outer loop
    vertex -11.2699 -8.18807 0.5
    vertex -9.62677 -10.0688 -0.5
    vertex -9.62677 -10.0688 0.5
  endloop
endfacet
facet normal -0.62349 -0.781831 0
  outer loop
    vertex -9.62677 -10.0688 -0.5
    vertex -7.67421 -11.6259 -0.5
    vertex -7.67421 -11.6259 0.5
  endloop
endfacet
facet normal -0.62349 -0.781831 0
  outer loop
    vertex -9.62677 -10.0688 -0.5
    vertex -7.67421 -11.6259 0.5
    vertex -9.62677 -10.0688 0.5
  endloop
endfacet
facet normal -0.473869 -0.880596 -0
  outer loop
    vertex -7.67421 -11.6259 0.5
    vertex -7.67421 -11.6259 -0.5
    vertex -5.47499 -12.8094 -0.5
  endloop
endfacet
facet normal -0.473869 -0.880596 0
  outer loop
    vertex -7.67421 -11.6259 0.5
    vertex -5.47499 -12.8094 -0.5
    vertex -5.47499 -12.8094 0.5
  endloop
endfacet
facet normal -0.309017 -0.951057 0
  outer loop
    vertex -5.47499 -12.8094 -0.5
    vertex -3.0998 -13.5811 -0.5
    vertex -3.0998 -13.5811 0.5
  endloop
endfacet
facet normal -0.309017 -0.951057 0
  outer loop
    vertex -5.47499 -12.8094 -0.5
    vertex -3.0998 -13.5811 0.5
    vertex -5.47499 -12.8094 0.5
  endloop
endfacet
facet normal -0.134233 -0.99095 -0
  outer loop
    vertex -3.0998 -13.5811 0.5
    vertex -3.0998 -13.5811 -0.5
    vertex -0.624984 -13.9164 -0.5
  endloop
endfacet
facet normal -0.134233 -0.99095 0
  outer loop
    vertex -3.0998 -13.5811 0.5
    vertex -0.624984 -13.9164 -0.5
    vertex -0.624984 -13.9164 0.5
  endloop
endfacet
facet normal 0.0448648 -0.998993 0
  outer loop
    vertex -0.624984 -13.9164 -0.5
    vertex 1.86992 -13.8043 -0.5
    vertex -0.624984 -13.9164 0.5
  endloop
endfacet
facet normal 0.0448648 -0.998993 0
  outer loop
    vertex -0.624984 -13.9164 0.5
    vertex 1.86992 -13.8043 -0.5
    vertex 1.86992 -13.8043 0.5
  endloop
endfacet
facet normal 0.222521 -0.974928 0
  outer loop
    vertex 1.86992 -13.8043 0.5
    vertex 1.86992 -13.8043 -0.5
    vertex 4.30473 -13.2486 0.5
  endloop
endfacet
facet normal 0.222521 -0.974928 0
  outer loop
    vertex 1.86992 -13.8043 -0.5
    vertex 4.30473 -13.2486 -0.5
    vertex 4.30473 -13.2486 0.5
  endloop
endfacet
facet normal 0.393025 -0.919528 0
  outer loop
    vertex 4.30473 -13.2486 -0.5
    vertex 6.60117 -12.267 -0.5
    vertex 6.60117 -12.267 0.5
  endloop
endfacet
facet normal 0.393025 -0.919528 0
  outer loop
    vertex 4.30473 -13.2486 -0.5
    vertex 6.60117 -12.267 0.5
    vertex 4.30473 -13.2486 0.5
  endloop
endfacet
facet normal 0.550897 -0.834573 0
  outer loop
    vertex 6.60117 -12.267 -0.5
    vertex 8.68545 -10.8912 -0.5
    vertex 6.60117 -12.267 0.5
  endloop
endfacet
facet normal 0.550897 -0.834573 0
  outer loop
    vertex 6.60117 -12.267 0.5
    vertex 8.68545 -10.8912 -0.5
    vertex 8.68545 -10.8912 0.5
  endloop
endfacet
facet normal 0.691063 -0.722795 0
  outer loop
    vertex 8.68545 -10.8912 -0.5
    vertex 10.4906 -9.16534 -0.5
    vertex 10.4906 -9.16534 0.5
  endloop
endfacet
facet normal 0.691063 -0.722795 0
  outer loop
    vertex 8.68545 -10.8912 -0.5
    vertex 10.4906 -9.16534 0.5
    vertex 8.68545 -10.8912 0.5
  endloop
endfacet
facet normal 0.809017 -0.587785 0
  outer loop
    vertex 10.4906 -9.16534 0.5
    vertex 10.4906 -9.16534 -0.5
    vertex 11.9585 -7.14488 -0.5
  endloop
endfacet
facet normal 0.809017 -0.587785 0
  outer loop
    vertex 10.4906 -9.16534 0.5
    vertex 11.9585 -7.14488 -0.5
    vertex 11.9585 -7.14488 0.5
  endloop
endfacet
facet normal 0.900969 -0.433884 0
  outer loop
    vertex 11.9585 -7.14488 0.5
    vertex 11.9585 -7.14488 -0.5
    vertex 13.0421 -4.89479 0.5
  endloop
endfacet
facet normal 0.900969 -0.433884 0
  outer loop
    vertex 11.9585 -7.14488 -0.5
    vertex 13.0421 -4.89479 -0.5
    vertex 13.0421 -4.89479 0.5
  endloop
endfacet
facet normal 0.963963 -0.266037 0
  outer loop
    vertex 13.0421 -4.89479 0.5
    vertex 13.0421 -4.89479 -0.5
    vertex 13.7065 -2.48737 -0.5
  endloop
endfacet
facet normal 0.963963 -0.266037 0
  outer loop
    vertex 13.0421 -4.89479 0.5
    vertex 13.7065 -2.48737 -0.5
    vertex 13.7065 -2.48737 0.5
  endloop
endfacet
facet normal 0.995974 -0.0896393 0
  outer loop
    vertex 13.7065 -2.48737 -0.5
    vertex 13.9304 0 -0.5
    vertex 13.9304 0 0.5
  endloop
endfacet
facet normal 0.995974 -0.0896393 0
  outer loop
    vertex 13.7065 -2.48737 -0.5
    vertex 13.9304 0 0.5
    vertex 13.7065 -2.48737 0.5
  endloop
endfacet
facet normal 0 0 -1
  outer loop
    vertex 3.61583 12.0873 -0.5
    vertex 4.30473 13.2486 -0.5
    vertex 6.60117 12.267 -0.5
  endloop
endfacet
facet normal 0 0 -1
  outer loop
    vertex 1.86992 13.8043 -0.5
    vertex 4.30473 13.2486 -0.5
    vertex 3.61583 12.0873 -0.5
  endloop
endfacet
facet normal 0 0 -1
  outer loop
    vertex 4.54997 -9.55633 -0.5
    vertex 3.78225 -11.9019 -0.5
    vertex 2.33372 -10.315 -0.5
  endloop
endfacet
facet normal 0 0 -1
  outer loop
    vertex -10.4633 -5.74388 -0.5
    vertex -8.12905 -5.66578 -0.5
    vertex -9.39972 -7.66307 -0.5
  endloop
endfacet
facet normal 0 0 -1
  outer loop
    vertex -10.4551 5.57723 -0.5
    vertex -8.01063 4.8489 -0.5
    vertex -10.2881 2.73341 -0.5
  endloop
endfacet
facet normal 0 -0 -1
  outer loop
    vertex -10.4551 5.57723 -0.5
    vertex -10.2881 2.73341 -0.5
    vertex -12.1355 3.54488 -0.5
  endloop
endfacet
facet normal 0 0 -1
  outer loop
    vertex -12.5494 -1.40988 -0.5
    vertex -10.9431 -1.5888 -0.5
    vertex -11.7114 -3.6106 -0.5
  endloop
endfacet
facet normal 0 -0 -1
  outer loop
    vertex -9.78866 -3.23295 -0.5
    vertex -8.12905 -5.66578 -0.5
    vertex -10.4633 -5.74388 -0.5
  endloop
endfacet
facet normal 0 0 -1
  outer loop
    vertex -9.78866 -3.23295 -0.5
    vertex -10.9431 -1.5888 -0.5
    vertex -8.94487 -0.0548255 -0.5
  endloop
endfacet
facet normal 0 0 -1
  outer loop
    vertex -11.4694 0.481395 -0.5
    vertex -10.2881 2.73341 -0.5
    vertex -8.94487 -0.0548255 -0.5
  endloop
endfacet
facet normal -0 0 -1
  outer loop
    vertex -8.94487 -0.0548255 -0.5
    vertex -10.9431 -1.5888 -0.5
    vertex -11.4694 0.481395 -0.5
  endloop
endfacet
facet normal 0 0 -1
  outer loop
    vertex -12.0537 -5.44981 -0.5
    vertex -10.4633 -5.74388 -0.5
    vertex -11.2699 -8.18807 -0.5
  endloop
endfacet
facet normal 0 -0 -1
  outer loop
    vertex -11.7114 -3.6106 -0.5
    vertex -10.4633 -5.74388 -0.5
    vertex -12.0537 -5.44981 -0.5
  endloop
endfacet
facet normal 0 0 -1
  outer loop
    vertex -4.46521 -10.0529 -0.5
    vertex -2.1402 -9.42068 -0.5
    vertex -2.89287 -11.9132 -0.5
  endloop
endfacet
facet normal 0 0 -1
  outer loop
    vertex 3.01366 8.55527 -0.5
    vertex 2.55594 10.5 -0.5
    vertex 4.53738 10.1548 -0.5
  endloop
endfacet
facet normal 0 -0 -1
  outer loop
    vertex 1.01094 -11.9257 -0.5
    vertex 1.86992 -13.8043 -0.5
    vertex -0.624984 -13.9164 -0.5
  endloop
endfacet
facet normal 0 0 -1
  outer loop
    vertex 1.01094 -11.9257 -0.5
    vertex 2.33372 -10.315 -0.5
    vertex 3.78225 -11.9019 -0.5
  endloop
endfacet
facet normal 0 0 -1
  outer loop
    vertex 3.78225 -11.9019 -0.5
    vertex 1.86992 -13.8043 -0.5
    vertex 1.01094 -11.9257 -0.5
  endloop
endfacet
facet normal 0 0 -1
  outer loop
    vertex 10.0598 -0.243078 -0.5
    vertex 11.9947 -2.12376 -0.5
    vertex 10.1753 -2.34031 -0.5
  endloop
endfacet
facet normal 0 0 -1
  outer loop
    vertex 11.9832 -0.13358 -0.5
    vertex 11.8411 1.86221 -0.5
    vertex 13.9304 0 -0.5
  endloop
endfacet
facet normal 0 -0 -1
  outer loop
    vertex 11.9832 -0.13358 -0.5
    vertex 11.9947 -2.12376 -0.5
    vertex 10.0598 -0.243078 -0.5
  endloop
endfacet
facet normal 0 0 -1
  outer loop
    vertex 10.0598 -0.243078 -0.5
    vertex 11.8411 1.86221 -0.5
    vertex 11.9832 -0.13358 -0.5
  endloop
endfacet
facet normal 0 0 -1
  outer loop
    vertex 13.9304 0 -0.5
    vertex 11.9947 -2.12376 -0.5
    vertex 11.9832 -0.13358 -0.5
  endloop
endfacet
facet normal 0 0 -1
  outer loop
    vertex -12.5494 -1.40988 -0.5
    vertex -13.8743 -1.24871 -0.5
    vertex -13.8743 1.24871 -0.5
  endloop
endfacet
facet normal 0 -0 -1
  outer loop
    vertex -12.5494 -1.40988 -0.5
    vertex -11.7114 -3.6106 -0.5
    vertex -13.4284 -3.706 -0.5
  endloop
endfacet
facet normal 0 0 -1
  outer loop
    vertex -13.4284 -3.706 -0.5
    vertex -13.8743 -1.24871 -0.5
    vertex -12.5494 -1.40988 -0.5
  endloop
endfacet
facet normal 0 0 -1
  outer loop
    vertex -13.8743 1.24871 -0.5
    vertex -13.4284 3.706 -0.5
    vertex -12.1355 3.54488 -0.5
  endloop
endfacet
facet normal 0 0 -1
  outer loop
    vertex -12.1355 3.54488 -0.5
    vertex -13.4284 3.706 -0.5
    vertex -12.5508 6.04417 -0.5
  endloop
endfacet
facet normal 0 0 -1
  outer loop
    vertex -9.39972 -7.66307 -0.5
    vertex -9.62677 -10.0688 -0.5
    vertex -11.2699 -8.18807 -0.5
  endloop
endfacet
facet normal 0 -0 -1
  outer loop
    vertex 3.78225 -11.9019 -0.5
    vertex 4.30473 -13.2486 -0.5
    vertex 1.86992 -13.8043 -0.5
  endloop
endfacet
facet normal -0 0 -1
  outer loop
    vertex 6.60117 -12.267 -0.5
    vertex 4.30473 -13.2486 -0.5
    vertex 3.78225 -11.9019 -0.5
  endloop
endfacet
facet normal 0 0 -1
  outer loop
    vertex -10.3888 7.63858 -0.5
    vertex -11.2699 8.18807 -0.5
    vertex -9.62677 10.0688 -0.5
  endloop
endfacet
facet normal 0 0 -1
  outer loop
    vertex -12.5508 6.04417 -0.5
    vertex -11.2699 8.18807 -0.5
    vertex -10.3888 7.63858 -0.5
  endloop
endfacet
facet normal -0 0 -1
  outer loop
    vertex -12.0537 -5.44981 -0.5
    vertex -12.5508 -6.04417 -0.5
    vertex -13.4284 -3.706 -0.5
  endloop
endfacet
facet normal 0 0 -1
  outer loop
    vertex -13.4284 -3.706 -0.5
    vertex -11.7114 -3.6106 -0.5
    vertex -12.0537 -5.44981 -0.5
  endloop
endfacet
facet normal 0 0 -1
  outer loop
    vertex -11.2699 -8.18807 -0.5
    vertex -12.5508 -6.04417 -0.5
    vertex -12.0537 -5.44981 -0.5
  endloop
endfacet
facet normal 0 0 -1
  outer loop
    vertex 13.9304 0 -0.5
    vertex 13.7065 -2.48737 -0.5
    vertex 11.9947 -2.12376 -0.5
  endloop
endfacet
facet normal 0 0 -1
  outer loop
    vertex 11.9947 -2.12376 -0.5
    vertex 13.7065 -2.48737 -0.5
    vertex 13.0421 -4.89479 -0.5
  endloop
endfacet
facet normal 0 0 -1
  outer loop
    vertex -2.89287 -11.9132 -0.5
    vertex -3.0998 -13.5811 -0.5
    vertex -5.47499 -12.8094 -0.5
  endloop
endfacet
facet normal 0 0 -1
  outer loop
    vertex -5.47499 -12.8094 -0.5
    vertex -4.46521 -10.0529 -0.5
    vertex -2.89287 -11.9132 -0.5
  endloop
endfacet
facet normal 0 0 -1
  outer loop
    vertex -0.624984 -13.9164 -0.5
    vertex -3.0998 -13.5811 -0.5
    vertex -2.89287 -11.9132 -0.5
  endloop
endfacet
facet normal 0 -0 -1
  outer loop
    vertex 7.22405 -9.1762 -0.5
    vertex 8.68545 -10.8912 -0.5
    vertex 6.60117 -12.267 -0.5
  endloop
endfacet
facet normal 0 0 -1
  outer loop
    vertex 10.4906 -9.16534 -0.5
    vertex 8.68545 -10.8912 -0.5
    vertex 7.22405 -9.1762 -0.5
  endloop
endfacet
facet normal 0 0 -1
  outer loop
    vertex 6.60117 12.267 -0.5
    vertex 8.68545 10.8912 -0.5
    vertex 6.65219 8.93717 -0.5
  endloop
endfacet
facet normal 0 -0 -1
  outer loop
    vertex 6.60117 12.267 -0.5
    vertex 6.65219 8.93717 -0.5
    vertex 4.53738 10.1548 -0.5
  endloop
endfacet
facet normal -0 0 -1
  outer loop
    vertex -2.16245 9.51498 -0.5
    vertex -3.80864 8.15945 -0.5
    vertex -4.33553 10.9675 -0.5
  endloop
endfacet
facet normal 0 0 -1
  outer loop
    vertex -7.45564 -8.63157 -0.5
    vertex -9.39972 -7.66307 -0.5
    vertex -8.12905 -5.66578 -0.5
  endloop
endfacet
facet normal -0 0 -1
  outer loop
    vertex 10.0598 -0.243078 -0.5
    vertex 6.70728 -0.27717 -0.5
    vertex 8.3497 2.31126 -0.5
  endloop
endfacet
facet normal 0 0 -1
  outer loop
    vertex -8.94487 -0.0548255 -0.5
    vertex -6.45545 -1.63375 -0.5
    vertex -7.87964 -3.01227 -0.5
  endloop
endfacet
facet normal 0 0 -1
  outer loop
    vertex -8.12905 -5.66578 -0.5
    vertex -9.78866 -3.23295 -0.5
    vertex -7.87964 -3.01227 -0.5
  endloop
endfacet
facet normal -0 0 -1
  outer loop
    vertex -7.87964 -3.01227 -0.5
    vertex -9.78866 -3.23295 -0.5
    vertex -8.94487 -0.0548255 -0.5
  endloop
endfacet
facet normal 0 0 -1
  outer loop
    vertex 7.07528 -4.7414 -0.5
    vertex 10.1533 -4.40207 -0.5
    vertex 8.75823 -6.90614 -0.5
  endloop
endfacet
facet normal -0 0 -1
  outer loop
    vertex 10.4906 -9.16534 -0.5
    vertex 7.22405 -9.1762 -0.5
    vertex 8.75823 -6.90614 -0.5
  endloop
endfacet
facet normal 0 -0 -1
  outer loop
    vertex 8.47605 -2.44092 -0.5
    vertex 10.1533 -4.40207 -0.5
    vertex 7.07528 -4.7414 -0.5
  endloop
endfacet
facet normal 0 0 -1
  outer loop
    vertex 8.47605 -2.44092 -0.5
    vertex 6.70728 -0.27717 -0.5
    vertex 10.0598 -0.243078 -0.5
  endloop
endfacet
facet normal 0 0 -1
  outer loop
    vertex -3.9508 1.5156 -0.5
    vertex -0.742066 0.266485 -0.5
    vertex -3.03383 -0.892965 -0.5
  endloop
endfacet
facet normal 0 0 -1
  outer loop
    vertex -1.19937 -2.93039 -0.5
    vertex -4.05114 -2.77538 -0.5
    vertex -3.03383 -0.892965 -0.5
  endloop
endfacet
facet normal 0 0 -1
  outer loop
    vertex -3.03383 -0.892965 -0.5
    vertex -0.742066 0.266485 -0.5
    vertex -1.19937 -2.93039 -0.5
  endloop
endfacet
facet normal -0 0 -1
  outer loop
    vertex 3.00684 -2.91814 -0.5
    vertex 1.45453 -3.09541 -0.5
    vertex 2.32317 -0.559213 -0.5
  endloop
endfacet
facet normal 0 0 -1
  outer loop
    vertex 3.00684 -2.91814 -0.5
    vertex 4.8288 -2.67146 -0.5
    vertex 3.03749 -5.15852 -0.5
  endloop
endfacet
facet normal 0 0 -1
  outer loop
    vertex 3.03749 -5.15852 -0.5
    vertex 1.45453 -3.09541 -0.5
    vertex 3.00684 -2.91814 -0.5
  endloop
endfacet
facet normal 0 0 -1
  outer loop
    vertex 2.32317 -0.559213 -0.5
    vertex 4.8288 -2.67146 -0.5
    vertex 3.00684 -2.91814 -0.5
  endloop
endfacet
facet normal 0 0 -1
  outer loop
    vertex -8.94487 -0.0548255 -0.5
    vertex -10.2881 2.73341 -0.5
    vertex -8.75156 2.5073 -0.5
  endloop
endfacet
facet normal 0 -0 -1
  outer loop
    vertex -8.01063 4.8489 -0.5
    vertex -6.70392 2.48731 -0.5
    vertex -8.75156 2.5073 -0.5
  endloop
endfacet
facet normal 0 0 -1
  outer loop
    vertex -8.75156 2.5073 -0.5
    vertex -10.2881 2.73341 -0.5
    vertex -8.01063 4.8489 -0.5
  endloop
endfacet
facet normal 0 -0 -1
  outer loop
    vertex -8.75156 2.5073 -0.5
    vertex -6.70392 2.48731 -0.5
    vertex -8.94487 -0.0548255 -0.5
  endloop
endfacet
facet normal 0 -0 -1
  outer loop
    vertex 6.58983 6.65272 -0.5
    vertex 8.47701 6.69762 -0.5
    vertex 6.53065 4.34111 -0.5
  endloop
endfacet
facet normal -0 0 -1
  outer loop
    vertex 6.58983 6.65272 -0.5
    vertex 4.69946 6.63496 -0.5
    vertex 6.65219 8.93717 -0.5
  endloop
endfacet
facet normal 0 -0 -1
  outer loop
    vertex 6.65219 8.93717 -0.5
    vertex 8.47701 6.69762 -0.5
    vertex 6.58983 6.65272 -0.5
  endloop
endfacet
facet normal 0 0 -1
  outer loop
    vertex 6.53065 4.34111 -0.5
    vertex 4.69946 6.63496 -0.5
    vertex 6.58983 6.65272 -0.5
  endloop
endfacet
facet normal 0 -0 -1
  outer loop
    vertex 5.31146 -6.97043 -0.5
    vertex 7.22405 -9.1762 -0.5
    vertex 4.54997 -9.55633 -0.5
  endloop
endfacet
facet normal 0 -0 -1
  outer loop
    vertex 2.66599 4.61028 -0.5
    vertex 4.52829 2.08476 -0.5
    vertex 2.14591 2.07017 -0.5
  endloop
endfacet
facet normal 0 0 -1
  outer loop
    vertex 2.14591 2.07017 -0.5
    vertex 0.139123 2.87657 -0.5
    vertex 2.66599 4.61028 -0.5
  endloop
endfacet
facet normal 0 0 -1
  outer loop
    vertex 2.14591 2.07017 -0.5
    vertex 4.52829 2.08476 -0.5
    vertex 2.32317 -0.559213 -0.5
  endloop
endfacet
facet normal 0 0 -1
  outer loop
    vertex 10.0823 4.06012 -0.5
    vertex 8.47701 6.69762 -0.5
    vertex 10.8101 6.39255 -0.5
  endloop
endfacet
facet normal 0 0 -1
  outer loop
    vertex 10.8101 6.39255 -0.5
    vertex 8.47701 6.69762 -0.5
    vertex 10.4906 9.16534 -0.5
  endloop
endfacet
facet normal 0 0 -1
  outer loop
    vertex -6.38846 0.349569 -0.5
    vertex -6.45545 -1.63375 -0.5
    vertex -8.94487 -0.0548255 -0.5
  endloop
endfacet
facet normal 0 0 -1
  outer loop
    vertex -6.38846 0.349569 -0.5
    vertex -6.70392 2.48731 -0.5
    vertex -3.9508 1.5156 -0.5
  endloop
endfacet
facet normal 0 0 -1
  outer loop
    vertex -8.94487 -0.0548255 -0.5
    vertex -6.70392 2.48731 -0.5
    vertex -6.38846 0.349569 -0.5
  endloop
endfacet
facet normal 0 0 -1
  outer loop
    vertex -0.624984 -13.9164 -0.5
    vertex -2.89287 -11.9132 -0.5
    vertex -0.885935 -11.3665 -0.5
  endloop
endfacet
facet normal 0 0 -1
  outer loop
    vertex -2.1402 -9.42068 -0.5
    vertex 0.217429 -9.65659 -0.5
    vertex -0.885935 -11.3665 -0.5
  endloop
endfacet
facet normal -0 0 -1
  outer loop
    vertex -0.885935 -11.3665 -0.5
    vertex -2.89287 -11.9132 -0.5
    vertex -2.1402 -9.42068 -0.5
  endloop
endfacet
facet normal 0 0 -1
  outer loop
    vertex -3.81177 -7.59965 -0.5
    vertex -1.59544 -6.24148 -0.5
    vertex -2.1402 -9.42068 -0.5
  endloop
endfacet
facet normal 0 0 -1
  outer loop
    vertex -4.0245 -5.10619 -0.5
    vertex -1.59544 -6.24148 -0.5
    vertex -3.81177 -7.59965 -0.5
  endloop
endfacet
facet normal -0 0 -1
  outer loop
    vertex 10.8805 -6.50264 -0.5
    vertex 8.75823 -6.90614 -0.5
    vertex 10.1533 -4.40207 -0.5
  endloop
endfacet
facet normal 0 0 -1
  outer loop
    vertex 10.4906 -9.16534 -0.5
    vertex 8.75823 -6.90614 -0.5
    vertex 10.8805 -6.50264 -0.5
  endloop
endfacet
facet normal 0 -0 -1
  outer loop
    vertex 10.0832 1.99763 -0.5
    vertex 11.8411 1.86221 -0.5
    vertex 10.0598 -0.243078 -0.5
  endloop
endfacet
facet normal 0 0 -1
  outer loop
    vertex 10.0832 1.99763 -0.5
    vertex 8.3497 2.31126 -0.5
    vertex 10.0823 4.06012 -0.5
  endloop
endfacet
facet normal 0 0 -1
  outer loop
    vertex 10.0823 4.06012 -0.5
    vertex 11.8411 1.86221 -0.5
    vertex 10.0832 1.99763 -0.5
  endloop
endfacet
facet normal 0 0 -1
  outer loop
    vertex 10.0598 -0.243078 -0.5
    vertex 8.3497 2.31126 -0.5
    vertex 10.0832 1.99763 -0.5
  endloop
endfacet
facet normal -0 0 -1
  outer loop
    vertex 6.52898 2.11499 -0.5
    vertex 4.52829 2.08476 -0.5
    vertex 6.53065 4.34111 -0.5
  endloop
endfacet
facet normal 0 0 -1
  outer loop
    vertex 6.52898 2.11499 -0.5
    vertex 8.3497 2.31126 -0.5
    vertex 6.70728 -0.27717 -0.5
  endloop
endfacet
facet normal 0 0 -1
  outer loop
    vertex 6.70728 -0.27717 -0.5
    vertex 4.52829 2.08476 -0.5
    vertex 6.52898 2.11499 -0.5
  endloop
endfacet
facet normal 0 -0 -1
  outer loop
    vertex 6.53065 4.34111 -0.5
    vertex 8.3497 2.31126 -0.5
    vertex 6.52898 2.11499 -0.5
  endloop
endfacet
facet normal 0 0 -1
  outer loop
    vertex 7.07528 -4.7414 -0.5
    vertex 4.8288 -2.67146 -0.5
    vertex 6.75017 -2.47538 -0.5
  endloop
endfacet
facet normal 0 0 -1
  outer loop
    vertex 6.70728 -0.27717 -0.5
    vertex 8.47605 -2.44092 -0.5
    vertex 6.75017 -2.47538 -0.5
  endloop
endfacet
facet normal -0 0 -1
  outer loop
    vertex 6.75017 -2.47538 -0.5
    vertex 4.8288 -2.67146 -0.5
    vertex 6.70728 -0.27717 -0.5
  endloop
endfacet
facet normal 0 0 -1
  outer loop
    vertex 6.75017 -2.47538 -0.5
    vertex 8.47605 -2.44092 -0.5
    vertex 7.07528 -4.7414 -0.5
  endloop
endfacet
facet normal 0 0 -1
  outer loop
    vertex -1.44764 7.21097 -0.5
    vertex 0.413111 9.50349 -0.5
    vertex 1.32764 6.81433 -0.5
  endloop
endfacet
facet normal 0 0 -1
  outer loop
    vertex 1.32764 6.81433 -0.5
    vertex 0.413111 9.50349 -0.5
    vertex 3.01366 8.55527 -0.5
  endloop
endfacet
facet normal 0 0 -1
  outer loop
    vertex 7.07528 -4.7414 -0.5
    vertex 8.75823 -6.90614 -0.5
    vertex 7.15191 -7.02017 -0.5
  endloop
endfacet
facet normal 0 0 -1
  outer loop
    vertex 7.22405 -9.1762 -0.5
    vertex 5.31146 -6.97043 -0.5
    vertex 7.15191 -7.02017 -0.5
  endloop
endfacet
facet normal 0 0 -1
  outer loop
    vertex 7.15191 -7.02017 -0.5
    vertex 8.75823 -6.90614 -0.5
    vertex 7.22405 -9.1762 -0.5
  endloop
endfacet
facet normal 0 0 -1
  outer loop
    vertex 7.15191 -7.02017 -0.5
    vertex 5.31146 -6.97043 -0.5
    vertex 7.07528 -4.7414 -0.5
  endloop
endfacet
facet normal 0 0 -1
  outer loop
    vertex 0.28557 -1.67427 -0.5
    vertex -0.742066 0.266485 -0.5
    vertex 2.32317 -0.559213 -0.5
  endloop
endfacet
facet normal 0 -0 -1
  outer loop
    vertex 0.28557 -1.67427 -0.5
    vertex 1.45453 -3.09541 -0.5
    vertex -1.19937 -2.93039 -0.5
  endloop
endfacet
facet normal 0 0 -1
  outer loop
    vertex -1.19937 -2.93039 -0.5
    vertex -0.742066 0.266485 -0.5
    vertex 0.28557 -1.67427 -0.5
  endloop
endfacet
facet normal 0 0 -1
  outer loop
    vertex 2.32317 -0.559213 -0.5
    vertex 1.45453 -3.09541 -0.5
    vertex 0.28557 -1.67427 -0.5
  endloop
endfacet
facet normal 0 0 -1
  outer loop
    vertex 0.947234 -7.45547 -0.5
    vertex 3.03749 -5.15852 -0.5
    vertex 2.9965 -8.12693 -0.5
  endloop
endfacet
facet normal -0 0 -1
  outer loop
    vertex 4.54997 -9.55633 -0.5
    vertex 2.33372 -10.315 -0.5
    vertex 2.9965 -8.12693 -0.5
  endloop
endfacet
facet normal 0 0 -1
  outer loop
    vertex -6.45545 -1.63375 -0.5
    vertex -6.38846 0.349569 -0.5
    vertex -4.77594 -0.687386 -0.5
  endloop
endfacet
facet normal 0 -0 -1
  outer loop
    vertex -4.77594 -0.687386 -0.5
    vertex -4.05114 -2.77538 -0.5
    vertex -6.45545 -1.63375 -0.5
  endloop
endfacet
facet normal 0 0 -1
  outer loop
    vertex -4.77594 -0.687386 -0.5
    vertex -6.38846 0.349569 -0.5
    vertex -3.9508 1.5156 -0.5
  endloop
endfacet
facet normal 0 -0 -1
  outer loop
    vertex 4.58515 -0.228399 -0.5
    vertex 4.8288 -2.67146 -0.5
    vertex 2.32317 -0.559213 -0.5
  endloop
endfacet
facet normal 0 0 -1
  outer loop
    vertex 4.58515 -0.228399 -0.5
    vertex 4.52829 2.08476 -0.5
    vertex 6.70728 -0.27717 -0.5
  endloop
endfacet
facet normal -0 0 -1
  outer loop
    vertex 6.70728 -0.27717 -0.5
    vertex 4.8288 -2.67146 -0.5
    vertex 4.58515 -0.228399 -0.5
  endloop
endfacet
facet normal 0 0 -1
  outer loop
    vertex 2.32317 -0.559213 -0.5
    vertex 4.52829 2.08476 -0.5
    vertex 4.58515 -0.228399 -0.5
  endloop
endfacet
facet normal -0 0 -1
  outer loop
    vertex 1.50781 -8.91823 -0.5
    vertex 0.217429 -9.65659 -0.5
    vertex 0.947234 -7.45547 -0.5
  endloop
endfacet
facet normal 0 0 -1
  outer loop
    vertex 1.50781 -8.91823 -0.5
    vertex 2.9965 -8.12693 -0.5
    vertex 2.33372 -10.315 -0.5
  endloop
endfacet
facet normal 0 0 -1
  outer loop
    vertex 2.33372 -10.315 -0.5
    vertex 0.217429 -9.65659 -0.5
    vertex 1.50781 -8.91823 -0.5
  endloop
endfacet
facet normal 0 0 -1
  outer loop
    vertex 0.947234 -7.45547 -0.5
    vertex 2.9965 -8.12693 -0.5
    vertex 1.50781 -8.91823 -0.5
  endloop
endfacet
facet normal 0 0 -1
  outer loop
    vertex 3.01366 8.55527 -0.5
    vertex 4.53738 10.1548 -0.5
    vertex 4.78551 8.58214 -0.5
  endloop
endfacet
facet normal 0 0 -1
  outer loop
    vertex 6.65219 8.93717 -0.5
    vertex 4.69946 6.63496 -0.5
    vertex 4.78551 8.58214 -0.5
  endloop
endfacet
facet normal 0 0 -1
  outer loop
    vertex 4.78551 8.58214 -0.5
    vertex 4.53738 10.1548 -0.5
    vertex 6.65219 8.93717 -0.5
  endloop
endfacet
facet normal 0 0 -1
  outer loop
    vertex 4.78551 8.58214 -0.5
    vertex 4.69946 6.63496 -0.5
    vertex 3.01366 8.55527 -0.5
  endloop
endfacet
facet normal 0 0 -1
  outer loop
    vertex 0.947234 -7.45547 -0.5
    vertex 0.217429 -9.65659 -0.5
    vertex -0.746849 -8.18766 -0.5
  endloop
endfacet
facet normal 0 0 -1
  outer loop
    vertex -2.1402 -9.42068 -0.5
    vertex -1.59544 -6.24148 -0.5
    vertex -0.746849 -8.18766 -0.5
  endloop
endfacet
facet normal 0 -0 -1
  outer loop
    vertex -0.746849 -8.18766 -0.5
    vertex 0.217429 -9.65659 -0.5
    vertex -2.1402 -9.42068 -0.5
  endloop
endfacet
facet normal 0 0 -1
  outer loop
    vertex -0.746849 -8.18766 -0.5
    vertex -1.59544 -6.24148 -0.5
    vertex 0.947234 -7.45547 -0.5
  endloop
endfacet
facet normal -0 0 -1
  outer loop
    vertex 6.53065 4.34111 -0.5
    vertex 4.52829 2.08476 -0.5
    vertex 4.6061 4.41778 -0.5
  endloop
endfacet
facet normal 0 0 -1
  outer loop
    vertex 2.66599 4.61028 -0.5
    vertex 4.69946 6.63496 -0.5
    vertex 4.6061 4.41778 -0.5
  endloop
endfacet
facet normal -0 0 -1
  outer loop
    vertex 4.6061 4.41778 -0.5
    vertex 4.52829 2.08476 -0.5
    vertex 2.66599 4.61028 -0.5
  endloop
endfacet
facet normal 0 0 -1
  outer loop
    vertex 4.6061 4.41778 -0.5
    vertex 4.69946 6.63496 -0.5
    vertex 6.53065 4.34111 -0.5
  endloop
endfacet
facet normal 0 0 -1
  outer loop
    vertex -8.12549 9.56395 -0.5
    vertex -9.62677 10.0688 -0.5
    vertex -7.67421 11.6259 -0.5
  endloop
endfacet
facet normal 0 0 -1
  outer loop
    vertex 0.0480722 5.1638 -0.5
    vertex 1.32764 6.81433 -0.5
    vertex 2.66599 4.61028 -0.5
  endloop
endfacet
facet normal -0 0 -1
  outer loop
    vertex 2.66599 4.61028 -0.5
    vertex 0.139123 2.87657 -0.5
    vertex 0.0480722 5.1638 -0.5
  endloop
endfacet
facet normal 0 0 -1
  outer loop
    vertex -1.44764 7.21097 -0.5
    vertex 1.32764 6.81433 -0.5
    vertex 0.0480722 5.1638 -0.5
  endloop
endfacet
facet normal 0 -0 -1
  outer loop
    vertex -6.06289 -4.14594 -0.5
    vertex -5.83758 -6.68229 -0.5
    vertex -8.12905 -5.66578 -0.5
  endloop
endfacet
facet normal -0 0 -1
  outer loop
    vertex -4.0245 -5.10619 -0.5
    vertex -5.83758 -6.68229 -0.5
    vertex -6.06289 -4.14594 -0.5
  endloop
endfacet
facet normal 0 0 -1
  outer loop
    vertex 8.57631 8.92284 -0.5
    vertex 8.68545 10.8912 -0.5
    vertex 10.4906 9.16534 -0.5
  endloop
endfacet
facet normal -0 0 -1
  outer loop
    vertex 8.57631 8.92284 -0.5
    vertex 8.47701 6.69762 -0.5
    vertex 6.65219 8.93717 -0.5
  endloop
endfacet
facet normal 0 0 -1
  outer loop
    vertex 6.65219 8.93717 -0.5
    vertex 8.68545 10.8912 -0.5
    vertex 8.57631 8.92284 -0.5
  endloop
endfacet
facet normal 0 0 -1
  outer loop
    vertex 10.4906 9.16534 -0.5
    vertex 8.47701 6.69762 -0.5
    vertex 8.57631 8.92284 -0.5
  endloop
endfacet
facet normal 0 -0 -1
  outer loop
    vertex 3.01366 8.55527 -0.5
    vertex 4.69946 6.63496 -0.5
    vertex 2.92669 6.65371 -0.5
  endloop
endfacet
facet normal 0 0 -1
  outer loop
    vertex 2.66599 4.61028 -0.5
    vertex 1.32764 6.81433 -0.5
    vertex 2.92669 6.65371 -0.5
  endloop
endfacet
facet normal 0 -0 -1
  outer loop
    vertex 2.92669 6.65371 -0.5
    vertex 4.69946 6.63496 -0.5
    vertex 2.66599 4.61028 -0.5
  endloop
endfacet
facet normal 0 0 -1
  outer loop
    vertex 2.92669 6.65371 -0.5
    vertex 1.32764 6.81433 -0.5
    vertex 3.01366 8.55527 -0.5
  endloop
endfacet
facet normal 0 0 -1
  outer loop
    vertex 6.60117 -12.267 -0.5
    vertex 3.78225 -11.9019 -0.5
    vertex 5.51897 -10.682 -0.5
  endloop
endfacet
facet normal 0 0 -1
  outer loop
    vertex 4.54997 -9.55633 -0.5
    vertex 7.22405 -9.1762 -0.5
    vertex 5.51897 -10.682 -0.5
  endloop
endfacet
facet normal -0 0 -1
  outer loop
    vertex 5.51897 -10.682 -0.5
    vertex 3.78225 -11.9019 -0.5
    vertex 4.54997 -9.55633 -0.5
  endloop
endfacet
facet normal 0 0 -1
  outer loop
    vertex 5.51897 -10.682 -0.5
    vertex 7.22405 -9.1762 -0.5
    vertex 6.60117 -12.267 -0.5
  endloop
endfacet
facet normal 0 0 -1
  outer loop
    vertex 6.53065 4.34111 -0.5
    vertex 8.47701 6.69762 -0.5
    vertex 8.3599 4.35253 -0.5
  endloop
endfacet
facet normal -0 0 -1
  outer loop
    vertex 10.0823 4.06012 -0.5
    vertex 8.3497 2.31126 -0.5
    vertex 8.3599 4.35253 -0.5
  endloop
endfacet
facet normal 0 0 -1
  outer loop
    vertex 8.3599 4.35253 -0.5
    vertex 8.47701 6.69762 -0.5
    vertex 10.0823 4.06012 -0.5
  endloop
endfacet
facet normal 0 0 -1
  outer loop
    vertex 8.3599 4.35253 -0.5
    vertex 8.3497 2.31126 -0.5
    vertex 6.53065 4.34111 -0.5
  endloop
endfacet
facet normal 0 0 -1
  outer loop
    vertex -6.15333 -10.2903 -0.5
    vertex -7.45564 -8.63157 -0.5
    vertex -5.52438 -8.61646 -0.5
  endloop
endfacet
facet normal 0 0 -1
  outer loop
    vertex -7.67421 -11.6259 -0.5
    vertex -7.45564 -8.63157 -0.5
    vertex -6.15333 -10.2903 -0.5
  endloop
endfacet
facet normal 0 0 -1
  outer loop
    vertex -4.0245 -5.10619 -0.5
    vertex -4.05114 -2.77538 -0.5
    vertex -2.79504 -3.94701 -0.5
  endloop
endfacet
facet normal 0 0 -1
  outer loop
    vertex -1.19937 -2.93039 -0.5
    vertex -1.59544 -6.24148 -0.5
    vertex -2.79504 -3.94701 -0.5
  endloop
endfacet
facet normal 0 0 -1
  outer loop
    vertex -2.79504 -3.94701 -0.5
    vertex -4.05114 -2.77538 -0.5
    vertex -1.19937 -2.93039 -0.5
  endloop
endfacet
facet normal 0 -0 -1
  outer loop
    vertex -2.79504 -3.94701 -0.5
    vertex -1.59544 -6.24148 -0.5
    vertex -4.0245 -5.10619 -0.5
  endloop
endfacet
facet normal -0 0 -1
  outer loop
    vertex 3.61583 12.0873 -0.5
    vertex 2.55594 10.5 -0.5
    vertex 1.18138 12.2273 -0.5
  endloop
endfacet
facet normal 0 0 -1
  outer loop
    vertex -0.624984 13.9164 -0.5
    vertex 1.86992 13.8043 -0.5
    vertex 1.18138 12.2273 -0.5
  endloop
endfacet
facet normal 0 0 -1
  outer loop
    vertex 3.61583 12.0873 -0.5
    vertex 1.18138 12.2273 -0.5
    vertex 1.86992 13.8043 -0.5
  endloop
endfacet
facet normal 0 0 -1
  outer loop
    vertex -3.0998 13.5811 -0.5
    vertex -0.624984 13.9164 -0.5
    vertex -1.57675 11.7016 -0.5
  endloop
endfacet
facet normal 0 0 -1
  outer loop
    vertex -1.57675 11.7016 -0.5
    vertex -0.624984 13.9164 -0.5
    vertex 1.18138 12.2273 -0.5
  endloop
endfacet
facet normal -0 0 -1
  outer loop
    vertex 10.1753 -2.34031 -0.5
    vertex 8.47605 -2.44092 -0.5
    vertex 10.0598 -0.243078 -0.5
  endloop
endfacet
facet normal 0 0 -1
  outer loop
    vertex 10.1533 -4.40207 -0.5
    vertex 8.47605 -2.44092 -0.5
    vertex 10.1753 -2.34031 -0.5
  endloop
endfacet
facet normal 0 0 -1
  outer loop
    vertex 1.01094 -11.9257 -0.5
    vertex 0.217429 -9.65659 -0.5
    vertex 2.33372 -10.315 -0.5
  endloop
endfacet
facet normal 0 0 -1
  outer loop
    vertex -12.5508 6.04417 -0.5
    vertex -10.4551 5.57723 -0.5
    vertex -12.1355 3.54488 -0.5
  endloop
endfacet
facet normal 0 0 -1
  outer loop
    vertex -10.3888 7.63858 -0.5
    vertex -10.4551 5.57723 -0.5
    vertex -12.5508 6.04417 -0.5
  endloop
endfacet
facet normal 0 -0 -1
  outer loop
    vertex -6.15333 -10.2903 -0.5
    vertex -5.47499 -12.8094 -0.5
    vertex -7.67421 -11.6259 -0.5
  endloop
endfacet
facet normal 0 0 -1
  outer loop
    vertex -6.15333 -10.2903 -0.5
    vertex -5.52438 -8.61646 -0.5
    vertex -4.46521 -10.0529 -0.5
  endloop
endfacet
facet normal 0 0 -1
  outer loop
    vertex -4.46521 -10.0529 -0.5
    vertex -5.47499 -12.8094 -0.5
    vertex -6.15333 -10.2903 -0.5
  endloop
endfacet
facet normal 0 0 -1
  outer loop
    vertex -11.7114 -3.6106 -0.5
    vertex -9.78866 -3.23295 -0.5
    vertex -10.4633 -5.74388 -0.5
  endloop
endfacet
facet normal 0 -0 -1
  outer loop
    vertex -10.9431 -1.5888 -0.5
    vertex -9.78866 -3.23295 -0.5
    vertex -11.7114 -3.6106 -0.5
  endloop
endfacet
facet normal 0 0 -1
  outer loop
    vertex 0.413111 9.50349 -0.5
    vertex 2.55594 10.5 -0.5
    vertex 3.01366 8.55527 -0.5
  endloop
endfacet
facet normal 0 0 -1
  outer loop
    vertex 0.413111 9.50349 -0.5
    vertex -2.16245 9.51498 -0.5
    vertex -1.57675 11.7016 -0.5
  endloop
endfacet
facet normal 0 0 -1
  outer loop
    vertex 1.18138 12.2273 -0.5
    vertex 0.413111 9.50349 -0.5
    vertex -1.57675 11.7016 -0.5
  endloop
endfacet
facet normal -0 0 -1
  outer loop
    vertex 2.55594 10.5 -0.5
    vertex 0.413111 9.50349 -0.5
    vertex 1.18138 12.2273 -0.5
  endloop
endfacet
facet normal 0 0 -1
  outer loop
    vertex 11.8411 1.86221 -0.5
    vertex 13.7065 2.48737 -0.5
    vertex 13.9304 0 -0.5
  endloop
endfacet
facet normal 0 -0 -1
  outer loop
    vertex 13.0421 4.89479 -0.5
    vertex 13.7065 2.48737 -0.5
    vertex 11.8411 1.86221 -0.5
  endloop
endfacet
facet normal 0 -0 -1
  outer loop
    vertex -8.66839 7.69995 -0.5
    vertex -8.01063 4.8489 -0.5
    vertex -10.4551 5.57723 -0.5
  endloop
endfacet
facet normal 0 -0 -1
  outer loop
    vertex -10.3888 7.63858 -0.5
    vertex -8.66839 7.69995 -0.5
    vertex -10.4551 5.57723 -0.5
  endloop
endfacet
facet normal 0 -0 -1
  outer loop
    vertex -9.62677 10.0688 -0.5
    vertex -8.66839 7.69995 -0.5
    vertex -10.3888 7.63858 -0.5
  endloop
endfacet
facet normal 0 0 -1
  outer loop
    vertex -8.66839 7.69995 -0.5
    vertex -9.62677 10.0688 -0.5
    vertex -8.12549 9.56395 -0.5
  endloop
endfacet
facet normal 0 0 -1
  outer loop
    vertex 10.4906 9.16534 -0.5
    vertex 11.9585 7.14488 -0.5
    vertex 10.8101 6.39255 -0.5
  endloop
endfacet
facet normal 0 0 -1
  outer loop
    vertex 10.8101 6.39255 -0.5
    vertex 11.9585 7.14488 -0.5
    vertex 13.0421 4.89479 -0.5
  endloop
endfacet
facet normal -0 0 -1
  outer loop
    vertex -9.39972 -7.66307 -0.5
    vertex -11.2699 -8.18807 -0.5
    vertex -10.4633 -5.74388 -0.5
  endloop
endfacet
facet normal 0 -0 -1
  outer loop
    vertex -4.0245 -5.10619 -0.5
    vertex -3.81177 -7.59965 -0.5
    vertex -5.83758 -6.68229 -0.5
  endloop
endfacet
facet normal 0 0 -1
  outer loop
    vertex -4.46521 -10.0529 -0.5
    vertex -5.52438 -8.61646 -0.5
    vertex -3.81177 -7.59965 -0.5
  endloop
endfacet
facet normal 0 -0 -1
  outer loop
    vertex -3.81177 -7.59965 -0.5
    vertex -2.1402 -9.42068 -0.5
    vertex -4.46521 -10.0529 -0.5
  endloop
endfacet
facet normal 0 0 -1
  outer loop
    vertex -5.83758 -6.68229 -0.5
    vertex -3.81177 -7.59965 -0.5
    vertex -5.52438 -8.61646 -0.5
  endloop
endfacet
facet normal 0 -0 -1
  outer loop
    vertex 10.8805 -6.50264 -0.5
    vertex 11.9585 -7.14488 -0.5
    vertex 10.4906 -9.16534 -0.5
  endloop
endfacet
facet normal 0 0 -1
  outer loop
    vertex 13.0421 -4.89479 -0.5
    vertex 11.9585 -7.14488 -0.5
    vertex 10.8805 -6.50264 -0.5
  endloop
endfacet
facet normal 0 0 -1
  outer loop
    vertex 13.0421 -4.89479 -0.5
    vertex 10.1533 -4.40207 -0.5
    vertex 11.9947 -2.12376 -0.5
  endloop
endfacet
facet normal 0 0 -1
  outer loop
    vertex 10.8805 -6.50264 -0.5
    vertex 10.1533 -4.40207 -0.5
    vertex 13.0421 -4.89479 -0.5
  endloop
endfacet
facet normal 0 -0 -1
  outer loop
    vertex 10.1753 -2.34031 -0.5
    vertex 11.9947 -2.12376 -0.5
    vertex 10.1533 -4.40207 -0.5
  endloop
endfacet
facet normal 0 0 -1
  outer loop
    vertex 11.8411 1.86221 -0.5
    vertex 10.0823 4.06012 -0.5
    vertex 13.0421 4.89479 -0.5
  endloop
endfacet
facet normal -0 0 -1
  outer loop
    vertex 13.0421 4.89479 -0.5
    vertex 10.0823 4.06012 -0.5
    vertex 10.8101 6.39255 -0.5
  endloop
endfacet
facet normal 0 0 -1
  outer loop
    vertex -6.3952 8.74364 -0.5
    vertex -3.80864 8.15945 -0.5
    vertex -5.30145 6.05899 -0.5
  endloop
endfacet
facet normal 0 0 -1
  outer loop
    vertex -4.93551 3.76638 -0.5
    vertex -2.50136 4.4159 -0.5
    vertex -3.9508 1.5156 -0.5
  endloop
endfacet
facet normal 0 0 -1
  outer loop
    vertex -5.30145 6.05899 -0.5
    vertex -2.50136 4.4159 -0.5
    vertex -4.93551 3.76638 -0.5
  endloop
endfacet
facet normal 0 0 -1
  outer loop
    vertex -3.9508 1.5156 -0.5
    vertex -6.70392 2.48731 -0.5
    vertex -4.93551 3.76638 -0.5
  endloop
endfacet
facet normal 0 0 -1
  outer loop
    vertex 2.32317 -0.559213 -0.5
    vertex -0.742066 0.266485 -0.5
    vertex 0.966535 1.1635 -0.5
  endloop
endfacet
facet normal 0 0 -1
  outer loop
    vertex 0.139123 2.87657 -0.5
    vertex 2.14591 2.07017 -0.5
    vertex 0.966535 1.1635 -0.5
  endloop
endfacet
facet normal -0 0 -1
  outer loop
    vertex 0.966535 1.1635 -0.5
    vertex -0.742066 0.266485 -0.5
    vertex 0.139123 2.87657 -0.5
  endloop
endfacet
facet normal 0 0 -1
  outer loop
    vertex 0.966535 1.1635 -0.5
    vertex 2.14591 2.07017 -0.5
    vertex 2.32317 -0.559213 -0.5
  endloop
endfacet
facet normal 0 -0 -1
  outer loop
    vertex -1.76378 2.26864 -0.5
    vertex -0.742066 0.266485 -0.5
    vertex -3.9508 1.5156 -0.5
  endloop
endfacet
facet normal 0 0 -1
  outer loop
    vertex -1.76378 2.26864 -0.5
    vertex -2.50136 4.4159 -0.5
    vertex 0.139123 2.87657 -0.5
  endloop
endfacet
facet normal 0 0 -1
  outer loop
    vertex 0.139123 2.87657 -0.5
    vertex -0.742066 0.266485 -0.5
    vertex -1.76378 2.26864 -0.5
  endloop
endfacet
facet normal 0 0 -1
  outer loop
    vertex -3.9508 1.5156 -0.5
    vertex -2.50136 4.4159 -0.5
    vertex -1.76378 2.26864 -0.5
  endloop
endfacet
facet normal 0 0 -1
  outer loop
    vertex -3.20957 6.46067 -0.5
    vertex -3.80864 8.15945 -0.5
    vertex -1.44764 7.21097 -0.5
  endloop
endfacet
facet normal 0 -0 -1
  outer loop
    vertex -3.20957 6.46067 -0.5
    vertex -2.50136 4.4159 -0.5
    vertex -5.30145 6.05899 -0.5
  endloop
endfacet
facet normal 0 0 -1
  outer loop
    vertex -5.30145 6.05899 -0.5
    vertex -3.80864 8.15945 -0.5
    vertex -3.20957 6.46067 -0.5
  endloop
endfacet
facet normal 0 0 -1
  outer loop
    vertex -1.44764 7.21097 -0.5
    vertex -2.50136 4.4159 -0.5
    vertex -3.20957 6.46067 -0.5
  endloop
endfacet
facet normal 0 0 -1
  outer loop
    vertex -6.23788 4.29039 -0.5
    vertex -8.01063 4.8489 -0.5
    vertex -5.30145 6.05899 -0.5
  endloop
endfacet
facet normal 0 -0 -1
  outer loop
    vertex -6.23788 4.29039 -0.5
    vertex -4.93551 3.76638 -0.5
    vertex -6.70392 2.48731 -0.5
  endloop
endfacet
facet normal 0 0 -1
  outer loop
    vertex -6.70392 2.48731 -0.5
    vertex -8.01063 4.8489 -0.5
    vertex -6.23788 4.29039 -0.5
  endloop
endfacet
facet normal 0 -0 -1
  outer loop
    vertex -5.30145 6.05899 -0.5
    vertex -4.93551 3.76638 -0.5
    vertex -6.23788 4.29039 -0.5
  endloop
endfacet
facet normal -0 0 -1
  outer loop
    vertex -5.30145 6.05899 -0.5
    vertex -8.01063 4.8489 -0.5
    vertex -7.09392 6.83787 -0.5
  endloop
endfacet
facet normal 0 0 -1
  outer loop
    vertex -8.66839 7.69995 -0.5
    vertex -6.3952 8.74364 -0.5
    vertex -7.09392 6.83787 -0.5
  endloop
endfacet
facet normal -0 0 -1
  outer loop
    vertex -7.09392 6.83787 -0.5
    vertex -8.01063 4.8489 -0.5
    vertex -8.66839 7.69995 -0.5
  endloop
endfacet
facet normal 0 0 -1
  outer loop
    vertex -7.09392 6.83787 -0.5
    vertex -6.3952 8.74364 -0.5
    vertex -5.30145 6.05899 -0.5
  endloop
endfacet
facet normal 0 0 -1
  outer loop
    vertex -13.8743 1.24871 -0.5
    vertex -12.1355 3.54488 -0.5
    vertex -11.9418 2.0021 -0.5
  endloop
endfacet
facet normal 0 0 -1
  outer loop
    vertex -10.2881 2.73341 -0.5
    vertex -11.4694 0.481395 -0.5
    vertex -11.9418 2.0021 -0.5
  endloop
endfacet
facet normal 0 0 -1
  outer loop
    vertex -11.9418 2.0021 -0.5
    vertex -12.1355 3.54488 -0.5
    vertex -10.2881 2.73341 -0.5
  endloop
endfacet
facet normal 0 -0 -1
  outer loop
    vertex -11.9418 2.0021 -0.5
    vertex -11.4694 0.481395 -0.5
    vertex -13.8743 1.24871 -0.5
  endloop
endfacet
facet normal 0 0 -1
  outer loop
    vertex 0.582201 -4.98568 -0.5
    vertex 3.03749 -5.15852 -0.5
    vertex 0.947234 -7.45547 -0.5
  endloop
endfacet
facet normal 0 -0 -1
  outer loop
    vertex 1.45453 -3.09541 -0.5
    vertex 3.03749 -5.15852 -0.5
    vertex 0.582201 -4.98568 -0.5
  endloop
endfacet
facet normal 0 -0 -1
  outer loop
    vertex -7.67421 11.6259 -0.5
    vertex -6.3952 8.74364 -0.5
    vertex -8.12549 9.56395 -0.5
  endloop
endfacet
facet normal 0 -0 -1
  outer loop
    vertex -8.12549 9.56395 -0.5
    vertex -6.3952 8.74364 -0.5
    vertex -8.66839 7.69995 -0.5
  endloop
endfacet
facet normal -0 0 -1
  outer loop
    vertex -11.4694 0.481395 -0.5
    vertex -12.5494 -1.40988 -0.5
    vertex -13.8743 1.24871 -0.5
  endloop
endfacet
facet normal 0 0 -1
  outer loop
    vertex -10.9431 -1.5888 -0.5
    vertex -12.5494 -1.40988 -0.5
    vertex -11.4694 0.481395 -0.5
  endloop
endfacet
facet normal 0 0 -1
  outer loop
    vertex -7.67421 11.6259 -0.5
    vertex -5.47499 12.8094 -0.5
    vertex -4.33553 10.9675 -0.5
  endloop
endfacet
facet normal 0 0 -1
  outer loop
    vertex -8.12905 -5.66578 -0.5
    vertex -7.87964 -3.01227 -0.5
    vertex -6.06289 -4.14594 -0.5
  endloop
endfacet
facet normal 0 0 -1
  outer loop
    vertex -6.06289 -4.14594 -0.5
    vertex -7.87964 -3.01227 -0.5
    vertex -6.45545 -1.63375 -0.5
  endloop
endfacet
facet normal 0 0 -1
  outer loop
    vertex 4.53738 10.1548 -0.5
    vertex 3.61583 12.0873 -0.5
    vertex 6.60117 12.267 -0.5
  endloop
endfacet
facet normal 0 0 -1
  outer loop
    vertex 2.55594 10.5 -0.5
    vertex 3.61583 12.0873 -0.5
    vertex 4.53738 10.1548 -0.5
  endloop
endfacet
facet normal -0 0 -1
  outer loop
    vertex -5.83758 -6.68229 -0.5
    vertex -7.45564 -8.63157 -0.5
    vertex -8.12905 -5.66578 -0.5
  endloop
endfacet
facet normal -0 0 -1
  outer loop
    vertex -5.52438 -8.61646 -0.5
    vertex -7.45564 -8.63157 -0.5
    vertex -5.83758 -6.68229 -0.5
  endloop
endfacet
facet normal -0 0 -1
  outer loop
    vertex -4.33553 10.9675 -0.5
    vertex -6.3952 8.74364 -0.5
    vertex -7.67421 11.6259 -0.5
  endloop
endfacet
facet normal 0 0 -1
  outer loop
    vertex -3.80864 8.15945 -0.5
    vertex -6.3952 8.74364 -0.5
    vertex -4.33553 10.9675 -0.5
  endloop
endfacet
facet normal 0 -0 -1
  outer loop
    vertex -3.9508 1.5156 -0.5
    vertex -3.03383 -0.892965 -0.5
    vertex -4.77594 -0.687386 -0.5
  endloop
endfacet
facet normal 0 0 -1
  outer loop
    vertex -4.77594 -0.687386 -0.5
    vertex -3.03383 -0.892965 -0.5
    vertex -4.05114 -2.77538 -0.5
  endloop
endfacet
facet normal 0 0 -1
  outer loop
    vertex -0.885935 -11.3665 -0.5
    vertex 1.01094 -11.9257 -0.5
    vertex -0.624984 -13.9164 -0.5
  endloop
endfacet
facet normal 0 -0 -1
  outer loop
    vertex 0.217429 -9.65659 -0.5
    vertex 1.01094 -11.9257 -0.5
    vertex -0.885935 -11.3665 -0.5
  endloop
endfacet
facet normal 0 0 -1
  outer loop
    vertex -1.57675 11.7016 -0.5
    vertex -2.16245 9.51498 -0.5
    vertex -4.33553 10.9675 -0.5
  endloop
endfacet
facet normal 0 0 -1
  outer loop
    vertex -4.33553 10.9675 -0.5
    vertex -3.0998 13.5811 -0.5
    vertex -1.57675 11.7016 -0.5
  endloop
endfacet
facet normal 0 0 -1
  outer loop
    vertex -4.33553 10.9675 -0.5
    vertex -5.47499 12.8094 -0.5
    vertex -3.0998 13.5811 -0.5
  endloop
endfacet
facet normal 0 0 -1
  outer loop
    vertex 0.947234 -7.45547 -0.5
    vertex -1.59544 -6.24148 -0.5
    vertex 0.582201 -4.98568 -0.5
  endloop
endfacet
facet normal -0 0 -1
  outer loop
    vertex 0.582201 -4.98568 -0.5
    vertex -1.59544 -6.24148 -0.5
    vertex -1.19937 -2.93039 -0.5
  endloop
endfacet
facet normal 0 0 -1
  outer loop
    vertex -1.19937 -2.93039 -0.5
    vertex 1.45453 -3.09541 -0.5
    vertex 0.582201 -4.98568 -0.5
  endloop
endfacet
facet normal 0 0 -1
  outer loop
    vertex -6.06289 -4.14594 -0.5
    vertex -4.05114 -2.77538 -0.5
    vertex -4.0245 -5.10619 -0.5
  endloop
endfacet
facet normal 0 0 -1
  outer loop
    vertex -6.45545 -1.63375 -0.5
    vertex -4.05114 -2.77538 -0.5
    vertex -6.06289 -4.14594 -0.5
  endloop
endfacet
facet normal 0 0 -1
  outer loop
    vertex -7.67421 -11.6259 -0.5
    vertex -9.62677 -10.0688 -0.5
    vertex -7.45564 -8.63157 -0.5
  endloop
endfacet
facet normal -0 0 -1
  outer loop
    vertex -7.45564 -8.63157 -0.5
    vertex -9.62677 -10.0688 -0.5
    vertex -9.39972 -7.66307 -0.5
  endloop
endfacet
facet normal 0 0 -1
  outer loop
    vertex 2.9965 -8.12693 -0.5
    vertex 5.31146 -6.97043 -0.5
    vertex 4.54997 -9.55633 -0.5
  endloop
endfacet
facet normal 0 -0 -1
  outer loop
    vertex 3.03749 -5.15852 -0.5
    vertex 5.31146 -6.97043 -0.5
    vertex 2.9965 -8.12693 -0.5
  endloop
endfacet
facet normal -0 0 -1
  outer loop
    vertex 0.0480722 5.1638 -0.5
    vertex -2.50136 4.4159 -0.5
    vertex -1.44764 7.21097 -0.5
  endloop
endfacet
facet normal 0 0 -1
  outer loop
    vertex 0.139123 2.87657 -0.5
    vertex -2.50136 4.4159 -0.5
    vertex 0.0480722 5.1638 -0.5
  endloop
endfacet
facet normal 0 0 -1
  outer loop
    vertex 5.06326 -4.88546 -0.5
    vertex 4.8288 -2.67146 -0.5
    vertex 7.07528 -4.7414 -0.5
  endloop
endfacet
facet normal 0 -0 -1
  outer loop
    vertex 5.06326 -4.88546 -0.5
    vertex 5.31146 -6.97043 -0.5
    vertex 3.03749 -5.15852 -0.5
  endloop
endfacet
facet normal 0 0 -1
  outer loop
    vertex 3.03749 -5.15852 -0.5
    vertex 4.8288 -2.67146 -0.5
    vertex 5.06326 -4.88546 -0.5
  endloop
endfacet
facet normal 0 0 -1
  outer loop
    vertex 7.07528 -4.7414 -0.5
    vertex 5.31146 -6.97043 -0.5
    vertex 5.06326 -4.88546 -0.5
  endloop
endfacet
facet normal 0 0 -1
  outer loop
    vertex -1.44764 7.21097 -0.5
    vertex -3.80864 8.15945 -0.5
    vertex -2.16245 9.51498 -0.5
  endloop
endfacet
facet normal 0 0 -1
  outer loop
    vertex -2.16245 9.51498 -0.5
    vertex 0.413111 9.50349 -0.5
    vertex -1.44764 7.21097 -0.5
  endloop
endfacet
facet normal 0 0 1
  outer loop
    vertex 8.15223 -10.1041 0.5
    vertex 6.60117 -12.267 0.5
    vertex 8.68545 -10.8912 0.5
  endloop
endfacet
facet normal 0 -0 1
  outer loop
    vertex 6.60117 -12.267 0.5
    vertex 8.15223 -10.1041 0.5
    vertex 5.94885 -9.84938 0.5
  endloop
endfacet
facet normal -0 0 1
  outer loop
    vertex 3.64301 12.4004 0.5
    vertex 6.60117 12.267 0.5
    vertex 4.30473 13.2486 0.5
  endloop
endfacet
facet normal 0 0 1
  outer loop
    vertex 3.64301 12.4004 0.5
    vertex 1.86992 13.8043 0.5
    vertex 1.8675 11.8937 0.5
  endloop
endfacet
facet normal 0 0 1
  outer loop
    vertex 1.86992 13.8043 0.5
    vertex 3.64301 12.4004 0.5
    vertex 4.30473 13.2486 0.5
  endloop
endfacet
facet normal 0 0 1
  outer loop
    vertex -12.6294 1.63163 0.5
    vertex -13.4284 3.706 0.5
    vertex -13.8743 1.24871 0.5
  endloop
endfacet
facet normal 0 0 1
  outer loop
    vertex -13.8743 -1.24871 0.5
    vertex -12.6294 1.63163 0.5
    vertex -13.8743 1.24871 0.5
  endloop
endfacet
facet normal 0 -0 1
  outer loop
    vertex -2.90053 -9.40846 0.5
    vertex -1.2197 -6.78928 0.5
    vertex -3.60832 -7.24749 0.5
  endloop
endfacet
facet normal 0 -0 1
  outer loop
    vertex 4.46312 -11.3923 0.5
    vertex 5.94885 -9.84938 0.5
    vertex 3.19004 -9.50938 0.5
  endloop
endfacet
facet normal 0 0 1
  outer loop
    vertex 7.63192 -7.99155 0.5
    vertex 5.94885 -9.84938 0.5
    vertex 8.15223 -10.1041 0.5
  endloop
endfacet
facet normal 0 0 1
  outer loop
    vertex 11.9192 -3.66109 0.5
    vertex 11.411 -2.02429 0.5
    vertex 10.1208 -3.70715 0.5
  endloop
endfacet
facet normal 0 0 1
  outer loop
    vertex 5.56719 -7.82499 0.5
    vertex 5.94885 -9.84938 0.5
    vertex 7.63192 -7.99155 0.5
  endloop
endfacet
facet normal 0 0 1
  outer loop
    vertex 5.94885 -9.84938 0.5
    vertex 5.56719 -7.82499 0.5
    vertex 3.19004 -9.50938 0.5
  endloop
endfacet
facet normal 0 0 1
  outer loop
    vertex 6.92493 -5.12432 0.5
    vertex 5.56719 -7.82499 0.5
    vertex 7.63192 -7.99155 0.5
  endloop
endfacet
facet normal 0 0 1
  outer loop
    vertex 9.47706 -6.03325 0.5
    vertex 6.92493 -5.12432 0.5
    vertex 7.63192 -7.99155 0.5
  endloop
endfacet
facet normal 0 0 1
  outer loop
    vertex -9.78132 7.58861 0.5
    vertex -10.0646 5.69241 0.5
    vertex -8.20941 6.24868 0.5
  endloop
endfacet
facet normal 0 -0 1
  outer loop
    vertex -10.0646 5.69241 0.5
    vertex -9.78132 7.58861 0.5
    vertex -12.5508 6.04417 0.5
  endloop
endfacet
facet normal 0 0 1
  outer loop
    vertex -9.02954 2.17475 0.5
    vertex -11.0712 3.58536 0.5
    vertex -10.9985 1.50661 0.5
  endloop
endfacet
facet normal 0 0 1
  outer loop
    vertex -12.5508 6.04417 0.5
    vertex -11.0712 3.58536 0.5
    vertex -10.0646 5.69241 0.5
  endloop
endfacet
facet normal 0 0 1
  outer loop
    vertex 3.75843 10.4493 0.5
    vertex 1.8675 11.8937 0.5
    vertex 1.10301 9.69462 0.5
  endloop
endfacet
facet normal 0 0 1
  outer loop
    vertex -5.18352 -9.73316 0.5
    vertex -7.67421 -11.6259 0.5
    vertex -5.47499 -12.8094 0.5
  endloop
endfacet
facet normal 0 0 1
  outer loop
    vertex -5.18352 -9.73316 0.5
    vertex -2.90053 -9.40846 0.5
    vertex -3.60832 -7.24749 0.5
  endloop
endfacet
facet normal 0 0 1
  outer loop
    vertex -9.71867 -0.550311 0.5
    vertex -11.3059 -2.08921 0.5
    vertex -8.96819 -3.86693 0.5
  endloop
endfacet
facet normal 0 -0 1
  outer loop
    vertex -9.71867 -0.550311 0.5
    vertex -9.02954 2.17475 0.5
    vertex -10.9985 1.50661 0.5
  endloop
endfacet
facet normal 0 -0 1
  outer loop
    vertex 5.63236 10.0574 0.5
    vertex 6.60117 12.267 0.5
    vertex 3.75843 10.4493 0.5
  endloop
endfacet
facet normal 0 0 1
  outer loop
    vertex 5.63236 10.0574 0.5
    vertex 4.65676 7.85028 0.5
    vertex 6.89703 9.30934 0.5
  endloop
endfacet
facet normal 0 -0 1
  outer loop
    vertex 4.65676 7.85028 0.5
    vertex 5.63236 10.0574 0.5
    vertex 3.75843 10.4493 0.5
  endloop
endfacet
facet normal 0 0 1
  outer loop
    vertex 6.60117 12.267 0.5
    vertex 5.63236 10.0574 0.5
    vertex 6.89703 9.30934 0.5
  endloop
endfacet
facet normal 0 -0 1
  outer loop
    vertex 8.15223 -10.1041 0.5
    vertex 9.39929 -8.55506 0.5
    vertex 7.63192 -7.99155 0.5
  endloop
endfacet
facet normal 0 0 1
  outer loop
    vertex -11.3059 -2.08921 0.5
    vertex -11.7053 -0.149999 0.5
    vertex -13.8743 -1.24871 0.5
  endloop
endfacet
facet normal 0 0 1
  outer loop
    vertex 6.60117 12.267 0.5
    vertex 6.89703 9.30934 0.5
    vertex 8.68545 10.8912 0.5
  endloop
endfacet
facet normal 0 0 1
  outer loop
    vertex -11.7053 -0.149999 0.5
    vertex -12.6294 1.63163 0.5
    vertex -13.8743 -1.24871 0.5
  endloop
endfacet
facet normal 0 0 1
  outer loop
    vertex -12.6294 1.63163 0.5
    vertex -11.7053 -0.149999 0.5
    vertex -10.9985 1.50661 0.5
  endloop
endfacet
facet normal 0 0 1
  outer loop
    vertex 13.7065 -2.48737 0.5
    vertex 11.9192 -3.66109 0.5
    vertex 13.0421 -4.89479 0.5
  endloop
endfacet
facet normal 0 0 1
  outer loop
    vertex 13.7065 2.48737 0.5
    vertex 12.3733 0.396575 0.5
    vertex 13.9304 0 0.5
  endloop
endfacet
facet normal 0 0 1
  outer loop
    vertex 12.3733 0.396575 0.5
    vertex 13.7065 -2.48737 0.5
    vertex 13.9304 0 0.5
  endloop
endfacet
facet normal 0 0 1
  outer loop
    vertex 9.39929 -8.55506 0.5
    vertex 8.68545 -10.8912 0.5
    vertex 10.4906 -9.16534 0.5
  endloop
endfacet
facet normal 0 -0 1
  outer loop
    vertex 8.68545 -10.8912 0.5
    vertex 9.39929 -8.55506 0.5
    vertex 8.15223 -10.1041 0.5
  endloop
endfacet
facet normal 0 0 1
  outer loop
    vertex 11.9585 -7.14488 0.5
    vertex 9.39929 -8.55506 0.5
    vertex 10.4906 -9.16534 0.5
  endloop
endfacet
facet normal 0 0 1
  outer loop
    vertex 6.60117 12.267 0.5
    vertex 3.64301 12.4004 0.5
    vertex 3.75843 10.4493 0.5
  endloop
endfacet
facet normal 0 0 1
  outer loop
    vertex 3.64301 12.4004 0.5
    vertex 1.8675 11.8937 0.5
    vertex 3.75843 10.4493 0.5
  endloop
endfacet
facet normal 0 -0 1
  outer loop
    vertex -9.78132 7.58861 0.5
    vertex -9.62677 10.0688 0.5
    vertex -11.2699 8.18807 0.5
  endloop
endfacet
facet normal 0 0 1
  outer loop
    vertex -12.5508 6.04417 0.5
    vertex -9.78132 7.58861 0.5
    vertex -11.2699 8.18807 0.5
  endloop
endfacet
facet normal 0 0 1
  outer loop
    vertex -10.9573 -7.36131 0.5
    vertex -12.5508 -6.04417 0.5
    vertex -11.2699 -8.18807 0.5
  endloop
endfacet
facet normal 0 0 1
  outer loop
    vertex 6.60117 -12.267 0.5
    vertex 4.46312 -11.3923 0.5
    vertex 4.30473 -13.2486 0.5
  endloop
endfacet
facet normal 0 0 1
  outer loop
    vertex -2.42915 -11.6119 0.5
    vertex -5.47499 -12.8094 0.5
    vertex -3.0998 -13.5811 0.5
  endloop
endfacet
facet normal 0 0 1
  outer loop
    vertex -0.624984 -13.9164 0.5
    vertex -2.42915 -11.6119 0.5
    vertex -3.0998 -13.5811 0.5
  endloop
endfacet
facet normal 0 0 1
  outer loop
    vertex -13.8743 -1.24871 0.5
    vertex -11.9723 -3.81689 0.5
    vertex -11.3059 -2.08921 0.5
  endloop
endfacet
facet normal 0 0 1
  outer loop
    vertex -11.9723 -3.81689 0.5
    vertex -13.8743 -1.24871 0.5
    vertex -13.4284 -3.706 0.5
  endloop
endfacet
facet normal 0 -0 1
  outer loop
    vertex -12.5508 -6.04417 0.5
    vertex -11.9723 -3.81689 0.5
    vertex -13.4284 -3.706 0.5
  endloop
endfacet
facet normal 0 0 1
  outer loop
    vertex -8.96819 -3.86693 0.5
    vertex -8.6197 -6.71128 0.5
    vertex -6.72286 -5.68114 0.5
  endloop
endfacet
facet normal 0 0 1
  outer loop
    vertex -8.6197 -6.71128 0.5
    vertex -8.96819 -3.86693 0.5
    vertex -10.3924 -5.98963 0.5
  endloop
endfacet
facet normal 0 -0 1
  outer loop
    vertex -6.94478 1.22704 0.5
    vertex -6.90729 4.10649 0.5
    vertex -9.02954 2.17475 0.5
  endloop
endfacet
facet normal 0 0 1
  outer loop
    vertex -6.90729 4.10649 0.5
    vertex -6.94478 1.22704 0.5
    vertex -4.75879 2.5309 0.5
  endloop
endfacet
facet normal 0 0 1
  outer loop
    vertex -2.72908 -4.39824 0.5
    vertex -3.60832 -7.24749 0.5
    vertex -1.2197 -6.78928 0.5
  endloop
endfacet
facet normal 0 0 1
  outer loop
    vertex 1.0786 -7.57357 0.5
    vertex 0.334525 -10.6443 0.5
    vertex 3.19004 -9.50938 0.5
  endloop
endfacet
facet normal 0 -0 1
  outer loop
    vertex -0.624984 -13.9164 0.5
    vertex 0.334525 -10.6443 0.5
    vertex -2.42915 -11.6119 0.5
  endloop
endfacet
facet normal 0 0 1
  outer loop
    vertex 3.86622 -6.12488 0.5
    vertex 1.0786 -7.57357 0.5
    vertex 3.19004 -9.50938 0.5
  endloop
endfacet
facet normal 0 -0 1
  outer loop
    vertex 2.2708 -12.087 0.5
    vertex 3.19004 -9.50938 0.5
    vertex 0.334525 -10.6443 0.5
  endloop
endfacet
facet normal 0 0 1
  outer loop
    vertex 3.19004 -9.50938 0.5
    vertex 2.2708 -12.087 0.5
    vertex 4.46312 -11.3923 0.5
  endloop
endfacet
facet normal 0 0 1
  outer loop
    vertex -0.624984 -13.9164 0.5
    vertex 2.2708 -12.087 0.5
    vertex 0.334525 -10.6443 0.5
  endloop
endfacet
facet normal 0 0 1
  outer loop
    vertex -3.58363 5.62435 0.5
    vertex -3.74192 8.36185 0.5
    vertex -5.72619 6.87948 0.5
  endloop
endfacet
facet normal 0 -0 1
  outer loop
    vertex 9.96668 -0.24609 0.5
    vertex 11.4261 2.45304 0.5
    vertex 9.45356 3.04414 0.5
  endloop
endfacet
facet normal 0 0 1
  outer loop
    vertex 1.0786 -7.57357 0.5
    vertex 0.782276 -4.52458 0.5
    vertex -1.2197 -6.78928 0.5
  endloop
endfacet
facet normal 0 -0 1
  outer loop
    vertex 6.92493 -5.12432 0.5
    vertex 8.63356 -2.60888 0.5
    vertex 6.51137 -1.798 0.5
  endloop
endfacet
facet normal 0 0 1
  outer loop
    vertex 2.52286 2.88632 0.5
    vertex 0.908538 0.305099 0.5
    vertex 3.06018 -0.0755394 0.5
  endloop
endfacet
facet normal 0 -0 1
  outer loop
    vertex 0.908538 0.305099 0.5
    vertex 2.52286 2.88632 0.5
    vertex -0.247371 2.61386 0.5
  endloop
endfacet
facet normal 0 -0 1
  outer loop
    vertex -5.08132 -3.25487 0.5
    vertex -4.68145 -0.507159 0.5
    vertex -7.02246 -1.32296 0.5
  endloop
endfacet
facet normal 0 0 1
  outer loop
    vertex -4.75879 2.5309 0.5
    vertex -4.68145 -0.507159 0.5
    vertex -2.32627 0.691195 0.5
  endloop
endfacet
facet normal 0 -0 1
  outer loop
    vertex -5.72619 6.87948 0.5
    vertex -5.51873 9.93102 0.5
    vertex -7.74001 8.7873 0.5
  endloop
endfacet
facet normal 0 0 1
  outer loop
    vertex -5.51873 9.93102 0.5
    vertex -5.72619 6.87948 0.5
    vertex -3.74192 8.36185 0.5
  endloop
endfacet
facet normal 0 -0 1
  outer loop
    vertex 3.27579 -3.24722 0.5
    vertex 4.64675 -0.937861 0.5
    vertex 3.06018 -0.0755394 0.5
  endloop
endfacet
facet normal 0 0 1
  outer loop
    vertex 5.78382 1.30398 0.5
    vertex 4.64675 -0.937861 0.5
    vertex 6.51137 -1.798 0.5
  endloop
endfacet
facet normal 0 -0 1
  outer loop
    vertex 7.34291 2.97631 0.5
    vertex 8.1636 5.32567 0.5
    vertex 5.4064 4.5389 0.5
  endloop
endfacet
facet normal 0 0 1
  outer loop
    vertex 8.1636 5.32567 0.5
    vertex 7.34291 2.97631 0.5
    vertex 9.45356 3.04414 0.5
  endloop
endfacet
facet normal 0 -0 1
  outer loop
    vertex 5.78382 1.30398 0.5
    vertex 7.34291 2.97631 0.5
    vertex 5.4064 4.5389 0.5
  endloop
endfacet
facet normal 0 -0 1
  outer loop
    vertex -3.64351 10.9758 0.5
    vertex -3.0998 13.5811 0.5
    vertex -5.47499 12.8094 0.5
  endloop
endfacet
facet normal 0 0 1
  outer loop
    vertex -3.64351 10.9758 0.5
    vertex -3.74192 8.36185 0.5
    vertex -1.63976 9.6655 0.5
  endloop
endfacet
facet normal 0 0 1
  outer loop
    vertex 1.10301 9.69462 0.5
    vertex -0.41571 12.0088 0.5
    vertex -1.63976 9.6655 0.5
  endloop
endfacet
facet normal 0 0 1
  outer loop
    vertex 1.10301 9.69462 0.5
    vertex -0.444671 7.83628 0.5
    vertex 1.72442 7.08891 0.5
  endloop
endfacet
facet normal 0 -0 1
  outer loop
    vertex -0.444671 7.83628 0.5
    vertex 1.10301 9.69462 0.5
    vertex -1.63976 9.6655 0.5
  endloop
endfacet
facet normal 0 0 1
  outer loop
    vertex -0.444671 7.83628 0.5
    vertex -0.899854 5.41871 0.5
    vertex 1.72442 7.08891 0.5
  endloop
endfacet
facet normal 0 0 1
  outer loop
    vertex 2.26323 -5.3708 0.5
    vertex 1.0786 -7.57357 0.5
    vertex 3.86622 -6.12488 0.5
  endloop
endfacet
facet normal 0 -0 1
  outer loop
    vertex 2.26323 -5.3708 0.5
    vertex 3.27579 -3.24722 0.5
    vertex 0.782276 -4.52458 0.5
  endloop
endfacet
facet normal 0 0 1
  outer loop
    vertex 3.27579 -3.24722 0.5
    vertex 2.26323 -5.3708 0.5
    vertex 3.86622 -6.12488 0.5
  endloop
endfacet
facet normal 0 -0 1
  outer loop
    vertex 1.0786 -7.57357 0.5
    vertex 2.26323 -5.3708 0.5
    vertex 0.782276 -4.52458 0.5
  endloop
endfacet
facet normal 0 -0 1
  outer loop
    vertex -5.85008 0.417192 0.5
    vertex -4.75879 2.5309 0.5
    vertex -6.94478 1.22704 0.5
  endloop
endfacet
facet normal 0 0 1
  outer loop
    vertex -5.85008 0.417192 0.5
    vertex -7.02246 -1.32296 0.5
    vertex -4.68145 -0.507159 0.5
  endloop
endfacet
facet normal 0 0 1
  outer loop
    vertex -7.02246 -1.32296 0.5
    vertex -5.85008 0.417192 0.5
    vertex -6.94478 1.22704 0.5
  endloop
endfacet
facet normal 0 0 1
  outer loop
    vertex -4.75879 2.5309 0.5
    vertex -5.85008 0.417192 0.5
    vertex -4.68145 -0.507159 0.5
  endloop
endfacet
facet normal 0 0 1
  outer loop
    vertex -4.75879 2.5309 0.5
    vertex -2.47838 3.45159 0.5
    vertex -3.58363 5.62435 0.5
  endloop
endfacet
facet normal 0 -0 1
  outer loop
    vertex -2.47838 3.45159 0.5
    vertex -0.899854 5.41871 0.5
    vertex -3.58363 5.62435 0.5
  endloop
endfacet
facet normal 0 0 1
  outer loop
    vertex -9.03709 4.43779 0.5
    vertex -9.02954 2.17475 0.5
    vertex -6.90729 4.10649 0.5
  endloop
endfacet
facet normal 0 -0 1
  outer loop
    vertex -9.03709 4.43779 0.5
    vertex -8.20941 6.24868 0.5
    vertex -10.0646 5.69241 0.5
  endloop
endfacet
facet normal 0 0 1
  outer loop
    vertex -8.20941 6.24868 0.5
    vertex -9.03709 4.43779 0.5
    vertex -6.90729 4.10649 0.5
  endloop
endfacet
facet normal 0 0 1
  outer loop
    vertex -1.02725 -9.20551 0.5
    vertex -2.42915 -11.6119 0.5
    vertex 0.334525 -10.6443 0.5
  endloop
endfacet
facet normal 0 -0 1
  outer loop
    vertex -2.42915 -11.6119 0.5
    vertex -1.02725 -9.20551 0.5
    vertex -2.90053 -9.40846 0.5
  endloop
endfacet
facet normal 0 0 1
  outer loop
    vertex 1.0786 -7.57357 0.5
    vertex -1.02725 -9.20551 0.5
    vertex 0.334525 -10.6443 0.5
  endloop
endfacet
facet normal 0 0 1
  outer loop
    vertex 4.65676 7.85028 0.5
    vertex 3.00841 5.37913 0.5
    vertex 5.4064 4.5389 0.5
  endloop
endfacet
facet normal 0 0 1
  outer loop
    vertex 3.00841 5.37913 0.5
    vertex 2.52286 2.88632 0.5
    vertex 5.4064 4.5389 0.5
  endloop
endfacet
facet normal 0 -0 1
  outer loop
    vertex 3.00841 5.37913 0.5
    vertex 4.65676 7.85028 0.5
    vertex 1.72442 7.08891 0.5
  endloop
endfacet
facet normal 0 0 1
  outer loop
    vertex -4.75879 2.5309 0.5
    vertex -5.24398 4.7853 0.5
    vertex -6.90729 4.10649 0.5
  endloop
endfacet
facet normal 0 0 1
  outer loop
    vertex -5.72619 6.87948 0.5
    vertex -5.24398 4.7853 0.5
    vertex -3.58363 5.62435 0.5
  endloop
endfacet
facet normal 0 0 1
  outer loop
    vertex -5.24398 4.7853 0.5
    vertex -5.72619 6.87948 0.5
    vertex -6.90729 4.10649 0.5
  endloop
endfacet
facet normal -0 0 1
  outer loop
    vertex -5.24398 4.7853 0.5
    vertex -4.75879 2.5309 0.5
    vertex -3.58363 5.62435 0.5
  endloop
endfacet
facet normal 0 -0 1
  outer loop
    vertex -0.83235 -4.3861 0.5
    vertex -0.773636 -1.93667 0.5
    vertex -2.72908 -4.39824 0.5
  endloop
endfacet
facet normal 0 0 1
  outer loop
    vertex -0.83235 -4.3861 0.5
    vertex -1.2197 -6.78928 0.5
    vertex 0.782276 -4.52458 0.5
  endloop
endfacet
facet normal 0 -0 1
  outer loop
    vertex -1.2197 -6.78928 0.5
    vertex -0.83235 -4.3861 0.5
    vertex -2.72908 -4.39824 0.5
  endloop
endfacet
facet normal 0 0 1
  outer loop
    vertex -0.773636 -1.93667 0.5
    vertex -0.83235 -4.3861 0.5
    vertex 0.782276 -4.52458 0.5
  endloop
endfacet
facet normal 0 0 1
  outer loop
    vertex 10.5026 5.37804 0.5
    vertex 8.1636 5.32567 0.5
    vertex 9.45356 3.04414 0.5
  endloop
endfacet
facet normal -0 0 1
  outer loop
    vertex 2.83536 8.66361 0.5
    vertex 4.65676 7.85028 0.5
    vertex 3.75843 10.4493 0.5
  endloop
endfacet
facet normal 0 0 1
  outer loop
    vertex 2.83536 8.66361 0.5
    vertex 1.10301 9.69462 0.5
    vertex 1.72442 7.08891 0.5
  endloop
endfacet
facet normal -0 0 1
  outer loop
    vertex 1.10301 9.69462 0.5
    vertex 2.83536 8.66361 0.5
    vertex 3.75843 10.4493 0.5
  endloop
endfacet
facet normal 0 0 1
  outer loop
    vertex 4.65676 7.85028 0.5
    vertex 2.83536 8.66361 0.5
    vertex 1.72442 7.08891 0.5
  endloop
endfacet
facet normal 0 0 1
  outer loop
    vertex -9.02954 2.17475 0.5
    vertex -8.17707 0.317368 0.5
    vertex -6.94478 1.22704 0.5
  endloop
endfacet
facet normal -0 0 1
  outer loop
    vertex -8.17707 0.317368 0.5
    vertex -7.02246 -1.32296 0.5
    vertex -6.94478 1.22704 0.5
  endloop
endfacet
facet normal 0 -0 1
  outer loop
    vertex -3.11835 -1.88115 0.5
    vertex -2.32627 0.691195 0.5
    vertex -4.68145 -0.507159 0.5
  endloop
endfacet
facet normal 0 0 1
  outer loop
    vertex -2.32627 0.691195 0.5
    vertex -3.11835 -1.88115 0.5
    vertex -0.773636 -1.93667 0.5
  endloop
endfacet
facet normal 0 0 1
  outer loop
    vertex -5.08132 -3.25487 0.5
    vertex -3.11835 -1.88115 0.5
    vertex -4.68145 -0.507159 0.5
  endloop
endfacet
facet normal 0 0 1
  outer loop
    vertex -2.06197 7.38134 0.5
    vertex -3.74192 8.36185 0.5
    vertex -3.58363 5.62435 0.5
  endloop
endfacet
facet normal -0 0 1
  outer loop
    vertex -3.74192 8.36185 0.5
    vertex -2.06197 7.38134 0.5
    vertex -1.63976 9.6655 0.5
  endloop
endfacet
facet normal 0 0 1
  outer loop
    vertex -0.899854 5.41871 0.5
    vertex -2.06197 7.38134 0.5
    vertex -3.58363 5.62435 0.5
  endloop
endfacet
facet normal 0 0 1
  outer loop
    vertex 8.1636 5.32567 0.5
    vertex 6.86693 6.98665 0.5
    vertex 5.4064 4.5389 0.5
  endloop
endfacet
facet normal 0 0 1
  outer loop
    vertex 6.86693 6.98665 0.5
    vertex 4.65676 7.85028 0.5
    vertex 5.4064 4.5389 0.5
  endloop
endfacet
facet normal 0 0 1
  outer loop
    vertex -11.3059 -2.08921 0.5
    vertex -10.6815 -3.97129 0.5
    vertex -8.96819 -3.86693 0.5
  endloop
endfacet
facet normal 0 0 1
  outer loop
    vertex -10.3924 -5.98963 0.5
    vertex -10.6815 -3.97129 0.5
    vertex -11.9723 -3.81689 0.5
  endloop
endfacet
facet normal -0 0 1
  outer loop
    vertex -10.6815 -3.97129 0.5
    vertex -10.3924 -5.98963 0.5
    vertex -8.96819 -3.86693 0.5
  endloop
endfacet
facet normal 0 0 1
  outer loop
    vertex -10.6815 -3.97129 0.5
    vertex -11.3059 -2.08921 0.5
    vertex -11.9723 -3.81689 0.5
  endloop
endfacet
facet normal 0 0 1
  outer loop
    vertex -5.47499 -12.8094 0.5
    vertex -3.94095 -10.9448 0.5
    vertex -5.18352 -9.73316 0.5
  endloop
endfacet
facet normal 0 0 1
  outer loop
    vertex -2.90053 -9.40846 0.5
    vertex -3.94095 -10.9448 0.5
    vertex -2.42915 -11.6119 0.5
  endloop
endfacet
facet normal 0 -0 1
  outer loop
    vertex -3.94095 -10.9448 0.5
    vertex -2.90053 -9.40846 0.5
    vertex -5.18352 -9.73316 0.5
  endloop
endfacet
facet normal 0 0 1
  outer loop
    vertex -3.94095 -10.9448 0.5
    vertex -5.47499 -12.8094 0.5
    vertex -2.42915 -11.6119 0.5
  endloop
endfacet
facet normal -0 0 1
  outer loop
    vertex 7.8593 0.729149 0.5
    vertex 9.96668 -0.24609 0.5
    vertex 9.45356 3.04414 0.5
  endloop
endfacet
facet normal 0 0 1
  outer loop
    vertex 7.8593 0.729149 0.5
    vertex 5.78382 1.30398 0.5
    vertex 6.51137 -1.798 0.5
  endloop
endfacet
facet normal -0 0 1
  outer loop
    vertex 2.52286 2.88632 0.5
    vertex 4.22277 1.86801 0.5
    vertex 5.4064 4.5389 0.5
  endloop
endfacet
facet normal 0 0 1
  outer loop
    vertex 4.22277 1.86801 0.5
    vertex 2.52286 2.88632 0.5
    vertex 3.06018 -0.0755394 0.5
  endloop
endfacet
facet normal -0 0 1
  outer loop
    vertex 4.22277 1.86801 0.5
    vertex 5.78382 1.30398 0.5
    vertex 5.4064 4.5389 0.5
  endloop
endfacet
facet normal 0 0 1
  outer loop
    vertex 1.22169 4.67739 0.5
    vertex -0.899854 5.41871 0.5
    vertex -0.247371 2.61386 0.5
  endloop
endfacet
facet normal 0 0 1
  outer loop
    vertex 2.52286 2.88632 0.5
    vertex 1.22169 4.67739 0.5
    vertex -0.247371 2.61386 0.5
  endloop
endfacet
facet normal -0 0 1
  outer loop
    vertex -0.899854 5.41871 0.5
    vertex 1.22169 4.67739 0.5
    vertex 1.72442 7.08891 0.5
  endloop
endfacet
facet normal 0 0 1
  outer loop
    vertex 8.79757 -4.40538 0.5
    vertex 6.92493 -5.12432 0.5
    vertex 9.47706 -6.03325 0.5
  endloop
endfacet
facet normal 0 -0 1
  outer loop
    vertex 8.79757 -4.40538 0.5
    vertex 10.1208 -3.70715 0.5
    vertex 8.63356 -2.60888 0.5
  endloop
endfacet
facet normal 0 0 1
  outer loop
    vertex 10.1208 -3.70715 0.5
    vertex 8.79757 -4.40538 0.5
    vertex 9.47706 -6.03325 0.5
  endloop
endfacet
facet normal 0 0 1
  outer loop
    vertex 6.92493 -5.12432 0.5
    vertex 8.79757 -4.40538 0.5
    vertex 8.63356 -2.60888 0.5
  endloop
endfacet
facet normal 0 0 1
  outer loop
    vertex 9.96668 -0.24609 0.5
    vertex 10.0161 -2.07575 0.5
    vertex 11.411 -2.02429 0.5
  endloop
endfacet
facet normal 0 0 1
  outer loop
    vertex 10.1208 -3.70715 0.5
    vertex 10.0161 -2.07575 0.5
    vertex 8.63356 -2.60888 0.5
  endloop
endfacet
facet normal -0 0 1
  outer loop
    vertex 10.0161 -2.07575 0.5
    vertex 10.1208 -3.70715 0.5
    vertex 11.411 -2.02429 0.5
  endloop
endfacet
facet normal 0 0 1
  outer loop
    vertex 10.0161 -2.07575 0.5
    vertex 9.96668 -0.24609 0.5
    vertex 8.63356 -2.60888 0.5
  endloop
endfacet
facet normal 0 0 1
  outer loop
    vertex 13.0421 4.89479 0.5
    vertex 12.637 2.55794 0.5
    vertex 13.7065 2.48737 0.5
  endloop
endfacet
facet normal 0 -0 1
  outer loop
    vertex 12.637 2.55794 0.5
    vertex 13.0421 4.89479 0.5
    vertex 11.4261 2.45304 0.5
  endloop
endfacet
facet normal 0 0 1
  outer loop
    vertex 3.27579 -3.24722 0.5
    vertex 1.45063 -1.89578 0.5
    vertex 0.782276 -4.52458 0.5
  endloop
endfacet
facet normal -0 0 1
  outer loop
    vertex 1.45063 -1.89578 0.5
    vertex 3.27579 -3.24722 0.5
    vertex 3.06018 -0.0755394 0.5
  endloop
endfacet
facet normal 0 0 1
  outer loop
    vertex 1.45063 -1.89578 0.5
    vertex -0.773636 -1.93667 0.5
    vertex 0.782276 -4.52458 0.5
  endloop
endfacet
facet normal -0 0 1
  outer loop
    vertex 5.09742 -3.75823 0.5
    vertex 6.92493 -5.12432 0.5
    vertex 6.51137 -1.798 0.5
  endloop
endfacet
facet normal 0 0 1
  outer loop
    vertex 5.09742 -3.75823 0.5
    vertex 3.27579 -3.24722 0.5
    vertex 3.86622 -6.12488 0.5
  endloop
endfacet
facet normal 0 0 1
  outer loop
    vertex 6.92493 -5.12432 0.5
    vertex 5.09742 -3.75823 0.5
    vertex 3.86622 -6.12488 0.5
  endloop
endfacet
facet normal 0 0 1
  outer loop
    vertex 11.3148 -5.06615 0.5
    vertex 10.1208 -3.70715 0.5
    vertex 9.47706 -6.03325 0.5
  endloop
endfacet
facet normal -0 0 1
  outer loop
    vertex 10.1208 -3.70715 0.5
    vertex 11.3148 -5.06615 0.5
    vertex 11.9192 -3.66109 0.5
  endloop
endfacet
facet normal 0 0 1
  outer loop
    vertex 11.9585 -7.14488 0.5
    vertex 11.3148 -5.06615 0.5
    vertex 9.47706 -6.03325 0.5
  endloop
endfacet
facet normal 0 0 1
  outer loop
    vertex -11.2699 -8.18807 0.5
    vertex -9.51574 -8.08346 0.5
    vertex -10.9573 -7.36131 0.5
  endloop
endfacet
facet normal 0 0 1
  outer loop
    vertex -9.51574 -8.08346 0.5
    vertex -11.2699 -8.18807 0.5
    vertex -9.62677 -10.0688 0.5
  endloop
endfacet
facet normal -0 0 1
  outer loop
    vertex -12.5508 -6.04417 0.5
    vertex -10.9573 -7.36131 0.5
    vertex -10.3924 -5.98963 0.5
  endloop
endfacet
facet normal 0 0 1
  outer loop
    vertex -11.9723 -3.81689 0.5
    vertex -12.5508 -6.04417 0.5
    vertex -10.3924 -5.98963 0.5
  endloop
endfacet
facet normal 0 -0 1
  outer loop
    vertex -5.51873 9.93102 0.5
    vertex -5.47499 12.8094 0.5
    vertex -7.67421 11.6259 0.5
  endloop
endfacet
facet normal 0 0 1
  outer loop
    vertex -7.74001 8.7873 0.5
    vertex -5.51873 9.93102 0.5
    vertex -7.67421 11.6259 0.5
  endloop
endfacet
facet normal 0 0 1
  outer loop
    vertex -5.47499 12.8094 0.5
    vertex -5.51873 9.93102 0.5
    vertex -3.64351 10.9758 0.5
  endloop
endfacet
facet normal -0 0 1
  outer loop
    vertex -5.51873 9.93102 0.5
    vertex -3.74192 8.36185 0.5
    vertex -3.64351 10.9758 0.5
  endloop
endfacet
facet normal -0 0 1
  outer loop
    vertex 11.3148 -5.06615 0.5
    vertex 11.9585 -7.14488 0.5
    vertex 13.0421 -4.89479 0.5
  endloop
endfacet
facet normal 0 0 1
  outer loop
    vertex 11.9192 -3.66109 0.5
    vertex 11.3148 -5.06615 0.5
    vertex 13.0421 -4.89479 0.5
  endloop
endfacet
facet normal -0 0 1
  outer loop
    vertex 10.5026 5.37804 0.5
    vertex 13.0421 4.89479 0.5
    vertex 11.9585 7.14488 0.5
  endloop
endfacet
facet normal 0 0 1
  outer loop
    vertex 10.5026 5.37804 0.5
    vertex 9.21086 7.90905 0.5
    vertex 8.1636 5.32567 0.5
  endloop
endfacet
facet normal 0 0 1
  outer loop
    vertex 9.21086 7.90905 0.5
    vertex 10.5026 5.37804 0.5
    vertex 11.9585 7.14488 0.5
  endloop
endfacet
facet normal 0 0 1
  outer loop
    vertex -2.90053 -9.40846 0.5
    vertex -1.02725 -9.20551 0.5
    vertex -1.2197 -6.78928 0.5
  endloop
endfacet
facet normal 0 -0 1
  outer loop
    vertex -1.02725 -9.20551 0.5
    vertex 1.0786 -7.57357 0.5
    vertex -1.2197 -6.78928 0.5
  endloop
endfacet
facet normal -0 0 1
  outer loop
    vertex 9.21086 7.90905 0.5
    vertex 11.9585 7.14488 0.5
    vertex 10.4906 9.16534 0.5
  endloop
endfacet
facet normal 0 0 1
  outer loop
    vertex 8.68545 10.8912 0.5
    vertex 9.21086 7.90905 0.5
    vertex 10.4906 9.16534 0.5
  endloop
endfacet
facet normal -0 0 1
  outer loop
    vertex 6.89703 9.30934 0.5
    vertex 9.21086 7.90905 0.5
    vertex 8.68545 10.8912 0.5
  endloop
endfacet
facet normal 0 0 1
  outer loop
    vertex -11.7053 -0.149999 0.5
    vertex -11.3059 -2.08921 0.5
    vertex -9.71867 -0.550311 0.5
  endloop
endfacet
facet normal 0 0 1
  outer loop
    vertex -10.9985 1.50661 0.5
    vertex -11.7053 -0.149999 0.5
    vertex -9.71867 -0.550311 0.5
  endloop
endfacet
facet normal 0 -0 1
  outer loop
    vertex -5.18352 -9.73316 0.5
    vertex -3.60832 -7.24749 0.5
    vertex -5.56211 -7.39575 0.5
  endloop
endfacet
facet normal 0 0 1
  outer loop
    vertex -8.17707 0.317368 0.5
    vertex -9.02954 2.17475 0.5
    vertex -9.71867 -0.550311 0.5
  endloop
endfacet
facet normal 0 0 1
  outer loop
    vertex -9.71867 -0.550311 0.5
    vertex -8.96819 -3.86693 0.5
    vertex -7.02246 -1.32296 0.5
  endloop
endfacet
facet normal 0 0 1
  outer loop
    vertex -7.02246 -1.32296 0.5
    vertex -8.17707 0.317368 0.5
    vertex -9.71867 -0.550311 0.5
  endloop
endfacet
facet normal 0 0 1
  outer loop
    vertex -9.02954 2.17475 0.5
    vertex -9.03709 4.43779 0.5
    vertex -11.0712 3.58536 0.5
  endloop
endfacet
facet normal 0 0 1
  outer loop
    vertex -9.03709 4.43779 0.5
    vertex -10.0646 5.69241 0.5
    vertex -11.0712 3.58536 0.5
  endloop
endfacet
facet normal 0 -0 1
  outer loop
    vertex 11.9192 -3.66109 0.5
    vertex 13.7065 -2.48737 0.5
    vertex 11.411 -2.02429 0.5
  endloop
endfacet
facet normal 0 0 1
  outer loop
    vertex 13.7065 -2.48737 0.5
    vertex 12.3733 0.396575 0.5
    vertex 11.411 -2.02429 0.5
  endloop
endfacet
facet normal 0 0 1
  outer loop
    vertex -11.0712 3.58536 0.5
    vertex -12.5508 6.04417 0.5
    vertex -13.4284 3.706 0.5
  endloop
endfacet
facet normal 0 0 1
  outer loop
    vertex -11.0712 3.58536 0.5
    vertex -12.6294 1.63163 0.5
    vertex -10.9985 1.50661 0.5
  endloop
endfacet
facet normal 0 -0 1
  outer loop
    vertex -12.6294 1.63163 0.5
    vertex -11.0712 3.58536 0.5
    vertex -13.4284 3.706 0.5
  endloop
endfacet
facet normal -0 0 1
  outer loop
    vertex 4.65676 7.85028 0.5
    vertex 6.86693 6.98665 0.5
    vertex 6.89703 9.30934 0.5
  endloop
endfacet
facet normal 0 0 1
  outer loop
    vertex 6.86693 6.98665 0.5
    vertex 9.21086 7.90905 0.5
    vertex 6.89703 9.30934 0.5
  endloop
endfacet
facet normal 0 0 1
  outer loop
    vertex 9.21086 7.90905 0.5
    vertex 6.86693 6.98665 0.5
    vertex 8.1636 5.32567 0.5
  endloop
endfacet
facet normal 0 0 1
  outer loop
    vertex -0.899854 5.41871 0.5
    vertex -2.47838 3.45159 0.5
    vertex -0.247371 2.61386 0.5
  endloop
endfacet
facet normal 0 0 1
  outer loop
    vertex -2.47838 3.45159 0.5
    vertex -2.32627 0.691195 0.5
    vertex -0.247371 2.61386 0.5
  endloop
endfacet
facet normal 0 0 1
  outer loop
    vertex -2.32627 0.691195 0.5
    vertex -2.47838 3.45159 0.5
    vertex -4.75879 2.5309 0.5
  endloop
endfacet
facet normal 0 -0 1
  outer loop
    vertex 5.56719 -7.82499 0.5
    vertex 6.92493 -5.12432 0.5
    vertex 3.86622 -6.12488 0.5
  endloop
endfacet
facet normal 0 0 1
  outer loop
    vertex 3.19004 -9.50938 0.5
    vertex 5.56719 -7.82499 0.5
    vertex 3.86622 -6.12488 0.5
  endloop
endfacet
facet normal -0 0 1
  outer loop
    vertex -3.0998 13.5811 0.5
    vertex -0.41571 12.0088 0.5
    vertex -0.624984 13.9164 0.5
  endloop
endfacet
facet normal 0 0 1
  outer loop
    vertex 1.8675 11.8937 0.5
    vertex -0.41571 12.0088 0.5
    vertex 1.10301 9.69462 0.5
  endloop
endfacet
facet normal 0 0 1
  outer loop
    vertex 1.86992 13.8043 0.5
    vertex -0.41571 12.0088 0.5
    vertex 1.8675 11.8937 0.5
  endloop
endfacet
facet normal 0 -0 1
  outer loop
    vertex -0.41571 12.0088 0.5
    vertex 1.86992 13.8043 0.5
    vertex -0.624984 13.9164 0.5
  endloop
endfacet
facet normal -0 0 1
  outer loop
    vertex -8.20941 6.24868 0.5
    vertex -6.90729 4.10649 0.5
    vertex -5.72619 6.87948 0.5
  endloop
endfacet
facet normal 0 0 1
  outer loop
    vertex -7.74001 8.7873 0.5
    vertex -8.20941 6.24868 0.5
    vertex -5.72619 6.87948 0.5
  endloop
endfacet
facet normal 0 -0 1
  outer loop
    vertex -7.4036 -8.46277 0.5
    vertex -6.72286 -5.68114 0.5
    vertex -8.6197 -6.71128 0.5
  endloop
endfacet
facet normal 0 0 1
  outer loop
    vertex -6.72286 -5.68114 0.5
    vertex -7.4036 -8.46277 0.5
    vertex -5.56211 -7.39575 0.5
  endloop
endfacet
facet normal 0 0 1
  outer loop
    vertex -2.1997 11.5578 0.5
    vertex -3.0998 13.5811 0.5
    vertex -3.64351 10.9758 0.5
  endloop
endfacet
facet normal -0 0 1
  outer loop
    vertex -2.1997 11.5578 0.5
    vertex -1.63976 9.6655 0.5
    vertex -0.41571 12.0088 0.5
  endloop
endfacet
facet normal 0 0 1
  outer loop
    vertex -1.63976 9.6655 0.5
    vertex -2.1997 11.5578 0.5
    vertex -3.64351 10.9758 0.5
  endloop
endfacet
facet normal 0 0 1
  outer loop
    vertex -3.0998 13.5811 0.5
    vertex -2.1997 11.5578 0.5
    vertex -0.41571 12.0088 0.5
  endloop
endfacet
facet normal 0 0 1
  outer loop
    vertex -6.88676 -3.53115 0.5
    vertex -7.02246 -1.32296 0.5
    vertex -8.96819 -3.86693 0.5
  endloop
endfacet
facet normal -0 0 1
  outer loop
    vertex -6.88676 -3.53115 0.5
    vertex -6.72286 -5.68114 0.5
    vertex -5.08132 -3.25487 0.5
  endloop
endfacet
facet normal 0 0 1
  outer loop
    vertex -6.72286 -5.68114 0.5
    vertex -6.88676 -3.53115 0.5
    vertex -8.96819 -3.86693 0.5
  endloop
endfacet
facet normal 0 0 1
  outer loop
    vertex -7.02246 -1.32296 0.5
    vertex -6.88676 -3.53115 0.5
    vertex -5.08132 -3.25487 0.5
  endloop
endfacet
facet normal 0 0 1
  outer loop
    vertex 13.0421 4.89479 0.5
    vertex 11.1061 3.9425 0.5
    vertex 11.4261 2.45304 0.5
  endloop
endfacet
facet normal 0 0 1
  outer loop
    vertex 9.45356 3.04414 0.5
    vertex 11.1061 3.9425 0.5
    vertex 10.5026 5.37804 0.5
  endloop
endfacet
facet normal 0 0 1
  outer loop
    vertex 11.1061 3.9425 0.5
    vertex 9.45356 3.04414 0.5
    vertex 11.4261 2.45304 0.5
  endloop
endfacet
facet normal 0 -0 1
  outer loop
    vertex 11.1061 3.9425 0.5
    vertex 13.0421 4.89479 0.5
    vertex 10.5026 5.37804 0.5
  endloop
endfacet
facet normal 0 -0 1
  outer loop
    vertex -0.773636 -1.93667 0.5
    vertex -0.600933 0.474833 0.5
    vertex -2.32627 0.691195 0.5
  endloop
endfacet
facet normal 0 0 1
  outer loop
    vertex -0.247371 2.61386 0.5
    vertex -0.600933 0.474833 0.5
    vertex 0.908538 0.305099 0.5
  endloop
endfacet
facet normal 0 -0 1
  outer loop
    vertex -0.600933 0.474833 0.5
    vertex -0.247371 2.61386 0.5
    vertex -2.32627 0.691195 0.5
  endloop
endfacet
facet normal 0 0 1
  outer loop
    vertex -0.600933 0.474833 0.5
    vertex -0.773636 -1.93667 0.5
    vertex 0.908538 0.305099 0.5
  endloop
endfacet
facet normal 0 0 1
  outer loop
    vertex -4.67887 -5.62927 0.5
    vertex -5.08132 -3.25487 0.5
    vertex -6.72286 -5.68114 0.5
  endloop
endfacet
facet normal 0 -0 1
  outer loop
    vertex -5.56211 -7.39575 0.5
    vertex -4.67887 -5.62927 0.5
    vertex -6.72286 -5.68114 0.5
  endloop
endfacet
facet normal 0 0 1
  outer loop
    vertex 9.96668 -0.24609 0.5
    vertex 8.24273 -0.980955 0.5
    vertex 8.63356 -2.60888 0.5
  endloop
endfacet
facet normal 0 0 1
  outer loop
    vertex 6.51137 -1.798 0.5
    vertex 8.24273 -0.980955 0.5
    vertex 7.8593 0.729149 0.5
  endloop
endfacet
facet normal 0 0 1
  outer loop
    vertex 8.24273 -0.980955 0.5
    vertex 6.51137 -1.798 0.5
    vertex 8.63356 -2.60888 0.5
  endloop
endfacet
facet normal 0 -0 1
  outer loop
    vertex 8.24273 -0.980955 0.5
    vertex 9.96668 -0.24609 0.5
    vertex 7.8593 0.729149 0.5
  endloop
endfacet
facet normal 0 0 1
  outer loop
    vertex 5.78382 1.30398 0.5
    vertex 4.38806 0.538287 0.5
    vertex 4.64675 -0.937861 0.5
  endloop
endfacet
facet normal 0 0 1
  outer loop
    vertex 3.06018 -0.0755394 0.5
    vertex 4.38806 0.538287 0.5
    vertex 4.22277 1.86801 0.5
  endloop
endfacet
facet normal 0 0 1
  outer loop
    vertex 4.38806 0.538287 0.5
    vertex 3.06018 -0.0755394 0.5
    vertex 4.64675 -0.937861 0.5
  endloop
endfacet
facet normal 0 -0 1
  outer loop
    vertex 4.38806 0.538287 0.5
    vertex 5.78382 1.30398 0.5
    vertex 4.22277 1.86801 0.5
  endloop
endfacet
facet normal 0 0 1
  outer loop
    vertex 3.27579 -3.24722 0.5
    vertex 4.88284 -2.43533 0.5
    vertex 4.64675 -0.937861 0.5
  endloop
endfacet
facet normal 0 0 1
  outer loop
    vertex 6.51137 -1.798 0.5
    vertex 4.88284 -2.43533 0.5
    vertex 5.09742 -3.75823 0.5
  endloop
endfacet
facet normal 0 -0 1
  outer loop
    vertex 4.88284 -2.43533 0.5
    vertex 6.51137 -1.798 0.5
    vertex 4.64675 -0.937861 0.5
  endloop
endfacet
facet normal 0 0 1
  outer loop
    vertex 4.88284 -2.43533 0.5
    vertex 3.27579 -3.24722 0.5
    vertex 5.09742 -3.75823 0.5
  endloop
endfacet
facet normal 0 0 1
  outer loop
    vertex -10.3924 -5.98963 0.5
    vertex -9.51574 -8.08346 0.5
    vertex -8.6197 -6.71128 0.5
  endloop
endfacet
facet normal 0 0 1
  outer loop
    vertex -9.51574 -8.08346 0.5
    vertex -10.3924 -5.98963 0.5
    vertex -10.9573 -7.36131 0.5
  endloop
endfacet
facet normal 0 0 1
  outer loop
    vertex -7.4036 -8.46277 0.5
    vertex -8.6197 -6.71128 0.5
    vertex -9.51574 -8.08346 0.5
  endloop
endfacet
facet normal 0 0 1
  outer loop
    vertex -5.08132 -3.25487 0.5
    vertex -4.67887 -5.62927 0.5
    vertex -2.72908 -4.39824 0.5
  endloop
endfacet
facet normal -0 0 1
  outer loop
    vertex -4.67887 -5.62927 0.5
    vertex -3.60832 -7.24749 0.5
    vertex -2.72908 -4.39824 0.5
  endloop
endfacet
facet normal 0 0 1
  outer loop
    vertex -3.60832 -7.24749 0.5
    vertex -4.67887 -5.62927 0.5
    vertex -5.56211 -7.39575 0.5
  endloop
endfacet
facet normal 0 0 1
  outer loop
    vertex -7.4036 -8.46277 0.5
    vertex -7.67421 -11.6259 0.5
    vertex -5.18352 -9.73316 0.5
  endloop
endfacet
facet normal 0 0 1
  outer loop
    vertex -5.56211 -7.39575 0.5
    vertex -7.4036 -8.46277 0.5
    vertex -5.18352 -9.73316 0.5
  endloop
endfacet
facet normal -0 0 1
  outer loop
    vertex -2.06197 7.38134 0.5
    vertex -0.899854 5.41871 0.5
    vertex -0.444671 7.83628 0.5
  endloop
endfacet
facet normal 0 0 1
  outer loop
    vertex -1.63976 9.6655 0.5
    vertex -2.06197 7.38134 0.5
    vertex -0.444671 7.83628 0.5
  endloop
endfacet
facet normal 0 0 1
  outer loop
    vertex 2.2708 -12.087 0.5
    vertex -0.624984 -13.9164 0.5
    vertex 1.86992 -13.8043 0.5
  endloop
endfacet
facet normal -0 0 1
  outer loop
    vertex 2.2708 -12.087 0.5
    vertex 4.30473 -13.2486 0.5
    vertex 4.46312 -11.3923 0.5
  endloop
endfacet
facet normal 0 0 1
  outer loop
    vertex 4.30473 -13.2486 0.5
    vertex 2.2708 -12.087 0.5
    vertex 1.86992 -13.8043 0.5
  endloop
endfacet
facet normal 0 0 1
  outer loop
    vertex 9.39929 -8.55506 0.5
    vertex 11.9585 -7.14488 0.5
    vertex 9.47706 -6.03325 0.5
  endloop
endfacet
facet normal -0 0 1
  outer loop
    vertex 7.63192 -7.99155 0.5
    vertex 9.39929 -8.55506 0.5
    vertex 9.47706 -6.03325 0.5
  endloop
endfacet
facet normal 0 0 1
  outer loop
    vertex 7.34291 2.97631 0.5
    vertex 5.78382 1.30398 0.5
    vertex 7.8593 0.729149 0.5
  endloop
endfacet
facet normal 0 0 1
  outer loop
    vertex 9.45356 3.04414 0.5
    vertex 7.34291 2.97631 0.5
    vertex 7.8593 0.729149 0.5
  endloop
endfacet
facet normal 0 -0 1
  outer loop
    vertex -7.74001 8.7873 0.5
    vertex -7.67421 11.6259 0.5
    vertex -9.62677 10.0688 0.5
  endloop
endfacet
facet normal 0 0 1
  outer loop
    vertex -7.74001 8.7873 0.5
    vertex -9.78132 7.58861 0.5
    vertex -8.20941 6.24868 0.5
  endloop
endfacet
facet normal 0 0 1
  outer loop
    vertex -9.78132 7.58861 0.5
    vertex -7.74001 8.7873 0.5
    vertex -9.62677 10.0688 0.5
  endloop
endfacet
facet normal 0 -0 1
  outer loop
    vertex 11.411 -2.02429 0.5
    vertex 12.3733 0.396575 0.5
    vertex 9.96668 -0.24609 0.5
  endloop
endfacet
facet normal 0 0 1
  outer loop
    vertex 12.637 2.55794 0.5
    vertex 12.3733 0.396575 0.5
    vertex 13.7065 2.48737 0.5
  endloop
endfacet
facet normal 0 0 1
  outer loop
    vertex 11.4261 2.45304 0.5
    vertex 9.96668 -0.24609 0.5
    vertex 12.3733 0.396575 0.5
  endloop
endfacet
facet normal 0 -0 1
  outer loop
    vertex 12.3733 0.396575 0.5
    vertex 12.637 2.55794 0.5
    vertex 11.4261 2.45304 0.5
  endloop
endfacet
facet normal -0 0 1
  outer loop
    vertex 1.22169 4.67739 0.5
    vertex 2.52286 2.88632 0.5
    vertex 3.00841 5.37913 0.5
  endloop
endfacet
facet normal 0 0 1
  outer loop
    vertex 1.72442 7.08891 0.5
    vertex 1.22169 4.67739 0.5
    vertex 3.00841 5.37913 0.5
  endloop
endfacet
facet normal 0 0 1
  outer loop
    vertex -7.67421 -11.6259 0.5
    vertex -8.55508 -9.56024 0.5
    vertex -9.62677 -10.0688 0.5
  endloop
endfacet
facet normal 0 0 1
  outer loop
    vertex -9.51574 -8.08346 0.5
    vertex -8.55508 -9.56024 0.5
    vertex -7.4036 -8.46277 0.5
  endloop
endfacet
facet normal 0 0 1
  outer loop
    vertex -8.55508 -9.56024 0.5
    vertex -9.51574 -8.08346 0.5
    vertex -9.62677 -10.0688 0.5
  endloop
endfacet
facet normal -0 0 1
  outer loop
    vertex -8.55508 -9.56024 0.5
    vertex -7.67421 -11.6259 0.5
    vertex -7.4036 -8.46277 0.5
  endloop
endfacet
facet normal 0 0 1
  outer loop
    vertex 5.94885 -9.84938 0.5
    vertex 4.46312 -11.3923 0.5
    vertex 6.60117 -12.267 0.5
  endloop
endfacet
facet normal 0 0 1
  outer loop
    vertex -0.773636 -1.93667 0.5
    vertex 1.45063 -1.89578 0.5
    vertex 0.908538 0.305099 0.5
  endloop
endfacet
facet normal 0 -0 1
  outer loop
    vertex 1.45063 -1.89578 0.5
    vertex 3.06018 -0.0755394 0.5
    vertex 0.908538 0.305099 0.5
  endloop
endfacet
facet normal 0 0 1
  outer loop
    vertex -0.773636 -1.93667 0.5
    vertex -3.11835 -1.88115 0.5
    vertex -2.72908 -4.39824 0.5
  endloop
endfacet
facet normal 0 0 1
  outer loop
    vertex -3.11835 -1.88115 0.5
    vertex -5.08132 -3.25487 0.5
    vertex -2.72908 -4.39824 0.5
  endloop
endfacet
endsolid Created by Gmsh
