DBRep_DrawableShape

CASCADE Topology V1, (c) Matra-Datavision
Locations 32
1
              1               0               0               0 
              0               1               0               0 
              0               0               1               0 
1
              1               0               0               0 
              0               1               0               0 
              0               0               1               0 
1
              1               0               0               0 
              0               1               0               0 
              0               0               1               0 
2  2 1 3 -1 0
1
              1               0               0               0 
              0               1               0               0 
              0               0               1               0 
2  5 -1 3 1 2 -1 0
1
              1               0               0               0 
              0               1               0               0 
              0               0               1               0 
1
              1               0               0               0 
              0               1               0               0 
              0               0               1               0 
1
              1               0               0              -0 
              0               1               0              -0 
              0               0               1            -1.5 
2  7 1 8 -1 9 1 0
2  9 -1 8 1 7 -1 0
2  7 -1 0
2  5 -1 3 1 2 -1 9 -1 8 1 7 -1 0
1
              1               0               0               0 
              0               1               0               0 
              0               0               1               3 
2  7 1 8 -1 9 1 14 1 0
2  14 -1 9 -1 8 1 7 -1 0
2  5 -1 3 1 2 -1 14 -1 9 -1 8 1 7 -1 0
2  8 -1 9 1 2 1 3 -1 0
2  8 -1 9 1 14 1 2 1 3 -1 0
2  5 -1 0
1
              1               0               0               0 
              0               1               0               0 
              0               0               1               0 
1
              1               0               0               0 
              0               1               0               0 
              0               0               1             0.5 
2  21 1 3 -1 22 1 0
2  22 -1 3 1 21 -1 0
2  21 -1 0
2  5 -1 22 -1 3 1 21 -1 0
1
              1               0               0              -0 
              0               1               0              -0 
              0               0               1              -1 
2  21 1 3 -1 22 1 27 1 0
2  27 -1 22 -1 3 1 21 -1 0
2  5 -1 27 -1 22 -1 3 1 21 -1 0
2  3 -1 22 1 0
2  3 -1 22 1 27 1 0
Curve2ds 8
1 0 0 0 -1 
1 6.2831853071795862 0 0 -1 
1 0 0 1 0 
1 0 -3 1 0 
1 0 0 0 -1 
1 6.2831853071795862 0 0 -1 
1 0 0 1 0 
1 0 -1 1 0 
Curves 6
1 14.960948 0 -1.5 0 0 1 
2 0 0 0 0 0 1 1 0 0 0 1 0 14.960948
2 0 0 0 0 0 1 1 0 0 0 1 0 14.960948
1 13.930384999999999 0 0.5 -0 -0 -1 
2 0 0 0 0 0 1 1 0 0 0 1 0 13.930384999999999
2 0 0 0 0 0 1 1 0 0 0 1 0 13.930384999999999
Polygon3D 0
PolygonOnTriangulations 12
2 1 2 
p 0.0418958619576303 1 0 3 
2 3 4 
p 0.0418958619576303 1 0 3 
61 1 5 6 7 8 9 10 11 12 13 14 15 16 17 18 19 20 21 22 23 24 25 26 27 28 29 30 31 32 33 34 35 36 37 38 39 40 41 42 43 44 45 46 47 48 49 50 51 52 53 54 55 56 57 58 59 60 61 62 63 3 
p 0.0418958619576303 1 0 0.10471975511966 0.20943951023932 0.314159265358979 0.418879020478639 0.523598775598299 0.628318530717959 0.733038285837618 0.837758040957278 0.942477796076938 1.0471975511966 1.15191730631626 1.25663706143592 1.36135681655558 1.46607657167524 1.5707963267949 1.67551608191456 1.78023583703422 1.88495559215388 1.98967534727354 2.09439510239319 2.19911485751285 2.30383461263251 2.40855436775217 2.51327412287183 2.61799387799149 2.72271363311115 2.82743338823081 2.93215314335047 3.03687289847013 3.14159265358979 3.24631240870945 3.35103216382911 3.45575191894877 3.56047167406843 3.66519142918809 3.76991118430775 3.87463093942741 3.97935069454707 4.08407044966673 4.18879020478639 4.29350995990605 4.39822971502571 4.50294947014537 4.60766922526503 4.71238898038469 4.81710873550435 4.92182849062401 5.02654824574367 5.13126800086333 5.23598775598299 5.34070751110265 5.44542726622231 5.55014702134197 5.65486677646162 5.75958653158128 5.86430628670094 5.9690260418206 6.07374579694026 6.17846555205992 6.28318530717959 
61 1 2 3 4 5 6 7 8 9 10 11 12 13 14 15 16 17 18 19 20 21 22 23 24 25 26 27 28 29 30 31 32 33 34 35 36 37 38 39 40 41 42 43 44 45 46 47 48 49 50 51 52 53 54 55 56 57 58 59 60 1 
p 0.0418958619576303 1 0 0.10471975511966 0.20943951023932 0.314159265358979 0.418879020478639 0.523598775598299 0.628318530717959 0.733038285837618 0.837758040957278 0.942477796076938 1.0471975511966 1.15191730631626 1.25663706143592 1.36135681655558 1.46607657167524 1.5707963267949 1.67551608191456 1.78023583703422 1.88495559215388 1.98967534727354 2.09439510239319 2.19911485751285 2.30383461263251 2.40855436775217 2.51327412287183 2.61799387799149 2.72271363311115 2.82743338823081 2.93215314335047 3.03687289847013 3.14159265358979 3.24631240870945 3.35103216382911 3.45575191894877 3.56047167406843 3.66519142918809 3.76991118430775 3.87463093942741 3.97935069454707 4.08407044966673 4.18879020478639 4.29350995990605 4.39822971502571 4.50294947014537 4.60766922526503 4.71238898038469 4.81710873550435 4.92182849062401 5.02654824574367 5.13126800086333 5.23598775598299 5.34070751110265 5.44542726622231 5.55014702134197 5.65486677646162 5.75958653158128 5.86430628670094 5.9690260418206 6.07374579694026 6.17846555205992 6.28318530717959 
61 2 64 65 66 67 68 69 70 71 72 73 74 75 76 77 78 79 80 81 82 83 84 85 86 87 88 89 90 91 92 93 94 95 96 97 98 99 100 101 102 103 104 105 106 107 108 109 110 111 112 113 114 115 116 117 118 119 120 121 122 4 
p 0.0418958619576303 1 0 0.10471975511966 0.20943951023932 0.314159265358979 0.418879020478639 0.523598775598299 0.628318530717959 0.733038285837618 0.837758040957278 0.942477796076938 1.0471975511966 1.15191730631626 1.25663706143592 1.36135681655558 1.46607657167524 1.5707963267949 1.67551608191456 1.78023583703422 1.88495559215388 1.98967534727354 2.09439510239319 2.19911485751285 2.30383461263251 2.40855436775217 2.51327412287183 2.61799387799149 2.72271363311115 2.82743338823081 2.93215314335047 3.03687289847013 3.14159265358979 3.24631240870945 3.35103216382911 3.45575191894877 3.56047167406843 3.66519142918809 3.76991118430775 3.87463093942741 3.97935069454707 4.08407044966673 4.18879020478639 4.29350995990605 4.39822971502571 4.50294947014537 4.60766922526503 4.71238898038469 4.81710873550435 4.92182849062401 5.02654824574367 5.13126800086333 5.23598775598299 5.34070751110265 5.44542726622231 5.55014702134197 5.65486677646162 5.75958653158128 5.86430628670094 5.9690260418206 6.07374579694026 6.17846555205992 6.28318530717959 
61 1 2 3 4 5 6 7 8 9 10 11 12 13 14 15 16 17 18 19 20 21 22 23 24 25 26 27 28 29 30 31 32 33 34 35 36 37 38 39 40 41 42 43 44 45 46 47 48 49 50 51 52 53 54 55 56 57 58 59 60 1 
p 0.0418958619576303 1 0 0.10471975511966 0.20943951023932 0.314159265358979 0.418879020478639 0.523598775598299 0.628318530717959 0.733038285837618 0.837758040957278 0.942477796076938 1.0471975511966 1.15191730631626 1.25663706143592 1.36135681655558 1.46607657167524 1.5707963267949 1.67551608191456 1.78023583703422 1.88495559215388 1.98967534727354 2.09439510239319 2.19911485751285 2.30383461263251 2.40855436775217 2.51327412287183 2.61799387799149 2.72271363311115 2.82743338823081 2.93215314335047 3.03687289847013 3.14159265358979 3.24631240870945 3.35103216382911 3.45575191894877 3.56047167406843 3.66519142918809 3.76991118430775 3.87463093942741 3.97935069454707 4.08407044966673 4.18879020478639 4.29350995990605 4.39822971502571 4.50294947014537 4.60766922526503 4.71238898038469 4.81710873550435 4.92182849062401 5.02654824574367 5.13126800086333 5.23598775598299 5.34070751110265 5.44542726622231 5.55014702134197 5.65486677646162 5.75958653158128 5.86430628670094 5.9690260418206 6.07374579694026 6.17846555205992 6.28318530717959 
2 1 2 
p 0.0418958619576303 1 0 1 
2 3 4 
p 0.0418958619576303 1 0 1 
59 1 5 6 7 8 9 10 11 12 13 14 15 16 17 18 19 20 21 22 23 24 25 26 27 28 29 30 31 32 33 34 35 36 37 38 39 40 41 42 43 44 45 46 47 48 49 50 51 52 53 54 55 56 57 58 59 60 61 3 
p 0.0418958619576303 1 0 0.108330781158269 0.216661562316537 0.324992343474806 0.433323124633075 0.541653905791344 0.649984686949612 0.758315468107881 0.86664624926615 0.974977030424419 1.08330781158269 1.19163859274096 1.29996937389923 1.40830015505749 1.51663093621576 1.62496171737403 1.7332924985323 1.84162327969057 1.94995406084884 2.05828484200711 2.16661562316538 2.27494640432364 2.38327718548191 2.49160796664018 2.59993874779845 2.70826952895672 2.81660031011499 2.92493109127326 3.03326187243153 3.14159265358979 3.24992343474806 3.35825421590633 3.4665849970646 3.57491577822287 3.68324655938114 3.79157734053941 3.89990812169768 4.00823890285594 4.11656968401421 4.22490046517248 4.33323124633075 4.44156202748902 4.54989280864729 4.65822358980555 4.76655437096382 4.87488515212209 4.98321593328036 5.09154671443863 5.1998774955969 5.30820827675516 5.41653905791343 5.5248698390717 5.63320062022997 5.74153140138824 5.84986218254651 5.95819296370477 6.06652374486304 6.17485452602131 6.28318530717959 
59 1 2 3 4 5 6 7 8 9 10 11 12 13 14 15 16 17 18 19 20 21 22 23 24 25 26 27 28 29 30 31 32 33 34 35 36 37 38 39 40 41 42 43 44 45 46 47 48 49 50 51 52 53 54 55 56 57 58 1 
p 0.0418958619576303 1 0 0.108330781158269 0.216661562316537 0.324992343474806 0.433323124633075 0.541653905791344 0.649984686949612 0.758315468107881 0.86664624926615 0.974977030424419 1.08330781158269 1.19163859274096 1.29996937389923 1.40830015505749 1.51663093621576 1.62496171737403 1.7332924985323 1.84162327969057 1.94995406084884 2.05828484200711 2.16661562316538 2.27494640432364 2.38327718548191 2.49160796664018 2.59993874779845 2.70826952895672 2.81660031011499 2.92493109127326 3.03326187243153 3.14159265358979 3.24992343474806 3.35825421590633 3.4665849970646 3.57491577822287 3.68324655938114 3.79157734053941 3.89990812169768 4.00823890285594 4.11656968401421 4.22490046517248 4.33323124633075 4.44156202748902 4.54989280864729 4.65822358980555 4.76655437096382 4.87488515212209 4.98321593328036 5.09154671443863 5.1998774955969 5.30820827675516 5.41653905791343 5.5248698390717 5.63320062022997 5.74153140138824 5.84986218254651 5.95819296370477 6.06652374486304 6.17485452602131 6.28318530717959 
59 2 62 63 64 65 66 67 68 69 70 71 72 73 74 75 76 77 78 79 80 81 82 83 84 85 86 87 88 89 90 91 92 93 94 95 96 97 98 99 100 101 102 103 104 105 106 107 108 109 110 111 112 113 114 115 116 117 118 4 
p 0.0418958619576303 1 0 0.108330781158269 0.216661562316537 0.324992343474806 0.433323124633075 0.541653905791344 0.649984686949612 0.758315468107881 0.86664624926615 0.974977030424419 1.08330781158269 1.19163859274096 1.29996937389923 1.40830015505749 1.51663093621576 1.62496171737403 1.7332924985323 1.84162327969057 1.94995406084884 2.05828484200711 2.16661562316538 2.27494640432364 2.38327718548191 2.49160796664018 2.59993874779845 2.70826952895672 2.81660031011499 2.92493109127326 3.03326187243153 3.14159265358979 3.24992343474806 3.35825421590633 3.4665849970646 3.57491577822287 3.68324655938114 3.79157734053941 3.89990812169768 4.00823890285594 4.11656968401421 4.22490046517248 4.33323124633075 4.44156202748902 4.54989280864729 4.65822358980555 4.76655437096382 4.87488515212209 4.98321593328036 5.09154671443863 5.1998774955969 5.30820827675516 5.41653905791343 5.5248698390717 5.63320062022997 5.74153140138824 5.84986218254651 5.95819296370477 6.06652374486304 6.17485452602131 6.28318530717959 
59 1 2 3 4 5 6 7 8 9 10 11 12 13 14 15 16 17 18 19 20 21 22 23 24 25 26 27 28 29 30 31 32 33 34 35 36 37 38 39 40 41 42 43 44 45 46 47 48 49 50 51 52 53 54 55 56 57 58 1 
p 0.0418958619576303 1 0 0.108330781158269 0.216661562316537 0.324992343474806 0.433323124633075 0.541653905791344 0.649984686949612 0.758315468107881 0.86664624926615 0.974977030424419 1.08330781158269 1.19163859274096 1.29996937389923 1.40830015505749 1.51663093621576 1.62496171737403 1.7332924985323 1.84162327969057 1.94995406084884 2.05828484200711 2.16661562316538 2.27494640432364 2.38327718548191 2.49160796664018 2.59993874779845 2.70826952895672 2.81660031011499 2.92493109127326 3.03326187243153 3.14159265358979 3.24992343474806 3.35825421590633 3.4665849970646 3.57491577822287 3.68324655938114 3.79157734053941 3.89990812169768 4.00823890285594 4.11656968401421 4.22490046517248 4.33323124633075 4.44156202748902 4.54989280864729 4.65822358980555 4.76655437096382 4.87488515212209 4.98321593328036 5.09154671443863 5.1998774955969 5.30820827675516 5.41653905791343 5.5248698390717 5.63320062022997 5.74153140138824 5.84986218254651 5.95819296370477 6.06652374486304 6.17485452602131 6.28318530717959 
Surfaces 6
2 0 0 -1.5 -0 -0 -1 1 0 0 0 1 0 14.960948
1 -1.0968076080789186e-15 8.5168090809155812e-16 0 0 0 1 1 0 0 0 1 0 
1 -1.0968076080789186e-15 8.5168090809155812e-16 0 0 0 1 1 0 0 0 1 0 
2 0 0 0.5 0 0 1 1 0 0 0 1 0 13.930384999999999
1 -3.9264963101577551e-16 1.7872377393899761e-15 0 0 0 1 1 0 0 0 1 0 
1 -3.9264963101577551e-16 1.7872377393899761e-15 0 0 0 1 1 0 0 0 1 0 
Triangulations 6
122 120 1 0.020503459272629
14.960948 0 -1.5 14.960948 0 1.5 14.960948 0 -1.5 14.960948 0 1.5 14.8789903614662 1.56384490346727 -1.5 14.6340153909032 3.11055599491657 -1.5 14.2287070853529 4.62318718395988 -1.5 13.6675060874272 6.08516576675161 -1.5 12.956561032698 7.480474 -1.5 12.1036611839599 8.79382459471457 -1.5 11.1181510904364 10.0108282069433 -1.5 10.0108282069433 11.1181510904364 -1.5 8.79382459471457 12.1036611839599 -1.5 7.480474 12.956561032698 -1.5 6.08516576675161 13.6675060874272 -1.5 4.62318718395988 14.2287070853529 -1.5 3.11055599491658 14.6340153909032 -1.5 1.56384490346728 14.8789903614662 -1.5 4.23809164198444e-15 14.960948 -1.5 -1.56384490346727 14.8789903614662 -1.5 -3.11055599491657 14.6340153909032 -1.5 -4.62318718395987 14.2287070853529 -1.5 -6.0851657667516 13.6675060874272 -1.5 -7.48047399999999 12.956561032698 -1.5 -8.79382459471456 12.1036611839599 -1.5 -10.0108282069433 11.1181510904364 -1.5 -11.1181510904364 10.0108282069433 -1.5 -12.1036611839599 8.79382459471457 -1.5 -12.956561032698 7.480474 -1.5 -13.6675060874272 6.0851657667516 -1.5 -14.2287070853529 4.62318718395988 -1.5 -14.6340153909032 3.11055599491657 -1.5 -14.8789903614662 1.56384490346726 -1.5 -14.960948 -1.14558034438147e-14 -1.5 -14.8789903614662 -1.56384490346729 -1.5 -14.6340153909032 -3.11055599491659 -1.5 -14.2287070853529 -4.6231871839599 -1.5 -13.6675060874271 -6.08516576675163 -1.5 -12.956561032698 -7.48047400000002 -1.5 -12.1036611839599 -8.79382459471459 -1.5 -11.1181510904364 -10.0108282069434 -1.5 -10.0108282069433 -11.1181510904364 -1.5 -8.79382459471455 -12.1036611839599 -1.5 -7.48047399999998 -12.956561032698 -1.5 -6.08516576675159 -13.6675060874272 -1.5 -4.62318718395987 -14.2287070853529 -1.5 -3.11055599491657 -14.6340153909032 -1.5 -1.56384490346727 -14.8789903614662 -1.5 -2.7482815620615e-15 -14.960948 -1.5 1.56384490346727 -14.8789903614662 -1.5 3.11055599491656 -14.6340153909032 -1.5 4.62318718395987 -14.2287070853529 -1.5 6.08516576675159 -13.6675060874272 -1.5 7.48047399999998 -12.956561032698 -1.5 8.79382459471455 -12.1036611839599 -1.5 10.0108282069433 -11.1181510904364 -1.5 11.1181510904363 -10.0108282069434 -1.5 12.1036611839599 -8.79382459471461 -1.5 12.956561032698 -7.48047400000004 -1.5 13.6675060874271 -6.08516576675165 -1.5 14.2287070853529 -4.62318718395993 -1.5 14.6340153909032 -3.11055599491664 -1.5 14.8789903614662 -1.56384490346734 -1.5 14.8789903614662 1.56384490346727 1.5 14.6340153909032 3.11055599491657 1.5 14.2287070853529 4.62318718395988 1.5 13.6675060874272 6.08516576675161 1.5 12.956561032698 7.480474 1.5 12.1036611839599 8.79382459471457 1.5 11.1181510904364 10.0108282069433 1.5 10.0108282069433 11.1181510904364 1.5 8.79382459471457 12.1036611839599 1.5 7.480474 12.956561032698 1.5 6.08516576675161 13.6675060874272 1.5 4.62318718395988 14.2287070853529 1.5 3.11055599491658 14.6340153909032 1.5 1.56384490346728 14.8789903614662 1.5 4.23809164198444e-15 14.960948 1.5 -1.56384490346727 14.8789903614662 1.5 -3.11055599491657 14.6340153909032 1.5 -4.62318718395987 14.2287070853529 1.5 -6.0851657667516 13.6675060874272 1.5 -7.48047399999999 12.956561032698 1.5 -8.79382459471456 12.1036611839599 1.5 -10.0108282069433 11.1181510904364 1.5 -11.1181510904364 10.0108282069433 1.5 -12.1036611839599 8.79382459471457 1.5 -12.956561032698 7.480474 1.5 -13.6675060874272 6.0851657667516 1.5 -14.2287070853529 4.62318718395988 1.5 -14.6340153909032 3.11055599491657 1.5 -14.8789903614662 1.56384490346726 1.5 -14.960948 -1.14558034438147e-14 1.5 -14.8789903614662 -1.56384490346729 1.5 -14.6340153909032 -3.11055599491659 1.5 -14.2287070853529 -4.6231871839599 1.5 -13.6675060874271 -6.08516576675163 1.5 -12.956561032698 -7.48047400000002 1.5 -12.1036611839599 -8.79382459471459 1.5 -11.1181510904364 -10.0108282069434 1.5 -10.0108282069433 -11.1181510904364 1.5 -8.79382459471455 -12.1036611839599 1.5 -7.48047399999998 -12.956561032698 1.5 -6.08516576675159 -13.6675060874272 1.5 -4.62318718395987 -14.2287070853529 1.5 -3.11055599491657 -14.6340153909032 1.5 -1.56384490346727 -14.8789903614662 1.5 -2.7482815620615e-15 -14.960948 1.5 1.56384490346727 -14.8789903614662 1.5 3.11055599491656 -14.6340153909032 1.5 4.62318718395987 -14.2287070853529 1.5 6.08516576675159 -13.6675060874272 1.5 7.48047399999998 -12.956561032698 1.5 8.79382459471455 -12.1036611839599 1.5 10.0108282069433 -11.1181510904364 1.5 11.1181510904363 -10.0108282069434 1.5 12.1036611839599 -8.79382459471461 1.5 12.956561032698 -7.48047400000004 1.5 13.6675060874271 -6.08516576675165 1.5 14.2287070853529 -4.62318718395993 1.5 14.6340153909032 -3.11055599491664 1.5 14.8789903614662 -1.56384490346734 1.5 0 0 0 -3 6.28318530717959 0 6.28318530717959 -3 0.10471975511966 0 0.20943951023932 0 0.314159265358979 0 0.418879020478639 0 0.523598775598299 0 0.628318530717959 0 0.733038285837618 0 0.837758040957278 0 0.942477796076938 0 1.0471975511966 0 1.15191730631626 0 1.25663706143592 0 1.36135681655558 0 1.46607657167524 0 1.5707963267949 0 1.67551608191456 0 1.78023583703422 0 1.88495559215388 0 1.98967534727353 0 2.09439510239319 0 2.19911485751285 0 2.30383461263251 0 2.40855436775217 0 2.51327412287183 0 2.61799387799149 0 2.72271363311115 0 2.82743338823081 0 2.93215314335047 0 3.03687289847013 0 3.14159265358979 0 3.24631240870945 0 3.35103216382911 0 3.45575191894877 0 3.56047167406843 0 3.66519142918809 0 3.76991118430775 0 3.87463093942741 0 3.97935069454707 0 4.08407044966673 0 4.18879020478639 0 4.29350995990605 0 4.39822971502571 0 4.50294947014537 0 4.60766922526503 0 4.71238898038469 0 4.81710873550435 0 4.92182849062401 0 5.02654824574367 0 5.13126800086333 0 5.23598775598299 0 5.34070751110265 0 5.44542726622231 0 5.55014702134197 0 5.65486677646162 0 5.75958653158128 0 5.86430628670094 0 5.9690260418206 0 6.07374579694026 0 6.17846555205992 0 0.10471975511966 -3 0.20943951023932 -3 0.314159265358979 -3 0.418879020478639 -3 0.523598775598299 -3 0.628318530717959 -3 0.733038285837618 -3 0.837758040957278 -3 0.942477796076938 -3 1.0471975511966 -3 1.15191730631626 -3 1.25663706143592 -3 1.36135681655558 -3 1.46607657167524 -3 1.5707963267949 -3 1.67551608191456 -3 1.78023583703422 -3 1.88495559215388 -3 1.98967534727353 -3 2.09439510239319 -3 2.19911485751285 -3 2.30383461263251 -3 2.40855436775217 -3 2.51327412287183 -3 2.61799387799149 -3 2.72271363311115 -3 2.82743338823081 -3 2.93215314335047 -3 3.03687289847013 -3 3.14159265358979 -3 3.24631240870945 -3 3.35103216382911 -3 3.45575191894877 -3 3.56047167406843 -3 3.66519142918809 -3 3.76991118430775 -3 3.87463093942741 -3 3.97935069454707 -3 4.08407044966673 -3 4.18879020478639 -3 4.29350995990605 -3 4.39822971502571 -3 4.50294947014537 -3 4.60766922526503 -3 4.71238898038469 -3 4.81710873550435 -3 4.92182849062401 -3 5.02654824574367 -3 5.13126800086333 -3 5.23598775598299 -3 5.34070751110265 -3 5.44542726622231 -3 5.55014702134197 -3 5.65486677646162 -3 5.75958653158128 -3 5.86430628670094 -3 5.9690260418206 -3 6.07374579694026 -3 6.17846555205992 -3 5 1 2 5 2 64 6 5 64 6 64 65 7 6 65 7 65 66 8 7 66 8 66 67 9 8 67 9 67 68 10 9 68 10 68 69 11 10 69 11 69 70 12 11 70 12 70 71 13 12 71 13 71 72 14 13 72 14 72 73 15 14 73 15 73 74 16 74 75 16 15 74 17 75 76 17 16 75 18 76 77 18 17 76 19 77 78 19 18 77 20 78 79 20 19 78 21 79 80 21 20 79 22 80 81 22 21 80 23 81 82 23 22 81 24 23 82 24 82 83 25 24 83 25 83 84 26 25 84 26 84 85 27 26 85 27 85 86 28 27 86 28 86 87 29 28 87 29 87 88 30 29 88 30 88 89 31 30 89 31 89 90 32 31 90 32 90 91 33 32 91 33 91 92 34 33 92 34 92 93 35 34 93 35 93 94 36 35 94 36 94 95 37 36 95 37 95 96 38 37 96 38 96 97 39 38 97 39 97 98 40 39 98 40 98 99 41 40 99 41 99 100 42 41 100 42 100 101 43 101 102 43 42 101 44 102 103 44 43 102 45 103 104 45 44 103 46 104 105 46 45 104 47 105 106 47 46 105 48 106 107 48 47 106 49 48 107 49 107 108 50 49 108 50 108 109 51 109 110 51 50 109 52 110 111 52 51 110 53 111 112 53 52 111 54 112 113 54 53 112 55 113 114 55 54 113 56 114 115 56 55 114 57 115 116 57 56 115 58 116 117 58 57 116 59 117 118 59 58 117 60 118 119 60 59 118 61 119 120 61 60 119 62 120 121 62 61 120 63 121 122 63 62 121 3 122 4 3 63 122 
60 58 1 2.66453525910038e-15
14.960948 0 0 14.8789903614662 1.56384490346727 0 14.6340153909032 3.11055599491657 0 14.2287070853529 4.62318718395988 0 13.6675060874272 6.08516576675161 0 12.956561032698 7.480474 0 12.1036611839599 8.79382459471457 0 11.1181510904364 10.0108282069433 0 10.0108282069433 11.1181510904364 0 8.79382459471457 12.1036611839599 0 7.480474 12.956561032698 0 6.08516576675161 13.6675060874272 0 4.62318718395988 14.2287070853529 0 3.11055599491658 14.6340153909032 0 1.56384490346728 14.8789903614662 0 4.23809164198444e-15 14.960948 0 -1.56384490346727 14.8789903614662 0 -3.11055599491657 14.6340153909032 0 -4.62318718395987 14.2287070853529 0 -6.0851657667516 13.6675060874272 0 -7.48047399999999 12.956561032698 0 -8.79382459471456 12.1036611839599 0 -10.0108282069433 11.1181510904364 0 -11.1181510904364 10.0108282069433 0 -12.1036611839599 8.79382459471457 0 -12.956561032698 7.480474 0 -13.6675060874272 6.0851657667516 0 -14.2287070853529 4.62318718395988 0 -14.6340153909032 3.11055599491657 0 -14.8789903614662 1.56384490346726 0 -14.960948 -1.14558034438147e-14 0 -14.8789903614662 -1.56384490346729 0 -14.6340153909032 -3.11055599491659 0 -14.2287070853529 -4.6231871839599 0 -13.6675060874271 -6.08516576675163 0 -12.956561032698 -7.48047400000002 0 -12.1036611839599 -8.79382459471459 0 -11.1181510904364 -10.0108282069434 0 -10.0108282069433 -11.1181510904364 0 -8.79382459471455 -12.1036611839599 0 -7.48047399999998 -12.956561032698 0 -6.08516576675159 -13.6675060874272 0 -4.62318718395987 -14.2287070853529 0 -3.11055599491657 -14.6340153909032 0 -1.56384490346727 -14.8789903614662 0 -2.7482815620615e-15 -14.960948 0 1.56384490346727 -14.8789903614662 0 3.11055599491656 -14.6340153909032 0 4.62318718395987 -14.2287070853529 0 6.08516576675159 -13.6675060874272 0 7.48047399999998 -12.956561032698 0 8.79382459471455 -12.1036611839599 0 10.0108282069433 -11.1181510904364 0 11.1181510904363 -10.0108282069434 0 12.1036611839599 -8.79382459471461 0 12.956561032698 -7.48047400000004 0 13.6675060874271 -6.08516576675165 0 14.2287070853529 -4.62318718395993 0 14.6340153909032 -3.11055599491664 0 14.8789903614662 -1.56384490346734 0 14.960948 0 14.8789903614662 1.56384490346727 14.6340153909032 3.11055599491658 14.2287070853529 4.62318718395988 13.6675060874272 6.08516576675161 12.956561032698 7.480474 12.1036611839599 8.79382459471457 11.1181510904364 10.0108282069433 10.0108282069433 11.1181510904364 8.79382459471458 12.1036611839599 7.480474 12.956561032698 6.08516576675161 13.6675060874272 4.62318718395988 14.2287070853529 3.11055599491658 14.6340153909032 1.56384490346728 14.8789903614662 5.32907051820075e-15 14.960948 -1.56384490346727 14.8789903614662 -3.11055599491657 14.6340153909032 -4.62318718395987 14.2287070853529 -6.0851657667516 13.6675060874272 -7.48047399999999 12.956561032698 -8.79382459471456 12.1036611839599 -10.0108282069433 11.1181510904364 -11.1181510904364 10.0108282069433 -12.1036611839599 8.79382459471457 -12.956561032698 7.480474 -13.6675060874272 6.0851657667516 -14.2287070853529 4.62318718395988 -14.6340153909032 3.11055599491657 -14.8789903614662 1.56384490346727 -14.960948 -1.24344978758018e-14 -14.8789903614662 -1.56384490346729 -14.6340153909032 -3.11055599491659 -14.2287070853529 -4.6231871839599 -13.6675060874271 -6.08516576675163 -12.956561032698 -7.48047400000002 -12.1036611839599 -8.79382459471459 -11.1181510904364 -10.0108282069434 -10.0108282069433 -11.1181510904364 -8.79382459471455 -12.1036611839599 -7.48047399999998 -12.956561032698 -6.08516576675159 -13.6675060874272 -4.62318718395987 -14.2287070853529 -3.11055599491657 -14.6340153909032 -1.56384490346727 -14.8789903614662 -1.77635683940025e-15 -14.960948 1.56384490346727 -14.8789903614662 3.11055599491656 -14.6340153909032 4.62318718395987 -14.2287070853529 6.08516576675159 -13.6675060874272 7.48047399999998 -12.956561032698 8.79382459471455 -12.1036611839599 10.0108282069433 -11.1181510904364 11.1181510904363 -10.0108282069434 12.1036611839599 -8.79382459471461 12.956561032698 -7.48047400000004 13.6675060874271 -6.08516576675166 14.2287070853529 -4.62318718395993 14.6340153909032 -3.11055599491664 14.8789903614662 -1.56384490346734 57 55 56 20 21 22 20 22 23 36 37 38 36 38 39 19 28 50 19 20 23 19 23 28 42 35 36 42 39 40 42 40 41 60 50 52 60 52 55 60 55 57 42 36 39 34 35 42 60 57 58 60 58 59 16 17 18 16 18 19 32 33 34 2 60 1 31 42 43 31 32 34 31 34 42 46 43 44 46 44 45 4 2 3 12 13 14 12 14 15 12 15 16 12 16 19 5 19 50 5 50 60 5 60 2 5 12 19 5 2 4 7 5 6 50 28 29 10 11 12 50 29 30 50 30 31 50 46 47 50 47 48 50 48 49 9 10 12 50 43 46 50 31 43 8 12 5 8 5 7 8 9 12 26 27 28 52 50 51 54 52 53 23 26 28 23 24 25 23 25 26 55 52 54 
60 58 1 2.66453525910038e-15
14.960948 0 0 14.8789903614662 1.56384490346727 0 14.6340153909032 3.11055599491657 0 14.2287070853529 4.62318718395988 0 13.6675060874272 6.08516576675161 0 12.956561032698 7.480474 0 12.1036611839599 8.79382459471457 0 11.1181510904364 10.0108282069433 0 10.0108282069433 11.1181510904364 0 8.79382459471457 12.1036611839599 0 7.480474 12.956561032698 0 6.08516576675161 13.6675060874272 0 4.62318718395988 14.2287070853529 0 3.11055599491658 14.6340153909032 0 1.56384490346728 14.8789903614662 0 4.23809164198444e-15 14.960948 0 -1.56384490346727 14.8789903614662 0 -3.11055599491657 14.6340153909032 0 -4.62318718395987 14.2287070853529 0 -6.0851657667516 13.6675060874272 0 -7.48047399999999 12.956561032698 0 -8.79382459471456 12.1036611839599 0 -10.0108282069433 11.1181510904364 0 -11.1181510904364 10.0108282069433 0 -12.1036611839599 8.79382459471457 0 -12.956561032698 7.480474 0 -13.6675060874272 6.0851657667516 0 -14.2287070853529 4.62318718395988 0 -14.6340153909032 3.11055599491657 0 -14.8789903614662 1.56384490346726 0 -14.960948 -1.14558034438147e-14 0 -14.8789903614662 -1.56384490346729 0 -14.6340153909032 -3.11055599491659 0 -14.2287070853529 -4.6231871839599 0 -13.6675060874271 -6.08516576675163 0 -12.956561032698 -7.48047400000002 0 -12.1036611839599 -8.79382459471459 0 -11.1181510904364 -10.0108282069434 0 -10.0108282069433 -11.1181510904364 0 -8.79382459471455 -12.1036611839599 0 -7.48047399999998 -12.956561032698 0 -6.08516576675159 -13.6675060874272 0 -4.62318718395987 -14.2287070853529 0 -3.11055599491657 -14.6340153909032 0 -1.56384490346727 -14.8789903614662 0 -2.7482815620615e-15 -14.960948 0 1.56384490346727 -14.8789903614662 0 3.11055599491656 -14.6340153909032 0 4.62318718395987 -14.2287070853529 0 6.08516576675159 -13.6675060874272 0 7.48047399999998 -12.956561032698 0 8.79382459471455 -12.1036611839599 0 10.0108282069433 -11.1181510904364 0 11.1181510904363 -10.0108282069434 0 12.1036611839599 -8.79382459471461 0 12.956561032698 -7.48047400000004 0 13.6675060874271 -6.08516576675165 0 14.2287070853529 -4.62318718395993 0 14.6340153909032 -3.11055599491664 0 14.8789903614662 -1.56384490346734 0 14.960948 0 14.8789903614662 1.56384490346727 14.6340153909032 3.11055599491658 14.2287070853529 4.62318718395988 13.6675060874272 6.08516576675161 12.956561032698 7.480474 12.1036611839599 8.79382459471457 11.1181510904364 10.0108282069433 10.0108282069433 11.1181510904364 8.79382459471458 12.1036611839599 7.480474 12.956561032698 6.08516576675161 13.6675060874272 4.62318718395988 14.2287070853529 3.11055599491658 14.6340153909032 1.56384490346728 14.8789903614662 5.32907051820075e-15 14.960948 -1.56384490346727 14.8789903614662 -3.11055599491657 14.6340153909032 -4.62318718395987 14.2287070853529 -6.0851657667516 13.6675060874272 -7.48047399999999 12.956561032698 -8.79382459471456 12.1036611839599 -10.0108282069433 11.1181510904364 -11.1181510904364 10.0108282069433 -12.1036611839599 8.79382459471457 -12.956561032698 7.480474 -13.6675060874272 6.0851657667516 -14.2287070853529 4.62318718395988 -14.6340153909032 3.11055599491657 -14.8789903614662 1.56384490346727 -14.960948 -1.24344978758018e-14 -14.8789903614662 -1.56384490346729 -14.6340153909032 -3.11055599491659 -14.2287070853529 -4.6231871839599 -13.6675060874271 -6.08516576675163 -12.956561032698 -7.48047400000002 -12.1036611839599 -8.79382459471459 -11.1181510904364 -10.0108282069434 -10.0108282069433 -11.1181510904364 -8.79382459471455 -12.1036611839599 -7.48047399999998 -12.956561032698 -6.08516576675159 -13.6675060874272 -4.62318718395987 -14.2287070853529 -3.11055599491657 -14.6340153909032 -1.56384490346727 -14.8789903614662 -1.77635683940025e-15 -14.960948 1.56384490346727 -14.8789903614662 3.11055599491656 -14.6340153909032 4.62318718395987 -14.2287070853529 6.08516576675159 -13.6675060874272 7.48047399999998 -12.956561032698 8.79382459471455 -12.1036611839599 10.0108282069433 -11.1181510904364 11.1181510904363 -10.0108282069434 12.1036611839599 -8.79382459471461 12.956561032698 -7.48047400000004 13.6675060874271 -6.08516576675166 14.2287070853529 -4.62318718395993 14.6340153909032 -3.11055599491664 14.8789903614662 -1.56384490346734 57 55 56 20 21 22 20 22 23 36 37 38 36 38 39 19 28 50 19 20 23 19 23 28 42 35 36 42 39 40 42 40 41 60 50 52 60 52 55 60 55 57 42 36 39 34 35 42 60 57 58 60 58 59 16 17 18 16 18 19 32 33 34 2 60 1 31 42 43 31 32 34 31 34 42 46 43 44 46 44 45 4 2 3 12 13 14 12 14 15 12 15 16 12 16 19 5 19 50 5 50 60 5 60 2 5 12 19 5 2 4 7 5 6 50 28 29 10 11 12 50 29 30 50 30 31 50 46 47 50 47 48 50 48 49 9 10 12 50 43 46 50 31 43 8 12 5 8 5 7 8 9 12 26 27 28 52 50 51 54 52 53 23 26 28 23 24 25 23 25 26 55 52 54 
118 116 1 0.0204301096895141
13.930385 0 0.5 13.930385 0 -0.5 13.930385 0 0.5 13.930385 0 -0.5 13.8487244862737 1.5061395524676 0.5 13.6047003399555 2.99462099575905 0.5 13.2011735210473 4.4479932458833 0.5 12.642875012553 5.84921684203859 0.5 11.9363503540273 7.18186371871093 0.5 11.0898829011099 8.430309809722 0.5 10.1133967107536 9.57991822611985 0.5 9.0183401907305 10.6172108603192 0.5 7.81755187751815 11.5300264045898 0.5 6.52510991619774 12.3076629312702 0.5 5.15616700707481 12.941003363085 0.5 3.72677275412238 13.4226223625399 0.5 2.25368549804868 13.7468733872146 0.5 0.754175840074666 13.9099548903105 0.5 -0.754175840074677 13.9099548903105 0.5 -2.25368549804869 13.7468733872146 0.5 -3.72677275412239 13.4226223625399 0.5 -5.15616700707482 12.941003363085 0.5 -6.52510991619775 12.3076629312702 0.5 -7.81755187751815 11.5300264045898 0.5 -9.0183401907305 10.6172108603192 0.5 -10.1133967107536 9.57991822611984 0.5 -11.0898829011099 8.43030980972199 0.5 -11.9363503540273 7.18186371871092 0.5 -12.642875012553 5.84921684203858 0.5 -13.2011735210473 4.44799324588329 0.5 -13.6047003399555 2.99462099575904 0.5 -13.8487244862737 1.50613955246759 0.5 -13.930385 -1.06666871950003e-14 0.5 -13.8487244862737 -1.50613955246761 0.5 -13.6047003399555 -2.99462099575906 0.5 -13.2011735210473 -4.44799324588331 0.5 -12.642875012553 -5.8492168420386 0.5 -11.9363503540273 -7.18186371871094 0.5 -11.0898829011099 -8.43030980972201 0.5 -10.1133967107536 -9.57991822611986 0.5 -9.01834019073049 -10.6172108603192 0.5 -7.81755187751814 -11.5300264045898 0.5 -6.52510991619774 -12.3076629312702 0.5 -5.15616700707481 -12.941003363085 0.5 -3.72677275412239 -13.4226223625399 0.5 -2.2536854980487 -13.7468733872146 0.5 -0.75417584007469 -13.9099548903105 0.5 0.754175840074648 -13.9099548903105 0.5 2.25368549804866 -13.7468733872146 0.5 3.72677275412235 -13.4226223625399 0.5 5.15616700707478 -12.941003363085 0.5 6.5251099161977 -12.3076629312702 0.5 7.81755187751811 -11.5300264045898 0.5 9.01834019073046 -10.6172108603192 0.5 10.1133967107536 -9.57991822611989 0.5 11.0898829011099 -8.43030980972205 0.5 11.9363503540273 -7.18186371871099 0.5 12.642875012553 -5.84921684203866 0.5 13.2011735210473 -4.44799324588338 0.5 13.6047003399554 -2.99462099575914 0.5 13.8487244862737 -1.5061395524677 0.5 13.8487244862737 1.5061395524676 -0.5 13.6047003399555 2.99462099575905 -0.5 13.2011735210473 4.4479932458833 -0.5 12.642875012553 5.84921684203859 -0.5 11.9363503540273 7.18186371871093 -0.5 11.0898829011099 8.430309809722 -0.5 10.1133967107536 9.57991822611985 -0.5 9.0183401907305 10.6172108603192 -0.5 7.81755187751815 11.5300264045898 -0.5 6.52510991619774 12.3076629312702 -0.5 5.15616700707481 12.941003363085 -0.5 3.72677275412238 13.4226223625399 -0.5 2.25368549804868 13.7468733872146 -0.5 0.754175840074666 13.9099548903105 -0.5 -0.754175840074677 13.9099548903105 -0.5 -2.25368549804869 13.7468733872146 -0.5 -3.72677275412239 13.4226223625399 -0.5 -5.15616700707482 12.941003363085 -0.5 -6.52510991619775 12.3076629312702 -0.5 -7.81755187751815 11.5300264045898 -0.5 -9.0183401907305 10.6172108603192 -0.5 -10.1133967107536 9.57991822611984 -0.5 -11.0898829011099 8.43030980972199 -0.5 -11.9363503540273 7.18186371871092 -0.5 -12.642875012553 5.84921684203858 -0.5 -13.2011735210473 4.44799324588329 -0.5 -13.6047003399555 2.99462099575904 -0.5 -13.8487244862737 1.50613955246759 -0.5 -13.930385 -1.06666871950003e-14 -0.5 -13.8487244862737 -1.50613955246761 -0.5 -13.6047003399555 -2.99462099575906 -0.5 -13.2011735210473 -4.44799324588331 -0.5 -12.642875012553 -5.8492168420386 -0.5 -11.9363503540273 -7.18186371871094 -0.5 -11.0898829011099 -8.43030980972201 -0.5 -10.1133967107536 -9.57991822611986 -0.5 -9.01834019073049 -10.6172108603192 -0.5 -7.81755187751814 -11.5300264045898 -0.5 -6.52510991619774 -12.3076629312702 -0.5 -5.15616700707481 -12.941003363085 -0.5 -3.72677275412239 -13.4226223625399 -0.5 -2.2536854980487 -13.7468733872146 -0.5 -0.75417584007469 -13.9099548903105 -0.5 0.754175840074648 -13.9099548903105 -0.5 2.25368549804866 -13.7468733872146 -0.5 3.72677275412235 -13.4226223625399 -0.5 5.15616700707478 -12.941003363085 -0.5 6.5251099161977 -12.3076629312702 -0.5 7.81755187751811 -11.5300264045898 -0.5 9.01834019073046 -10.6172108603192 -0.5 10.1133967107536 -9.57991822611989 -0.5 11.0898829011099 -8.43030980972205 -0.5 11.9363503540273 -7.18186371871099 -0.5 12.642875012553 -5.84921684203866 -0.5 13.2011735210473 -4.44799324588338 -0.5 13.6047003399554 -2.99462099575914 -0.5 13.8487244862737 -1.5061395524677 -0.5 0 0 0 -1 6.28318530717959 0 6.28318530717959 -1 0.108330781158269 0 0.216661562316537 0 0.324992343474806 0 0.433323124633075 0 0.541653905791344 0 0.649984686949612 0 0.758315468107881 0 0.86664624926615 0 0.974977030424419 0 1.08330781158269 0 1.19163859274096 0 1.29996937389923 0 1.40830015505749 0 1.51663093621576 0 1.62496171737403 0 1.7332924985323 0 1.84162327969057 0 1.94995406084884 0 2.05828484200711 0 2.16661562316538 0 2.27494640432364 0 2.38327718548191 0 2.49160796664018 0 2.59993874779845 0 2.70826952895672 0 2.81660031011499 0 2.92493109127326 0 3.03326187243153 0 3.14159265358979 0 3.24992343474806 0 3.35825421590633 0 3.4665849970646 0 3.57491577822287 0 3.68324655938114 0 3.79157734053941 0 3.89990812169768 0 4.00823890285594 0 4.11656968401421 0 4.22490046517248 0 4.33323124633075 0 4.44156202748902 0 4.54989280864729 0 4.65822358980555 0 4.76655437096382 0 4.87488515212209 0 4.98321593328036 0 5.09154671443863 0 5.1998774955969 0 5.30820827675516 0 5.41653905791343 0 5.5248698390717 0 5.63320062022997 0 5.74153140138824 0 5.84986218254651 0 5.95819296370477 0 6.06652374486304 0 6.17485452602131 0 0.108330781158269 -1 0.216661562316537 -1 0.324992343474806 -1 0.433323124633075 -1 0.541653905791344 -1 0.649984686949612 -1 0.758315468107881 -1 0.86664624926615 -1 0.974977030424419 -1 1.08330781158269 -1 1.19163859274096 -1 1.29996937389923 -1 1.40830015505749 -1 1.51663093621576 -1 1.62496171737403 -1 1.7332924985323 -1 1.84162327969057 -1 1.94995406084884 -1 2.05828484200711 -1 2.16661562316538 -1 2.27494640432364 -1 2.38327718548191 -1 2.49160796664018 -1 2.59993874779845 -1 2.70826952895672 -1 2.81660031011499 -1 2.92493109127326 -1 3.03326187243153 -1 3.14159265358979 -1 3.24992343474806 -1 3.35825421590633 -1 3.4665849970646 -1 3.57491577822287 -1 3.68324655938114 -1 3.79157734053941 -1 3.89990812169768 -1 4.00823890285594 -1 4.11656968401421 -1 4.22490046517248 -1 4.33323124633075 -1 4.44156202748902 -1 4.54989280864729 -1 4.65822358980555 -1 4.76655437096382 -1 4.87488515212209 -1 4.98321593328036 -1 5.09154671443863 -1 5.1998774955969 -1 5.30820827675516 -1 5.41653905791343 -1 5.5248698390717 -1 5.63320062022997 -1 5.74153140138824 -1 5.84986218254651 -1 5.95819296370477 -1 6.06652374486304 -1 6.17485452602131 -1 5 1 2 5 2 62 6 5 62 6 62 63 7 6 63 7 63 64 8 7 64 8 64 65 9 8 65 9 65 66 10 9 66 10 66 67 11 10 67 11 67 68 12 11 68 12 68 69 13 12 69 13 69 70 14 13 70 14 70 71 15 14 71 15 71 72 16 15 72 16 72 73 17 73 74 17 16 73 18 74 75 18 17 74 19 75 76 19 18 75 20 76 77 20 19 76 21 77 78 21 20 77 22 78 79 22 21 78 23 79 80 23 22 79 24 80 81 24 23 80 25 24 81 25 81 82 26 25 82 26 82 83 27 26 83 27 83 84 28 27 84 28 84 85 29 28 85 29 85 86 30 29 86 30 86 87 31 30 87 31 87 88 32 31 88 32 88 89 33 32 89 33 89 90 34 33 90 34 90 91 35 34 91 35 91 92 36 35 92 36 92 93 37 36 93 37 93 94 38 37 94 38 94 95 39 38 95 39 95 96 40 39 96 40 96 97 41 40 97 41 97 98 42 41 98 42 98 99 43 42 99 43 99 100 44 43 100 44 100 101 45 101 102 45 44 101 46 102 103 46 45 102 47 103 104 47 46 103 48 104 105 48 47 104 49 105 106 49 48 105 50 106 107 50 49 106 51 50 107 51 107 108 52 108 109 52 51 108 53 109 110 53 52 109 54 110 111 54 53 110 55 111 112 55 54 111 56 112 113 56 55 112 57 113 114 57 56 113 58 114 115 58 57 114 59 115 116 59 58 115 60 116 117 60 59 116 61 117 118 61 60 117 3 118 4 3 61 118 
58 56 1 2.22044604925031e-15
13.930385 0 0 13.8487244862737 1.5061395524676 0 13.6047003399555 2.99462099575905 0 13.2011735210473 4.4479932458833 0 12.642875012553 5.84921684203859 0 11.9363503540273 7.18186371871093 0 11.0898829011099 8.430309809722 0 10.1133967107536 9.57991822611985 0 9.0183401907305 10.6172108603192 0 7.81755187751815 11.5300264045898 0 6.52510991619774 12.3076629312702 0 5.15616700707481 12.941003363085 0 3.72677275412238 13.4226223625399 0 2.25368549804868 13.7468733872146 0 0.754175840074666 13.9099548903105 0 -0.754175840074677 13.9099548903105 0 -2.25368549804869 13.7468733872146 0 -3.72677275412239 13.4226223625399 0 -5.15616700707482 12.941003363085 0 -6.52510991619775 12.3076629312702 0 -7.81755187751815 11.5300264045898 0 -9.0183401907305 10.6172108603192 0 -10.1133967107536 9.57991822611984 0 -11.0898829011099 8.43030980972199 0 -11.9363503540273 7.18186371871092 0 -12.642875012553 5.84921684203858 0 -13.2011735210473 4.44799324588329 0 -13.6047003399555 2.99462099575904 0 -13.8487244862737 1.50613955246759 0 -13.930385 -1.06666871950003e-14 0 -13.8487244862737 -1.50613955246761 0 -13.6047003399555 -2.99462099575906 0 -13.2011735210473 -4.44799324588331 0 -12.642875012553 -5.8492168420386 0 -11.9363503540273 -7.18186371871094 0 -11.0898829011099 -8.43030980972201 0 -10.1133967107536 -9.57991822611986 0 -9.01834019073049 -10.6172108603192 0 -7.81755187751814 -11.5300264045898 0 -6.52510991619774 -12.3076629312702 0 -5.15616700707481 -12.941003363085 0 -3.72677275412239 -13.4226223625399 0 -2.2536854980487 -13.7468733872146 0 -0.75417584007469 -13.9099548903105 0 0.754175840074648 -13.9099548903105 0 2.25368549804866 -13.7468733872146 0 3.72677275412235 -13.4226223625399 0 5.15616700707478 -12.941003363085 0 6.5251099161977 -12.3076629312702 0 7.81755187751811 -11.5300264045898 0 9.01834019073046 -10.6172108603192 0 10.1133967107536 -9.57991822611989 0 11.0898829011099 -8.43030980972205 0 11.9363503540273 -7.18186371871099 0 12.642875012553 -5.84921684203866 0 13.2011735210473 -4.44799324588338 0 13.6047003399554 -2.99462099575914 0 13.8487244862737 -1.5061395524677 0 13.930385 -1.77635683940025e-15 13.8487244862737 1.5061395524676 13.6047003399555 2.99462099575905 13.2011735210473 4.4479932458833 12.642875012553 5.84921684203858 11.9363503540273 7.18186371871093 11.0898829011099 8.43030980972199 10.1133967107536 9.57991822611984 9.0183401907305 10.6172108603192 7.81755187751815 11.5300264045898 6.52510991619774 12.3076629312702 5.15616700707481 12.941003363085 3.72677275412238 13.4226223625399 2.25368549804868 13.7468733872146 0.754175840074668 13.9099548903105 -0.754175840074677 13.9099548903105 -2.25368549804869 13.7468733872146 -3.72677275412239 13.4226223625399 -5.15616700707482 12.941003363085 -6.52510991619775 12.3076629312702 -7.81755187751815 11.5300264045898 -9.0183401907305 10.6172108603192 -10.1133967107536 9.57991822611984 -11.0898829011099 8.43030980972199 -11.9363503540273 7.18186371871092 -12.642875012553 5.84921684203858 -13.2011735210473 4.44799324588329 -13.6047003399555 2.99462099575904 -13.8487244862737 1.50613955246759 -13.930385 -1.24344978758018e-14 -13.8487244862737 -1.50613955246761 -13.6047003399555 -2.99462099575906 -13.2011735210473 -4.44799324588332 -12.642875012553 -5.8492168420386 -11.9363503540273 -7.18186371871094 -11.0898829011099 -8.43030980972201 -10.1133967107536 -9.57991822611986 -9.01834019073049 -10.6172108603192 -7.81755187751814 -11.5300264045898 -6.52510991619774 -12.3076629312702 -5.15616700707481 -12.941003363085 -3.72677275412239 -13.4226223625399 -2.2536854980487 -13.7468733872146 -0.754175840074689 -13.9099548903105 0.754175840074648 -13.9099548903105 2.25368549804866 -13.7468733872146 3.72677275412235 -13.4226223625399 5.15616700707478 -12.9410033630851 6.5251099161977 -12.3076629312702 7.81755187751811 -11.5300264045898 9.01834019073046 -10.6172108603192 10.1133967107536 -9.57991822611989 11.0898829011099 -8.43030980972205 11.9363503540273 -7.18186371871099 12.642875012553 -5.84921684203866 13.2011735210473 -4.44799324588339 13.6047003399554 -2.99462099575914 13.8487244862737 -1.5061395524677 20 21 22 20 22 23 20 23 24 36 37 38 39 36 38 56 26 30 56 19 20 56 33 52 56 20 24 56 30 31 40 36 39 56 52 53 56 53 54 56 54 55 56 31 33 56 24 26 41 36 40 33 34 35 17 18 19 58 56 57 16 17 19 31 32 33 44 42 43 14 15 16 3 1 2 3 58 1 13 14 16 46 35 36 46 41 42 46 44 45 46 36 41 46 42 44 27 28 29 10 11 12 10 12 13 7 3 4 7 4 5 7 5 6 7 19 56 7 56 58 7 16 19 7 58 3 26 29 30 7 13 16 7 10 13 26 27 29 8 9 10 8 10 7 50 48 49 24 25 26 52 48 50 52 46 47 52 47 48 52 50 51 52 33 35 52 35 46 
58 56 1 2.22044604925031e-15
13.930385 0 0 13.8487244862737 1.5061395524676 0 13.6047003399555 2.99462099575905 0 13.2011735210473 4.4479932458833 0 12.642875012553 5.84921684203859 0 11.9363503540273 7.18186371871093 0 11.0898829011099 8.430309809722 0 10.1133967107536 9.57991822611985 0 9.0183401907305 10.6172108603192 0 7.81755187751815 11.5300264045898 0 6.52510991619774 12.3076629312702 0 5.15616700707481 12.941003363085 0 3.72677275412238 13.4226223625399 0 2.25368549804868 13.7468733872146 0 0.754175840074666 13.9099548903105 0 -0.754175840074677 13.9099548903105 0 -2.25368549804869 13.7468733872146 0 -3.72677275412239 13.4226223625399 0 -5.15616700707482 12.941003363085 0 -6.52510991619775 12.3076629312702 0 -7.81755187751815 11.5300264045898 0 -9.0183401907305 10.6172108603192 0 -10.1133967107536 9.57991822611984 0 -11.0898829011099 8.43030980972199 0 -11.9363503540273 7.18186371871092 0 -12.642875012553 5.84921684203858 0 -13.2011735210473 4.44799324588329 0 -13.6047003399555 2.99462099575904 0 -13.8487244862737 1.50613955246759 0 -13.930385 -1.06666871950003e-14 0 -13.8487244862737 -1.50613955246761 0 -13.6047003399555 -2.99462099575906 0 -13.2011735210473 -4.44799324588331 0 -12.642875012553 -5.8492168420386 0 -11.9363503540273 -7.18186371871094 0 -11.0898829011099 -8.43030980972201 0 -10.1133967107536 -9.57991822611986 0 -9.01834019073049 -10.6172108603192 0 -7.81755187751814 -11.5300264045898 0 -6.52510991619774 -12.3076629312702 0 -5.15616700707481 -12.941003363085 0 -3.72677275412239 -13.4226223625399 0 -2.2536854980487 -13.7468733872146 0 -0.75417584007469 -13.9099548903105 0 0.754175840074648 -13.9099548903105 0 2.25368549804866 -13.7468733872146 0 3.72677275412235 -13.4226223625399 0 5.15616700707478 -12.941003363085 0 6.5251099161977 -12.3076629312702 0 7.81755187751811 -11.5300264045898 0 9.01834019073046 -10.6172108603192 0 10.1133967107536 -9.57991822611989 0 11.0898829011099 -8.43030980972205 0 11.9363503540273 -7.18186371871099 0 12.642875012553 -5.84921684203866 0 13.2011735210473 -4.44799324588338 0 13.6047003399554 -2.99462099575914 0 13.8487244862737 -1.5061395524677 0 13.930385 -1.77635683940025e-15 13.8487244862737 1.5061395524676 13.6047003399555 2.99462099575905 13.2011735210473 4.4479932458833 12.642875012553 5.84921684203858 11.9363503540273 7.18186371871093 11.0898829011099 8.43030980972199 10.1133967107536 9.57991822611984 9.0183401907305 10.6172108603192 7.81755187751815 11.5300264045898 6.52510991619774 12.3076629312702 5.15616700707481 12.941003363085 3.72677275412238 13.4226223625399 2.25368549804868 13.7468733872146 0.754175840074668 13.9099548903105 -0.754175840074677 13.9099548903105 -2.25368549804869 13.7468733872146 -3.72677275412239 13.4226223625399 -5.15616700707482 12.941003363085 -6.52510991619775 12.3076629312702 -7.81755187751815 11.5300264045898 -9.0183401907305 10.6172108603192 -10.1133967107536 9.57991822611984 -11.0898829011099 8.43030980972199 -11.9363503540273 7.18186371871092 -12.642875012553 5.84921684203858 -13.2011735210473 4.44799324588329 -13.6047003399555 2.99462099575904 -13.8487244862737 1.50613955246759 -13.930385 -1.24344978758018e-14 -13.8487244862737 -1.50613955246761 -13.6047003399555 -2.99462099575906 -13.2011735210473 -4.44799324588332 -12.642875012553 -5.8492168420386 -11.9363503540273 -7.18186371871094 -11.0898829011099 -8.43030980972201 -10.1133967107536 -9.57991822611986 -9.01834019073049 -10.6172108603192 -7.81755187751814 -11.5300264045898 -6.52510991619774 -12.3076629312702 -5.15616700707481 -12.941003363085 -3.72677275412239 -13.4226223625399 -2.2536854980487 -13.7468733872146 -0.754175840074689 -13.9099548903105 0.754175840074648 -13.9099548903105 2.25368549804866 -13.7468733872146 3.72677275412235 -13.4226223625399 5.15616700707478 -12.9410033630851 6.5251099161977 -12.3076629312702 7.81755187751811 -11.5300264045898 9.01834019073046 -10.6172108603192 10.1133967107536 -9.57991822611989 11.0898829011099 -8.43030980972205 11.9363503540273 -7.18186371871099 12.642875012553 -5.84921684203866 13.2011735210473 -4.44799324588339 13.6047003399554 -2.99462099575914 13.8487244862737 -1.5061395524677 20 21 22 20 22 23 20 23 24 36 37 38 39 36 38 56 26 30 56 19 20 56 33 52 56 20 24 56 30 31 40 36 39 56 52 53 56 53 54 56 54 55 56 31 33 56 24 26 41 36 40 33 34 35 17 18 19 58 56 57 16 17 19 31 32 33 44 42 43 14 15 16 3 1 2 3 58 1 13 14 16 46 35 36 46 41 42 46 44 45 46 36 41 46 42 44 27 28 29 10 11 12 10 12 13 7 3 4 7 4 5 7 5 6 7 19 56 7 56 58 7 16 19 7 58 3 26 29 30 7 13 16 7 10 13 26 27 29 8 9 10 8 10 7 50 48 49 24 25 26 52 48 50 52 46 47 52 47 48 52 50 51 52 33 35 52 35 46 

TShapes 26
Ve
1e-07
14.960948 0 -1.5
0 0

0101101
*
Ve
1e-07
14.960948 0 1.5
0 0

0101101
*
Ed
 1e-07 1 1 0
1  1 0 0 3
3  1 2CN 1 0 0 3
7  1 2 1 0
0

0101000
+26 6 -25 6 *
Ed
 1e-07 1 1 0
1  2 0 0 6.28318530717959
2  3 1 11 0 6.28318530717959
6  3 1 11
6  4 2 12
0

0101000
+26 13 -26 13 *
Ed
 1e-07 1 1 0
1  3 0 0 6.28318530717959
2  4 1 16 0 6.28318530717959
6  5 1 16
6  6 3 12
0

0101000
+25 17 -25 17 *
Wi

0101100
+24 0 -24 0 -23 10 +22 15 *
Fa
0  1e-07 1 0
2  1
0101000
+21 0 *
Wi

0101100
+23 0 *
Fa
0  1e-07 2 0
2  2
0101000
+19 7 *
Wi

0101100
+22 0 *
Fa
0  1e-07 3 0
2  3
0101000
+17 7 *
Sh

0101100
-20 4 -18 18 +16 19 *
Ve
1e-07
13.930385 0 0.5
0 0

0101101
*
Ve
1e-07
13.930385 0 -0.5
0 0

0101101
*
Ed
 1e-07 1 1 0
1  4 0 0 1
3  5 6CN 4 0 0 1
7  7 8 4 0
0

0101000
+14 20 -13 20 *
Ed
 1e-07 1 1 0
1  5 0 0 6.28318530717959
2  7 4 24 0 6.28318530717959
6  9 4 24
6  10 5 25
0

0101000
+14 26 -14 26 *
Ed
 1e-07 1 1 0
1  6 0 0 6.28318530717959
2  8 4 29 0 6.28318530717959
6  11 4 29
6  12 6 25
0

0101000
+13 30 -13 30 *
Wi

0101100
+12 0 -12 0 -11 23 +10 28 *
Fa
0  1e-07 4 0
2  4
0101000
+9 0 *
Wi

0101100
+11 0 *
Fa
0  1e-07 5 0
2  5
0101000
+7 21 *
Wi

0101100
+10 0 *
Fa
0  1e-07 6 0
2  6
0101000
+5 21 *
Sh

0101100
-8 0 -6 31 +4 32 *
So

0100000
+15 0 +3 0 *
Co

1100000
+2 1 *

+1 0 