DBRep_DrawableShape

CASCADE Topology V1, (c) Matra-Datavision
Locations 16
1
              1               0               0               0 
              0               1               0               0 
              0               0               1               0 
1
              1               0               0               0 
              0               1               0               0 
              0               0               1               0 
2  2 -1 0
1
              1               0               0               0 
              0               1               0               0 
              0               0               1               0 
1
              1               0               0               0 
              0               1               0               0 
              0               0               1               0 
1
              1               0               0              -0 
              0               1               0              -0 
              0               0               1            -0.5 
2  4 1 5 -1 6 1 0
2  6 -1 5 1 4 -1 0
2  4 -1 0
2  2 -1 6 -1 5 1 4 -1 0
1
              1               0               0               0 
              0               1               0               0 
              0               0               1               1 
2  4 1 5 -1 6 1 11 1 0
2  11 -1 6 -1 5 1 4 -1 0
2  2 -1 11 -1 6 -1 5 1 4 -1 0
2  5 -1 6 1 0
2  5 -1 6 1 11 1 0
Curve2ds 4
1 0 0 0 -1 
1 6.2831853071795862 0 0 -1 
1 0 0 1 0 
1 0 -1 1 0 
Curves 3
1 13.930384999999999 0 -0.5 0 0 1 
2 0 0 0 0 0 1 1 0 0 0 1 0 13.930384999999999
2 0 0 0 0 0 1 1 0 0 0 1 0 13.930384999999999
Polygon3D 0
PolygonOnTriangulations 6
2 1 2 
p 0.0378143605634779 1 0 1 
2 3 4 
p 0.0378143605634779 1 0 1 
62 1 5 6 7 8 9 10 11 12 13 14 15 16 17 18 19 20 21 22 23 24 25 26 27 28 29 30 31 32 33 34 35 36 37 38 39 40 41 42 43 44 45 46 47 48 49 50 51 52 53 54 55 56 57 58 59 60 61 62 63 64 3 
p 0.0378143605634779 1 0 0.103003037822616 0.206006075645232 0.309009113467848 0.412012151290465 0.515015189113081 0.618018226935697 0.721021264758313 0.824024302580929 0.927027340403545 1.03003037822616 1.13303341604878 1.23603645387139 1.33903949169401 1.44204252951663 1.54504556733924 1.64804860516186 1.75105164298447 1.85405468080709 1.95705771862971 2.06006075645232 2.16306379427494 2.26606683209756 2.36906986992017 2.47207290774279 2.5750759455654 2.67807898338802 2.78108202121064 2.88408505903325 2.98708809685587 3.09009113467849 3.1930941725011 3.29609721032372 3.39910024814633 3.50210328596895 3.60510632379157 3.70810936161418 3.8111123994368 3.91411543725942 4.01711847508203 4.12012151290465 4.22312455072727 4.32612758854988 4.4291306263725 4.53213366419511 4.63513670201773 4.73813973984035 4.84114277766296 4.94414581548558 5.0471488533082 5.15015189113081 5.25315492895343 5.35615796677604 5.45916100459866 5.56216404242128 5.66516708024389 5.76817011806651 5.87117315588913 5.97417619371174 6.07717923153436 6.18018226935698 6.28318530717959 
62 1 2 3 4 5 6 7 8 9 10 11 12 13 14 15 16 17 18 19 20 21 22 23 24 25 26 27 28 29 30 31 32 33 34 35 36 37 38 39 40 41 42 43 44 45 46 47 48 49 50 51 52 53 54 55 56 57 58 59 60 61 1 
p 0.0378143605634779 1 0 0.103003037822616 0.206006075645232 0.309009113467848 0.412012151290465 0.515015189113081 0.618018226935697 0.721021264758313 0.824024302580929 0.927027340403545 1.03003037822616 1.13303341604878 1.23603645387139 1.33903949169401 1.44204252951663 1.54504556733924 1.64804860516186 1.75105164298447 1.85405468080709 1.95705771862971 2.06006075645232 2.16306379427494 2.26606683209756 2.36906986992017 2.47207290774279 2.5750759455654 2.67807898338802 2.78108202121064 2.88408505903325 2.98708809685587 3.09009113467849 3.1930941725011 3.29609721032372 3.39910024814633 3.50210328596895 3.60510632379157 3.70810936161418 3.8111123994368 3.91411543725942 4.01711847508203 4.12012151290465 4.22312455072727 4.32612758854988 4.4291306263725 4.53213366419511 4.63513670201773 4.73813973984035 4.84114277766296 4.94414581548558 5.0471488533082 5.15015189113081 5.25315492895343 5.35615796677604 5.45916100459866 5.56216404242128 5.66516708024389 5.76817011806651 5.87117315588913 5.97417619371174 6.07717923153436 6.18018226935698 6.28318530717959 
62 2 65 66 67 68 69 70 71 72 73 74 75 76 77 78 79 80 81 82 83 84 85 86 87 88 89 90 91 92 93 94 95 96 97 98 99 100 101 102 103 104 105 106 107 108 109 110 111 112 113 114 115 116 117 118 119 120 121 122 123 124 4 
p 0.0378143605634779 1 0 0.103003037822616 0.206006075645232 0.309009113467848 0.412012151290465 0.515015189113081 0.618018226935697 0.721021264758313 0.824024302580929 0.927027340403545 1.03003037822616 1.13303341604878 1.23603645387139 1.33903949169401 1.44204252951663 1.54504556733924 1.64804860516186 1.75105164298447 1.85405468080709 1.95705771862971 2.06006075645232 2.16306379427494 2.26606683209756 2.36906986992017 2.47207290774279 2.5750759455654 2.67807898338802 2.78108202121064 2.88408505903325 2.98708809685587 3.09009113467849 3.1930941725011 3.29609721032372 3.39910024814633 3.50210328596895 3.60510632379157 3.70810936161418 3.8111123994368 3.91411543725942 4.01711847508203 4.12012151290465 4.22312455072727 4.32612758854988 4.4291306263725 4.53213366419511 4.63513670201773 4.73813973984035 4.84114277766296 4.94414581548558 5.0471488533082 5.15015189113081 5.25315492895343 5.35615796677604 5.45916100459866 5.56216404242128 5.66516708024389 5.76817011806651 5.87117315588913 5.97417619371174 6.07717923153436 6.18018226935698 6.28318530717959 
62 1 2 3 4 5 6 7 8 9 10 11 12 13 14 15 16 17 18 19 20 21 22 23 24 25 26 27 28 29 30 31 32 33 34 35 36 37 38 39 40 41 42 43 44 45 46 47 48 49 50 51 52 53 54 55 56 57 58 59 60 61 1 
p 0.0378143605634779 1 0 0.103003037822616 0.206006075645232 0.309009113467848 0.412012151290465 0.515015189113081 0.618018226935697 0.721021264758313 0.824024302580929 0.927027340403545 1.03003037822616 1.13303341604878 1.23603645387139 1.33903949169401 1.44204252951663 1.54504556733924 1.64804860516186 1.75105164298447 1.85405468080709 1.95705771862971 2.06006075645232 2.16306379427494 2.26606683209756 2.36906986992017 2.47207290774279 2.5750759455654 2.67807898338802 2.78108202121064 2.88408505903325 2.98708809685587 3.09009113467849 3.1930941725011 3.29609721032372 3.39910024814633 3.50210328596895 3.60510632379157 3.70810936161418 3.8111123994368 3.91411543725942 4.01711847508203 4.12012151290465 4.22312455072727 4.32612758854988 4.4291306263725 4.53213366419511 4.63513670201773 4.73813973984035 4.84114277766296 4.94414581548558 5.0471488533082 5.15015189113081 5.25315492895343 5.35615796677604 5.45916100459866 5.56216404242128 5.66516708024389 5.76817011806651 5.87117315588913 5.97417619371174 6.07717923153436 6.18018226935698 6.28318530717959 
Surfaces 3
2 0 0 -0.5 -0 -0 -1 1 0 0 0 1 0 13.930384999999999
1 -3.9264963101577551e-16 1.7872377393899761e-15 0 0 0 1 1 0 0 0 1 0 
1 -3.9264963101577551e-16 1.7872377393899761e-15 0 0 0 1 1 0 0 0 1 0 
Triangulations 3
124 122 1 0.0184704383797076
13.930385 0 -0.5 13.930385 0 0.5 13.930385 0 -0.5 13.930385 0 0.5 13.8565522267633 1.43233607620733 -0.5 13.6358365528171 2.84948903368344 -0.5 13.2705776192127 4.23643669853277 -0.5 12.7646472615122 5.57847708047582 -0.5 12.1234084673679 6.86138421760349 -0.5 11.3536585275191 8.07155897511238 -0.5 10.4635569828197 9.19617319951671 -0.5 9.46253913107477 10.2233057002666 -0.5 8.36121601053678 11.1420686173335 -0.5 7.17126192026053 11.9427228352351 -0.5 5.90529066962879 12.6167812200823 -0.5 4.57672186883497 13.1570985853095 -0.5 3.19963867767664 13.5579474324302 -0.5 1.7886385205582 13.8150786639454 -0.5 0.358678350160758 13.9257666248344 -0.5 -1.07508389997709 13.8888379951757 -0.5 -2.49744999332568 13.7046842276304 -0.5 -3.89334249545232 13.3752573979468 -0.5 -5.24796459857716 12.9040495124711 -0.5 -6.54695697141662 12.2960554920122 -0.5 -7.7765499716672 11.5577202244382 -0.5 -8.92370960763937 10.6968702472616 -0.5 -9.976275701812 9.72263078439475 -0.5 -10.9230907917391 8.64532901650651 -0.5 -11.7541184019275 7.47638461033768 -0.5 -12.4605494329738 6.22818866739293 -0.5 -13.0348955402094 4.91397237518221 -0.5 -13.4710685120171 3.5476667533416 -0.5 -13.7644448063887 2.1437549813596 -0.5 -13.9119145616203 0.717118873271504 -0.5 -13.9119145616203 -0.717118873271525 -0.5 -13.7644448063887 -2.14375498135963 -0.5 -13.4710685120171 -3.54766675334163 -0.5 -13.0348955402094 -4.91397237518223 -0.5 -12.4605494329738 -6.22818866739295 -0.5 -11.7541184019275 -7.4763846103377 -0.5 -10.9230907917391 -8.64532901650652 -0.5 -9.97627570181198 -9.72263078439477 -0.5 -8.92370960763936 -10.6968702472616 -0.5 -7.77654997166719 -11.5577202244382 -0.5 -6.54695697141661 -12.2960554920122 -0.5 -5.24796459857715 -12.9040495124711 -0.5 -3.89334249545231 -13.3752573979468 -0.5 -2.49744999332566 -13.7046842276304 -0.5 -1.07508389997707 -13.8888379951757 -0.5 0.358678350160786 -13.9257666248344 -0.5 1.78863852055823 -13.8150786639454 -0.5 3.19963867767667 -13.5579474324302 -0.5 4.57672186883501 -13.1570985853095 -0.5 5.90529066962883 -12.6167812200822 -0.5 7.17126192026056 -11.9427228352351 -0.5 8.36121601053682 -11.1420686173335 -0.5 9.46253913107481 -10.2233057002666 -0.5 10.4635569828198 -9.19617319951668 -0.5 11.3536585275192 -8.07155897511233 -0.5 12.1234084673679 -6.86138421760344 -0.5 12.7646472615122 -5.57847708047576 -0.5 13.2705776192127 -4.23643669853271 -0.5 13.6358365528171 -2.84948903368337 -0.5 13.8565522267633 -1.43233607620726 -0.5 13.8565522267633 1.43233607620733 0.5 13.6358365528171 2.84948903368344 0.5 13.2705776192127 4.23643669853277 0.5 12.7646472615122 5.57847708047582 0.5 12.1234084673679 6.86138421760349 0.5 11.3536585275191 8.07155897511238 0.5 10.4635569828197 9.19617319951671 0.5 9.46253913107477 10.2233057002666 0.5 8.36121601053678 11.1420686173335 0.5 7.17126192026053 11.9427228352351 0.5 5.90529066962879 12.6167812200823 0.5 4.57672186883497 13.1570985853095 0.5 3.19963867767664 13.5579474324302 0.5 1.7886385205582 13.8150786639454 0.5 0.358678350160758 13.9257666248344 0.5 -1.07508389997709 13.8888379951757 0.5 -2.49744999332568 13.7046842276304 0.5 -3.89334249545232 13.3752573979468 0.5 -5.24796459857716 12.9040495124711 0.5 -6.54695697141662 12.2960554920122 0.5 -7.7765499716672 11.5577202244382 0.5 -8.92370960763937 10.6968702472616 0.5 -9.976275701812 9.72263078439475 0.5 -10.9230907917391 8.64532901650651 0.5 -11.7541184019275 7.47638461033768 0.5 -12.4605494329738 6.22818866739293 0.5 -13.0348955402094 4.91397237518221 0.5 -13.4710685120171 3.5476667533416 0.5 -13.7644448063887 2.1437549813596 0.5 -13.9119145616203 0.717118873271504 0.5 -13.9119145616203 -0.717118873271525 0.5 -13.7644448063887 -2.14375498135963 0.5 -13.4710685120171 -3.54766675334163 0.5 -13.0348955402094 -4.91397237518223 0.5 -12.4605494329738 -6.22818866739295 0.5 -11.7541184019275 -7.4763846103377 0.5 -10.9230907917391 -8.64532901650652 0.5 -9.97627570181198 -9.72263078439477 0.5 -8.92370960763936 -10.6968702472616 0.5 -7.77654997166719 -11.5577202244382 0.5 -6.54695697141661 -12.2960554920122 0.5 -5.24796459857715 -12.9040495124711 0.5 -3.89334249545231 -13.3752573979468 0.5 -2.49744999332566 -13.7046842276304 0.5 -1.07508389997707 -13.8888379951757 0.5 0.358678350160786 -13.9257666248344 0.5 1.78863852055823 -13.8150786639454 0.5 3.19963867767667 -13.5579474324302 0.5 4.57672186883501 -13.1570985853095 0.5 5.90529066962883 -12.6167812200822 0.5 7.17126192026056 -11.9427228352351 0.5 8.36121601053682 -11.1420686173335 0.5 9.46253913107481 -10.2233057002666 0.5 10.4635569828198 -9.19617319951668 0.5 11.3536585275192 -8.07155897511233 0.5 12.1234084673679 -6.86138421760344 0.5 12.7646472615122 -5.57847708047576 0.5 13.2705776192127 -4.23643669853271 0.5 13.6358365528171 -2.84948903368337 0.5 13.8565522267633 -1.43233607620726 0.5 0 0 0 -1 6.28318530717959 0 6.28318530717959 -1 0.103003037822616 0 0.206006075645232 0 0.309009113467848 0 0.412012151290465 0 0.515015189113081 0 0.618018226935697 0 0.721021264758313 0 0.824024302580929 0 0.927027340403545 0 1.03003037822616 0 1.13303341604878 0 1.23603645387139 0 1.33903949169401 0 1.44204252951663 0 1.54504556733924 0 1.64804860516186 0 1.75105164298447 0 1.85405468080709 0 1.95705771862971 0 2.06006075645232 0 2.16306379427494 0 2.26606683209756 0 2.36906986992017 0 2.47207290774279 0 2.5750759455654 0 2.67807898338802 0 2.78108202121064 0 2.88408505903325 0 2.98708809685587 0 3.09009113467849 0 3.1930941725011 0 3.29609721032372 0 3.39910024814633 0 3.50210328596895 0 3.60510632379157 0 3.70810936161418 0 3.8111123994368 0 3.91411543725942 0 4.01711847508203 0 4.12012151290465 0 4.22312455072727 0 4.32612758854988 0 4.4291306263725 0 4.53213366419511 0 4.63513670201773 0 4.73813973984035 0 4.84114277766296 0 4.94414581548558 0 5.0471488533082 0 5.15015189113081 0 5.25315492895343 0 5.35615796677604 0 5.45916100459866 0 5.56216404242128 0 5.66516708024389 0 5.76817011806651 0 5.87117315588913 0 5.97417619371174 0 6.07717923153436 0 6.18018226935698 0 0.103003037822616 -1 0.206006075645232 -1 0.309009113467848 -1 0.412012151290465 -1 0.515015189113081 -1 0.618018226935697 -1 0.721021264758313 -1 0.824024302580929 -1 0.927027340403545 -1 1.03003037822616 -1 1.13303341604878 -1 1.23603645387139 -1 1.33903949169401 -1 1.44204252951663 -1 1.54504556733924 -1 1.64804860516186 -1 1.75105164298447 -1 1.85405468080709 -1 1.95705771862971 -1 2.06006075645232 -1 2.16306379427494 -1 2.26606683209756 -1 2.36906986992017 -1 2.47207290774279 -1 2.5750759455654 -1 2.67807898338802 -1 2.78108202121064 -1 2.88408505903325 -1 2.98708809685587 -1 3.09009113467849 -1 3.1930941725011 -1 3.29609721032372 -1 3.39910024814633 -1 3.50210328596895 -1 3.60510632379157 -1 3.70810936161418 -1 3.8111123994368 -1 3.91411543725942 -1 4.01711847508203 -1 4.12012151290465 -1 4.22312455072727 -1 4.32612758854988 -1 4.4291306263725 -1 4.53213366419511 -1 4.63513670201773 -1 4.73813973984035 -1 4.84114277766296 -1 4.94414581548558 -1 5.0471488533082 -1 5.15015189113081 -1 5.25315492895343 -1 5.35615796677604 -1 5.45916100459866 -1 5.56216404242128 -1 5.66516708024389 -1 5.76817011806651 -1 5.87117315588913 -1 5.97417619371174 -1 6.07717923153436 -1 6.18018226935698 -1 5 1 2 5 2 65 6 5 65 6 65 66 7 6 66 7 66 67 8 7 67 8 67 68 9 8 68 9 68 69 10 9 69 10 69 70 11 10 70 11 70 71 12 11 71 12 71 72 13 12 72 13 72 73 14 13 73 14 73 74 15 14 74 15 74 75 16 75 76 16 15 75 17 76 77 17 16 76 18 77 78 18 17 77 19 78 79 19 18 78 20 79 80 20 19 79 21 80 81 21 20 80 22 81 82 22 21 81 23 22 82 23 82 83 24 23 83 24 83 84 25 24 84 25 84 85 26 25 85 26 85 86 27 26 86 27 86 87 28 27 87 28 87 88 29 28 88 29 88 89 30 29 89 30 89 90 31 30 90 31 90 91 32 31 91 32 91 92 33 32 92 33 92 93 34 33 93 34 93 94 35 34 94 35 94 95 36 35 95 36 95 96 37 36 96 37 96 97 38 37 97 38 97 98 39 38 98 39 98 99 40 39 99 40 99 100 41 40 100 41 100 101 42 101 102 42 41 101 43 102 103 43 42 102 44 103 104 44 43 103 45 104 105 45 44 104 46 105 106 46 45 105 47 106 107 47 46 106 48 47 107 48 107 108 49 108 109 49 48 108 50 109 110 50 49 109 51 110 111 51 50 110 52 111 112 52 51 111 53 112 113 53 52 112 54 113 114 54 53 113 55 114 115 55 54 114 56 115 116 56 55 115 57 116 117 57 56 116 58 117 118 58 57 117 59 118 119 59 58 118 60 119 120 60 59 119 61 120 121 61 60 120 62 121 122 62 61 121 63 122 123 63 62 122 64 123 124 64 63 123 3 124 4 3 64 124 
61 59 1 1.77635683940025e-15
13.930385 0 0 13.8565522267633 1.43233607620733 0 13.6358365528171 2.84948903368344 0 13.2705776192127 4.23643669853277 0 12.7646472615122 5.57847708047582 0 12.1234084673679 6.86138421760349 0 11.3536585275191 8.07155897511238 0 10.4635569828197 9.19617319951671 0 9.46253913107477 10.2233057002666 0 8.36121601053678 11.1420686173335 0 7.17126192026053 11.9427228352351 0 5.90529066962879 12.6167812200823 0 4.57672186883497 13.1570985853095 0 3.19963867767664 13.5579474324302 0 1.7886385205582 13.8150786639454 0 0.358678350160758 13.9257666248344 0 -1.07508389997709 13.8888379951757 0 -2.49744999332568 13.7046842276304 0 -3.89334249545232 13.3752573979468 0 -5.24796459857716 12.9040495124711 0 -6.54695697141662 12.2960554920122 0 -7.7765499716672 11.5577202244382 0 -8.92370960763937 10.6968702472616 0 -9.976275701812 9.72263078439475 0 -10.9230907917391 8.64532901650651 0 -11.7541184019275 7.47638461033768 0 -12.4605494329738 6.22818866739293 0 -13.0348955402094 4.91397237518221 0 -13.4710685120171 3.5476667533416 0 -13.7644448063887 2.1437549813596 0 -13.9119145616203 0.717118873271504 0 -13.9119145616203 -0.717118873271525 0 -13.7644448063887 -2.14375498135963 0 -13.4710685120171 -3.54766675334163 0 -13.0348955402094 -4.91397237518223 0 -12.4605494329738 -6.22818866739295 0 -11.7541184019275 -7.4763846103377 0 -10.9230907917391 -8.64532901650652 0 -9.97627570181198 -9.72263078439477 0 -8.92370960763936 -10.6968702472616 0 -7.77654997166719 -11.5577202244382 0 -6.54695697141661 -12.2960554920122 0 -5.24796459857715 -12.9040495124711 0 -3.89334249545231 -13.3752573979468 0 -2.49744999332566 -13.7046842276304 0 -1.07508389997707 -13.8888379951757 0 0.358678350160786 -13.9257666248344 0 1.78863852055823 -13.8150786639454 0 3.19963867767667 -13.5579474324302 0 4.57672186883501 -13.1570985853095 0 5.90529066962883 -12.6167812200822 0 7.17126192026056 -11.9427228352351 0 8.36121601053682 -11.1420686173335 0 9.46253913107481 -10.2233057002666 0 10.4635569828198 -9.19617319951668 0 11.3536585275192 -8.07155897511233 0 12.1234084673679 -6.86138421760344 0 12.7646472615122 -5.57847708047576 0 13.2705776192127 -4.23643669853271 0 13.6358365528171 -2.84948903368337 0 13.8565522267633 -1.43233607620726 0 13.930385 -1.77635683940025e-15 13.8565522267633 1.43233607620733 13.6358365528171 2.84948903368343 13.2705776192127 4.23643669853277 12.7646472615122 5.57847708047582 12.1234084673679 6.86138421760349 11.3536585275191 8.07155897511238 10.4635569828197 9.19617319951671 9.46253913107477 10.2233057002666 8.36121601053678 11.1420686173335 7.17126192026053 11.9427228352351 5.90529066962879 12.6167812200823 4.57672186883497 13.1570985853095 3.19963867767664 13.5579474324302 1.7886385205582 13.8150786639454 0.358678350160758 13.9257666248344 -1.07508389997709 13.8888379951757 -2.49744999332568 13.7046842276304 -3.89334249545233 13.3752573979468 -5.24796459857716 12.9040495124711 -6.54695697141662 12.2960554920122 -7.7765499716672 11.5577202244382 -8.92370960763937 10.6968702472616 -9.976275701812 9.72263078439475 -10.9230907917391 8.64532901650651 -11.7541184019275 7.47638461033768 -12.4605494329738 6.22818866739293 -13.0348955402094 4.91397237518221 -13.4710685120171 3.5476667533416 -13.7644448063887 2.1437549813596 -13.9119145616203 0.717118873271502 -13.9119145616203 -0.717118873271527 -13.7644448063887 -2.14375498135963 -13.4710685120171 -3.54766675334163 -13.0348955402094 -4.91397237518223 -12.4605494329738 -6.22818866739296 -11.7541184019275 -7.4763846103377 -10.9230907917391 -8.64532901650652 -9.97627570181198 -9.72263078439477 -8.92370960763936 -10.6968702472616 -7.77654997166719 -11.5577202244382 -6.54695697141661 -12.2960554920122 -5.24796459857715 -12.9040495124711 -3.89334249545231 -13.3752573979468 -2.49744999332566 -13.7046842276304 -1.07508389997707 -13.8888379951757 0.358678350160787 -13.9257666248344 1.78863852055823 -13.8150786639454 3.19963867767668 -13.5579474324302 4.57672186883501 -13.1570985853095 5.90529066962882 -12.6167812200822 7.17126192026056 -11.9427228352351 8.36121601053682 -11.1420686173335 9.46253913107481 -10.2233057002666 10.4635569828198 -9.19617319951668 11.3536585275192 -8.07155897511234 12.1234084673679 -6.86138421760344 12.7646472615122 -5.57847708047576 13.2705776192127 -4.23643669853271 13.6358365528171 -2.84948903368337 13.8565522267633 -1.43233607620726 38 39 40 57 53 55 57 55 56 21 22 23 36 37 38 20 46 50 20 23 24 20 24 43 43 41 42 20 21 23 20 50 51 20 51 52 20 52 53 35 40 41 20 43 46 35 38 40 35 36 38 35 41 43 59 57 58 18 19 20 18 57 59 18 53 57 18 20 53 33 34 35 33 35 43 61 59 60 46 43 44 46 44 45 16 17 18 16 18 59 16 59 61 16 61 1 48 46 47 13 14 15 13 15 16 13 16 1 50 48 49 6 2 3 6 3 4 50 46 48 6 4 5 28 29 30 11 12 13 27 28 30 10 1 2 10 6 7 10 11 13 10 13 1 10 2 6 9 7 8 9 10 7 26 30 31 26 31 32 26 32 33 26 27 30 24 26 33 24 25 26 24 33 43 55 53 54 
61 59 1 1.77635683940025e-15
13.930385 0 0 13.8565522267633 1.43233607620733 0 13.6358365528171 2.84948903368344 0 13.2705776192127 4.23643669853277 0 12.7646472615122 5.57847708047582 0 12.1234084673679 6.86138421760349 0 11.3536585275191 8.07155897511238 0 10.4635569828197 9.19617319951671 0 9.46253913107477 10.2233057002666 0 8.36121601053678 11.1420686173335 0 7.17126192026053 11.9427228352351 0 5.90529066962879 12.6167812200823 0 4.57672186883497 13.1570985853095 0 3.19963867767664 13.5579474324302 0 1.7886385205582 13.8150786639454 0 0.358678350160758 13.9257666248344 0 -1.07508389997709 13.8888379951757 0 -2.49744999332568 13.7046842276304 0 -3.89334249545232 13.3752573979468 0 -5.24796459857716 12.9040495124711 0 -6.54695697141662 12.2960554920122 0 -7.7765499716672 11.5577202244382 0 -8.92370960763937 10.6968702472616 0 -9.976275701812 9.72263078439475 0 -10.9230907917391 8.64532901650651 0 -11.7541184019275 7.47638461033768 0 -12.4605494329738 6.22818866739293 0 -13.0348955402094 4.91397237518221 0 -13.4710685120171 3.5476667533416 0 -13.7644448063887 2.1437549813596 0 -13.9119145616203 0.717118873271504 0 -13.9119145616203 -0.717118873271525 0 -13.7644448063887 -2.14375498135963 0 -13.4710685120171 -3.54766675334163 0 -13.0348955402094 -4.91397237518223 0 -12.4605494329738 -6.22818866739295 0 -11.7541184019275 -7.4763846103377 0 -10.9230907917391 -8.64532901650652 0 -9.97627570181198 -9.72263078439477 0 -8.92370960763936 -10.6968702472616 0 -7.77654997166719 -11.5577202244382 0 -6.54695697141661 -12.2960554920122 0 -5.24796459857715 -12.9040495124711 0 -3.89334249545231 -13.3752573979468 0 -2.49744999332566 -13.7046842276304 0 -1.07508389997707 -13.8888379951757 0 0.358678350160786 -13.9257666248344 0 1.78863852055823 -13.8150786639454 0 3.19963867767667 -13.5579474324302 0 4.57672186883501 -13.1570985853095 0 5.90529066962883 -12.6167812200822 0 7.17126192026056 -11.9427228352351 0 8.36121601053682 -11.1420686173335 0 9.46253913107481 -10.2233057002666 0 10.4635569828198 -9.19617319951668 0 11.3536585275192 -8.07155897511233 0 12.1234084673679 -6.86138421760344 0 12.7646472615122 -5.57847708047576 0 13.2705776192127 -4.23643669853271 0 13.6358365528171 -2.84948903368337 0 13.8565522267633 -1.43233607620726 0 13.930385 -1.77635683940025e-15 13.8565522267633 1.43233607620733 13.6358365528171 2.84948903368343 13.2705776192127 4.23643669853277 12.7646472615122 5.57847708047582 12.1234084673679 6.86138421760349 11.3536585275191 8.07155897511238 10.4635569828197 9.19617319951671 9.46253913107477 10.2233057002666 8.36121601053678 11.1420686173335 7.17126192026053 11.9427228352351 5.90529066962879 12.6167812200823 4.57672186883497 13.1570985853095 3.19963867767664 13.5579474324302 1.7886385205582 13.8150786639454 0.358678350160758 13.9257666248344 -1.07508389997709 13.8888379951757 -2.49744999332568 13.7046842276304 -3.89334249545233 13.3752573979468 -5.24796459857716 12.9040495124711 -6.54695697141662 12.2960554920122 -7.7765499716672 11.5577202244382 -8.92370960763937 10.6968702472616 -9.976275701812 9.72263078439475 -10.9230907917391 8.64532901650651 -11.7541184019275 7.47638461033768 -12.4605494329738 6.22818866739293 -13.0348955402094 4.91397237518221 -13.4710685120171 3.5476667533416 -13.7644448063887 2.1437549813596 -13.9119145616203 0.717118873271502 -13.9119145616203 -0.717118873271527 -13.7644448063887 -2.14375498135963 -13.4710685120171 -3.54766675334163 -13.0348955402094 -4.91397237518223 -12.4605494329738 -6.22818866739296 -11.7541184019275 -7.4763846103377 -10.9230907917391 -8.64532901650652 -9.97627570181198 -9.72263078439477 -8.92370960763936 -10.6968702472616 -7.77654997166719 -11.5577202244382 -6.54695697141661 -12.2960554920122 -5.24796459857715 -12.9040495124711 -3.89334249545231 -13.3752573979468 -2.49744999332566 -13.7046842276304 -1.07508389997707 -13.8888379951757 0.358678350160787 -13.9257666248344 1.78863852055823 -13.8150786639454 3.19963867767668 -13.5579474324302 4.57672186883501 -13.1570985853095 5.90529066962882 -12.6167812200822 7.17126192026056 -11.9427228352351 8.36121601053682 -11.1420686173335 9.46253913107481 -10.2233057002666 10.4635569828198 -9.19617319951668 11.3536585275192 -8.07155897511234 12.1234084673679 -6.86138421760344 12.7646472615122 -5.57847708047576 13.2705776192127 -4.23643669853271 13.6358365528171 -2.84948903368337 13.8565522267633 -1.43233607620726 38 39 40 57 53 55 57 55 56 21 22 23 36 37 38 20 46 50 20 23 24 20 24 43 43 41 42 20 21 23 20 50 51 20 51 52 20 52 53 35 40 41 20 43 46 35 38 40 35 36 38 35 41 43 59 57 58 18 19 20 18 57 59 18 53 57 18 20 53 33 34 35 33 35 43 61 59 60 46 43 44 46 44 45 16 17 18 16 18 59 16 59 61 16 61 1 48 46 47 13 14 15 13 15 16 13 16 1 50 48 49 6 2 3 6 3 4 50 46 48 6 4 5 28 29 30 11 12 13 27 28 30 10 1 2 10 6 7 10 11 13 10 13 1 10 2 6 9 7 8 9 10 7 26 30 31 26 31 32 26 32 33 26 27 30 24 26 33 24 25 26 24 33 43 55 53 54 

TShapes 14
Ve
1e-07
13.930385 0 -0.5
0 0

0101101
*
Ve
1e-07
13.930385 0 0.5
0 0

0101101
*
Ed
 1e-07 1 1 0
1  1 0 0 1
3  1 2CN 1 0 0 1
7  1 2 1 0
0

0101000
+14 3 -13 3 *
Ed
 1e-07 1 1 0
1  2 0 0 6.28318530717959
2  3 1 8 0 6.28318530717959
6  3 1 8
6  4 2 9
0

0101000
+14 10 -14 10 *
Ed
 1e-07 1 1 0
1  3 0 0 6.28318530717959
2  4 1 13 0 6.28318530717959
6  5 1 13
6  6 3 9
0

0101000
+13 14 -13 14 *
Wi

0101100
+12 0 -12 0 -11 7 +10 12 *
Fa
0  1e-07 1 0
2  1
0101000
+9 0 *
Wi

0101100
+11 0 *
Fa
0  1e-07 2 0
2  2
0101000
+7 4 *
Wi

0101100
+10 0 *
Fa
0  1e-07 3 0
2  3
0101000
+5 4 *
Sh

0101100
+8 0 +6 15 -4 16 *
So

0100000
-3 0 *
Co

1100000
+2 1 *

+1 0 