solid Created by Gmsh
facet normal 0.990686 0.136167 0
  outer loop
    vertex 13.9304 0 0.5
    vertex 13.9304 0 -0.5
    vertex 13.4138 3.75837 -0.5
  endloop
endfacet
facet normal 0.990686 0.136167 0
  outer loop
    vertex 13.9304 0 0.5
    vertex 13.4138 3.75837 -0.5
    vertex 13.4138 3.75837 0.5
  endloop
endfacet
facet normal 0.917211 0.398401 0
  outer loop
    vertex 13.4138 3.75837 -0.5
    vertex 11.9024 7.238 -0.5
    vertex 11.9024 7.238 0.5
  endloop
endfacet
facet normal 0.917211 0.398401 -0
  outer loop
    vertex 13.4138 3.75837 -0.5
    vertex 11.9024 7.238 0.5
    vertex 13.4138 3.75837 0.5
  endloop
endfacet
facet normal 0.775711 0.631088 0
  outer loop
    vertex 11.9024 7.238 0.5
    vertex 11.9024 7.238 -0.5
    vertex 9.50823 10.1808 -0.5
  endloop
endfacet
facet normal 0.775711 0.631088 0
  outer loop
    vertex 11.9024 7.238 0.5
    vertex 9.50823 10.1808 -0.5
    vertex 9.50823 10.1808 0.5
  endloop
endfacet
facet normal 0.57668 0.81697 0
  outer loop
    vertex 9.50823 10.1808 0.5
    vertex 9.50823 10.1808 -0.5
    vertex 6.40888 12.3686 0.5
  endloop
endfacet
facet normal 0.57668 0.81697 0
  outer loop
    vertex 9.50823 10.1808 -0.5
    vertex 6.40888 12.3686 -0.5
    vertex 6.40888 12.3686 0.5
  endloop
endfacet
facet normal 0.33488 0.942261 0
  outer loop
    vertex 6.40888 12.3686 -0.5
    vertex 2.83422 13.639 -0.5
    vertex 2.83422 13.639 0.5
  endloop
endfacet
facet normal 0.33488 0.942261 -0
  outer loop
    vertex 6.40888 12.3686 -0.5
    vertex 2.83422 13.639 0.5
    vertex 6.40888 12.3686 0.5
  endloop
endfacet
facet normal 0.0682424 0.997669 -0
  outer loop
    vertex 2.83422 13.639 -0.5
    vertex -0.950643 13.8979 -0.5
    vertex 2.83422 13.639 0.5
  endloop
endfacet
facet normal 0.0682424 0.997669 0
  outer loop
    vertex 2.83422 13.639 0.5
    vertex -0.950643 13.8979 -0.5
    vertex -0.950643 13.8979 0.5
  endloop
endfacet
facet normal -0.203456 0.979084 0
  outer loop
    vertex -0.950643 13.8979 -0.5
    vertex -4.665 13.1261 -0.5
    vertex -4.665 13.1261 0.5
  endloop
endfacet
facet normal -0.203456 0.979084 0
  outer loop
    vertex -0.950643 13.8979 -0.5
    vertex -4.665 13.1261 0.5
    vertex -0.950643 13.8979 0.5
  endloop
endfacet
facet normal -0.460065 0.887885 0
  outer loop
    vertex -4.665 13.1261 -0.5
    vertex -8.03338 11.3807 -0.5
    vertex -4.665 13.1261 0.5
  endloop
endfacet
facet normal -0.460065 0.887885 0
  outer loop
    vertex -4.665 13.1261 0.5
    vertex -8.03338 11.3807 -0.5
    vertex -8.03338 11.3807 0.5
  endloop
endfacet
facet normal -0.682553 0.730836 0
  outer loop
    vertex -8.03338 11.3807 0.5
    vertex -8.03338 11.3807 -0.5
    vertex -10.806 8.7913 0.5
  endloop
endfacet
facet normal -0.682553 0.730836 0
  outer loop
    vertex -8.03338 11.3807 -0.5
    vertex -10.806 8.7913 -0.5
    vertex -10.806 8.7913 0.5
  endloop
endfacet
facet normal -0.854419 0.519584 0
  outer loop
    vertex -10.806 8.7913 0.5
    vertex -10.806 8.7913 -0.5
    vertex -12.7771 5.54988 0.5
  endloop
endfacet
facet normal -0.854419 0.519584 0
  outer loop
    vertex -10.806 8.7913 -0.5
    vertex -12.7771 5.54988 -0.5
    vertex -12.7771 5.54988 0.5
  endloop
endfacet
facet normal -0.962917 0.269797 0
  outer loop
    vertex -12.7771 5.54988 0.5
    vertex -12.7771 5.54988 -0.5
    vertex -13.8006 1.89685 -0.5
  endloop
endfacet
facet normal -0.962917 0.269797 0
  outer loop
    vertex -12.7771 5.54988 0.5
    vertex -13.8006 1.89685 -0.5
    vertex -13.8006 1.89685 0.5
  endloop
endfacet
facet normal -1 -2.80943e-15 -0
  outer loop
    vertex -13.8006 1.89685 0.5
    vertex -13.8006 1.89685 -0.5
    vertex -13.8006 -1.89685 0.5
  endloop
endfacet
facet normal -1 -2.80943e-15 0
  outer loop
    vertex -13.8006 1.89685 -0.5
    vertex -13.8006 -1.89685 -0.5
    vertex -13.8006 -1.89685 0.5
  endloop
endfacet
facet normal -0.962917 -0.269797 -0
  outer loop
    vertex -13.8006 -1.89685 0.5
    vertex -13.8006 -1.89685 -0.5
    vertex -12.7771 -5.54988 -0.5
  endloop
endfacet
facet normal -0.962917 -0.269797 0
  outer loop
    vertex -13.8006 -1.89685 0.5
    vertex -12.7771 -5.54988 -0.5
    vertex -12.7771 -5.54988 0.5
  endloop
endfacet
facet normal -0.854419 -0.519584 0
  outer loop
    vertex -12.7771 -5.54988 -0.5
    vertex -10.806 -8.7913 -0.5
    vertex -10.806 -8.7913 0.5
  endloop
endfacet
facet normal -0.854419 -0.519584 0
  outer loop
    vertex -12.7771 -5.54988 -0.5
    vertex -10.806 -8.7913 0.5
    vertex -12.7771 -5.54988 0.5
  endloop
endfacet
facet normal -0.682553 -0.730836 0
  outer loop
    vertex -10.806 -8.7913 -0.5
    vertex -8.03338 -11.3807 -0.5
    vertex -10.806 -8.7913 0.5
  endloop
endfacet
facet normal -0.682553 -0.730836 0
  outer loop
    vertex -10.806 -8.7913 0.5
    vertex -8.03338 -11.3807 -0.5
    vertex -8.03338 -11.3807 0.5
  endloop
endfacet
facet normal -0.460065 -0.887885 0
  outer loop
    vertex -8.03338 -11.3807 -0.5
    vertex -4.665 -13.1261 -0.5
    vertex -8.03338 -11.3807 0.5
  endloop
endfacet
facet normal -0.460065 -0.887885 0
  outer loop
    vertex -8.03338 -11.3807 0.5
    vertex -4.665 -13.1261 -0.5
    vertex -4.665 -13.1261 0.5
  endloop
endfacet
facet normal -0.203456 -0.979084 0
  outer loop
    vertex -4.665 -13.1261 -0.5
    vertex -0.950643 -13.8979 -0.5
    vertex -0.950643 -13.8979 0.5
  endloop
endfacet
facet normal -0.203456 -0.979084 0
  outer loop
    vertex -4.665 -13.1261 -0.5
    vertex -0.950643 -13.8979 0.5
    vertex -4.665 -13.1261 0.5
  endloop
endfacet
facet normal 0.0682424 -0.997669 0
  outer loop
    vertex -0.950643 -13.8979 0.5
    vertex -0.950643 -13.8979 -0.5
    vertex 2.83422 -13.639 0.5
  endloop
endfacet
facet normal 0.0682424 -0.997669 0
  outer loop
    vertex -0.950643 -13.8979 -0.5
    vertex 2.83422 -13.639 -0.5
    vertex 2.83422 -13.639 0.5
  endloop
endfacet
facet normal 0.33488 -0.942261 0
  outer loop
    vertex 2.83422 -13.639 -0.5
    vertex 6.40888 -12.3686 -0.5
    vertex 2.83422 -13.639 0.5
  endloop
endfacet
facet normal 0.33488 -0.942261 0
  outer loop
    vertex 2.83422 -13.639 0.5
    vertex 6.40888 -12.3686 -0.5
    vertex 6.40888 -12.3686 0.5
  endloop
endfacet
facet normal 0.57668 -0.81697 0
  outer loop
    vertex 6.40888 -12.3686 -0.5
    vertex 9.50823 -10.1808 -0.5
    vertex 6.40888 -12.3686 0.5
  endloop
endfacet
facet normal 0.57668 -0.81697 0
  outer loop
    vertex 6.40888 -12.3686 0.5
    vertex 9.50823 -10.1808 -0.5
    vertex 9.50823 -10.1808 0.5
  endloop
endfacet
facet normal 0.775711 -0.631088 0
  outer loop
    vertex 9.50823 -10.1808 -0.5
    vertex 11.9024 -7.238 -0.5
    vertex 9.50823 -10.1808 0.5
  endloop
endfacet
facet normal 0.775711 -0.631088 0
  outer loop
    vertex 9.50823 -10.1808 0.5
    vertex 11.9024 -7.238 -0.5
    vertex 11.9024 -7.238 0.5
  endloop
endfacet
facet normal 0.917211 -0.398401 0
  outer loop
    vertex 11.9024 -7.238 0.5
    vertex 11.9024 -7.238 -0.5
    vertex 13.4138 -3.75837 0.5
  endloop
endfacet
facet normal 0.917211 -0.398401 0
  outer loop
    vertex 11.9024 -7.238 -0.5
    vertex 13.4138 -3.75837 -0.5
    vertex 13.4138 -3.75837 0.5
  endloop
endfacet
facet normal 0.990686 -0.136167 0
  outer loop
    vertex 13.4138 -3.75837 -0.5
    vertex 13.9304 0 -0.5
    vertex 13.4138 -3.75837 0.5
  endloop
endfacet
facet normal 0.990686 -0.136167 0
  outer loop
    vertex 13.4138 -3.75837 0.5
    vertex 13.9304 0 -0.5
    vertex 13.9304 0 0.5
  endloop
endfacet
facet normal 0 0 -1
  outer loop
    vertex 11.9044 2.49178 -0.5
    vertex 13.4138 3.75837 -0.5
    vertex 13.9304 0 -0.5
  endloop
endfacet
facet normal 0 0 -1
  outer loop
    vertex 11.9024 7.238 -0.5
    vertex 13.4138 3.75837 -0.5
    vertex 11.9044 2.49178 -0.5
  endloop
endfacet
facet normal 0 0 -1
  outer loop
    vertex 8.1197 9.0401 -0.5
    vertex 9.50823 10.1808 -0.5
    vertex 11.9024 7.238 -0.5
  endloop
endfacet
facet normal 0 0 -1
  outer loop
    vertex 6.40888 12.3686 -0.5
    vertex 9.50823 10.1808 -0.5
    vertex 8.1197 9.0401 -0.5
  endloop
endfacet
facet normal 0 -0 -1
  outer loop
    vertex 1.81204 -11.5421 -0.5
    vertex 2.83422 -13.639 -0.5
    vertex -0.950643 -13.8979 -0.5
  endloop
endfacet
facet normal -0 0 -1
  outer loop
    vertex 6.40888 -12.3686 -0.5
    vertex 2.83422 -13.639 -0.5
    vertex 1.81204 -11.5421 -0.5
  endloop
endfacet
facet normal 0 0 -1
  outer loop
    vertex -3.65344 -9.07066 -0.5
    vertex -3.27286 -6.29033 -0.5
    vertex -0.0285169 -8.61023 -0.5
  endloop
endfacet
facet normal 0 0 -1
  outer loop
    vertex -0.0285169 -8.61023 -0.5
    vertex -2.30582 -11.2408 -0.5
    vertex -3.65344 -9.07066 -0.5
  endloop
endfacet
facet normal 0 0 -1
  outer loop
    vertex -1.24331 9.9031 -0.5
    vertex -4.665 13.1261 -0.5
    vertex -0.950643 13.8979 -0.5
  endloop
endfacet
facet normal 0 0 -1
  outer loop
    vertex -5.96278 8.65128 -0.5
    vertex -8.03338 11.3807 -0.5
    vertex -4.665 13.1261 -0.5
  endloop
endfacet
facet normal 0 -0 -1
  outer loop
    vertex -5.96278 8.65128 -0.5
    vertex -3.1745 6.39353 -0.5
    vertex -6.6768 4.52197 -0.5
  endloop
endfacet
facet normal 0 0 -1
  outer loop
    vertex -6.07454 -10.2651 -0.5
    vertex -3.65344 -9.07066 -0.5
    vertex -2.30582 -11.2408 -0.5
  endloop
endfacet
facet normal 0 -0 -1
  outer loop
    vertex -9.12559 6.54733 -0.5
    vertex -6.6768 4.52197 -0.5
    vertex -9.61724 2.25714 -0.5
  endloop
endfacet
facet normal 0 0 -1
  outer loop
    vertex -0.0285169 -8.61023 -0.5
    vertex 2.74617 -5.92249 -0.5
    vertex 4.43394 -9.33676 -0.5
  endloop
endfacet
facet normal -0 0 -1
  outer loop
    vertex 9.50823 -10.1808 -0.5
    vertex 6.40888 -12.3686 -0.5
    vertex 4.43394 -9.33676 -0.5
  endloop
endfacet
facet normal 0 0 -1
  outer loop
    vertex -10.806 -8.7913 -0.5
    vertex -12.7771 -5.54988 -0.5
    vertex -10.043 -4.42977 -0.5
  endloop
endfacet
facet normal -0 0 -1
  outer loop
    vertex -10.043 -4.42977 -0.5
    vertex -12.7771 -5.54988 -0.5
    vertex -11.4854 -1.08477 -0.5
  endloop
endfacet
facet normal 0 0 -1
  outer loop
    vertex -0.950643 13.8979 -0.5
    vertex 2.83422 13.639 -0.5
    vertex 1.63246 11.0061 -0.5
  endloop
endfacet
facet normal -0 0 -1
  outer loop
    vertex 5.03911 9.68463 -0.5
    vertex 2.48293 7.90574 -0.5
    vertex 1.63246 11.0061 -0.5
  endloop
endfacet
facet normal 0 0 -1
  outer loop
    vertex 1.63246 11.0061 -0.5
    vertex 2.83422 13.639 -0.5
    vertex 5.03911 9.68463 -0.5
  endloop
endfacet
facet normal -0 0 -1
  outer loop
    vertex 6.15686 -7.39636 -0.5
    vertex 4.43394 -9.33676 -0.5
    vertex 2.74617 -5.92249 -0.5
  endloop
endfacet
facet normal 0 0 -1
  outer loop
    vertex 9.50823 -10.1808 -0.5
    vertex 4.43394 -9.33676 -0.5
    vertex 6.15686 -7.39636 -0.5
  endloop
endfacet
facet normal 0 0 -1
  outer loop
    vertex -6.6768 4.52197 -0.5
    vertex -3.1745 6.39353 -0.5
    vertex -3.79808 2.23213 -0.5
  endloop
endfacet
facet normal 0 0 -1
  outer loop
    vertex -3.79808 2.23213 -0.5
    vertex -3.1745 6.39353 -0.5
    vertex -0.0853725 2.94909 -0.5
  endloop
endfacet
facet normal 0 0 -1
  outer loop
    vertex -12.1348 1.86779 -0.5
    vertex -13.8006 1.89685 -0.5
    vertex -12.7771 5.54988 -0.5
  endloop
endfacet
facet normal 0 0 -1
  outer loop
    vertex 7.73987 5.72846 -0.5
    vertex 11.9024 7.238 -0.5
    vertex 10.3158 4.08071 -0.5
  endloop
endfacet
facet normal -0 0 -1
  outer loop
    vertex 10.3158 4.08071 -0.5
    vertex 9.11139 1.62465 -0.5
    vertex 7.73987 5.72846 -0.5
  endloop
endfacet
facet normal 0 0 -1
  outer loop
    vertex -12.7771 5.54988 -0.5
    vertex -9.61724 2.25714 -0.5
    vertex -12.1348 1.86779 -0.5
  endloop
endfacet
facet normal 0 0 -1
  outer loop
    vertex -12.1348 1.86779 -0.5
    vertex -9.61724 2.25714 -0.5
    vertex -11.4854 -1.08477 -0.5
  endloop
endfacet
facet normal -0 0 -1
  outer loop
    vertex -6.07454 -10.2651 -0.5
    vertex -8.03338 -11.3807 -0.5
    vertex -10.806 -8.7913 -0.5
  endloop
endfacet
facet normal 0 0 -1
  outer loop
    vertex -6.07454 -10.2651 -0.5
    vertex -2.30582 -11.2408 -0.5
    vertex -4.665 -13.1261 -0.5
  endloop
endfacet
facet normal 0 0 -1
  outer loop
    vertex -4.665 -13.1261 -0.5
    vertex -8.03338 -11.3807 -0.5
    vertex -6.07454 -10.2651 -0.5
  endloop
endfacet
facet normal 0 0 -1
  outer loop
    vertex 10.3158 4.08071 -0.5
    vertex 11.9024 7.238 -0.5
    vertex 11.9044 2.49178 -0.5
  endloop
endfacet
facet normal -0 0 -1
  outer loop
    vertex 11.9044 2.49178 -0.5
    vertex 9.11139 1.62465 -0.5
    vertex 10.3158 4.08071 -0.5
  endloop
endfacet
facet normal 0 0 -1
  outer loop
    vertex -9.12559 6.54733 -0.5
    vertex -10.806 8.7913 -0.5
    vertex -8.03338 11.3807 -0.5
  endloop
endfacet
facet normal 0 0 -1
  outer loop
    vertex -9.12559 6.54733 -0.5
    vertex -9.61724 2.25714 -0.5
    vertex -12.7771 5.54988 -0.5
  endloop
endfacet
facet normal 0 0 -1
  outer loop
    vertex -12.7771 5.54988 -0.5
    vertex -10.806 8.7913 -0.5
    vertex -9.12559 6.54733 -0.5
  endloop
endfacet
facet normal 0 0 -1
  outer loop
    vertex 2.83422 13.639 -0.5
    vertex 6.40888 12.3686 -0.5
    vertex 5.03911 9.68463 -0.5
  endloop
endfacet
facet normal 0 0 -1
  outer loop
    vertex 8.1197 9.0401 -0.5
    vertex 5.03911 9.68463 -0.5
    vertex 6.40888 12.3686 -0.5
  endloop
endfacet
facet normal 0 -0 -1
  outer loop
    vertex -8.03338 11.3807 -0.5
    vertex -5.96278 8.65128 -0.5
    vertex -9.12559 6.54733 -0.5
  endloop
endfacet
facet normal 0 0 -1
  outer loop
    vertex -9.12559 6.54733 -0.5
    vertex -5.96278 8.65128 -0.5
    vertex -6.6768 4.52197 -0.5
  endloop
endfacet
facet normal 0 0 -1
  outer loop
    vertex 8.14352 -5.53574 -0.5
    vertex 11.9024 -7.238 -0.5
    vertex 9.50823 -10.1808 -0.5
  endloop
endfacet
facet normal 0 0 -1
  outer loop
    vertex 6.15686 -7.39636 -0.5
    vertex 8.14352 -5.53574 -0.5
    vertex 9.50823 -10.1808 -0.5
  endloop
endfacet
facet normal 0 0 -1
  outer loop
    vertex -7.052 -5.18478 -0.5
    vertex -8.0946 -1.53812 -0.5
    vertex -3.78811 -1.896 -0.5
  endloop
endfacet
facet normal 0 -0 -1
  outer loop
    vertex -3.78811 -1.896 -0.5
    vertex -3.27286 -6.29033 -0.5
    vertex -7.052 -5.18478 -0.5
  endloop
endfacet
facet normal 0 0 -1
  outer loop
    vertex 5.76888 -0.0514711 -0.5
    vertex 9.11139 1.62465 -0.5
    vertex 9.45591 -2.43151 -0.5
  endloop
endfacet
facet normal 0 0 -1
  outer loop
    vertex -6.17785 -7.96262 -0.5
    vertex -7.052 -5.18478 -0.5
    vertex -3.27286 -6.29033 -0.5
  endloop
endfacet
facet normal 0 0 -1
  outer loop
    vertex -3.27286 -6.29033 -0.5
    vertex -3.65344 -9.07066 -0.5
    vertex -6.17785 -7.96262 -0.5
  endloop
endfacet
facet normal 0 0 -1
  outer loop
    vertex -10.806 -8.7913 -0.5
    vertex -7.052 -5.18478 -0.5
    vertex -6.17785 -7.96262 -0.5
  endloop
endfacet
facet normal 0 0 -1
  outer loop
    vertex -3.78811 -1.896 -0.5
    vertex 1.22985 -1.2431 -0.5
    vertex -0.676529 -4.35475 -0.5
  endloop
endfacet
facet normal -0 0 -1
  outer loop
    vertex -0.676529 -4.35475 -0.5
    vertex -3.27286 -6.29033 -0.5
    vertex -3.78811 -1.896 -0.5
  endloop
endfacet
facet normal 0 0 -1
  outer loop
    vertex -0.676529 -4.35475 -0.5
    vertex 1.22985 -1.2431 -0.5
    vertex 2.74617 -5.92249 -0.5
  endloop
endfacet
facet normal -0 0 -1
  outer loop
    vertex 2.66849 1.45866 -0.5
    vertex 1.22985 -1.2431 -0.5
    vertex -0.0853725 2.94909 -0.5
  endloop
endfacet
facet normal 0 0 -1
  outer loop
    vertex 2.66849 1.45866 -0.5
    vertex 3.76058 4.18011 -0.5
    vertex 5.76888 -0.0514711 -0.5
  endloop
endfacet
facet normal -0 0 -1
  outer loop
    vertex 5.76888 -0.0514711 -0.5
    vertex 1.22985 -1.2431 -0.5
    vertex 2.66849 1.45866 -0.5
  endloop
endfacet
facet normal 0 0 -1
  outer loop
    vertex -0.0853725 2.94909 -0.5
    vertex 3.76058 4.18011 -0.5
    vertex 2.66849 1.45866 -0.5
  endloop
endfacet
facet normal 0 -0 -1
  outer loop
    vertex -0.0853725 2.94909 -0.5
    vertex 1.22985 -1.2431 -0.5
    vertex -1.61043 0.510531 -0.5
  endloop
endfacet
facet normal 0 0 -1
  outer loop
    vertex -3.78811 -1.896 -0.5
    vertex -3.79808 2.23213 -0.5
    vertex -1.61043 0.510531 -0.5
  endloop
endfacet
facet normal 0 -0 -1
  outer loop
    vertex -1.61043 0.510531 -0.5
    vertex 1.22985 -1.2431 -0.5
    vertex -3.78811 -1.896 -0.5
  endloop
endfacet
facet normal 0 0 -1
  outer loop
    vertex -1.61043 0.510531 -0.5
    vertex -3.79808 2.23213 -0.5
    vertex -0.0853725 2.94909 -0.5
  endloop
endfacet
facet normal 0 0 -1
  outer loop
    vertex -4.665 13.1261 -0.5
    vertex -1.24331 9.9031 -0.5
    vertex -3.7614 9.51849 -0.5
  endloop
endfacet
facet normal 0 0 -1
  outer loop
    vertex -3.1745 6.39353 -0.5
    vertex -5.96278 8.65128 -0.5
    vertex -3.7614 9.51849 -0.5
  endloop
endfacet
facet normal 0 0 -1
  outer loop
    vertex -3.7614 9.51849 -0.5
    vertex -1.24331 9.9031 -0.5
    vertex -3.1745 6.39353 -0.5
  endloop
endfacet
facet normal -0 0 -1
  outer loop
    vertex -3.7614 9.51849 -0.5
    vertex -5.96278 8.65128 -0.5
    vertex -4.665 13.1261 -0.5
  endloop
endfacet
facet normal 0 0 -1
  outer loop
    vertex 5.08054 -3.62738 -0.5
    vertex 1.22985 -1.2431 -0.5
    vertex 5.76888 -0.0514711 -0.5
  endloop
endfacet
facet normal 0 0 -1
  outer loop
    vertex 2.74617 -5.92249 -0.5
    vertex 1.22985 -1.2431 -0.5
    vertex 5.08054 -3.62738 -0.5
  endloop
endfacet
facet normal 0 0 -1
  outer loop
    vertex 0.348065 6.26631 -0.5
    vertex -3.1745 6.39353 -0.5
    vertex -1.24331 9.9031 -0.5
  endloop
endfacet
facet normal 0 0 -1
  outer loop
    vertex -1.24331 9.9031 -0.5
    vertex 2.48293 7.90574 -0.5
    vertex 0.348065 6.26631 -0.5
  endloop
endfacet
facet normal 0 0 -1
  outer loop
    vertex -0.0853725 2.94909 -0.5
    vertex -3.1745 6.39353 -0.5
    vertex 0.348065 6.26631 -0.5
  endloop
endfacet
facet normal 0 0 -1
  outer loop
    vertex 5.76888 -0.0514711 -0.5
    vertex 9.45591 -2.43151 -0.5
    vertex 7.11221 -2.91153 -0.5
  endloop
endfacet
facet normal 0 0 -1
  outer loop
    vertex 8.14352 -5.53574 -0.5
    vertex 5.08054 -3.62738 -0.5
    vertex 7.11221 -2.91153 -0.5
  endloop
endfacet
facet normal 0 0 -1
  outer loop
    vertex 7.11221 -2.91153 -0.5
    vertex 9.45591 -2.43151 -0.5
    vertex 8.14352 -5.53574 -0.5
  endloop
endfacet
facet normal -0 0 -1
  outer loop
    vertex 7.11221 -2.91153 -0.5
    vertex 5.08054 -3.62738 -0.5
    vertex 5.76888 -0.0514711 -0.5
  endloop
endfacet
facet normal 0 -0 -1
  outer loop
    vertex 7.73987 5.72846 -0.5
    vertex 9.11139 1.62465 -0.5
    vertex 6.59518 2.87044 -0.5
  endloop
endfacet
facet normal 0 0 -1
  outer loop
    vertex 5.76888 -0.0514711 -0.5
    vertex 3.76058 4.18011 -0.5
    vertex 6.59518 2.87044 -0.5
  endloop
endfacet
facet normal 0 -0 -1
  outer loop
    vertex 6.59518 2.87044 -0.5
    vertex 9.11139 1.62465 -0.5
    vertex 5.76888 -0.0514711 -0.5
  endloop
endfacet
facet normal 0 0 -1
  outer loop
    vertex 6.59518 2.87044 -0.5
    vertex 3.76058 4.18011 -0.5
    vertex 7.73987 5.72846 -0.5
  endloop
endfacet
facet normal 0 0 -1
  outer loop
    vertex 2.74617 -5.92249 -0.5
    vertex -0.0285169 -8.61023 -0.5
    vertex -0.216433 -6.41916 -0.5
  endloop
endfacet
facet normal 0 0 -1
  outer loop
    vertex -3.27286 -6.29033 -0.5
    vertex -0.676529 -4.35475 -0.5
    vertex -0.216433 -6.41916 -0.5
  endloop
endfacet
facet normal -0 -0 -1
  outer loop
    vertex -0.216433 -6.41916 -0.5
    vertex -0.0285169 -8.61023 -0.5
    vertex -3.27286 -6.29033 -0.5
  endloop
endfacet
facet normal 0 0 -1
  outer loop
    vertex -0.216433 -6.41916 -0.5
    vertex -0.676529 -4.35475 -0.5
    vertex 2.74617 -5.92249 -0.5
  endloop
endfacet
facet normal -0 0 -1
  outer loop
    vertex 11.5632 -0.414691 -0.5
    vertex 9.45591 -2.43151 -0.5
    vertex 9.11139 1.62465 -0.5
  endloop
endfacet
facet normal 0 0 -1
  outer loop
    vertex 13.4138 -3.75837 -0.5
    vertex 9.45591 -2.43151 -0.5
    vertex 11.5632 -0.414691 -0.5
  endloop
endfacet
facet normal 0 -0 -1
  outer loop
    vertex 5.53177 -5.62049 -0.5
    vertex 6.15686 -7.39636 -0.5
    vertex 2.74617 -5.92249 -0.5
  endloop
endfacet
facet normal 0 0 -1
  outer loop
    vertex 5.53177 -5.62049 -0.5
    vertex 5.08054 -3.62738 -0.5
    vertex 8.14352 -5.53574 -0.5
  endloop
endfacet
facet normal 0 0 -1
  outer loop
    vertex 8.14352 -5.53574 -0.5
    vertex 6.15686 -7.39636 -0.5
    vertex 5.53177 -5.62049 -0.5
  endloop
endfacet
facet normal 0 0 -1
  outer loop
    vertex 2.74617 -5.92249 -0.5
    vertex 5.08054 -3.62738 -0.5
    vertex 5.53177 -5.62049 -0.5
  endloop
endfacet
facet normal 0 0 -1
  outer loop
    vertex 4.75562 6.87473 -0.5
    vertex 5.03911 9.68463 -0.5
    vertex 7.73987 5.72846 -0.5
  endloop
endfacet
facet normal -0 0 -1
  outer loop
    vertex 4.75562 6.87473 -0.5
    vertex 3.76058 4.18011 -0.5
    vertex 2.48293 7.90574 -0.5
  endloop
endfacet
facet normal 0 0 -1
  outer loop
    vertex 2.48293 7.90574 -0.5
    vertex 5.03911 9.68463 -0.5
    vertex 4.75562 6.87473 -0.5
  endloop
endfacet
facet normal -0 0 -1
  outer loop
    vertex 7.73987 5.72846 -0.5
    vertex 3.76058 4.18011 -0.5
    vertex 4.75562 6.87473 -0.5
  endloop
endfacet
facet normal 0 0 -1
  outer loop
    vertex 13.4138 -3.75837 -0.5
    vertex 11.9024 -7.238 -0.5
    vertex 10.7289 -4.74091 -0.5
  endloop
endfacet
facet normal 0 0 -1
  outer loop
    vertex 8.14352 -5.53574 -0.5
    vertex 9.45591 -2.43151 -0.5
    vertex 10.7289 -4.74091 -0.5
  endloop
endfacet
facet normal 0 -0 -1
  outer loop
    vertex 10.7289 -4.74091 -0.5
    vertex 11.9024 -7.238 -0.5
    vertex 8.14352 -5.53574 -0.5
  endloop
endfacet
facet normal 0 0 -1
  outer loop
    vertex 10.7289 -4.74091 -0.5
    vertex 9.45591 -2.43151 -0.5
    vertex 13.4138 -3.75837 -0.5
  endloop
endfacet
facet normal 0 0 -1
  outer loop
    vertex -6.43883 0.835304 -0.5
    vertex -9.61724 2.25714 -0.5
    vertex -6.6768 4.52197 -0.5
  endloop
endfacet
facet normal 0 0 -1
  outer loop
    vertex -8.0946 -1.53812 -0.5
    vertex -9.61724 2.25714 -0.5
    vertex -6.43883 0.835304 -0.5
  endloop
endfacet
facet normal 0 -0 -1
  outer loop
    vertex -6.17785 -7.96262 -0.5
    vertex -6.07454 -10.2651 -0.5
    vertex -10.806 -8.7913 -0.5
  endloop
endfacet
facet normal -0 0 -1
  outer loop
    vertex -3.65344 -9.07066 -0.5
    vertex -6.07454 -10.2651 -0.5
    vertex -6.17785 -7.96262 -0.5
  endloop
endfacet
facet normal 0 0 -1
  outer loop
    vertex -2.30582 -11.2408 -0.5
    vertex -0.0285169 -8.61023 -0.5
    vertex 1.81204 -11.5421 -0.5
  endloop
endfacet
facet normal 0 0 -1
  outer loop
    vertex 11.5632 -0.414691 -0.5
    vertex 13.9304 0 -0.5
    vertex 13.4138 -3.75837 -0.5
  endloop
endfacet
facet normal 0 -0 -1
  outer loop
    vertex 11.9044 2.49178 -0.5
    vertex 13.9304 0 -0.5
    vertex 11.5632 -0.414691 -0.5
  endloop
endfacet
facet normal 0 0 -1
  outer loop
    vertex 11.5632 -0.414691 -0.5
    vertex 9.11139 1.62465 -0.5
    vertex 11.9044 2.49178 -0.5
  endloop
endfacet
facet normal -0 0 -1
  outer loop
    vertex -11.4854 -1.08477 -0.5
    vertex -13.8006 -1.89685 -0.5
    vertex -13.8006 1.89685 -0.5
  endloop
endfacet
facet normal 0 0 -1
  outer loop
    vertex -11.4854 -1.08477 -0.5
    vertex -13.8006 1.89685 -0.5
    vertex -12.1348 1.86779 -0.5
  endloop
endfacet
facet normal 0 0 -1
  outer loop
    vertex -12.7771 -5.54988 -0.5
    vertex -13.8006 -1.89685 -0.5
    vertex -11.4854 -1.08477 -0.5
  endloop
endfacet
facet normal -0 0 -1
  outer loop
    vertex 11.9024 7.238 -0.5
    vertex 7.73987 5.72846 -0.5
    vertex 8.1197 9.0401 -0.5
  endloop
endfacet
facet normal -0 0 -1
  outer loop
    vertex 8.1197 9.0401 -0.5
    vertex 7.73987 5.72846 -0.5
    vertex 5.03911 9.68463 -0.5
  endloop
endfacet
facet normal -0 0 -1
  outer loop
    vertex 1.63246 11.0061 -0.5
    vertex -1.24331 9.9031 -0.5
    vertex -0.950643 13.8979 -0.5
  endloop
endfacet
facet normal 0 0 -1
  outer loop
    vertex 2.48293 7.90574 -0.5
    vertex -1.24331 9.9031 -0.5
    vertex 1.63246 11.0061 -0.5
  endloop
endfacet
facet normal 0 -0 -1
  outer loop
    vertex 0.348065 6.26631 -0.5
    vertex 3.76058 4.18011 -0.5
    vertex -0.0853725 2.94909 -0.5
  endloop
endfacet
facet normal 0 -0 -1
  outer loop
    vertex 2.48293 7.90574 -0.5
    vertex 3.76058 4.18011 -0.5
    vertex 0.348065 6.26631 -0.5
  endloop
endfacet
facet normal 0 0 -1
  outer loop
    vertex -6.6768 4.52197 -0.5
    vertex -3.79808 2.23213 -0.5
    vertex -6.43883 0.835304 -0.5
  endloop
endfacet
facet normal 0 0 -1
  outer loop
    vertex -6.43883 0.835304 -0.5
    vertex -3.79808 2.23213 -0.5
    vertex -3.78811 -1.896 -0.5
  endloop
endfacet
facet normal 0 0 -1
  outer loop
    vertex -3.78811 -1.896 -0.5
    vertex -8.0946 -1.53812 -0.5
    vertex -6.43883 0.835304 -0.5
  endloop
endfacet
facet normal 0 -0 -1
  outer loop
    vertex -10.043 -4.42977 -0.5
    vertex -7.052 -5.18478 -0.5
    vertex -10.806 -8.7913 -0.5
  endloop
endfacet
facet normal 0 -0 -1
  outer loop
    vertex -8.0946 -1.53812 -0.5
    vertex -7.052 -5.18478 -0.5
    vertex -10.043 -4.42977 -0.5
  endloop
endfacet
facet normal 0 -0 -1
  outer loop
    vertex -2.30582 -11.2408 -0.5
    vertex -0.950643 -13.8979 -0.5
    vertex -4.665 -13.1261 -0.5
  endloop
endfacet
facet normal 0 0 -1
  outer loop
    vertex -0.950643 -13.8979 -0.5
    vertex -2.30582 -11.2408 -0.5
    vertex 1.81204 -11.5421 -0.5
  endloop
endfacet
facet normal 0 -0 -1
  outer loop
    vertex -9.61724 2.25714 -0.5
    vertex -8.0946 -1.53812 -0.5
    vertex -11.4854 -1.08477 -0.5
  endloop
endfacet
facet normal 0 0 -1
  outer loop
    vertex -10.043 -4.42977 -0.5
    vertex -11.4854 -1.08477 -0.5
    vertex -8.0946 -1.53812 -0.5
  endloop
endfacet
facet normal 0 0 -1
  outer loop
    vertex 1.81204 -11.5421 -0.5
    vertex 4.43394 -9.33676 -0.5
    vertex 6.40888 -12.3686 -0.5
  endloop
endfacet
facet normal 0 0 -1
  outer loop
    vertex -0.0285169 -8.61023 -0.5
    vertex 4.43394 -9.33676 -0.5
    vertex 1.81204 -11.5421 -0.5
  endloop
endfacet
facet normal 0 0 1
  outer loop
    vertex -3.97837 -11.8078 0.5
    vertex -8.03338 -11.3807 0.5
    vertex -4.665 -13.1261 0.5
  endloop
endfacet
facet normal 0 0 1
  outer loop
    vertex -0.950643 -13.8979 0.5
    vertex -3.97837 -11.8078 0.5
    vertex -4.665 -13.1261 0.5
  endloop
endfacet
facet normal 0 0 1
  outer loop
    vertex 9.84844 -6.57886 0.5
    vertex 9.50823 -10.1808 0.5
    vertex 11.9024 -7.238 0.5
  endloop
endfacet
facet normal 0 0 1
  outer loop
    vertex 13.4138 -3.75837 0.5
    vertex 9.84844 -6.57886 0.5
    vertex 11.9024 -7.238 0.5
  endloop
endfacet
facet normal 0 0 1
  outer loop
    vertex -7.61981 4.58227 0.5
    vertex -3.58934 6.98969 0.5
    vertex -6.93851 8.75842 0.5
  endloop
endfacet
facet normal -0 0 1
  outer loop
    vertex -4.68672 -9.17944 0.5
    vertex -1.01909 -11.1778 0.5
    vertex -1.35411 -8.72886 0.5
  endloop
endfacet
facet normal 0 0 1
  outer loop
    vertex 6.77441 5.60817 0.5
    vertex 4.72941 9.1905 0.5
    vertex 2.23251 6.55481 0.5
  endloop
endfacet
facet normal 0 0 1
  outer loop
    vertex 4.72941 9.1905 0.5
    vertex 6.77441 5.60817 0.5
    vertex 7.75638 8.45818 0.5
  endloop
endfacet
facet normal 0 -0 1
  outer loop
    vertex -0.142971 9.7922 0.5
    vertex 2.83422 13.639 0.5
    vertex -0.950643 13.8979 0.5
  endloop
endfacet
facet normal 0 0 1
  outer loop
    vertex 4.32814 -8.89066 0.5
    vertex 2.83422 -13.639 0.5
    vertex 6.40888 -12.3686 0.5
  endloop
endfacet
facet normal 0 -0 1
  outer loop
    vertex 4.44173 2.71237 0.5
    vertex 6.77441 5.60817 0.5
    vertex 2.23251 6.55481 0.5
  endloop
endfacet
facet normal -0 0 1
  outer loop
    vertex 9.92996 2.61046 0.5
    vertex 13.9304 0 0.5
    vertex 13.4138 3.75837 0.5
  endloop
endfacet
facet normal 0 0 1
  outer loop
    vertex 7.75638 8.45818 0.5
    vertex 6.32404 10.7369 0.5
    vertex 4.72941 9.1905 0.5
  endloop
endfacet
facet normal 0 0 1
  outer loop
    vertex 6.32404 10.7369 0.5
    vertex 2.83422 13.639 0.5
    vertex 4.72941 9.1905 0.5
  endloop
endfacet
facet normal -0 0 1
  outer loop
    vertex -8.68834 -7.56446 0.5
    vertex -4.68672 -9.17944 0.5
    vertex -5.74501 -5.59214 0.5
  endloop
endfacet
facet normal 0 -0 1
  outer loop
    vertex -3.28556 10.5819 0.5
    vertex -0.950643 13.8979 0.5
    vertex -4.665 13.1261 0.5
  endloop
endfacet
facet normal 0 0 1
  outer loop
    vertex -3.28556 10.5819 0.5
    vertex -6.93851 8.75842 0.5
    vertex -3.58934 6.98969 0.5
  endloop
endfacet
facet normal 0 0 1
  outer loop
    vertex -6.93851 8.75842 0.5
    vertex -3.28556 10.5819 0.5
    vertex -4.665 13.1261 0.5
  endloop
endfacet
facet normal 0 0 1
  outer loop
    vertex 10.0618 6.33098 0.5
    vertex 7.75638 8.45818 0.5
    vertex 6.77441 5.60817 0.5
  endloop
endfacet
facet normal 0 0 1
  outer loop
    vertex -5.74501 -5.59214 0.5
    vertex -8.57755 -4.51997 0.5
    vertex -8.68834 -7.56446 0.5
  endloop
endfacet
facet normal 0 0 1
  outer loop
    vertex -8.57755 -4.51997 0.5
    vertex -12.7771 -5.54988 0.5
    vertex -8.68834 -7.56446 0.5
  endloop
endfacet
facet normal 0 -0 1
  outer loop
    vertex 6.40888 -12.3686 0.5
    vertex 7.38949 -8.73449 0.5
    vertex 4.32814 -8.89066 0.5
  endloop
endfacet
facet normal 0 0 1
  outer loop
    vertex 7.38949 -8.73449 0.5
    vertex 6.85373 -5.65352 0.5
    vertex 4.32814 -8.89066 0.5
  endloop
endfacet
facet normal -0 0 1
  outer loop
    vertex -8.03338 -11.3807 0.5
    vertex -3.97837 -11.8078 0.5
    vertex -4.68672 -9.17944 0.5
  endloop
endfacet
facet normal 0 0 1
  outer loop
    vertex -1.01909 -11.1778 0.5
    vertex -4.68672 -9.17944 0.5
    vertex -3.97837 -11.8078 0.5
  endloop
endfacet
facet normal 0 0 1
  outer loop
    vertex -10.3969 5.49509 0.5
    vertex -10.806 8.7913 0.5
    vertex -12.7771 5.54988 0.5
  endloop
endfacet
facet normal 0 0 1
  outer loop
    vertex -13.8006 1.89685 0.5
    vertex -10.3969 5.49509 0.5
    vertex -12.7771 5.54988 0.5
  endloop
endfacet
facet normal -0 0 1
  outer loop
    vertex 6.32404 10.7369 0.5
    vertex 9.50823 10.1808 0.5
    vertex 6.40888 12.3686 0.5
  endloop
endfacet
facet normal 0 0 1
  outer loop
    vertex 9.50823 10.1808 0.5
    vertex 6.32404 10.7369 0.5
    vertex 7.75638 8.45818 0.5
  endloop
endfacet
facet normal 0 0 1
  outer loop
    vertex 2.83422 13.639 0.5
    vertex 6.32404 10.7369 0.5
    vertex 6.40888 12.3686 0.5
  endloop
endfacet
facet normal -0 0 1
  outer loop
    vertex 10.0618 6.33098 0.5
    vertex 13.4138 3.75837 0.5
    vertex 11.9024 7.238 0.5
  endloop
endfacet
facet normal 0 0 1
  outer loop
    vertex 10.0618 6.33098 0.5
    vertex 9.50823 10.1808 0.5
    vertex 7.75638 8.45818 0.5
  endloop
endfacet
facet normal 0 0 1
  outer loop
    vertex 9.50823 10.1808 0.5
    vertex 10.0618 6.33098 0.5
    vertex 11.9024 7.238 0.5
  endloop
endfacet
facet normal 0 0 1
  outer loop
    vertex -8.68834 -7.56446 0.5
    vertex -12.7771 -5.54988 0.5
    vertex -10.806 -8.7913 0.5
  endloop
endfacet
facet normal 0 0 1
  outer loop
    vertex -8.68834 -7.56446 0.5
    vertex -8.03338 -11.3807 0.5
    vertex -4.68672 -9.17944 0.5
  endloop
endfacet
facet normal 0 0 1
  outer loop
    vertex -8.03338 -11.3807 0.5
    vertex -8.68834 -7.56446 0.5
    vertex -10.806 -8.7913 0.5
  endloop
endfacet
facet normal 0 0 1
  outer loop
    vertex 13.9304 0 0.5
    vertex 9.86345 -2.68928 0.5
    vertex 13.4138 -3.75837 0.5
  endloop
endfacet
facet normal 0 0 1
  outer loop
    vertex 9.86345 -2.68928 0.5
    vertex 9.84844 -6.57886 0.5
    vertex 13.4138 -3.75837 0.5
  endloop
endfacet
facet normal 0 0 1
  outer loop
    vertex 7.38949 -8.73449 0.5
    vertex 6.40888 -12.3686 0.5
    vertex 9.50823 -10.1808 0.5
  endloop
endfacet
facet normal 0 0 1
  outer loop
    vertex -0.950643 13.8979 0.5
    vertex -3.28556 10.5819 0.5
    vertex -0.142971 9.7922 0.5
  endloop
endfacet
facet normal 0 0 1
  outer loop
    vertex -3.28556 10.5819 0.5
    vertex -3.58934 6.98969 0.5
    vertex -0.142971 9.7922 0.5
  endloop
endfacet
facet normal 0 0 1
  outer loop
    vertex 13.4138 3.75837 0.5
    vertex 10.0618 6.33098 0.5
    vertex 9.92996 2.61046 0.5
  endloop
endfacet
facet normal 0 0 1
  outer loop
    vertex 10.0618 6.33098 0.5
    vertex 6.77441 5.60817 0.5
    vertex 9.92996 2.61046 0.5
  endloop
endfacet
facet normal 0 -0 1
  outer loop
    vertex -12.7771 -5.54988 0.5
    vertex -10.1359 -1.9776 0.5
    vertex -13.8006 -1.89685 0.5
  endloop
endfacet
facet normal 0 0 1
  outer loop
    vertex -12.7771 -5.54988 0.5
    vertex -8.57755 -4.51997 0.5
    vertex -10.1359 -1.9776 0.5
  endloop
endfacet
facet normal 0 0 1
  outer loop
    vertex -9.7676 1.2311 0.5
    vertex -5.13241 1.2535 0.5
    vertex -7.61981 4.58227 0.5
  endloop
endfacet
facet normal 0 0 1
  outer loop
    vertex 1.07698 -6.12577 0.5
    vertex 1.17323 -9.71242 0.5
    vertex 4.32814 -8.89066 0.5
  endloop
endfacet
facet normal 0 0 1
  outer loop
    vertex 1.17323 -9.71242 0.5
    vertex 1.07698 -6.12577 0.5
    vertex -1.35411 -8.72886 0.5
  endloop
endfacet
facet normal -0 0 1
  outer loop
    vertex 1.17323 -9.71242 0.5
    vertex 2.83422 -13.639 0.5
    vertex 4.32814 -8.89066 0.5
  endloop
endfacet
facet normal 0 0 1
  outer loop
    vertex 2.83422 13.639 0.5
    vertex 2.41329 9.79413 0.5
    vertex 4.72941 9.1905 0.5
  endloop
endfacet
facet normal 0 -0 1
  outer loop
    vertex 2.23251 6.55481 0.5
    vertex 2.41329 9.79413 0.5
    vertex -0.142971 9.7922 0.5
  endloop
endfacet
facet normal 0 0 1
  outer loop
    vertex 2.41329 9.79413 0.5
    vertex 2.23251 6.55481 0.5
    vertex 4.72941 9.1905 0.5
  endloop
endfacet
facet normal 0 -0 1
  outer loop
    vertex 2.41329 9.79413 0.5
    vertex 2.83422 13.639 0.5
    vertex -0.142971 9.7922 0.5
  endloop
endfacet
facet normal 0 0 1
  outer loop
    vertex 1.30986 0.451763 0.5
    vertex -1.86677 0.721059 0.5
    vertex -2.30489 -2.61694 0.5
  endloop
endfacet
facet normal -0 0 1
  outer loop
    vertex -5.13241 1.2535 0.5
    vertex -1.86677 0.721059 0.5
    vertex -1.33966 3.79591 0.5
  endloop
endfacet
facet normal 0 0 1
  outer loop
    vertex -1.86677 0.721059 0.5
    vertex -5.13241 1.2535 0.5
    vertex -2.30489 -2.61694 0.5
  endloop
endfacet
facet normal -0 0 1
  outer loop
    vertex -1.86677 0.721059 0.5
    vertex 1.30986 0.451763 0.5
    vertex -1.33966 3.79591 0.5
  endloop
endfacet
facet normal 0 0 1
  outer loop
    vertex 13.9304 0 0.5
    vertex 10.2677 -0.0298948 0.5
    vertex 9.86345 -2.68928 0.5
  endloop
endfacet
facet normal 0 0 1
  outer loop
    vertex 7.34718 -0.0407612 0.5
    vertex 10.2677 -0.0298948 0.5
    vertex 9.92996 2.61046 0.5
  endloop
endfacet
facet normal 0 0 1
  outer loop
    vertex 10.2677 -0.0298948 0.5
    vertex 7.34718 -0.0407612 0.5
    vertex 9.86345 -2.68928 0.5
  endloop
endfacet
facet normal 0 -0 1
  outer loop
    vertex 10.2677 -0.0298948 0.5
    vertex 13.9304 0 0.5
    vertex 9.92996 2.61046 0.5
  endloop
endfacet
facet normal 0 -0 1
  outer loop
    vertex 1.0556 -2.77389 0.5
    vertex 1.30986 0.451763 0.5
    vertex -2.30489 -2.61694 0.5
  endloop
endfacet
facet normal 0 0 1
  outer loop
    vertex 1.0556 -2.77389 0.5
    vertex 1.07698 -6.12577 0.5
    vertex 4.14045 -2.80462 0.5
  endloop
endfacet
facet normal 0 0 1
  outer loop
    vertex 1.07698 -6.12577 0.5
    vertex 1.0556 -2.77389 0.5
    vertex -2.30489 -2.61694 0.5
  endloop
endfacet
facet normal 0 0 1
  outer loop
    vertex 1.30986 0.451763 0.5
    vertex 1.0556 -2.77389 0.5
    vertex 4.14045 -2.80462 0.5
  endloop
endfacet
facet normal 0 -0 1
  outer loop
    vertex 1.30986 0.451763 0.5
    vertex 1.66111 3.37871 0.5
    vertex -1.33966 3.79591 0.5
  endloop
endfacet
facet normal 0 0 1
  outer loop
    vertex 2.23251 6.55481 0.5
    vertex 1.66111 3.37871 0.5
    vertex 4.44173 2.71237 0.5
  endloop
endfacet
facet normal 0 -0 1
  outer loop
    vertex 1.66111 3.37871 0.5
    vertex 2.23251 6.55481 0.5
    vertex -1.33966 3.79591 0.5
  endloop
endfacet
facet normal 0 0 1
  outer loop
    vertex 1.66111 3.37871 0.5
    vertex 1.30986 0.451763 0.5
    vertex 4.44173 2.71237 0.5
  endloop
endfacet
facet normal 0 0 1
  outer loop
    vertex -6.62616 -2.34575 0.5
    vertex -5.74501 -5.59214 0.5
    vertex -2.30489 -2.61694 0.5
  endloop
endfacet
facet normal 0 0 1
  outer loop
    vertex -5.13241 1.2535 0.5
    vertex -6.62616 -2.34575 0.5
    vertex -2.30489 -2.61694 0.5
  endloop
endfacet
facet normal 0 0 1
  outer loop
    vertex 4.30981 0.0796888 0.5
    vertex 1.30986 0.451763 0.5
    vertex 4.14045 -2.80462 0.5
  endloop
endfacet
facet normal -0 0 1
  outer loop
    vertex 4.30981 0.0796888 0.5
    vertex 7.34718 -0.0407612 0.5
    vertex 4.44173 2.71237 0.5
  endloop
endfacet
facet normal 0 0 1
  outer loop
    vertex 7.34718 -0.0407612 0.5
    vertex 4.30981 0.0796888 0.5
    vertex 4.14045 -2.80462 0.5
  endloop
endfacet
facet normal -0 0 1
  outer loop
    vertex 1.30986 0.451763 0.5
    vertex 4.30981 0.0796888 0.5
    vertex 4.44173 2.71237 0.5
  endloop
endfacet
facet normal 0 -0 1
  outer loop
    vertex -4.42031 4.15534 0.5
    vertex -3.58934 6.98969 0.5
    vertex -7.61981 4.58227 0.5
  endloop
endfacet
facet normal 0 0 1
  outer loop
    vertex -4.42031 4.15534 0.5
    vertex -5.13241 1.2535 0.5
    vertex -1.33966 3.79591 0.5
  endloop
endfacet
facet normal 0 -0 1
  outer loop
    vertex -5.13241 1.2535 0.5
    vertex -4.42031 4.15534 0.5
    vertex -7.61981 4.58227 0.5
  endloop
endfacet
facet normal 0 0 1
  outer loop
    vertex -3.58934 6.98969 0.5
    vertex -4.42031 4.15534 0.5
    vertex -1.33966 3.79591 0.5
  endloop
endfacet
facet normal 0 -0 1
  outer loop
    vertex -7.91552 -0.459688 0.5
    vertex -5.13241 1.2535 0.5
    vertex -9.7676 1.2311 0.5
  endloop
endfacet
facet normal 0 0 1
  outer loop
    vertex -7.91552 -0.459688 0.5
    vertex -10.1359 -1.9776 0.5
    vertex -6.62616 -2.34575 0.5
  endloop
endfacet
facet normal 0 0 1
  outer loop
    vertex -10.1359 -1.9776 0.5
    vertex -7.91552 -0.459688 0.5
    vertex -9.7676 1.2311 0.5
  endloop
endfacet
facet normal 0 0 1
  outer loop
    vertex -5.13241 1.2535 0.5
    vertex -7.91552 -0.459688 0.5
    vertex -6.62616 -2.34575 0.5
  endloop
endfacet
facet normal 0 0 1
  outer loop
    vertex -2.60275 -6.44863 0.5
    vertex -5.74501 -5.59214 0.5
    vertex -4.68672 -9.17944 0.5
  endloop
endfacet
facet normal 0 0 1
  outer loop
    vertex -1.35411 -8.72886 0.5
    vertex -2.60275 -6.44863 0.5
    vertex -4.68672 -9.17944 0.5
  endloop
endfacet
facet normal 0 0 1
  outer loop
    vertex -11.8762 -0.186627 0.5
    vertex -13.8006 1.89685 0.5
    vertex -13.8006 -1.89685 0.5
  endloop
endfacet
facet normal -0 0 1
  outer loop
    vertex -11.8762 -0.186627 0.5
    vertex -10.1359 -1.9776 0.5
    vertex -9.7676 1.2311 0.5
  endloop
endfacet
facet normal 0 0 1
  outer loop
    vertex -10.1359 -1.9776 0.5
    vertex -11.8762 -0.186627 0.5
    vertex -13.8006 -1.89685 0.5
  endloop
endfacet
facet normal 0 0 1
  outer loop
    vertex -13.8006 1.89685 0.5
    vertex -11.8762 -0.186627 0.5
    vertex -9.7676 1.2311 0.5
  endloop
endfacet
facet normal -0 0 1
  outer loop
    vertex -3.58934 6.98969 0.5
    vertex -0.709863 6.78315 0.5
    vertex -0.142971 9.7922 0.5
  endloop
endfacet
facet normal 0 0 1
  outer loop
    vertex 2.23251 6.55481 0.5
    vertex -0.709863 6.78315 0.5
    vertex -1.33966 3.79591 0.5
  endloop
endfacet
facet normal -0 0 1
  outer loop
    vertex -0.709863 6.78315 0.5
    vertex 2.23251 6.55481 0.5
    vertex -0.142971 9.7922 0.5
  endloop
endfacet
facet normal 0 0 1
  outer loop
    vertex -0.709863 6.78315 0.5
    vertex -3.58934 6.98969 0.5
    vertex -1.33966 3.79591 0.5
  endloop
endfacet
facet normal -0 0 1
  outer loop
    vertex 7.0512 -2.79705 0.5
    vertex 6.85373 -5.65352 0.5
    vertex 9.86345 -2.68928 0.5
  endloop
endfacet
facet normal 0 -0 1
  outer loop
    vertex 7.0512 -2.79705 0.5
    vertex 7.34718 -0.0407612 0.5
    vertex 4.14045 -2.80462 0.5
  endloop
endfacet
facet normal 0 0 1
  outer loop
    vertex 7.34718 -0.0407612 0.5
    vertex 7.0512 -2.79705 0.5
    vertex 9.86345 -2.68928 0.5
  endloop
endfacet
facet normal 0 -0 1
  outer loop
    vertex 6.85373 -5.65352 0.5
    vertex 7.0512 -2.79705 0.5
    vertex 4.14045 -2.80462 0.5
  endloop
endfacet
facet normal 0 0 1
  outer loop
    vertex -13.8006 1.89685 0.5
    vertex -10.4396 3.39181 0.5
    vertex -10.3969 5.49509 0.5
  endloop
endfacet
facet normal 0 0 1
  outer loop
    vertex 4.09983 -5.86864 0.5
    vertex 6.85373 -5.65352 0.5
    vertex 4.14045 -2.80462 0.5
  endloop
endfacet
facet normal 0 0 1
  outer loop
    vertex 4.09983 -5.86864 0.5
    vertex 1.07698 -6.12577 0.5
    vertex 4.32814 -8.89066 0.5
  endloop
endfacet
facet normal 0 0 1
  outer loop
    vertex 1.07698 -6.12577 0.5
    vertex 4.09983 -5.86864 0.5
    vertex 4.14045 -2.80462 0.5
  endloop
endfacet
facet normal 0 0 1
  outer loop
    vertex 6.85373 -5.65352 0.5
    vertex 4.09983 -5.86864 0.5
    vertex 4.32814 -8.89066 0.5
  endloop
endfacet
facet normal 0 0 1
  outer loop
    vertex 7.12332 2.72256 0.5
    vertex 6.77441 5.60817 0.5
    vertex 4.44173 2.71237 0.5
  endloop
endfacet
facet normal 0 0 1
  outer loop
    vertex 7.12332 2.72256 0.5
    vertex 7.34718 -0.0407612 0.5
    vertex 9.92996 2.61046 0.5
  endloop
endfacet
facet normal 0 0 1
  outer loop
    vertex 7.34718 -0.0407612 0.5
    vertex 7.12332 2.72256 0.5
    vertex 4.44173 2.71237 0.5
  endloop
endfacet
facet normal 0 0 1
  outer loop
    vertex 6.77441 5.60817 0.5
    vertex 7.12332 2.72256 0.5
    vertex 9.92996 2.61046 0.5
  endloop
endfacet
facet normal 0 0 1
  outer loop
    vertex -10.4396 3.39181 0.5
    vertex -13.8006 1.89685 0.5
    vertex -9.7676 1.2311 0.5
  endloop
endfacet
facet normal 0 0 1
  outer loop
    vertex -7.61981 4.58227 0.5
    vertex -10.4396 3.39181 0.5
    vertex -9.7676 1.2311 0.5
  endloop
endfacet
facet normal 0 0 1
  outer loop
    vertex -6.93851 8.75842 0.5
    vertex -10.3969 5.49509 0.5
    vertex -7.61981 4.58227 0.5
  endloop
endfacet
facet normal 0 0 1
  outer loop
    vertex -10.4396 3.39181 0.5
    vertex -7.61981 4.58227 0.5
    vertex -10.3969 5.49509 0.5
  endloop
endfacet
facet normal 0 0 1
  outer loop
    vertex 2.83422 -13.639 0.5
    vertex -1.01909 -11.1778 0.5
    vertex -0.950643 -13.8979 0.5
  endloop
endfacet
facet normal 0 0 1
  outer loop
    vertex -1.01909 -11.1778 0.5
    vertex -3.97837 -11.8078 0.5
    vertex -0.950643 -13.8979 0.5
  endloop
endfacet
facet normal 0 -0 1
  outer loop
    vertex -6.93851 8.75842 0.5
    vertex -4.665 13.1261 0.5
    vertex -8.03338 11.3807 0.5
  endloop
endfacet
facet normal -0 0 1
  outer loop
    vertex -10.806 8.7913 0.5
    vertex -6.93851 8.75842 0.5
    vertex -8.03338 11.3807 0.5
  endloop
endfacet
facet normal -0 0 1
  outer loop
    vertex -8.57755 -4.51997 0.5
    vertex -5.74501 -5.59214 0.5
    vertex -6.62616 -2.34575 0.5
  endloop
endfacet
facet normal 0 0 1
  outer loop
    vertex -10.1359 -1.9776 0.5
    vertex -8.57755 -4.51997 0.5
    vertex -6.62616 -2.34575 0.5
  endloop
endfacet
facet normal 0 0 1
  outer loop
    vertex 9.84844 -6.57886 0.5
    vertex 7.38949 -8.73449 0.5
    vertex 9.50823 -10.1808 0.5
  endloop
endfacet
facet normal 0 0 1
  outer loop
    vertex 9.86345 -2.68928 0.5
    vertex 6.85373 -5.65352 0.5
    vertex 9.84844 -6.57886 0.5
  endloop
endfacet
facet normal 0 -0 1
  outer loop
    vertex 7.38949 -8.73449 0.5
    vertex 9.84844 -6.57886 0.5
    vertex 6.85373 -5.65352 0.5
  endloop
endfacet
facet normal 0 0 1
  outer loop
    vertex 2.83422 -13.639 0.5
    vertex 1.17323 -9.71242 0.5
    vertex -1.01909 -11.1778 0.5
  endloop
endfacet
facet normal 0 0 1
  outer loop
    vertex 1.17323 -9.71242 0.5
    vertex -1.35411 -8.72886 0.5
    vertex -1.01909 -11.1778 0.5
  endloop
endfacet
facet normal -0 0 1
  outer loop
    vertex -5.74501 -5.59214 0.5
    vertex -2.60275 -6.44863 0.5
    vertex -2.30489 -2.61694 0.5
  endloop
endfacet
facet normal 0 0 1
  outer loop
    vertex -2.60275 -6.44863 0.5
    vertex 1.07698 -6.12577 0.5
    vertex -2.30489 -2.61694 0.5
  endloop
endfacet
facet normal 0 0 1
  outer loop
    vertex 1.07698 -6.12577 0.5
    vertex -2.60275 -6.44863 0.5
    vertex -1.35411 -8.72886 0.5
  endloop
endfacet
facet normal 0 0 1
  outer loop
    vertex -6.93851 8.75842 0.5
    vertex -10.806 8.7913 0.5
    vertex -10.3969 5.49509 0.5
  endloop
endfacet
endsolid Created by Gmsh
