solid Created by Gmsh
facet normal 0.994522 0.104528 0
  outer loop
    vertex 13.9304 0 0.5
    vertex 13.626 2.89629 -0.5
    vertex 13.626 2.89629 0.5
  endloop
endfacet
facet normal 0.994522 0.104528 0
  outer loop
    vertex 13.9304 0 0.5
    vertex 13.9304 0 -0.5
    vertex 13.626 2.89629 -0.5
  endloop
endfacet
facet normal 0.951057 0.309017 -0
  outer loop
    vertex 13.626 2.89629 -0.5
    vertex 12.726 5.666 -0.5
    vertex 13.626 2.89629 0.5
  endloop
endfacet
facet normal 0.951057 0.309017 0
  outer loop
    vertex 13.626 2.89629 0.5
    vertex 12.726 5.666 -0.5
    vertex 12.726 5.666 0.5
  endloop
endfacet
facet normal 0.866025 0.5 0
  outer loop
    vertex 12.726 5.666 -0.5
    vertex 11.2699 8.18807 -0.5
    vertex 11.2699 8.18807 0.5
  endloop
endfacet
facet normal 0.866025 0.5 -0
  outer loop
    vertex 12.726 5.666 -0.5
    vertex 11.2699 8.18807 0.5
    vertex 12.726 5.666 0.5
  endloop
endfacet
facet normal 0.743145 0.669131 -0
  outer loop
    vertex 11.2699 8.18807 -0.5
    vertex 9.32125 10.3523 -0.5
    vertex 11.2699 8.18807 0.5
  endloop
endfacet
facet normal 0.743145 0.669131 0
  outer loop
    vertex 11.2699 8.18807 0.5
    vertex 9.32125 10.3523 -0.5
    vertex 9.32125 10.3523 0.5
  endloop
endfacet
facet normal 0.587785 0.809017 0
  outer loop
    vertex 9.32125 10.3523 0.5
    vertex 6.96519 12.0641 -0.5
    vertex 6.96519 12.0641 0.5
  endloop
endfacet
facet normal 0.587785 0.809017 0
  outer loop
    vertex 9.32125 10.3523 0.5
    vertex 9.32125 10.3523 -0.5
    vertex 6.96519 12.0641 -0.5
  endloop
endfacet
facet normal 0.406737 0.913545 0
  outer loop
    vertex 6.96519 12.0641 -0.5
    vertex 4.30473 13.2486 -0.5
    vertex 4.30473 13.2486 0.5
  endloop
endfacet
facet normal 0.406737 0.913545 -0
  outer loop
    vertex 6.96519 12.0641 -0.5
    vertex 4.30473 13.2486 0.5
    vertex 6.96519 12.0641 0.5
  endloop
endfacet
facet normal 0.207912 0.978148 -0
  outer loop
    vertex 4.30473 13.2486 -0.5
    vertex 1.45612 13.8541 -0.5
    vertex 4.30473 13.2486 0.5
  endloop
endfacet
facet normal 0.207912 0.978148 0
  outer loop
    vertex 4.30473 13.2486 0.5
    vertex 1.45612 13.8541 -0.5
    vertex 1.45612 13.8541 0.5
  endloop
endfacet
facet normal -3.04981e-15 1 0
  outer loop
    vertex 1.45612 13.8541 0.5
    vertex 1.45612 13.8541 -0.5
    vertex -1.45612 13.8541 -0.5
  endloop
endfacet
facet normal -3.04981e-15 1 0
  outer loop
    vertex 1.45612 13.8541 0.5
    vertex -1.45612 13.8541 -0.5
    vertex -1.45612 13.8541 0.5
  endloop
endfacet
facet normal -0.207912 0.978148 0
  outer loop
    vertex -1.45612 13.8541 0.5
    vertex -1.45612 13.8541 -0.5
    vertex -4.30473 13.2486 0.5
  endloop
endfacet
facet normal -0.207912 0.978148 0
  outer loop
    vertex -1.45612 13.8541 -0.5
    vertex -4.30473 13.2486 -0.5
    vertex -4.30473 13.2486 0.5
  endloop
endfacet
facet normal -0.406737 0.913545 0
  outer loop
    vertex -4.30473 13.2486 0.5
    vertex -4.30473 13.2486 -0.5
    vertex -6.96519 12.0641 0.5
  endloop
endfacet
facet normal -0.406737 0.913545 0
  outer loop
    vertex -4.30473 13.2486 -0.5
    vertex -6.96519 12.0641 -0.5
    vertex -6.96519 12.0641 0.5
  endloop
endfacet
facet normal -0.587785 0.809017 0
  outer loop
    vertex -6.96519 12.0641 0.5
    vertex -6.96519 12.0641 -0.5
    vertex -9.32125 10.3523 -0.5
  endloop
endfacet
facet normal -0.587785 0.809017 0
  outer loop
    vertex -6.96519 12.0641 0.5
    vertex -9.32125 10.3523 -0.5
    vertex -9.32125 10.3523 0.5
  endloop
endfacet
facet normal -0.743145 0.669131 0
  outer loop
    vertex -9.32125 10.3523 0.5
    vertex -9.32125 10.3523 -0.5
    vertex -11.2699 8.18807 -0.5
  endloop
endfacet
facet normal -0.743145 0.669131 0
  outer loop
    vertex -9.32125 10.3523 0.5
    vertex -11.2699 8.18807 -0.5
    vertex -11.2699 8.18807 0.5
  endloop
endfacet
facet normal -0.866025 0.5 0
  outer loop
    vertex -11.2699 8.18807 0.5
    vertex -11.2699 8.18807 -0.5
    vertex -12.726 5.666 0.5
  endloop
endfacet
facet normal -0.866025 0.5 0
  outer loop
    vertex -11.2699 8.18807 -0.5
    vertex -12.726 5.666 -0.5
    vertex -12.726 5.666 0.5
  endloop
endfacet
facet normal -0.951057 0.309017 0
  outer loop
    vertex -12.726 5.666 -0.5
    vertex -13.626 2.89629 -0.5
    vertex -13.626 2.89629 0.5
  endloop
endfacet
facet normal -0.951057 0.309017 0
  outer loop
    vertex -12.726 5.666 -0.5
    vertex -13.626 2.89629 0.5
    vertex -12.726 5.666 0.5
  endloop
endfacet
facet normal -0.994522 0.104528 0
  outer loop
    vertex -13.626 2.89629 -0.5
    vertex -13.9304 -4.77847e-14 -0.5
    vertex -13.626 2.89629 0.5
  endloop
endfacet
facet normal -0.994522 0.104528 0
  outer loop
    vertex -13.626 2.89629 0.5
    vertex -13.9304 -4.77847e-14 -0.5
    vertex -13.9304 -4.77847e-14 0.5
  endloop
endfacet
facet normal -0.994522 -0.104528 0
  outer loop
    vertex -13.9304 -4.77847e-14 -0.5
    vertex -13.626 -2.89629 -0.5
    vertex -13.626 -2.89629 0.5
  endloop
endfacet
facet normal -0.994522 -0.104528 0
  outer loop
    vertex -13.9304 -4.77847e-14 -0.5
    vertex -13.626 -2.89629 0.5
    vertex -13.9304 -4.77847e-14 0.5
  endloop
endfacet
facet normal -0.951057 -0.309017 -0
  outer loop
    vertex -13.626 -2.89629 0.5
    vertex -13.626 -2.89629 -0.5
    vertex -12.726 -5.666 0.5
  endloop
endfacet
facet normal -0.951057 -0.309017 0
  outer loop
    vertex -13.626 -2.89629 -0.5
    vertex -12.726 -5.666 -0.5
    vertex -12.726 -5.666 0.5
  endloop
endfacet
facet normal -0.866025 -0.5 -0
  outer loop
    vertex -12.726 -5.666 0.5
    vertex -12.726 -5.666 -0.5
    vertex -11.2699 -8.18807 0.5
  endloop
endfacet
facet normal -0.866025 -0.5 0
  outer loop
    vertex -12.726 -5.666 -0.5
    vertex -11.2699 -8.18807 -0.5
    vertex -11.2699 -8.18807 0.5
  endloop
endfacet
facet normal -0.743145 -0.669131 -0
  outer loop
    vertex -11.2699 -8.18807 0.5
    vertex -11.2699 -8.18807 -0.5
    vertex -9.32125 -10.3523 0.5
  endloop
endfacet
facet normal -0.743145 -0.669131 0
  outer loop
    vertex -11.2699 -8.18807 -0.5
    vertex -9.32125 -10.3523 -0.5
    vertex -9.32125 -10.3523 0.5
  endloop
endfacet
facet normal -0.587785 -0.809017 0
  outer loop
    vertex -9.32125 -10.3523 -0.5
    vertex -6.96519 -12.0641 -0.5
    vertex -9.32125 -10.3523 0.5
  endloop
endfacet
facet normal -0.587785 -0.809017 0
  outer loop
    vertex -9.32125 -10.3523 0.5
    vertex -6.96519 -12.0641 -0.5
    vertex -6.96519 -12.0641 0.5
  endloop
endfacet
facet normal -0.406737 -0.913545 -0
  outer loop
    vertex -6.96519 -12.0641 0.5
    vertex -6.96519 -12.0641 -0.5
    vertex -4.30473 -13.2486 0.5
  endloop
endfacet
facet normal -0.406737 -0.913545 0
  outer loop
    vertex -6.96519 -12.0641 -0.5
    vertex -4.30473 -13.2486 -0.5
    vertex -4.30473 -13.2486 0.5
  endloop
endfacet
facet normal -0.207912 -0.978148 -0
  outer loop
    vertex -4.30473 -13.2486 0.5
    vertex -4.30473 -13.2486 -0.5
    vertex -1.45612 -13.8541 -0.5
  endloop
endfacet
facet normal -0.207912 -0.978148 0
  outer loop
    vertex -4.30473 -13.2486 0.5
    vertex -1.45612 -13.8541 -0.5
    vertex -1.45612 -13.8541 0.5
  endloop
endfacet
facet normal 4.87969e-15 -1 0
  outer loop
    vertex -1.45612 -13.8541 -0.5
    vertex 1.45612 -13.8541 -0.5
    vertex 1.45612 -13.8541 0.5
  endloop
endfacet
facet normal 4.87969e-15 -1 0
  outer loop
    vertex -1.45612 -13.8541 -0.5
    vertex 1.45612 -13.8541 0.5
    vertex -1.45612 -13.8541 0.5
  endloop
endfacet
facet normal 0.207912 -0.978148 0
  outer loop
    vertex 1.45612 -13.8541 0.5
    vertex 1.45612 -13.8541 -0.5
    vertex 4.30473 -13.2486 -0.5
  endloop
endfacet
facet normal 0.207912 -0.978148 0
  outer loop
    vertex 1.45612 -13.8541 0.5
    vertex 4.30473 -13.2486 -0.5
    vertex 4.30473 -13.2486 0.5
  endloop
endfacet
facet normal 0.406737 -0.913545 0
  outer loop
    vertex 4.30473 -13.2486 -0.5
    vertex 6.96519 -12.0641 -0.5
    vertex 6.96519 -12.0641 0.5
  endloop
endfacet
facet normal 0.406737 -0.913545 0
  outer loop
    vertex 4.30473 -13.2486 -0.5
    vertex 6.96519 -12.0641 0.5
    vertex 4.30473 -13.2486 0.5
  endloop
endfacet
facet normal 0.587785 -0.809017 0
  outer loop
    vertex 6.96519 -12.0641 0.5
    vertex 6.96519 -12.0641 -0.5
    vertex 9.32125 -10.3523 -0.5
  endloop
endfacet
facet normal 0.587785 -0.809017 0
  outer loop
    vertex 6.96519 -12.0641 0.5
    vertex 9.32125 -10.3523 -0.5
    vertex 9.32125 -10.3523 0.5
  endloop
endfacet
facet normal 0.743145 -0.669131 0
  outer loop
    vertex 9.32125 -10.3523 -0.5
    vertex 11.2699 -8.18807 -0.5
    vertex 9.32125 -10.3523 0.5
  endloop
endfacet
facet normal 0.743145 -0.669131 0
  outer loop
    vertex 9.32125 -10.3523 0.5
    vertex 11.2699 -8.18807 -0.5
    vertex 11.2699 -8.18807 0.5
  endloop
endfacet
facet normal 0.866025 -0.5 0
  outer loop
    vertex 11.2699 -8.18807 0.5
    vertex 11.2699 -8.18807 -0.5
    vertex 12.726 -5.666 0.5
  endloop
endfacet
facet normal 0.866025 -0.5 0
  outer loop
    vertex 11.2699 -8.18807 -0.5
    vertex 12.726 -5.666 -0.5
    vertex 12.726 -5.666 0.5
  endloop
endfacet
facet normal 0.951057 -0.309017 0
  outer loop
    vertex 12.726 -5.666 0.5
    vertex 12.726 -5.666 -0.5
    vertex 13.626 -2.89629 0.5
  endloop
endfacet
facet normal 0.951057 -0.309017 0
  outer loop
    vertex 12.726 -5.666 -0.5
    vertex 13.626 -2.89629 -0.5
    vertex 13.626 -2.89629 0.5
  endloop
endfacet
facet normal 0.994522 -0.104528 0
  outer loop
    vertex 13.626 -2.89629 0.5
    vertex 13.626 -2.89629 -0.5
    vertex 13.9304 0 -0.5
  endloop
endfacet
facet normal 0.994522 -0.104528 0
  outer loop
    vertex 13.626 -2.89629 0.5
    vertex 13.9304 0 -0.5
    vertex 13.9304 0 0.5
  endloop
endfacet
facet normal 0 -0 -1
  outer loop
    vertex -1.75074 -12.9612 -0.5
    vertex -1.45612 -13.8541 -0.5
    vertex -4.30473 -13.2486 -0.5
  endloop
endfacet
facet normal 0 0 -1
  outer loop
    vertex -4.30473 -13.2486 -0.5
    vertex -2.08206 -11.3867 -0.5
    vertex -1.75074 -12.9612 -0.5
  endloop
endfacet
facet normal 0 0 -1
  outer loop
    vertex -1.48548 13.1218 -0.5
    vertex -1.45612 13.8541 -0.5
    vertex 1.45612 13.8541 -0.5
  endloop
endfacet
facet normal 0 0 -1
  outer loop
    vertex -4.30473 13.2486 -0.5
    vertex -1.45612 13.8541 -0.5
    vertex -1.48548 13.1218 -0.5
  endloop
endfacet
facet normal 0 0 -1
  outer loop
    vertex -9.71594 7.74117 -0.5
    vertex -11.2699 8.18807 -0.5
    vertex -9.32125 10.3523 -0.5
  endloop
endfacet
facet normal 0 0 -1
  outer loop
    vertex -12.726 5.666 -0.5
    vertex -11.2699 8.18807 -0.5
    vertex -9.71594 7.74117 -0.5
  endloop
endfacet
facet normal -0 0 -1
  outer loop
    vertex -12.6746 -2.77199 -0.5
    vertex -13.626 -2.89629 -0.5
    vertex -13.9304 -4.77847e-14 -0.5
  endloop
endfacet
facet normal 0 0 -1
  outer loop
    vertex -12.726 -5.666 -0.5
    vertex -13.626 -2.89629 -0.5
    vertex -12.6746 -2.77199 -0.5
  endloop
endfacet
facet normal 0 -0 -1
  outer loop
    vertex 0.450983 -12.5673 -0.5
    vertex 1.45612 -13.8541 -0.5
    vertex -1.45612 -13.8541 -0.5
  endloop
endfacet
facet normal -0 0 -1
  outer loop
    vertex 4.30473 -13.2486 -0.5
    vertex 1.45612 -13.8541 -0.5
    vertex 0.450983 -12.5673 -0.5
  endloop
endfacet
facet normal 0 0 -1
  outer loop
    vertex -1.45612 -13.8541 -0.5
    vertex -1.75074 -12.9612 -0.5
    vertex 0.450983 -12.5673 -0.5
  endloop
endfacet
facet normal 0 -0 -1
  outer loop
    vertex 9.97046 -7.7828 -0.5
    vertex 11.2699 -8.18807 -0.5
    vertex 9.32125 -10.3523 -0.5
  endloop
endfacet
facet normal 0 0 -1
  outer loop
    vertex 12.726 -5.666 -0.5
    vertex 11.2699 -8.18807 -0.5
    vertex 9.97046 -7.7828 -0.5
  endloop
endfacet
facet normal 0 0 -1
  outer loop
    vertex 9.32125 -10.3523 -0.5
    vertex 8.17158 -8.74944 -0.5
    vertex 9.97046 -7.7828 -0.5
  endloop
endfacet
facet normal -0 0 -1
  outer loop
    vertex 0.982361 10.2685 -0.5
    vertex -1.76274 9.22429 -0.5
    vertex -0.983366 10.9895 -0.5
  endloop
endfacet
facet normal 0 0 -1
  outer loop
    vertex -0.983366 10.9895 -0.5
    vertex -0.012964 12.369 -0.5
    vertex 0.982361 10.2685 -0.5
  endloop
endfacet
facet normal 0 0 -1
  outer loop
    vertex -11.5141 -1.21484 -0.5
    vertex -9.3821 -2.56678 -0.5
    vertex -11.009 -4.30366 -0.5
  endloop
endfacet
facet normal 0 0 -1
  outer loop
    vertex -0.012964 12.369 -0.5
    vertex -0.983366 10.9895 -0.5
    vertex -3.3035 11.2196 -0.5
  endloop
endfacet
facet normal -0 0 -1
  outer loop
    vertex 4.53595 9.73859 -0.5
    vertex 2.1912 7.66131 -0.5
    vertex 0.982361 10.2685 -0.5
  endloop
endfacet
facet normal 0 0 -1
  outer loop
    vertex 6.66448 -10.4942 -0.5
    vertex 6.01188 -7.90968 -0.5
    vertex 8.17158 -8.74944 -0.5
  endloop
endfacet
facet normal -0 0 -1
  outer loop
    vertex 3.21136 12.0899 -0.5
    vertex 0.982361 10.2685 -0.5
    vertex -0.012964 12.369 -0.5
  endloop
endfacet
facet normal 0 -0 -1
  outer loop
    vertex 11.7309 0.484189 -0.5
    vertex 13.626 -2.89629 -0.5
    vertex 10.756 -2.67412 -0.5
  endloop
endfacet
facet normal 0 0 -1
  outer loop
    vertex 10.756 -2.67412 -0.5
    vertex 13.626 -2.89629 -0.5
    vertex 12.726 -5.666 -0.5
  endloop
endfacet
facet normal 0 0 -1
  outer loop
    vertex 8.17158 -8.74944 -0.5
    vertex 6.01188 -7.90968 -0.5
    vertex 8.78778 -6.17126 -0.5
  endloop
endfacet
facet normal 0 0 -1
  outer loop
    vertex 10.0804 -4.40554 -0.5
    vertex 10.756 -2.67412 -0.5
    vertex 12.726 -5.666 -0.5
  endloop
endfacet
facet normal -0 0 -1
  outer loop
    vertex 10.0804 -4.40554 -0.5
    vertex 8.78778 -6.17126 -0.5
    vertex 7.75265 -3.26157 -0.5
  endloop
endfacet
facet normal 0 0 -1
  outer loop
    vertex 7.75265 -3.26157 -0.5
    vertex 10.756 -2.67412 -0.5
    vertex 10.0804 -4.40554 -0.5
  endloop
endfacet
facet normal -0 0 -1
  outer loop
    vertex 12.726 -5.666 -0.5
    vertex 8.78778 -6.17126 -0.5
    vertex 10.0804 -4.40554 -0.5
  endloop
endfacet
facet normal -0 0 -1
  outer loop
    vertex -10.6898 3.92346 -0.5
    vertex -11.4456 1.98744 -0.5
    vertex -12.726 5.666 -0.5
  endloop
endfacet
facet normal 0 0 -1
  outer loop
    vertex -10.6898 3.92346 -0.5
    vertex -9.50347 5.22608 -0.5
    vertex -8.42701 2.57979 -0.5
  endloop
endfacet
facet normal -0 0 -1
  outer loop
    vertex -8.42701 2.57979 -0.5
    vertex -11.4456 1.98744 -0.5
    vertex -10.6898 3.92346 -0.5
  endloop
endfacet
facet normal 0 0 -1
  outer loop
    vertex -12.726 5.666 -0.5
    vertex -9.50347 5.22608 -0.5
    vertex -10.6898 3.92346 -0.5
  endloop
endfacet
facet normal 0 0 -1
  outer loop
    vertex 1.45612 13.8541 -0.5
    vertex -0.012964 12.369 -0.5
    vertex -1.48548 13.1218 -0.5
  endloop
endfacet
facet normal 0 0 -1
  outer loop
    vertex -3.3035 11.2196 -0.5
    vertex -1.48548 13.1218 -0.5
    vertex -0.012964 12.369 -0.5
  endloop
endfacet
facet normal 0 0 -1
  outer loop
    vertex -13.9304 -4.77847e-14 -0.5
    vertex -11.5141 -1.21484 -0.5
    vertex -12.6746 -2.77199 -0.5
  endloop
endfacet
facet normal 0 0 -1
  outer loop
    vertex -11.009 -4.30366 -0.5
    vertex -12.6746 -2.77199 -0.5
    vertex -11.5141 -1.21484 -0.5
  endloop
endfacet
facet normal 0 0 -1
  outer loop
    vertex 11.4732 3.44981 -0.5
    vertex 12.726 5.666 -0.5
    vertex 13.626 2.89629 -0.5
  endloop
endfacet
facet normal 0 0 -1
  outer loop
    vertex 3.21136 12.0899 -0.5
    vertex 4.30473 13.2486 -0.5
    vertex 6.96519 12.0641 -0.5
  endloop
endfacet
facet normal 0 0 -1
  outer loop
    vertex 3.21136 12.0899 -0.5
    vertex -0.012964 12.369 -0.5
    vertex 1.45612 13.8541 -0.5
  endloop
endfacet
facet normal 0 0 -1
  outer loop
    vertex 1.45612 13.8541 -0.5
    vertex 4.30473 13.2486 -0.5
    vertex 3.21136 12.0899 -0.5
  endloop
endfacet
facet normal 0 -0 -1
  outer loop
    vertex 6.66448 -10.4942 -0.5
    vertex 6.96519 -12.0641 -0.5
    vertex 4.30473 -13.2486 -0.5
  endloop
endfacet
facet normal 0 0 -1
  outer loop
    vertex 6.66448 -10.4942 -0.5
    vertex 8.17158 -8.74944 -0.5
    vertex 9.32125 -10.3523 -0.5
  endloop
endfacet
facet normal 0 0 -1
  outer loop
    vertex 9.32125 -10.3523 -0.5
    vertex 6.96519 -12.0641 -0.5
    vertex 6.66448 -10.4942 -0.5
  endloop
endfacet
facet normal 0 0 -1
  outer loop
    vertex -11.4456 1.98744 -0.5
    vertex -13.626 2.89629 -0.5
    vertex -12.726 5.666 -0.5
  endloop
endfacet
facet normal 0 0 -1
  outer loop
    vertex -11.4456 1.98744 -0.5
    vertex -11.5141 -1.21484 -0.5
    vertex -13.9304 -4.77847e-14 -0.5
  endloop
endfacet
facet normal 0 0 -1
  outer loop
    vertex -13.9304 -4.77847e-14 -0.5
    vertex -13.626 2.89629 -0.5
    vertex -11.4456 1.98744 -0.5
  endloop
endfacet
facet normal 0 0 -1
  outer loop
    vertex -9.50347 5.22608 -0.5
    vertex -12.726 5.666 -0.5
    vertex -9.71594 7.74117 -0.5
  endloop
endfacet
facet normal 0 0 -1
  outer loop
    vertex -9.71594 7.74117 -0.5
    vertex -7.39139 6.67911 -0.5
    vertex -9.50347 5.22608 -0.5
  endloop
endfacet
facet normal 0 0 -1
  outer loop
    vertex 9.97046 -7.7828 -0.5
    vertex 8.78778 -6.17126 -0.5
    vertex 12.726 -5.666 -0.5
  endloop
endfacet
facet normal 0 0 -1
  outer loop
    vertex 8.17158 -8.74944 -0.5
    vertex 8.78778 -6.17126 -0.5
    vertex 9.97046 -7.7828 -0.5
  endloop
endfacet
facet normal -0 0 -1
  outer loop
    vertex 6.96519 12.0641 -0.5
    vertex 4.53595 9.73859 -0.5
    vertex 3.21136 12.0899 -0.5
  endloop
endfacet
facet normal 0 -0 -1
  outer loop
    vertex 3.21136 12.0899 -0.5
    vertex 4.53595 9.73859 -0.5
    vertex 0.982361 10.2685 -0.5
  endloop
endfacet
facet normal 0 0 -1
  outer loop
    vertex -6.96519 -12.0641 -0.5
    vertex -9.32125 -10.3523 -0.5
    vertex -6.6789 -8.5256 -0.5
  endloop
endfacet
facet normal 0 0 -1
  outer loop
    vertex 9.28543 2.59571 -0.5
    vertex 7.61939 5.01903 -0.5
    vertex 10.2244 5.39024 -0.5
  endloop
endfacet
facet normal 0 0 -1
  outer loop
    vertex -8.42701 2.57979 -0.5
    vertex -4.88459 1.0751 -0.5
    vertex -7.3656 -1.05244 -0.5
  endloop
endfacet
facet normal 0 0 -1
  outer loop
    vertex 2.1912 7.66131 -0.5
    vertex 0.934576 4.27012 -0.5
    vertex -0.842214 6.79947 -0.5
  endloop
endfacet
facet normal 0 -0 -1
  outer loop
    vertex -5.97184 4.32375 -0.5
    vertex -4.88459 1.0751 -0.5
    vertex -8.42701 2.57979 -0.5
  endloop
endfacet
facet normal 0 0 -1
  outer loop
    vertex -3.51444 -8.89457 -0.5
    vertex -6.6789 -8.5256 -0.5
    vertex -4.62661 -6.2477 -0.5
  endloop
endfacet
facet normal 0 -0 -1
  outer loop
    vertex 5.0349 -10.2964 -0.5
    vertex 6.66448 -10.4942 -0.5
    vertex 4.30473 -13.2486 -0.5
  endloop
endfacet
facet normal 0 0 -1
  outer loop
    vertex 5.0349 -10.2964 -0.5
    vertex 3.15853 -9.53306 -0.5
    vertex 6.01188 -7.90968 -0.5
  endloop
endfacet
facet normal 0 -0 -1
  outer loop
    vertex 6.01188 -7.90968 -0.5
    vertex 6.66448 -10.4942 -0.5
    vertex 5.0349 -10.2964 -0.5
  endloop
endfacet
facet normal 0 0 -1
  outer loop
    vertex 4.30473 -13.2486 -0.5
    vertex 3.15853 -9.53306 -0.5
    vertex 5.0349 -10.2964 -0.5
  endloop
endfacet
facet normal 0 -0 -1
  outer loop
    vertex 7.75265 -3.26157 -0.5
    vertex 8.78778 -6.17126 -0.5
    vertex 6.83056 -5.52457 -0.5
  endloop
endfacet
facet normal 0 0 -1
  outer loop
    vertex 6.01188 -7.90968 -0.5
    vertex 4.76993 -4.75579 -0.5
    vertex 6.83056 -5.52457 -0.5
  endloop
endfacet
facet normal 0 -0 -1
  outer loop
    vertex 6.83056 -5.52457 -0.5
    vertex 8.78778 -6.17126 -0.5
    vertex 6.01188 -7.90968 -0.5
  endloop
endfacet
facet normal 0 0 -1
  outer loop
    vertex 6.83056 -5.52457 -0.5
    vertex 4.76993 -4.75579 -0.5
    vertex 7.75265 -3.26157 -0.5
  endloop
endfacet
facet normal -0 0 -1
  outer loop
    vertex 4.07717 5.73867 -0.5
    vertex 0.934576 4.27012 -0.5
    vertex 2.1912 7.66131 -0.5
  endloop
endfacet
facet normal 0 -0 -1
  outer loop
    vertex 2.71194 -4.01295 -0.5
    vertex 4.76993 -4.75579 -0.5
    vertex 1.91651 -6.39282 -0.5
  endloop
endfacet
facet normal 0 0 -1
  outer loop
    vertex 2.71194 -4.01295 -0.5
    vertex 0.669695 -3.31204 -0.5
    vertex 3.49164 -1.59117 -0.5
  endloop
endfacet
facet normal 0 -0 -1
  outer loop
    vertex 3.49164 -1.59117 -0.5
    vertex 4.76993 -4.75579 -0.5
    vertex 2.71194 -4.01295 -0.5
  endloop
endfacet
facet normal 0 0 -1
  outer loop
    vertex 1.91651 -6.39282 -0.5
    vertex 0.669695 -3.31204 -0.5
    vertex 2.71194 -4.01295 -0.5
  endloop
endfacet
facet normal 0 0 -1
  outer loop
    vertex 4.33468 0.785113 -0.5
    vertex 2.24053 1.35882 -0.5
    vertex 5.17897 3.17638 -0.5
  endloop
endfacet
facet normal 0 -0 -1
  outer loop
    vertex 4.33468 0.785113 -0.5
    vertex 6.42758 0.196417 -0.5
    vertex 3.49164 -1.59117 -0.5
  endloop
endfacet
facet normal 0 0 -1
  outer loop
    vertex 3.49164 -1.59117 -0.5
    vertex 2.24053 1.35882 -0.5
    vertex 4.33468 0.785113 -0.5
  endloop
endfacet
facet normal 0 -0 -1
  outer loop
    vertex 5.17897 3.17638 -0.5
    vertex 6.42758 0.196417 -0.5
    vertex 4.33468 0.785113 -0.5
  endloop
endfacet
facet normal 0 0 -1
  outer loop
    vertex -6.55907 -6.00648 -0.5
    vertex -8.49847 -5.62929 -0.5
    vertex -6.05208 -3.77448 -0.5
  endloop
endfacet
facet normal 0 -0 -1
  outer loop
    vertex -6.55907 -6.00648 -0.5
    vertex -4.62661 -6.2477 -0.5
    vertex -6.6789 -8.5256 -0.5
  endloop
endfacet
facet normal 0 0 -1
  outer loop
    vertex -6.6789 -8.5256 -0.5
    vertex -8.49847 -5.62929 -0.5
    vertex -6.55907 -6.00648 -0.5
  endloop
endfacet
facet normal 0 -0 -1
  outer loop
    vertex -6.05208 -3.77448 -0.5
    vertex -4.62661 -6.2477 -0.5
    vertex -6.55907 -6.00648 -0.5
  endloop
endfacet
facet normal 0 0 -1
  outer loop
    vertex 9.21543 -0.494238 -0.5
    vertex 6.42758 0.196417 -0.5
    vertex 9.28543 2.59571 -0.5
  endloop
endfacet
facet normal 0 0 -1
  outer loop
    vertex 7.75265 -3.26157 -0.5
    vertex 6.42758 0.196417 -0.5
    vertex 9.21543 -0.494238 -0.5
  endloop
endfacet
facet normal 0 -0 -1
  outer loop
    vertex 6.01446 5.56497 -0.5
    vertex 7.61939 5.01903 -0.5
    vertex 5.17897 3.17638 -0.5
  endloop
endfacet
facet normal 0 0 -1
  outer loop
    vertex 6.01446 5.56497 -0.5
    vertex 4.07717 5.73867 -0.5
    vertex 6.65331 7.94776 -0.5
  endloop
endfacet
facet normal 0 -0 -1
  outer loop
    vertex 6.65331 7.94776 -0.5
    vertex 7.61939 5.01903 -0.5
    vertex 6.01446 5.56497 -0.5
  endloop
endfacet
facet normal 0 0 -1
  outer loop
    vertex 5.17897 3.17638 -0.5
    vertex 4.07717 5.73867 -0.5
    vertex 6.01446 5.56497 -0.5
  endloop
endfacet
facet normal 0 0 -1
  outer loop
    vertex -6.05208 -3.77448 -0.5
    vertex -7.3656 -1.05244 -0.5
    vertex -5.4232 -1.43786 -0.5
  endloop
endfacet
facet normal 0 -0 -1
  outer loop
    vertex -4.88459 1.0751 -0.5
    vertex -3.39051 -1.99961 -0.5
    vertex -5.4232 -1.43786 -0.5
  endloop
endfacet
facet normal 0 0 -1
  outer loop
    vertex -5.4232 -1.43786 -0.5
    vertex -7.3656 -1.05244 -0.5
    vertex -4.88459 1.0751 -0.5
  endloop
endfacet
facet normal 0 -0 -1
  outer loop
    vertex -5.4232 -1.43786 -0.5
    vertex -3.39051 -1.99961 -0.5
    vertex -6.05208 -3.77448 -0.5
  endloop
endfacet
facet normal 0 -0 -1
  outer loop
    vertex -7.3446 9.21945 -0.5
    vertex -4.71427 8.21226 -0.5
    vertex -7.39139 6.67911 -0.5
  endloop
endfacet
facet normal 0 0 -1
  outer loop
    vertex -9.66272 -0.116174 -0.5
    vertex -7.3656 -1.05244 -0.5
    vertex -9.3821 -2.56678 -0.5
  endloop
endfacet
facet normal 0 -0 -1
  outer loop
    vertex -8.42701 2.57979 -0.5
    vertex -7.3656 -1.05244 -0.5
    vertex -9.66272 -0.116174 -0.5
  endloop
endfacet
facet normal 0 0 -1
  outer loop
    vertex -8.42701 2.57979 -0.5
    vertex -9.50347 5.22608 -0.5
    vertex -7.82343 4.70218 -0.5
  endloop
endfacet
facet normal 0 -0 -1
  outer loop
    vertex -7.39139 6.67911 -0.5
    vertex -5.97184 4.32375 -0.5
    vertex -7.82343 4.70218 -0.5
  endloop
endfacet
facet normal 0 0 -1
  outer loop
    vertex -7.82343 4.70218 -0.5
    vertex -9.50347 5.22608 -0.5
    vertex -7.39139 6.67911 -0.5
  endloop
endfacet
facet normal 0 -0 -1
  outer loop
    vertex -7.82343 4.70218 -0.5
    vertex -5.97184 4.32375 -0.5
    vertex -8.42701 2.57979 -0.5
  endloop
endfacet
facet normal 0 -0 -1
  outer loop
    vertex -0.619523 -0.341492 -0.5
    vertex 0.669695 -3.31204 -0.5
    vertex -1.35716 -2.63955 -0.5
  endloop
endfacet
facet normal 0 0 -1
  outer loop
    vertex -2.0883 -4.90505 -0.5
    vertex -3.39051 -1.99961 -0.5
    vertex -1.35716 -2.63955 -0.5
  endloop
endfacet
facet normal 0 -0 -1
  outer loop
    vertex -1.35716 -2.63955 -0.5
    vertex 0.669695 -3.31204 -0.5
    vertex -2.0883 -4.90505 -0.5
  endloop
endfacet
facet normal 0 0 -1
  outer loop
    vertex -1.35716 -2.63955 -0.5
    vertex -3.39051 -1.99961 -0.5
    vertex -0.619523 -0.341492 -0.5
  endloop
endfacet
facet normal 0 -0 -1
  outer loop
    vertex -3.40815 5.51292 -0.5
    vertex -1.98014 2.59901 -0.5
    vertex -4.06118 3.37769 -0.5
  endloop
endfacet
facet normal 0 0 -1
  outer loop
    vertex -4.88459 1.0751 -0.5
    vertex -5.97184 4.32375 -0.5
    vertex -4.06118 3.37769 -0.5
  endloop
endfacet
facet normal 0 -0 -1
  outer loop
    vertex -4.06118 3.37769 -0.5
    vertex -1.98014 2.59901 -0.5
    vertex -4.88459 1.0751 -0.5
  endloop
endfacet
facet normal 0 0 -1
  outer loop
    vertex -4.06118 3.37769 -0.5
    vertex -5.97184 4.32375 -0.5
    vertex -3.40815 5.51292 -0.5
  endloop
endfacet
facet normal 0 0 -1
  outer loop
    vertex 0.363289 -10.2836 -0.5
    vertex 3.15853 -9.53306 -0.5
    vertex 2.06938 -11.4082 -0.5
  endloop
endfacet
facet normal 0 0 -1
  outer loop
    vertex 2.06938 -11.4082 -0.5
    vertex 3.15853 -9.53306 -0.5
    vertex 4.30473 -13.2486 -0.5
  endloop
endfacet
facet normal 0 -0 -1
  outer loop
    vertex 0.143861 1.97162 -0.5
    vertex 2.24053 1.35882 -0.5
    vertex -0.619523 -0.341492 -0.5
  endloop
endfacet
facet normal 0 0 -1
  outer loop
    vertex 0.143861 1.97162 -0.5
    vertex -1.98014 2.59901 -0.5
    vertex 0.934576 4.27012 -0.5
  endloop
endfacet
facet normal 0 -0 -1
  outer loop
    vertex 0.934576 4.27012 -0.5
    vertex 2.24053 1.35882 -0.5
    vertex 0.143861 1.97162 -0.5
  endloop
endfacet
facet normal 0 0 -1
  outer loop
    vertex -0.619523 -0.341492 -0.5
    vertex -1.98014 2.59901 -0.5
    vertex 0.143861 1.97162 -0.5
  endloop
endfacet
facet normal 0 0 -1
  outer loop
    vertex -4.7874 -10.8367 -0.5
    vertex -6.6789 -8.5256 -0.5
    vertex -3.51444 -8.89457 -0.5
  endloop
endfacet
facet normal 0 0 -1
  outer loop
    vertex -6.96519 -12.0641 -0.5
    vertex -6.6789 -8.5256 -0.5
    vertex -4.7874 -10.8367 -0.5
  endloop
endfacet
facet normal 0 0 -1
  outer loop
    vertex -5.43133 6.24682 -0.5
    vertex -4.71427 8.21226 -0.5
    vertex -3.40815 5.51292 -0.5
  endloop
endfacet
facet normal -0 0 -1
  outer loop
    vertex -5.43133 6.24682 -0.5
    vertex -5.97184 4.32375 -0.5
    vertex -7.39139 6.67911 -0.5
  endloop
endfacet
facet normal 0 0 -1
  outer loop
    vertex -7.39139 6.67911 -0.5
    vertex -4.71427 8.21226 -0.5
    vertex -5.43133 6.24682 -0.5
  endloop
endfacet
facet normal -0 0 -1
  outer loop
    vertex -3.40815 5.51292 -0.5
    vertex -5.97184 4.32375 -0.5
    vertex -5.43133 6.24682 -0.5
  endloop
endfacet
facet normal -0 0 -1
  outer loop
    vertex -1.32398 4.79538 -0.5
    vertex -1.98014 2.59901 -0.5
    vertex -3.40815 5.51292 -0.5
  endloop
endfacet
facet normal 0 0 -1
  outer loop
    vertex -1.32398 4.79538 -0.5
    vertex -0.842214 6.79947 -0.5
    vertex 0.934576 4.27012 -0.5
  endloop
endfacet
facet normal -0 0 -1
  outer loop
    vertex 0.934576 4.27012 -0.5
    vertex -1.98014 2.59901 -0.5
    vertex -1.32398 4.79538 -0.5
  endloop
endfacet
facet normal 0 0 -1
  outer loop
    vertex -3.40815 5.51292 -0.5
    vertex -0.842214 6.79947 -0.5
    vertex -1.32398 4.79538 -0.5
  endloop
endfacet
facet normal 0 0 -1
  outer loop
    vertex 2.1912 7.66131 -0.5
    vertex 4.53595 9.73859 -0.5
    vertex 4.36441 7.77158 -0.5
  endloop
endfacet
facet normal 0 0 -1
  outer loop
    vertex 6.65331 7.94776 -0.5
    vertex 4.07717 5.73867 -0.5
    vertex 4.36441 7.77158 -0.5
  endloop
endfacet
facet normal 0 0 -1
  outer loop
    vertex 4.36441 7.77158 -0.5
    vertex 4.53595 9.73859 -0.5
    vertex 6.65331 7.94776 -0.5
  endloop
endfacet
facet normal 0 0 -1
  outer loop
    vertex 4.36441 7.77158 -0.5
    vertex 4.07717 5.73867 -0.5
    vertex 2.1912 7.66131 -0.5
  endloop
endfacet
facet normal -0 0 -1
  outer loop
    vertex 3.96421 -7.14784 -0.5
    vertex 3.15853 -9.53306 -0.5
    vertex 1.91651 -6.39282 -0.5
  endloop
endfacet
facet normal 0 0 -1
  outer loop
    vertex 3.96421 -7.14784 -0.5
    vertex 4.76993 -4.75579 -0.5
    vertex 6.01188 -7.90968 -0.5
  endloop
endfacet
facet normal -0 0 -1
  outer loop
    vertex 6.01188 -7.90968 -0.5
    vertex 3.15853 -9.53306 -0.5
    vertex 3.96421 -7.14784 -0.5
  endloop
endfacet
facet normal 0 0 -1
  outer loop
    vertex 1.91651 -6.39282 -0.5
    vertex 4.76993 -4.75579 -0.5
    vertex 3.96421 -7.14784 -0.5
  endloop
endfacet
facet normal 0 -0 -1
  outer loop
    vertex 1.91651 -6.39282 -0.5
    vertex 3.15853 -9.53306 -0.5
    vertex 1.15129 -8.47707 -0.5
  endloop
endfacet
facet normal 0 0 -1
  outer loop
    vertex 0.363289 -10.2836 -0.5
    vertex -0.833191 -7.69877 -0.5
    vertex 1.15129 -8.47707 -0.5
  endloop
endfacet
facet normal 0 -0 -1
  outer loop
    vertex 1.15129 -8.47707 -0.5
    vertex 3.15853 -9.53306 -0.5
    vertex 0.363289 -10.2836 -0.5
  endloop
endfacet
facet normal 0 0 -1
  outer loop
    vertex 1.15129 -8.47707 -0.5
    vertex -0.833191 -7.69877 -0.5
    vertex 1.91651 -6.39282 -0.5
  endloop
endfacet
facet normal 0 0 -1
  outer loop
    vertex 5.17897 3.17638 -0.5
    vertex 7.61939 5.01903 -0.5
    vertex 7.26009 2.8414 -0.5
  endloop
endfacet
facet normal -0 0 -1
  outer loop
    vertex 9.28543 2.59571 -0.5
    vertex 6.42758 0.196417 -0.5
    vertex 7.26009 2.8414 -0.5
  endloop
endfacet
facet normal 0 0 -1
  outer loop
    vertex 7.26009 2.8414 -0.5
    vertex 7.61939 5.01903 -0.5
    vertex 9.28543 2.59571 -0.5
  endloop
endfacet
facet normal -0 0 -1
  outer loop
    vertex 7.26009 2.8414 -0.5
    vertex 6.42758 0.196417 -0.5
    vertex 5.17897 3.17638 -0.5
  endloop
endfacet
facet normal 0 0 -1
  outer loop
    vertex 8.97231 7.42281 -0.5
    vertex 9.32125 10.3523 -0.5
    vertex 11.2699 8.18807 -0.5
  endloop
endfacet
facet normal -0 0 -1
  outer loop
    vertex 8.97231 7.42281 -0.5
    vertex 7.61939 5.01903 -0.5
    vertex 6.65331 7.94776 -0.5
  endloop
endfacet
facet normal 0 0 -1
  outer loop
    vertex 6.65331 7.94776 -0.5
    vertex 9.32125 10.3523 -0.5
    vertex 8.97231 7.42281 -0.5
  endloop
endfacet
facet normal 0 0 -1
  outer loop
    vertex 0.0960019 8.47228 -0.5
    vertex 0.982361 10.2685 -0.5
    vertex 2.1912 7.66131 -0.5
  endloop
endfacet
facet normal -0 0 -1
  outer loop
    vertex 0.0960019 8.47228 -0.5
    vertex -0.842214 6.79947 -0.5
    vertex -1.76274 9.22429 -0.5
  endloop
endfacet
facet normal 0 0 -1
  outer loop
    vertex -1.76274 9.22429 -0.5
    vertex 0.982361 10.2685 -0.5
    vertex 0.0960019 8.47228 -0.5
  endloop
endfacet
facet normal -0 0 -1
  outer loop
    vertex 2.1912 7.66131 -0.5
    vertex -0.842214 6.79947 -0.5
    vertex 0.0960019 8.47228 -0.5
  endloop
endfacet
facet normal -0 0 -1
  outer loop
    vertex 5.17897 3.17638 -0.5
    vertex 2.24053 1.35882 -0.5
    vertex 3.10781 3.636 -0.5
  endloop
endfacet
facet normal 0 0 -1
  outer loop
    vertex 0.934576 4.27012 -0.5
    vertex 4.07717 5.73867 -0.5
    vertex 3.10781 3.636 -0.5
  endloop
endfacet
facet normal -0 0 -1
  outer loop
    vertex 3.10781 3.636 -0.5
    vertex 2.24053 1.35882 -0.5
    vertex 0.934576 4.27012 -0.5
  endloop
endfacet
facet normal 0 0 -1
  outer loop
    vertex 3.10781 3.636 -0.5
    vertex 4.07717 5.73867 -0.5
    vertex 5.17897 3.17638 -0.5
  endloop
endfacet
facet normal 0 -0 -1
  outer loop
    vertex -2.76564 -6.93652 -0.5
    vertex -0.833191 -7.69877 -0.5
    vertex -3.51444 -8.89457 -0.5
  endloop
endfacet
facet normal 0 0 -1
  outer loop
    vertex -2.76564 -6.93652 -0.5
    vertex -4.62661 -6.2477 -0.5
    vertex -2.0883 -4.90505 -0.5
  endloop
endfacet
facet normal 0 -0 -1
  outer loop
    vertex -2.0883 -4.90505 -0.5
    vertex -0.833191 -7.69877 -0.5
    vertex -2.76564 -6.93652 -0.5
  endloop
endfacet
facet normal 0 0 -1
  outer loop
    vertex -3.51444 -8.89457 -0.5
    vertex -4.62661 -6.2477 -0.5
    vertex -2.76564 -6.93652 -0.5
  endloop
endfacet
facet normal 0 0 -1
  outer loop
    vertex -0.619523 -0.341492 -0.5
    vertex 2.24053 1.35882 -0.5
    vertex 1.44558 -0.971468 -0.5
  endloop
endfacet
facet normal -0 0 -1
  outer loop
    vertex 3.49164 -1.59117 -0.5
    vertex 0.669695 -3.31204 -0.5
    vertex 1.44558 -0.971468 -0.5
  endloop
endfacet
facet normal 0 0 -1
  outer loop
    vertex 1.44558 -0.971468 -0.5
    vertex 2.24053 1.35882 -0.5
    vertex 3.49164 -1.59117 -0.5
  endloop
endfacet
facet normal -0 0 -1
  outer loop
    vertex 1.44558 -0.971468 -0.5
    vertex 0.669695 -3.31204 -0.5
    vertex -0.619523 -0.341492 -0.5
  endloop
endfacet
facet normal 0 0 -1
  outer loop
    vertex -3.40815 5.51292 -0.5
    vertex -4.71427 8.21226 -0.5
    vertex -2.78791 7.48592 -0.5
  endloop
endfacet
facet normal 0 -0 -1
  outer loop
    vertex -1.76274 9.22429 -0.5
    vertex -0.842214 6.79947 -0.5
    vertex -2.78791 7.48592 -0.5
  endloop
endfacet
facet normal 0 0 -1
  outer loop
    vertex -2.78791 7.48592 -0.5
    vertex -4.71427 8.21226 -0.5
    vertex -1.76274 9.22429 -0.5
  endloop
endfacet
facet normal 0 -0 -1
  outer loop
    vertex -2.78791 7.48592 -0.5
    vertex -0.842214 6.79947 -0.5
    vertex -3.40815 5.51292 -0.5
  endloop
endfacet
facet normal 0 0 -1
  outer loop
    vertex -0.08382 -5.57717 -0.5
    vertex 0.669695 -3.31204 -0.5
    vertex 1.91651 -6.39282 -0.5
  endloop
endfacet
facet normal -0 0 -1
  outer loop
    vertex -0.08382 -5.57717 -0.5
    vertex -0.833191 -7.69877 -0.5
    vertex -2.0883 -4.90505 -0.5
  endloop
endfacet
facet normal 0 0 -1
  outer loop
    vertex -2.0883 -4.90505 -0.5
    vertex 0.669695 -3.31204 -0.5
    vertex -0.08382 -5.57717 -0.5
  endloop
endfacet
facet normal -0 0 -1
  outer loop
    vertex 1.91651 -6.39282 -0.5
    vertex -0.833191 -7.69877 -0.5
    vertex -0.08382 -5.57717 -0.5
  endloop
endfacet
facet normal 0 0 -1
  outer loop
    vertex -2.71869 0.33325 -0.5
    vertex -1.98014 2.59901 -0.5
    vertex -0.619523 -0.341492 -0.5
  endloop
endfacet
facet normal -0 0 -1
  outer loop
    vertex -2.71869 0.33325 -0.5
    vertex -3.39051 -1.99961 -0.5
    vertex -4.88459 1.0751 -0.5
  endloop
endfacet
facet normal 0 0 -1
  outer loop
    vertex -4.88459 1.0751 -0.5
    vertex -1.98014 2.59901 -0.5
    vertex -2.71869 0.33325 -0.5
  endloop
endfacet
facet normal -0 0 -1
  outer loop
    vertex -0.619523 -0.341492 -0.5
    vertex -3.39051 -1.99961 -0.5
    vertex -2.71869 0.33325 -0.5
  endloop
endfacet
facet normal 0 0 -1
  outer loop
    vertex 6.86892 10.0257 -0.5
    vertex 6.96519 12.0641 -0.5
    vertex 9.32125 10.3523 -0.5
  endloop
endfacet
facet normal 0 0 -1
  outer loop
    vertex 6.86892 10.0257 -0.5
    vertex 6.65331 7.94776 -0.5
    vertex 4.53595 9.73859 -0.5
  endloop
endfacet
facet normal 0 0 -1
  outer loop
    vertex 4.53595 9.73859 -0.5
    vertex 6.96519 12.0641 -0.5
    vertex 6.86892 10.0257 -0.5
  endloop
endfacet
facet normal 0 0 -1
  outer loop
    vertex 9.32125 10.3523 -0.5
    vertex 6.65331 7.94776 -0.5
    vertex 6.86892 10.0257 -0.5
  endloop
endfacet
facet normal -0 0 -1
  outer loop
    vertex -6.05208 -3.77448 -0.5
    vertex -8.49847 -5.62929 -0.5
    vertex -7.86651 -3.2805 -0.5
  endloop
endfacet
facet normal 0 0 -1
  outer loop
    vertex -9.3821 -2.56678 -0.5
    vertex -7.3656 -1.05244 -0.5
    vertex -7.86651 -3.2805 -0.5
  endloop
endfacet
facet normal -0 0 -1
  outer loop
    vertex -7.86651 -3.2805 -0.5
    vertex -8.49847 -5.62929 -0.5
    vertex -9.3821 -2.56678 -0.5
  endloop
endfacet
facet normal 0 0 -1
  outer loop
    vertex -7.86651 -3.2805 -0.5
    vertex -7.3656 -1.05244 -0.5
    vertex -6.05208 -3.77448 -0.5
  endloop
endfacet
facet normal -0 0 -1
  outer loop
    vertex -1.5166 -9.56593 -0.5
    vertex -2.08206 -11.3867 -0.5
    vertex -3.51444 -8.89457 -0.5
  endloop
endfacet
facet normal 0 0 -1
  outer loop
    vertex -1.5166 -9.56593 -0.5
    vertex -0.833191 -7.69877 -0.5
    vertex 0.363289 -10.2836 -0.5
  endloop
endfacet
facet normal -0 0 -1
  outer loop
    vertex 0.363289 -10.2836 -0.5
    vertex -2.08206 -11.3867 -0.5
    vertex -1.5166 -9.56593 -0.5
  endloop
endfacet
facet normal 0 0 -1
  outer loop
    vertex -3.51444 -8.89457 -0.5
    vertex -0.833191 -7.69877 -0.5
    vertex -1.5166 -9.56593 -0.5
  endloop
endfacet
facet normal -0 0 -1
  outer loop
    vertex 7.75265 -3.26157 -0.5
    vertex 4.76993 -4.75579 -0.5
    vertex 5.61045 -2.35303 -0.5
  endloop
endfacet
facet normal 0 0 -1
  outer loop
    vertex 3.49164 -1.59117 -0.5
    vertex 6.42758 0.196417 -0.5
    vertex 5.61045 -2.35303 -0.5
  endloop
endfacet
facet normal -0 0 -1
  outer loop
    vertex 5.61045 -2.35303 -0.5
    vertex 4.76993 -4.75579 -0.5
    vertex 3.49164 -1.59117 -0.5
  endloop
endfacet
facet normal 0 0 -1
  outer loop
    vertex 5.61045 -2.35303 -0.5
    vertex 6.42758 0.196417 -0.5
    vertex 7.75265 -3.26157 -0.5
  endloop
endfacet
facet normal 0 0 -1
  outer loop
    vertex -6.05208 -3.77448 -0.5
    vertex -3.39051 -1.99961 -0.5
    vertex -4.03938 -4.23171 -0.5
  endloop
endfacet
facet normal -0 0 -1
  outer loop
    vertex -2.0883 -4.90505 -0.5
    vertex -4.62661 -6.2477 -0.5
    vertex -4.03938 -4.23171 -0.5
  endloop
endfacet
facet normal 0 0 -1
  outer loop
    vertex -4.03938 -4.23171 -0.5
    vertex -3.39051 -1.99961 -0.5
    vertex -2.0883 -4.90505 -0.5
  endloop
endfacet
facet normal -0 0 -1
  outer loop
    vertex -4.03938 -4.23171 -0.5
    vertex -4.62661 -6.2477 -0.5
    vertex -6.05208 -3.77448 -0.5
  endloop
endfacet
facet normal 0 0 -1
  outer loop
    vertex 4.30473 -13.2486 -0.5
    vertex 0.450983 -12.5673 -0.5
    vertex 2.06938 -11.4082 -0.5
  endloop
endfacet
facet normal 0 0 -1
  outer loop
    vertex -2.08206 -11.3867 -0.5
    vertex 0.363289 -10.2836 -0.5
    vertex 0.450983 -12.5673 -0.5
  endloop
endfacet
facet normal -0 0 -1
  outer loop
    vertex 0.450983 -12.5673 -0.5
    vertex -1.75074 -12.9612 -0.5
    vertex -2.08206 -11.3867 -0.5
  endloop
endfacet
facet normal -0 0 -1
  outer loop
    vertex 2.06938 -11.4082 -0.5
    vertex 0.450983 -12.5673 -0.5
    vertex 0.363289 -10.2836 -0.5
  endloop
endfacet
facet normal 0 0 -1
  outer loop
    vertex -6.96519 12.0641 -0.5
    vertex -4.30473 13.2486 -0.5
    vertex -3.3035 11.2196 -0.5
  endloop
endfacet
facet normal 0 0 -1
  outer loop
    vertex -3.3035 11.2196 -0.5
    vertex -4.30473 13.2486 -0.5
    vertex -1.48548 13.1218 -0.5
  endloop
endfacet
facet normal 0 0 -1
  outer loop
    vertex -7.3446 9.21945 -0.5
    vertex -9.32125 10.3523 -0.5
    vertex -6.96519 12.0641 -0.5
  endloop
endfacet
facet normal 0 0 -1
  outer loop
    vertex -9.71594 7.74117 -0.5
    vertex -9.32125 10.3523 -0.5
    vertex -7.3446 9.21945 -0.5
  endloop
endfacet
facet normal 0 0 -1
  outer loop
    vertex -7.3446 9.21945 -0.5
    vertex -7.39139 6.67911 -0.5
    vertex -9.71594 7.74117 -0.5
  endloop
endfacet
facet normal 0 0 -1
  outer loop
    vertex -11.2699 -8.18807 -0.5
    vertex -12.726 -5.666 -0.5
    vertex -11.009 -4.30366 -0.5
  endloop
endfacet
facet normal -0 0 -1
  outer loop
    vertex -11.009 -4.30366 -0.5
    vertex -12.726 -5.666 -0.5
    vertex -12.6746 -2.77199 -0.5
  endloop
endfacet
facet normal 0 0 -1
  outer loop
    vertex 11.7309 0.484189 -0.5
    vertex 9.28543 2.59571 -0.5
    vertex 11.4732 3.44981 -0.5
  endloop
endfacet
facet normal 0 -0 -1
  outer loop
    vertex 10.2244 5.39024 -0.5
    vertex 11.4732 3.44981 -0.5
    vertex 9.28543 2.59571 -0.5
  endloop
endfacet
facet normal 0 0 -1
  outer loop
    vertex 11.7309 0.484189 -0.5
    vertex 13.9304 0 -0.5
    vertex 13.626 -2.89629 -0.5
  endloop
endfacet
facet normal 0 -0 -1
  outer loop
    vertex 13.626 2.89629 -0.5
    vertex 13.9304 0 -0.5
    vertex 11.7309 0.484189 -0.5
  endloop
endfacet
facet normal 0 0 -1
  outer loop
    vertex -9.66272 -0.116174 -0.5
    vertex -11.4456 1.98744 -0.5
    vertex -8.42701 2.57979 -0.5
  endloop
endfacet
facet normal 0 0 -1
  outer loop
    vertex -11.5141 -1.21484 -0.5
    vertex -11.4456 1.98744 -0.5
    vertex -9.66272 -0.116174 -0.5
  endloop
endfacet
facet normal 0 -0 -1
  outer loop
    vertex -9.66272 -0.116174 -0.5
    vertex -9.3821 -2.56678 -0.5
    vertex -11.5141 -1.21484 -0.5
  endloop
endfacet
facet normal 0 -0 -1
  outer loop
    vertex -4.7874 -10.8367 -0.5
    vertex -4.30473 -13.2486 -0.5
    vertex -6.96519 -12.0641 -0.5
  endloop
endfacet
facet normal 0 0 -1
  outer loop
    vertex -4.7874 -10.8367 -0.5
    vertex -3.51444 -8.89457 -0.5
    vertex -2.08206 -11.3867 -0.5
  endloop
endfacet
facet normal -0 0 -1
  outer loop
    vertex -2.08206 -11.3867 -0.5
    vertex -4.30473 -13.2486 -0.5
    vertex -4.7874 -10.8367 -0.5
  endloop
endfacet
facet normal 0 -0 -1
  outer loop
    vertex 9.21543 -0.494238 -0.5
    vertex 10.756 -2.67412 -0.5
    vertex 7.75265 -3.26157 -0.5
  endloop
endfacet
facet normal 0 0 -1
  outer loop
    vertex 11.7309 0.484189 -0.5
    vertex 10.756 -2.67412 -0.5
    vertex 9.21543 -0.494238 -0.5
  endloop
endfacet
facet normal 0 0 -1
  outer loop
    vertex 9.21543 -0.494238 -0.5
    vertex 9.28543 2.59571 -0.5
    vertex 11.7309 0.484189 -0.5
  endloop
endfacet
facet normal 0 0 -1
  outer loop
    vertex -8.94214 -8.17382 -0.5
    vertex -9.32125 -10.3523 -0.5
    vertex -11.2699 -8.18807 -0.5
  endloop
endfacet
facet normal 0 0 -1
  outer loop
    vertex -8.94214 -8.17382 -0.5
    vertex -8.49847 -5.62929 -0.5
    vertex -6.6789 -8.5256 -0.5
  endloop
endfacet
facet normal -0 0 -1
  outer loop
    vertex -6.6789 -8.5256 -0.5
    vertex -9.32125 -10.3523 -0.5
    vertex -8.94214 -8.17382 -0.5
  endloop
endfacet
facet normal 0 0 -1
  outer loop
    vertex -11.2699 -8.18807 -0.5
    vertex -8.49847 -5.62929 -0.5
    vertex -8.94214 -8.17382 -0.5
  endloop
endfacet
facet normal 0 0 -1
  outer loop
    vertex -4.71427 8.21226 -0.5
    vertex -7.3446 9.21945 -0.5
    vertex -5.58189 10.1788 -0.5
  endloop
endfacet
facet normal -0 0 -1
  outer loop
    vertex -5.58189 10.1788 -0.5
    vertex -7.3446 9.21945 -0.5
    vertex -6.96519 12.0641 -0.5
  endloop
endfacet
facet normal 0 0 -1
  outer loop
    vertex 11.2699 8.18807 -0.5
    vertex 10.2244 5.39024 -0.5
    vertex 8.97231 7.42281 -0.5
  endloop
endfacet
facet normal 0 -0 -1
  outer loop
    vertex 8.97231 7.42281 -0.5
    vertex 10.2244 5.39024 -0.5
    vertex 7.61939 5.01903 -0.5
  endloop
endfacet
facet normal 0 -0 -1
  outer loop
    vertex -11.009 -4.30366 -0.5
    vertex -8.49847 -5.62929 -0.5
    vertex -11.2699 -8.18807 -0.5
  endloop
endfacet
facet normal 0 -0 -1
  outer loop
    vertex -9.3821 -2.56678 -0.5
    vertex -8.49847 -5.62929 -0.5
    vertex -11.009 -4.30366 -0.5
  endloop
endfacet
facet normal 0 0 -1
  outer loop
    vertex 11.7309 0.484189 -0.5
    vertex 11.4732 3.44981 -0.5
    vertex 13.626 2.89629 -0.5
  endloop
endfacet
facet normal 0 0 -1
  outer loop
    vertex -6.96519 12.0641 -0.5
    vertex -3.3035 11.2196 -0.5
    vertex -5.58189 10.1788 -0.5
  endloop
endfacet
facet normal -0 0 -1
  outer loop
    vertex -1.76274 9.22429 -0.5
    vertex -4.71427 8.21226 -0.5
    vertex -3.3035 11.2196 -0.5
  endloop
endfacet
facet normal 0 0 -1
  outer loop
    vertex -3.3035 11.2196 -0.5
    vertex -0.983366 10.9895 -0.5
    vertex -1.76274 9.22429 -0.5
  endloop
endfacet
facet normal 0 0 -1
  outer loop
    vertex -5.58189 10.1788 -0.5
    vertex -3.3035 11.2196 -0.5
    vertex -4.71427 8.21226 -0.5
  endloop
endfacet
facet normal 0 -0 -1
  outer loop
    vertex 11.2699 8.18807 -0.5
    vertex 12.726 5.666 -0.5
    vertex 10.2244 5.39024 -0.5
  endloop
endfacet
facet normal 0 0 -1
  outer loop
    vertex 10.2244 5.39024 -0.5
    vertex 12.726 5.666 -0.5
    vertex 11.4732 3.44981 -0.5
  endloop
endfacet
facet normal 0 0 1
  outer loop
    vertex 6.96519 12.0641 0.5
    vertex 7.02922 8.70643 0.5
    vertex 9.32125 10.3523 0.5
  endloop
endfacet
facet normal 0 0 1
  outer loop
    vertex 1.53324 12.2208 0.5
    vertex -1.45612 13.8541 0.5
    vertex -0.926749 11.2455 0.5
  endloop
endfacet
facet normal -0 0 1
  outer loop
    vertex -1.45612 13.8541 0.5
    vertex 1.53324 12.2208 0.5
    vertex 1.45612 13.8541 0.5
  endloop
endfacet
facet normal 0 0 1
  outer loop
    vertex -13.9304 -4.77847e-14 0.5
    vertex -12.2017 2.65461 0.5
    vertex -13.626 2.89629 0.5
  endloop
endfacet
facet normal 0 -0 1
  outer loop
    vertex 11.6429 -5.31977 0.5
    vertex 13.626 -2.89629 0.5
    vertex 11.1174 -3.13442 0.5
  endloop
endfacet
facet normal 0 0 1
  outer loop
    vertex 13.626 -2.89629 0.5
    vertex 11.6429 -5.31977 0.5
    vertex 12.726 -5.666 0.5
  endloop
endfacet
facet normal -0 0 1
  outer loop
    vertex 9.55194 7.5468 0.5
    vertex 12.726 5.666 0.5
    vertex 11.2699 8.18807 0.5
  endloop
endfacet
facet normal 0 0 1
  outer loop
    vertex 9.55194 7.5468 0.5
    vertex 9.32125 10.3523 0.5
    vertex 7.02922 8.70643 0.5
  endloop
endfacet
facet normal 0 0 1
  outer loop
    vertex 9.32125 10.3523 0.5
    vertex 9.55194 7.5468 0.5
    vertex 11.2699 8.18807 0.5
  endloop
endfacet
facet normal 0 0 1
  outer loop
    vertex -4.58668 -11.8398 0.5
    vertex -6.96519 -12.0641 0.5
    vertex -4.30473 -13.2486 0.5
  endloop
endfacet
facet normal 0 0 1
  outer loop
    vertex -1.45612 -13.8541 0.5
    vertex -4.58668 -11.8398 0.5
    vertex -4.30473 -13.2486 0.5
  endloop
endfacet
facet normal 0 -0 1
  outer loop
    vertex 11.1174 -3.13442 0.5
    vertex 12.1483 -0.181958 0.5
    vertex 9.48251 -0.27931 0.5
  endloop
endfacet
facet normal 0 0 1
  outer loop
    vertex 11.1174 -3.13442 0.5
    vertex 9.54745 -6.33493 0.5
    vertex 11.6429 -5.31977 0.5
  endloop
endfacet
facet normal 0 0 1
  outer loop
    vertex 6.96519 12.0641 0.5
    vertex 4.36162 9.1918 0.5
    vertex 7.02922 8.70643 0.5
  endloop
endfacet
facet normal 0 0 1
  outer loop
    vertex 1.51072 6.76212 0.5
    vertex 4.36162 9.1918 0.5
    vertex 1.59184 9.91547 0.5
  endloop
endfacet
facet normal 0 0 1
  outer loop
    vertex -0.838836 8.79355 0.5
    vertex -2.65491 10.0465 0.5
    vertex -4.07815 7.75341 0.5
  endloop
endfacet
facet normal -0 0 1
  outer loop
    vertex -0.838836 8.79355 0.5
    vertex 1.51072 6.76212 0.5
    vertex 1.59184 9.91547 0.5
  endloop
endfacet
facet normal 0 0 1
  outer loop
    vertex -9.32125 -10.3523 0.5
    vertex -9.51253 -7.60159 0.5
    vertex -11.2699 -8.18807 0.5
  endloop
endfacet
facet normal 0 0 1
  outer loop
    vertex -10.9502 -5.45455 0.5
    vertex -9.51253 -7.60159 0.5
    vertex -8.63382 -5.77045 0.5
  endloop
endfacet
facet normal 0 0 1
  outer loop
    vertex -9.51253 -7.60159 0.5
    vertex -10.9502 -5.45455 0.5
    vertex -11.2699 -8.18807 0.5
  endloop
endfacet
facet normal 0 0 1
  outer loop
    vertex -0.926749 11.2455 0.5
    vertex -3.34416 11.8639 0.5
    vertex -2.65491 10.0465 0.5
  endloop
endfacet
facet normal 0 0 1
  outer loop
    vertex -10.9464 4.84249 0.5
    vertex -12.2017 2.65461 0.5
    vertex -9.72585 2.55285 0.5
  endloop
endfacet
facet normal 0 0 1
  outer loop
    vertex 6.76592 -4.93522 0.5
    vertex 7.20091 -7.51725 0.5
    vertex 9.54745 -6.33493 0.5
  endloop
endfacet
facet normal -0 0 1
  outer loop
    vertex 7.20091 -7.51725 0.5
    vertex 9.32125 -10.3523 0.5
    vertex 9.54745 -6.33493 0.5
  endloop
endfacet
facet normal 0 -0 1
  outer loop
    vertex 10.9015 -7.17221 0.5
    vertex 11.6429 -5.31977 0.5
    vertex 9.54745 -6.33493 0.5
  endloop
endfacet
facet normal 0 0 1
  outer loop
    vertex 9.32125 -10.3523 0.5
    vertex 10.9015 -7.17221 0.5
    vertex 9.54745 -6.33493 0.5
  endloop
endfacet
facet normal 0 0 1
  outer loop
    vertex -6.64583 -11.042 0.5
    vertex -9.32125 -10.3523 0.5
    vertex -6.96519 -12.0641 0.5
  endloop
endfacet
facet normal -0 0 1
  outer loop
    vertex -9.32125 -10.3523 0.5
    vertex -6.64583 -11.042 0.5
    vertex -5.64243 -9.44363 0.5
  endloop
endfacet
facet normal 0 0 1
  outer loop
    vertex 11.1174 -3.13442 0.5
    vertex 8.58764 -3.3088 0.5
    vertex 9.54745 -6.33493 0.5
  endloop
endfacet
facet normal 0 0 1
  outer loop
    vertex 8.58764 -3.3088 0.5
    vertex 11.1174 -3.13442 0.5
    vertex 9.48251 -0.27931 0.5
  endloop
endfacet
facet normal 0 0 1
  outer loop
    vertex 8.58764 -3.3088 0.5
    vertex 6.76592 -4.93522 0.5
    vertex 9.54745 -6.33493 0.5
  endloop
endfacet
facet normal 0 0 1
  outer loop
    vertex -12.2017 2.65461 0.5
    vertex -11.1082 0.375382 0.5
    vertex -9.72585 2.55285 0.5
  endloop
endfacet
facet normal 0 0 1
  outer loop
    vertex -11.1082 0.375382 0.5
    vertex -12.2017 2.65461 0.5
    vertex -13.9304 -4.77847e-14 0.5
  endloop
endfacet
facet normal -0 0 1
  outer loop
    vertex -4.58668 -11.8398 0.5
    vertex -1.45612 -13.8541 0.5
    vertex -2.32645 -10.1519 0.5
  endloop
endfacet
facet normal 0 0 1
  outer loop
    vertex -4.58668 -11.8398 0.5
    vertex -6.64583 -11.042 0.5
    vertex -6.96519 -12.0641 0.5
  endloop
endfacet
facet normal 0 0 1
  outer loop
    vertex -2.32645 -10.1519 0.5
    vertex -5.64243 -9.44363 0.5
    vertex -4.58668 -11.8398 0.5
  endloop
endfacet
facet normal -0 0 1
  outer loop
    vertex -6.64583 -11.042 0.5
    vertex -4.58668 -11.8398 0.5
    vertex -5.64243 -9.44363 0.5
  endloop
endfacet
facet normal 0 -0 1
  outer loop
    vertex -3.34416 11.8639 0.5
    vertex -1.45612 13.8541 0.5
    vertex -4.30473 13.2486 0.5
  endloop
endfacet
facet normal 0 0 1
  outer loop
    vertex -1.45612 13.8541 0.5
    vertex -3.34416 11.8639 0.5
    vertex -0.926749 11.2455 0.5
  endloop
endfacet
facet normal -0 0 1
  outer loop
    vertex -6.96519 12.0641 0.5
    vertex -3.34416 11.8639 0.5
    vertex -4.30473 13.2486 0.5
  endloop
endfacet
facet normal 0 0 1
  outer loop
    vertex -10.9464 4.84249 0.5
    vertex -11.2699 8.18807 0.5
    vertex -12.726 5.666 0.5
  endloop
endfacet
facet normal 0 0 1
  outer loop
    vertex -10.9464 4.84249 0.5
    vertex -13.626 2.89629 0.5
    vertex -12.2017 2.65461 0.5
  endloop
endfacet
facet normal 0 0 1
  outer loop
    vertex -13.626 2.89629 0.5
    vertex -10.9464 4.84249 0.5
    vertex -12.726 5.666 0.5
  endloop
endfacet
facet normal 0 0 1
  outer loop
    vertex 10.9015 -7.17221 0.5
    vertex 9.32125 -10.3523 0.5
    vertex 11.2699 -8.18807 0.5
  endloop
endfacet
facet normal 0 0 1
  outer loop
    vertex 10.9015 -7.17221 0.5
    vertex 12.726 -5.666 0.5
    vertex 11.6429 -5.31977 0.5
  endloop
endfacet
facet normal 0 0 1
  outer loop
    vertex 12.726 -5.666 0.5
    vertex 10.9015 -7.17221 0.5
    vertex 11.2699 -8.18807 0.5
  endloop
endfacet
facet normal 0 0 1
  outer loop
    vertex 0.950477 -11.4941 0.5
    vertex -1.45612 -13.8541 0.5
    vertex 1.45612 -13.8541 0.5
  endloop
endfacet
facet normal 0 -0 1
  outer loop
    vertex -1.45612 -13.8541 0.5
    vertex 0.950477 -11.4941 0.5
    vertex -2.32645 -10.1519 0.5
  endloop
endfacet
facet normal 0 0 1
  outer loop
    vertex 4.30473 -13.2486 0.5
    vertex 0.950477 -11.4941 0.5
    vertex 1.45612 -13.8541 0.5
  endloop
endfacet
facet normal 0 0 1
  outer loop
    vertex 9.55194 7.5468 0.5
    vertex 7.02922 8.70643 0.5
    vertex 7.08224 5.66461 0.5
  endloop
endfacet
facet normal 0 0 1
  outer loop
    vertex -6.58811 9.67535 0.5
    vertex -6.96519 12.0641 0.5
    vertex -9.32125 10.3523 0.5
  endloop
endfacet
facet normal 0 0 1
  outer loop
    vertex 13.626 -2.89629 0.5
    vertex 12.1483 -0.181958 0.5
    vertex 11.1174 -3.13442 0.5
  endloop
endfacet
facet normal -0 0 1
  outer loop
    vertex 12.1483 -0.181958 0.5
    vertex 13.626 -2.89629 0.5
    vertex 13.9304 0 0.5
  endloop
endfacet
facet normal 0 0 1
  outer loop
    vertex 13.626 2.89629 0.5
    vertex 12.1483 -0.181958 0.5
    vertex 13.9304 0 0.5
  endloop
endfacet
facet normal 0 0 1
  outer loop
    vertex 9.32125 -10.3523 0.5
    vertex 5.9193 -9.58321 0.5
    vertex 6.96519 -12.0641 0.5
  endloop
endfacet
facet normal 0 0 1
  outer loop
    vertex 9.32125 -10.3523 0.5
    vertex 7.20091 -7.51725 0.5
    vertex 5.9193 -9.58321 0.5
  endloop
endfacet
facet normal 0 0 1
  outer loop
    vertex -7.74519 7.71735 0.5
    vertex -4.07815 7.75341 0.5
    vertex -6.58811 9.67535 0.5
  endloop
endfacet
facet normal 0 -0 1
  outer loop
    vertex 9.48251 -0.27931 0.5
    vertex 10.9111 2.70186 0.5
    vertex 7.9859 2.62049 0.5
  endloop
endfacet
facet normal 0 0 1
  outer loop
    vertex 10.9111 2.70186 0.5
    vertex 9.48251 -0.27931 0.5
    vertex 12.1483 -0.181958 0.5
  endloop
endfacet
facet normal 0 0 1
  outer loop
    vertex 6.76592 -4.93522 0.5
    vertex 6.4655 -1.70851 0.5
    vertex 3.55371 -3.6128 0.5
  endloop
endfacet
facet normal 0 0 1
  outer loop
    vertex 1.89267 -7.73659 0.5
    vertex 0.831611 -4.86162 0.5
    vertex -1.66645 -6.92227 0.5
  endloop
endfacet
facet normal 0 0 1
  outer loop
    vertex -5.43014 -6.38917 0.5
    vertex -7.33725 -3.45198 0.5
    vertex -8.63382 -5.77045 0.5
  endloop
endfacet
facet normal -0 0 1
  outer loop
    vertex -1.31907 6.96302 0.5
    vertex 1.51072 6.76212 0.5
    vertex -0.838836 8.79355 0.5
  endloop
endfacet
facet normal 0 0 1
  outer loop
    vertex -1.31907 6.96302 0.5
    vertex -4.07815 7.75341 0.5
    vertex -1.76373 4.75563 0.5
  endloop
endfacet
facet normal -0 0 1
  outer loop
    vertex -4.07815 7.75341 0.5
    vertex -1.31907 6.96302 0.5
    vertex -0.838836 8.79355 0.5
  endloop
endfacet
facet normal 0 0 1
  outer loop
    vertex 1.51072 6.76212 0.5
    vertex -1.31907 6.96302 0.5
    vertex -1.76373 4.75563 0.5
  endloop
endfacet
facet normal 0 0 1
  outer loop
    vertex -3.20243 -4.04867 0.5
    vertex -5.43014 -6.38917 0.5
    vertex -1.66645 -6.92227 0.5
  endloop
endfacet
facet normal 0 0 1
  outer loop
    vertex 4.30473 -13.2486 0.5
    vertex 3.43603 -10.2665 0.5
    vertex 0.950477 -11.4941 0.5
  endloop
endfacet
facet normal 0 0 1
  outer loop
    vertex -5.43014 -6.38917 0.5
    vertex -7.70803 -7.91143 0.5
    vertex -5.64243 -9.44363 0.5
  endloop
endfacet
facet normal 0 -0 1
  outer loop
    vertex -7.70803 -7.91143 0.5
    vertex -5.43014 -6.38917 0.5
    vertex -8.63382 -5.77045 0.5
  endloop
endfacet
facet normal 0 0 1
  outer loop
    vertex -7.70803 -7.91143 0.5
    vertex -9.32125 -10.3523 0.5
    vertex -5.64243 -9.44363 0.5
  endloop
endfacet
facet normal 0 -0 1
  outer loop
    vertex 9.65144 4.83995 0.5
    vertex 12.726 5.666 0.5
    vertex 9.55194 7.5468 0.5
  endloop
endfacet
facet normal 0 0 1
  outer loop
    vertex 9.65144 4.83995 0.5
    vertex 7.08224 5.66461 0.5
    vertex 7.9859 2.62049 0.5
  endloop
endfacet
facet normal -0 0 1
  outer loop
    vertex 7.08224 5.66461 0.5
    vertex 9.65144 4.83995 0.5
    vertex 9.55194 7.5468 0.5
  endloop
endfacet
facet normal 0 -0 1
  outer loop
    vertex 4.60882 -6.81859 0.5
    vertex 6.76592 -4.93522 0.5
    vertex 3.55371 -3.6128 0.5
  endloop
endfacet
facet normal 0 0 1
  outer loop
    vertex 6.11461 3.45473 0.5
    vertex 5.17763 1.13467 0.5
    vertex 7.9859 2.62049 0.5
  endloop
endfacet
facet normal 0 -0 1
  outer loop
    vertex 6.11461 3.45473 0.5
    vertex 7.08224 5.66461 0.5
    vertex 3.56818 3.93835 0.5
  endloop
endfacet
facet normal 0 0 1
  outer loop
    vertex 7.08224 5.66461 0.5
    vertex 6.11461 3.45473 0.5
    vertex 7.9859 2.62049 0.5
  endloop
endfacet
facet normal 0 -0 1
  outer loop
    vertex 5.17763 1.13467 0.5
    vertex 6.11461 3.45473 0.5
    vertex 3.56818 3.93835 0.5
  endloop
endfacet
facet normal 0 0 1
  outer loop
    vertex 3.75132 11.3281 0.5
    vertex 1.59184 9.91547 0.5
    vertex 4.36162 9.1918 0.5
  endloop
endfacet
facet normal 0 0 1
  outer loop
    vertex 6.96519 12.0641 0.5
    vertex 3.75132 11.3281 0.5
    vertex 4.36162 9.1918 0.5
  endloop
endfacet
facet normal -0 0 1
  outer loop
    vertex -4.86023 2.75435 0.5
    vertex -2.22514 2.40202 0.5
    vertex -1.76373 4.75563 0.5
  endloop
endfacet
facet normal 0 0 1
  outer loop
    vertex 0.335323 1.98611 0.5
    vertex -2.22514 2.40202 0.5
    vertex -2.61192 0.111973 0.5
  endloop
endfacet
facet normal -0 0 1
  outer loop
    vertex -2.22514 2.40202 0.5
    vertex 0.335323 1.98611 0.5
    vertex -1.76373 4.75563 0.5
  endloop
endfacet
facet normal 0 0 1
  outer loop
    vertex -2.22514 2.40202 0.5
    vertex -4.86023 2.75435 0.5
    vertex -2.61192 0.111973 0.5
  endloop
endfacet
facet normal 0 0 1
  outer loop
    vertex 7.08224 5.66461 0.5
    vertex 4.7104 6.85266 0.5
    vertex 3.56818 3.93835 0.5
  endloop
endfacet
facet normal 0 0 1
  outer loop
    vertex 4.7104 6.85266 0.5
    vertex 1.51072 6.76212 0.5
    vertex 3.56818 3.93835 0.5
  endloop
endfacet
facet normal -0 -0 1
  outer loop
    vertex -7.37983 2.78613 0.5
    vertex -4.86023 2.75435 0.5
    vertex -7.58741 4.89213 0.5
  endloop
endfacet
facet normal 0 0 1
  outer loop
    vertex -7.37983 2.78613 0.5
    vertex -9.72585 2.55285 0.5
    vertex -7.30635 0.606915 0.5
  endloop
endfacet
facet normal 0 0 1
  outer loop
    vertex -9.72585 2.55285 0.5
    vertex -7.37983 2.78613 0.5
    vertex -7.58741 4.89213 0.5
  endloop
endfacet
facet normal 0 0 1
  outer loop
    vertex -4.86023 2.75435 0.5
    vertex -7.37983 2.78613 0.5
    vertex -7.30635 0.606915 0.5
  endloop
endfacet
facet normal -0 0 1
  outer loop
    vertex -3.76637 -8.22675 0.5
    vertex -2.32645 -10.1519 0.5
    vertex -1.66645 -6.92227 0.5
  endloop
endfacet
facet normal 0 0 1
  outer loop
    vertex -3.76637 -8.22675 0.5
    vertex -5.43014 -6.38917 0.5
    vertex -5.64243 -9.44363 0.5
  endloop
endfacet
facet normal 0 0 1
  outer loop
    vertex -5.43014 -6.38917 0.5
    vertex -3.76637 -8.22675 0.5
    vertex -1.66645 -6.92227 0.5
  endloop
endfacet
facet normal 0 0 1
  outer loop
    vertex -2.32645 -10.1519 0.5
    vertex -3.76637 -8.22675 0.5
    vertex -5.64243 -9.44363 0.5
  endloop
endfacet
facet normal 0 -0 1
  outer loop
    vertex 4.31275 -1.22935 0.5
    vertex 5.17763 1.13467 0.5
    vertex 2.05416 -0.730758 0.5
  endloop
endfacet
facet normal 0 0 1
  outer loop
    vertex 4.31275 -1.22935 0.5
    vertex 3.55371 -3.6128 0.5
    vertex 6.4655 -1.70851 0.5
  endloop
endfacet
facet normal 0 -0 1
  outer loop
    vertex 3.55371 -3.6128 0.5
    vertex 4.31275 -1.22935 0.5
    vertex 2.05416 -0.730758 0.5
  endloop
endfacet
facet normal 0 0 1
  outer loop
    vertex 5.17763 1.13467 0.5
    vertex 4.31275 -1.22935 0.5
    vertex 6.4655 -1.70851 0.5
  endloop
endfacet
facet normal 0 0 1
  outer loop
    vertex 5.17763 1.13467 0.5
    vertex 2.78382 1.58209 0.5
    vertex 2.05416 -0.730758 0.5
  endloop
endfacet
facet normal -0 0 1
  outer loop
    vertex 0.335323 1.98611 0.5
    vertex 2.78382 1.58209 0.5
    vertex 3.56818 3.93835 0.5
  endloop
endfacet
facet normal 0 0 1
  outer loop
    vertex 2.78382 1.58209 0.5
    vertex 0.335323 1.98611 0.5
    vertex 2.05416 -0.730758 0.5
  endloop
endfacet
facet normal -0 0 1
  outer loop
    vertex 2.78382 1.58209 0.5
    vertex 5.17763 1.13467 0.5
    vertex 3.56818 3.93835 0.5
  endloop
endfacet
facet normal 0 -0 1
  outer loop
    vertex -4.86023 2.75435 0.5
    vertex -4.84252 5.3213 0.5
    vertex -7.58741 4.89213 0.5
  endloop
endfacet
facet normal 0 0 1
  outer loop
    vertex -4.07815 7.75341 0.5
    vertex -4.84252 5.3213 0.5
    vertex -1.76373 4.75563 0.5
  endloop
endfacet
facet normal 0 0 1
  outer loop
    vertex -4.84252 5.3213 0.5
    vertex -4.86023 2.75435 0.5
    vertex -1.76373 4.75563 0.5
  endloop
endfacet
facet normal 0 0 1
  outer loop
    vertex -2.32645 -10.1519 0.5
    vertex 0.0666791 -9.2263 0.5
    vertex -1.66645 -6.92227 0.5
  endloop
endfacet
facet normal 0 -0 1
  outer loop
    vertex 0.0666791 -9.2263 0.5
    vertex 1.89267 -7.73659 0.5
    vertex -1.66645 -6.92227 0.5
  endloop
endfacet
facet normal 0 0 1
  outer loop
    vertex 0.0666791 -9.2263 0.5
    vertex -2.32645 -10.1519 0.5
    vertex 0.950477 -11.4941 0.5
  endloop
endfacet
facet normal 0 0 1
  outer loop
    vertex -9.31126 -1.23032 0.5
    vertex -9.36292 0.576207 0.5
    vertex -11.1082 0.375382 0.5
  endloop
endfacet
facet normal 0 0 1
  outer loop
    vertex -9.72585 2.55285 0.5
    vertex -9.36292 0.576207 0.5
    vertex -7.30635 0.606915 0.5
  endloop
endfacet
facet normal 0 0 1
  outer loop
    vertex -9.36292 0.576207 0.5
    vertex -9.72585 2.55285 0.5
    vertex -11.1082 0.375382 0.5
  endloop
endfacet
facet normal -0 0 1
  outer loop
    vertex -9.36292 0.576207 0.5
    vertex -9.31126 -1.23032 0.5
    vertex -7.30635 0.606915 0.5
  endloop
endfacet
facet normal 0 -0 1
  outer loop
    vertex 0.912624 4.36055 0.5
    vertex 1.51072 6.76212 0.5
    vertex -1.76373 4.75563 0.5
  endloop
endfacet
facet normal 0 0 1
  outer loop
    vertex 0.912624 4.36055 0.5
    vertex 0.335323 1.98611 0.5
    vertex 3.56818 3.93835 0.5
  endloop
endfacet
facet normal 0 -0 1
  outer loop
    vertex 0.335323 1.98611 0.5
    vertex 0.912624 4.36055 0.5
    vertex -1.76373 4.75563 0.5
  endloop
endfacet
facet normal 0 0 1
  outer loop
    vertex 1.51072 6.76212 0.5
    vertex 0.912624 4.36055 0.5
    vertex 3.56818 3.93835 0.5
  endloop
endfacet
facet normal -0 0 1
  outer loop
    vertex 5.17763 1.13467 0.5
    vertex 7.43901 0.557038 0.5
    vertex 7.9859 2.62049 0.5
  endloop
endfacet
facet normal 0 0 1
  outer loop
    vertex 9.48251 -0.27931 0.5
    vertex 7.43901 0.557038 0.5
    vertex 6.4655 -1.70851 0.5
  endloop
endfacet
facet normal -0 0 1
  outer loop
    vertex 7.43901 0.557038 0.5
    vertex 9.48251 -0.27931 0.5
    vertex 7.9859 2.62049 0.5
  endloop
endfacet
facet normal 0 0 1
  outer loop
    vertex 7.43901 0.557038 0.5
    vertex 5.17763 1.13467 0.5
    vertex 6.4655 -1.70851 0.5
  endloop
endfacet
facet normal 0 0 1
  outer loop
    vertex -4.86023 2.75435 0.5
    vertex -4.97436 0.410404 0.5
    vertex -2.61192 0.111973 0.5
  endloop
endfacet
facet normal 0 -0 1
  outer loop
    vertex -5.11893 -1.83162 0.5
    vertex -4.97436 0.410404 0.5
    vertex -7.30635 0.606915 0.5
  endloop
endfacet
facet normal 0 0 1
  outer loop
    vertex -4.97436 0.410404 0.5
    vertex -5.11893 -1.83162 0.5
    vertex -2.61192 0.111973 0.5
  endloop
endfacet
facet normal 0 -0 1
  outer loop
    vertex -4.97436 0.410404 0.5
    vertex -4.86023 2.75435 0.5
    vertex -7.30635 0.606915 0.5
  endloop
endfacet
facet normal 0 0 1
  outer loop
    vertex -0.248886 -0.282037 0.5
    vertex -0.773107 -2.49547 0.5
    vertex 2.05416 -0.730758 0.5
  endloop
endfacet
facet normal 0 -0 1
  outer loop
    vertex -0.248886 -0.282037 0.5
    vertex 0.335323 1.98611 0.5
    vertex -2.61192 0.111973 0.5
  endloop
endfacet
facet normal 0 0 1
  outer loop
    vertex 0.335323 1.98611 0.5
    vertex -0.248886 -0.282037 0.5
    vertex 2.05416 -0.730758 0.5
  endloop
endfacet
facet normal 0 -0 1
  outer loop
    vertex -0.773107 -2.49547 0.5
    vertex -0.248886 -0.282037 0.5
    vertex -2.61192 0.111973 0.5
  endloop
endfacet
facet normal 0 -0 1
  outer loop
    vertex 1.89267 -7.73659 0.5
    vertex 2.7217 -5.7574 0.5
    vertex 0.831611 -4.86162 0.5
  endloop
endfacet
facet normal 0 0 1
  outer loop
    vertex 3.55371 -3.6128 0.5
    vertex 2.7217 -5.7574 0.5
    vertex 4.60882 -6.81859 0.5
  endloop
endfacet
facet normal 0 -0 1
  outer loop
    vertex 2.7217 -5.7574 0.5
    vertex 3.55371 -3.6128 0.5
    vertex 0.831611 -4.86162 0.5
  endloop
endfacet
facet normal 0 0 1
  outer loop
    vertex 2.7217 -5.7574 0.5
    vertex 1.89267 -7.73659 0.5
    vertex 4.60882 -6.81859 0.5
  endloop
endfacet
facet normal 0 0 1
  outer loop
    vertex 3.96421 -8.60122 0.5
    vertex 1.89267 -7.73659 0.5
    vertex 3.43603 -10.2665 0.5
  endloop
endfacet
facet normal -0 0 1
  outer loop
    vertex 3.96421 -8.60122 0.5
    vertex 5.9193 -9.58321 0.5
    vertex 4.60882 -6.81859 0.5
  endloop
endfacet
facet normal 0 0 1
  outer loop
    vertex 5.9193 -9.58321 0.5
    vertex 3.96421 -8.60122 0.5
    vertex 3.43603 -10.2665 0.5
  endloop
endfacet
facet normal -0 0 1
  outer loop
    vertex 1.89267 -7.73659 0.5
    vertex 3.96421 -8.60122 0.5
    vertex 4.60882 -6.81859 0.5
  endloop
endfacet
facet normal -0 0 1
  outer loop
    vertex -2.9266 -2.06595 0.5
    vertex -0.773107 -2.49547 0.5
    vertex -2.61192 0.111973 0.5
  endloop
endfacet
facet normal 0 0 1
  outer loop
    vertex -2.9266 -2.06595 0.5
    vertex -5.11893 -1.83162 0.5
    vertex -3.20243 -4.04867 0.5
  endloop
endfacet
facet normal -0 0 1
  outer loop
    vertex -5.11893 -1.83162 0.5
    vertex -2.9266 -2.06595 0.5
    vertex -2.61192 0.111973 0.5
  endloop
endfacet
facet normal 0 0 1
  outer loop
    vertex -0.773107 -2.49547 0.5
    vertex -2.9266 -2.06595 0.5
    vertex -3.20243 -4.04867 0.5
  endloop
endfacet
facet normal 0 0 1
  outer loop
    vertex 5.15631 -11.2906 0.5
    vertex 4.30473 -13.2486 0.5
    vertex 6.96519 -12.0641 0.5
  endloop
endfacet
facet normal 0 -0 1
  outer loop
    vertex 5.15631 -11.2906 0.5
    vertex 5.9193 -9.58321 0.5
    vertex 3.43603 -10.2665 0.5
  endloop
endfacet
facet normal 0 0 1
  outer loop
    vertex 5.9193 -9.58321 0.5
    vertex 5.15631 -11.2906 0.5
    vertex 6.96519 -12.0641 0.5
  endloop
endfacet
facet normal 0 -0 1
  outer loop
    vertex 4.30473 -13.2486 0.5
    vertex 5.15631 -11.2906 0.5
    vertex 3.43603 -10.2665 0.5
  endloop
endfacet
facet normal 0 -0 1
  outer loop
    vertex -5.43014 -6.38917 0.5
    vertex -5.27219 -3.93036 0.5
    vertex -7.33725 -3.45198 0.5
  endloop
endfacet
facet normal 0 0 1
  outer loop
    vertex -5.11893 -1.83162 0.5
    vertex -5.27219 -3.93036 0.5
    vertex -3.20243 -4.04867 0.5
  endloop
endfacet
facet normal 0 -0 1
  outer loop
    vertex -5.27219 -3.93036 0.5
    vertex -5.11893 -1.83162 0.5
    vertex -7.33725 -3.45198 0.5
  endloop
endfacet
facet normal 0 0 1
  outer loop
    vertex -5.27219 -3.93036 0.5
    vertex -5.43014 -6.38917 0.5
    vertex -3.20243 -4.04867 0.5
  endloop
endfacet
facet normal -0 0 1
  outer loop
    vertex -0.773107 -2.49547 0.5
    vertex 1.41659 -2.92516 0.5
    vertex 2.05416 -0.730758 0.5
  endloop
endfacet
facet normal 0 0 1
  outer loop
    vertex 3.55371 -3.6128 0.5
    vertex 1.41659 -2.92516 0.5
    vertex 0.831611 -4.86162 0.5
  endloop
endfacet
facet normal -0 0 1
  outer loop
    vertex 1.41659 -2.92516 0.5
    vertex 3.55371 -3.6128 0.5
    vertex 2.05416 -0.730758 0.5
  endloop
endfacet
facet normal 0 0 1
  outer loop
    vertex 1.41659 -2.92516 0.5
    vertex -0.773107 -2.49547 0.5
    vertex 0.831611 -4.86162 0.5
  endloop
endfacet
facet normal 0 0 1
  outer loop
    vertex -0.773107 -2.49547 0.5
    vertex -1.2026 -4.58201 0.5
    vertex 0.831611 -4.86162 0.5
  endloop
endfacet
facet normal 0 -0 1
  outer loop
    vertex -1.66645 -6.92227 0.5
    vertex -1.2026 -4.58201 0.5
    vertex -3.20243 -4.04867 0.5
  endloop
endfacet
facet normal 0 0 1
  outer loop
    vertex -1.2026 -4.58201 0.5
    vertex -1.66645 -6.92227 0.5
    vertex 0.831611 -4.86162 0.5
  endloop
endfacet
facet normal 0 -0 1
  outer loop
    vertex -1.2026 -4.58201 0.5
    vertex -0.773107 -2.49547 0.5
    vertex -3.20243 -4.04867 0.5
  endloop
endfacet
facet normal -0 0 1
  outer loop
    vertex -9.31126 -1.23032 0.5
    vertex -7.26845 -1.47675 0.5
    vertex -7.30635 0.606915 0.5
  endloop
endfacet
facet normal 0 0 1
  outer loop
    vertex -5.11893 -1.83162 0.5
    vertex -7.26845 -1.47675 0.5
    vertex -7.33725 -3.45198 0.5
  endloop
endfacet
facet normal -0 -0 1
  outer loop
    vertex -7.26845 -1.47675 0.5
    vertex -5.11893 -1.83162 0.5
    vertex -7.30635 0.606915 0.5
  endloop
endfacet
facet normal 0 0 1
  outer loop
    vertex -7.26845 -1.47675 0.5
    vertex -9.31126 -1.23032 0.5
    vertex -7.33725 -3.45198 0.5
  endloop
endfacet
facet normal 0 0 1
  outer loop
    vertex -2.65491 10.0465 0.5
    vertex -4.77796 10.2689 0.5
    vertex -4.07815 7.75341 0.5
  endloop
endfacet
facet normal 0 0 1
  outer loop
    vertex -4.77796 10.2689 0.5
    vertex -6.58811 9.67535 0.5
    vertex -4.07815 7.75341 0.5
  endloop
endfacet
facet normal 0 0 1
  outer loop
    vertex 1.89267 -7.73659 0.5
    vertex 1.58646 -9.68087 0.5
    vertex 3.43603 -10.2665 0.5
  endloop
endfacet
facet normal 0 -0 1
  outer loop
    vertex 0.950477 -11.4941 0.5
    vertex 1.58646 -9.68087 0.5
    vertex 0.0666791 -9.2263 0.5
  endloop
endfacet
facet normal 0 0 1
  outer loop
    vertex 1.58646 -9.68087 0.5
    vertex 0.950477 -11.4941 0.5
    vertex 3.43603 -10.2665 0.5
  endloop
endfacet
facet normal 0 -0 1
  outer loop
    vertex 1.58646 -9.68087 0.5
    vertex 1.89267 -7.73659 0.5
    vertex 0.0666791 -9.2263 0.5
  endloop
endfacet
facet normal 0 -0 1
  outer loop
    vertex -9.60074 -3.68915 0.5
    vertex -9.31126 -1.23032 0.5
    vertex -11.7712 -2.53842 0.5
  endloop
endfacet
facet normal 0 -0 1
  outer loop
    vertex -10.9502 -5.45455 0.5
    vertex -9.60074 -3.68915 0.5
    vertex -11.7712 -2.53842 0.5
  endloop
endfacet
facet normal 0 0 1
  outer loop
    vertex -6.96519 12.0641 0.5
    vertex -4.77796 10.2689 0.5
    vertex -3.34416 11.8639 0.5
  endloop
endfacet
facet normal 0 -0 1
  outer loop
    vertex -6.58811 9.67535 0.5
    vertex -4.77796 10.2689 0.5
    vertex -6.96519 12.0641 0.5
  endloop
endfacet
facet normal -0 0 1
  outer loop
    vertex -4.77796 10.2689 0.5
    vertex -2.65491 10.0465 0.5
    vertex -3.34416 11.8639 0.5
  endloop
endfacet
facet normal 0 0 1
  outer loop
    vertex -9.31126 -1.23032 0.5
    vertex -9.60074 -3.68915 0.5
    vertex -7.33725 -3.45198 0.5
  endloop
endfacet
facet normal -0 0 1
  outer loop
    vertex -9.60074 -3.68915 0.5
    vertex -8.63382 -5.77045 0.5
    vertex -7.33725 -3.45198 0.5
  endloop
endfacet
facet normal 0 0 1
  outer loop
    vertex -8.63382 -5.77045 0.5
    vertex -9.60074 -3.68915 0.5
    vertex -10.9502 -5.45455 0.5
  endloop
endfacet
facet normal 0 0 1
  outer loop
    vertex -9.51253 -7.60159 0.5
    vertex -9.32125 -10.3523 0.5
    vertex -7.70803 -7.91143 0.5
  endloop
endfacet
facet normal 0 0 1
  outer loop
    vertex -8.63382 -5.77045 0.5
    vertex -9.51253 -7.60159 0.5
    vertex -7.70803 -7.91143 0.5
  endloop
endfacet
facet normal 0 -0 1
  outer loop
    vertex -11.2699 -8.18807 0.5
    vertex -10.9502 -5.45455 0.5
    vertex -12.726 -5.666 0.5
  endloop
endfacet
facet normal -0 0 1
  outer loop
    vertex -13.9304 -4.77847e-14 0.5
    vertex -11.7712 -2.53842 0.5
    vertex -11.1082 0.375382 0.5
  endloop
endfacet
facet normal 0 0 1
  outer loop
    vertex -11.7712 -2.53842 0.5
    vertex -9.31126 -1.23032 0.5
    vertex -11.1082 0.375382 0.5
  endloop
endfacet
facet normal 0 -0 1
  outer loop
    vertex 6.76592 -4.93522 0.5
    vertex 8.58764 -3.3088 0.5
    vertex 6.4655 -1.70851 0.5
  endloop
endfacet
facet normal 0 -0 1
  outer loop
    vertex 8.58764 -3.3088 0.5
    vertex 9.48251 -0.27931 0.5
    vertex 6.4655 -1.70851 0.5
  endloop
endfacet
facet normal 0 0 1
  outer loop
    vertex -11.7712 -2.53842 0.5
    vertex -13.9304 -4.77847e-14 0.5
    vertex -13.626 -2.89629 0.5
  endloop
endfacet
facet normal 0 -0 1
  outer loop
    vertex -12.726 -5.666 0.5
    vertex -11.7712 -2.53842 0.5
    vertex -13.626 -2.89629 0.5
  endloop
endfacet
facet normal 0 0 1
  outer loop
    vertex -11.7712 -2.53842 0.5
    vertex -12.726 -5.666 0.5
    vertex -10.9502 -5.45455 0.5
  endloop
endfacet
facet normal 0 0 1
  outer loop
    vertex 7.20091 -7.51725 0.5
    vertex 6.76592 -4.93522 0.5
    vertex 4.60882 -6.81859 0.5
  endloop
endfacet
facet normal 0 -0 1
  outer loop
    vertex 5.9193 -9.58321 0.5
    vertex 7.20091 -7.51725 0.5
    vertex 4.60882 -6.81859 0.5
  endloop
endfacet
facet normal 0 0 1
  outer loop
    vertex 1.51072 6.76212 0.5
    vertex 4.7104 6.85266 0.5
    vertex 4.36162 9.1918 0.5
  endloop
endfacet
facet normal 0 -0 1
  outer loop
    vertex 4.7104 6.85266 0.5
    vertex 7.02922 8.70643 0.5
    vertex 4.36162 9.1918 0.5
  endloop
endfacet
facet normal 0 0 1
  outer loop
    vertex 7.02922 8.70643 0.5
    vertex 4.7104 6.85266 0.5
    vertex 7.08224 5.66461 0.5
  endloop
endfacet
facet normal -0 0 1
  outer loop
    vertex -10.9464 4.84249 0.5
    vertex -9.72585 2.55285 0.5
    vertex -7.58741 4.89213 0.5
  endloop
endfacet
facet normal 0 0 1
  outer loop
    vertex -11.2699 8.18807 0.5
    vertex -9.38723 6.41001 0.5
    vertex -7.74519 7.71735 0.5
  endloop
endfacet
facet normal 0 0 1
  outer loop
    vertex -7.58741 4.89213 0.5
    vertex -9.38723 6.41001 0.5
    vertex -10.9464 4.84249 0.5
  endloop
endfacet
facet normal -0 0 1
  outer loop
    vertex -9.38723 6.41001 0.5
    vertex -7.58741 4.89213 0.5
    vertex -7.74519 7.71735 0.5
  endloop
endfacet
facet normal 0 0 1
  outer loop
    vertex -9.38723 6.41001 0.5
    vertex -11.2699 8.18807 0.5
    vertex -10.9464 4.84249 0.5
  endloop
endfacet
facet normal 0 -0 1
  outer loop
    vertex -6.06332 6.42105 0.5
    vertex -4.07815 7.75341 0.5
    vertex -7.74519 7.71735 0.5
  endloop
endfacet
facet normal 0 0 1
  outer loop
    vertex -6.06332 6.42105 0.5
    vertex -7.58741 4.89213 0.5
    vertex -4.84252 5.3213 0.5
  endloop
endfacet
facet normal 0 -0 1
  outer loop
    vertex -7.58741 4.89213 0.5
    vertex -6.06332 6.42105 0.5
    vertex -7.74519 7.71735 0.5
  endloop
endfacet
facet normal 0 0 1
  outer loop
    vertex -4.07815 7.75341 0.5
    vertex -6.06332 6.42105 0.5
    vertex -4.84252 5.3213 0.5
  endloop
endfacet
facet normal 0 0 1
  outer loop
    vertex 12.726 5.666 0.5
    vertex 10.9111 2.70186 0.5
    vertex 13.626 2.89629 0.5
  endloop
endfacet
facet normal -0 0 1
  outer loop
    vertex 10.9111 2.70186 0.5
    vertex 12.1483 -0.181958 0.5
    vertex 13.626 2.89629 0.5
  endloop
endfacet
facet normal -0 0 1
  outer loop
    vertex -11.2699 8.18807 0.5
    vertex -7.74519 7.71735 0.5
    vertex -9.32125 10.3523 0.5
  endloop
endfacet
facet normal 0 -0 1
  outer loop
    vertex -7.74519 7.71735 0.5
    vertex -6.58811 9.67535 0.5
    vertex -9.32125 10.3523 0.5
  endloop
endfacet
facet normal 0 0 1
  outer loop
    vertex 3.75132 11.3281 0.5
    vertex 6.96519 12.0641 0.5
    vertex 4.30473 13.2486 0.5
  endloop
endfacet
facet normal 0 0 1
  outer loop
    vertex -0.926749 11.2455 0.5
    vertex -2.65491 10.0465 0.5
    vertex -0.838836 8.79355 0.5
  endloop
endfacet
facet normal 0 0 1
  outer loop
    vertex 1.59184 9.91547 0.5
    vertex -0.926749 11.2455 0.5
    vertex -0.838836 8.79355 0.5
  endloop
endfacet
facet normal 0 0 1
  outer loop
    vertex 12.726 5.666 0.5
    vertex 9.65144 4.83995 0.5
    vertex 10.9111 2.70186 0.5
  endloop
endfacet
facet normal 0 0 1
  outer loop
    vertex 9.65144 4.83995 0.5
    vertex 7.9859 2.62049 0.5
    vertex 10.9111 2.70186 0.5
  endloop
endfacet
facet normal 0 0 1
  outer loop
    vertex 1.45612 13.8541 0.5
    vertex 1.53324 12.2208 0.5
    vertex 4.30473 13.2486 0.5
  endloop
endfacet
facet normal -0 0 1
  outer loop
    vertex 1.53324 12.2208 0.5
    vertex 3.75132 11.3281 0.5
    vertex 4.30473 13.2486 0.5
  endloop
endfacet
facet normal 0 -0 1
  outer loop
    vertex 1.59184 9.91547 0.5
    vertex 3.75132 11.3281 0.5
    vertex 1.53324 12.2208 0.5
  endloop
endfacet
facet normal 0 0 1
  outer loop
    vertex 1.53324 12.2208 0.5
    vertex -0.926749 11.2455 0.5
    vertex 1.59184 9.91547 0.5
  endloop
endfacet
endsolid Created by Gmsh
