solid Created by Gmsh
facet normal 0.993712 -0.111964 0
  outer loop
    vertex 13.5811 -3.0998 -0.5
    vertex 13.9304 0 -0.5
    vertex 13.9304 0 0.5
  endloop
endfacet
facet normal 0.993712 -0.111964 0
  outer loop
    vertex 13.5811 -3.0998 0.5
    vertex 13.5811 -3.0998 -0.5
    vertex 13.9304 0 0.5
  endloop
endfacet
facet normal 0.943883 -0.330279 0
  outer loop
    vertex 12.5508 -6.04417 -0.5
    vertex 13.5811 -3.0998 0.5
    vertex 12.5508 -6.04417 0.5
  endloop
endfacet
facet normal 0.943883 -0.330279 0
  outer loop
    vertex 12.5508 -6.04417 -0.5
    vertex 13.5811 -3.0998 -0.5
    vertex 13.5811 -3.0998 0.5
  endloop
endfacet
facet normal 0.846724 -0.532032 0
  outer loop
    vertex 10.8912 -8.68545 0.5
    vertex 10.8912 -8.68545 -0.5
    vertex 12.5508 -6.04417 -0.5
  endloop
endfacet
facet normal 0.846724 -0.532032 0
  outer loop
    vertex 10.8912 -8.68545 0.5
    vertex 12.5508 -6.04417 -0.5
    vertex 12.5508 -6.04417 0.5
  endloop
endfacet
facet normal 0.707107 -0.707107 0
  outer loop
    vertex 8.68545 -10.8912 -0.5
    vertex 10.8912 -8.68545 0.5
    vertex 8.68545 -10.8912 0.5
  endloop
endfacet
facet normal 0.707107 -0.707107 0
  outer loop
    vertex 8.68545 -10.8912 -0.5
    vertex 10.8912 -8.68545 -0.5
    vertex 10.8912 -8.68545 0.5
  endloop
endfacet
facet normal 0.532032 -0.846724 0
  outer loop
    vertex 6.04417 -12.5508 0.5
    vertex 6.04417 -12.5508 -0.5
    vertex 8.68545 -10.8912 -0.5
  endloop
endfacet
facet normal 0.532032 -0.846724 0
  outer loop
    vertex 6.04417 -12.5508 0.5
    vertex 8.68545 -10.8912 -0.5
    vertex 8.68545 -10.8912 0.5
  endloop
endfacet
facet normal 0.330279 -0.943883 0
  outer loop
    vertex 3.0998 -13.5811 0.5
    vertex 6.04417 -12.5508 -0.5
    vertex 6.04417 -12.5508 0.5
  endloop
endfacet
facet normal 0.330279 -0.943883 0
  outer loop
    vertex 3.0998 -13.5811 -0.5
    vertex 6.04417 -12.5508 -0.5
    vertex 3.0998 -13.5811 0.5
  endloop
endfacet
facet normal 0.111964 -0.993712 0
  outer loop
    vertex -3.9677e-14 -13.9304 -0.5
    vertex 3.0998 -13.5811 -0.5
    vertex 3.0998 -13.5811 0.5
  endloop
endfacet
facet normal 0.111964 -0.993712 0
  outer loop
    vertex -3.9677e-14 -13.9304 0.5
    vertex -3.9677e-14 -13.9304 -0.5
    vertex 3.0998 -13.5811 0.5
  endloop
endfacet
facet normal -0.111964 -0.993712 0
  outer loop
    vertex -3.0998 -13.5811 0.5
    vertex -3.9677e-14 -13.9304 -0.5
    vertex -3.9677e-14 -13.9304 0.5
  endloop
endfacet
facet normal -0.111964 -0.993712 0
  outer loop
    vertex -3.0998 -13.5811 -0.5
    vertex -3.9677e-14 -13.9304 -0.5
    vertex -3.0998 -13.5811 0.5
  endloop
endfacet
facet normal -0.330279 -0.943883 0
  outer loop
    vertex -6.04417 -12.5508 -0.5
    vertex -3.0998 -13.5811 -0.5
    vertex -3.0998 -13.5811 0.5
  endloop
endfacet
facet normal -0.330279 -0.943883 -0
  outer loop
    vertex -6.04417 -12.5508 0.5
    vertex -6.04417 -12.5508 -0.5
    vertex -3.0998 -13.5811 0.5
  endloop
endfacet
facet normal -0.532032 -0.846724 0
  outer loop
    vertex -8.68545 -10.8912 -0.5
    vertex -6.04417 -12.5508 -0.5
    vertex -6.04417 -12.5508 0.5
  endloop
endfacet
facet normal -0.532032 -0.846724 -0
  outer loop
    vertex -8.68545 -10.8912 0.5
    vertex -8.68545 -10.8912 -0.5
    vertex -6.04417 -12.5508 0.5
  endloop
endfacet
facet normal -0.707107 -0.707107 0
  outer loop
    vertex -10.8912 -8.68545 0.5
    vertex -8.68545 -10.8912 -0.5
    vertex -8.68545 -10.8912 0.5
  endloop
endfacet
facet normal -0.707107 -0.707107 0
  outer loop
    vertex -10.8912 -8.68545 -0.5
    vertex -8.68545 -10.8912 -0.5
    vertex -10.8912 -8.68545 0.5
  endloop
endfacet
facet normal -0.846724 -0.532032 0
  outer loop
    vertex -12.5508 -6.04417 -0.5
    vertex -10.8912 -8.68545 -0.5
    vertex -10.8912 -8.68545 0.5
  endloop
endfacet
facet normal -0.846724 -0.532032 -0
  outer loop
    vertex -12.5508 -6.04417 0.5
    vertex -12.5508 -6.04417 -0.5
    vertex -10.8912 -8.68545 0.5
  endloop
endfacet
facet normal -0.943883 -0.330279 0
  outer loop
    vertex -13.5811 -3.0998 0.5
    vertex -12.5508 -6.04417 -0.5
    vertex -12.5508 -6.04417 0.5
  endloop
endfacet
facet normal -0.943883 -0.330279 0
  outer loop
    vertex -13.5811 -3.0998 -0.5
    vertex -12.5508 -6.04417 -0.5
    vertex -13.5811 -3.0998 0.5
  endloop
endfacet
facet normal -0.993712 -0.111964 0
  outer loop
    vertex -13.9304 6.97557e-14 0.5
    vertex -13.5811 -3.0998 -0.5
    vertex -13.5811 -3.0998 0.5
  endloop
endfacet
facet normal -0.993712 -0.111964 0
  outer loop
    vertex -13.9304 6.97557e-14 -0.5
    vertex -13.5811 -3.0998 -0.5
    vertex -13.9304 6.97557e-14 0.5
  endloop
endfacet
facet normal -0.993712 0.111964 0
  outer loop
    vertex -13.5811 3.0998 -0.5
    vertex -13.9304 6.97557e-14 0.5
    vertex -13.5811 3.0998 0.5
  endloop
endfacet
facet normal -0.993712 0.111964 0
  outer loop
    vertex -13.5811 3.0998 -0.5
    vertex -13.9304 6.97557e-14 -0.5
    vertex -13.9304 6.97557e-14 0.5
  endloop
endfacet
facet normal -0.943883 0.330279 0
  outer loop
    vertex -12.5508 6.04417 0.5
    vertex -13.5811 3.0998 -0.5
    vertex -13.5811 3.0998 0.5
  endloop
endfacet
facet normal -0.943883 0.330279 0
  outer loop
    vertex -12.5508 6.04417 0.5
    vertex -12.5508 6.04417 -0.5
    vertex -13.5811 3.0998 -0.5
  endloop
endfacet
facet normal 0.993712 0.111964 0
  outer loop
    vertex 13.9304 0 0.5
    vertex 13.9304 0 -0.5
    vertex 13.5811 3.0998 -0.5
  endloop
endfacet
facet normal 0.993712 0.111964 0
  outer loop
    vertex 13.9304 0 0.5
    vertex 13.5811 3.0998 -0.5
    vertex 13.5811 3.0998 0.5
  endloop
endfacet
facet normal 0.943883 0.330279 0
  outer loop
    vertex 13.5811 3.0998 -0.5
    vertex 12.5508 6.04417 -0.5
    vertex 12.5508 6.04417 0.5
  endloop
endfacet
facet normal 0.943883 0.330279 -0
  outer loop
    vertex 13.5811 3.0998 -0.5
    vertex 12.5508 6.04417 0.5
    vertex 13.5811 3.0998 0.5
  endloop
endfacet
facet normal 0.846724 0.532032 0
  outer loop
    vertex 12.5508 6.04417 0.5
    vertex 12.5508 6.04417 -0.5
    vertex 10.8912 8.68545 0.5
  endloop
endfacet
facet normal 0.846724 0.532032 0
  outer loop
    vertex 12.5508 6.04417 -0.5
    vertex 10.8912 8.68545 -0.5
    vertex 10.8912 8.68545 0.5
  endloop
endfacet
facet normal 0.707107 0.707107 0
  outer loop
    vertex 10.8912 8.68545 0.5
    vertex 10.8912 8.68545 -0.5
    vertex 8.68545 10.8912 0.5
  endloop
endfacet
facet normal 0.707107 0.707107 0
  outer loop
    vertex 10.8912 8.68545 -0.5
    vertex 8.68545 10.8912 -0.5
    vertex 8.68545 10.8912 0.5
  endloop
endfacet
facet normal 0.532032 0.846724 0
  outer loop
    vertex 8.68545 10.8912 0.5
    vertex 8.68545 10.8912 -0.5
    vertex 6.04417 12.5508 0.5
  endloop
endfacet
facet normal 0.532032 0.846724 0
  outer loop
    vertex 8.68545 10.8912 -0.5
    vertex 6.04417 12.5508 -0.5
    vertex 6.04417 12.5508 0.5
  endloop
endfacet
facet normal 0.330279 0.943883 0
  outer loop
    vertex 6.04417 12.5508 0.5
    vertex 6.04417 12.5508 -0.5
    vertex 3.0998 13.5811 0.5
  endloop
endfacet
facet normal 0.330279 0.943883 0
  outer loop
    vertex 6.04417 12.5508 -0.5
    vertex 3.0998 13.5811 -0.5
    vertex 3.0998 13.5811 0.5
  endloop
endfacet
facet normal 0.111964 0.993712 -0
  outer loop
    vertex 3.0998 13.5811 -0.5
    vertex 7.03932e-15 13.9304 -0.5
    vertex 3.0998 13.5811 0.5
  endloop
endfacet
facet normal 0.111964 0.993712 0
  outer loop
    vertex 3.0998 13.5811 0.5
    vertex 7.03932e-15 13.9304 -0.5
    vertex 7.03932e-15 13.9304 0.5
  endloop
endfacet
facet normal -0.111964 0.993712 0
  outer loop
    vertex 7.03932e-15 13.9304 0.5
    vertex 7.03932e-15 13.9304 -0.5
    vertex -3.0998 13.5811 -0.5
  endloop
endfacet
facet normal -0.111964 0.993712 0
  outer loop
    vertex 7.03932e-15 13.9304 0.5
    vertex -3.0998 13.5811 -0.5
    vertex -3.0998 13.5811 0.5
  endloop
endfacet
facet normal -0.330279 0.943883 0
  outer loop
    vertex -3.0998 13.5811 0.5
    vertex -3.0998 13.5811 -0.5
    vertex -6.04417 12.5508 0.5
  endloop
endfacet
facet normal -0.330279 0.943883 0
  outer loop
    vertex -3.0998 13.5811 -0.5
    vertex -6.04417 12.5508 -0.5
    vertex -6.04417 12.5508 0.5
  endloop
endfacet
facet normal -0.532032 0.846724 0
  outer loop
    vertex -6.04417 12.5508 0.5
    vertex -6.04417 12.5508 -0.5
    vertex -8.68545 10.8912 0.5
  endloop
endfacet
facet normal -0.532032 0.846724 0
  outer loop
    vertex -6.04417 12.5508 -0.5
    vertex -8.68545 10.8912 -0.5
    vertex -8.68545 10.8912 0.5
  endloop
endfacet
facet normal -0.707107 0.707107 0
  outer loop
    vertex -8.68545 10.8912 0.5
    vertex -8.68545 10.8912 -0.5
    vertex -10.8912 8.68545 -0.5
  endloop
endfacet
facet normal -0.707107 0.707107 0
  outer loop
    vertex -8.68545 10.8912 0.5
    vertex -10.8912 8.68545 -0.5
    vertex -10.8912 8.68545 0.5
  endloop
endfacet
facet normal -0.846724 0.532032 0
  outer loop
    vertex -10.8912 8.68545 0.5
    vertex -10.8912 8.68545 -0.5
    vertex -12.5508 6.04417 -0.5
  endloop
endfacet
facet normal -0.846724 0.532032 0
  outer loop
    vertex -10.8912 8.68545 0.5
    vertex -12.5508 6.04417 -0.5
    vertex -12.5508 6.04417 0.5
  endloop
endfacet
facet normal 0 0 -1
  outer loop
    vertex 2.16222 4.85708 -0.5
    vertex -1.05268 4.89357 -0.5
    vertex 0.355482 7.31318 -0.5
  endloop
endfacet
facet normal -0 0 -1
  outer loop
    vertex 10.1019 3.72673 -0.5
    vertex 8.11823 1.50859 -0.5
    vertex 6.14749 3.7687 -0.5
  endloop
endfacet
facet normal -0 0 -1
  outer loop
    vertex -9.16354 5.90778 -0.5
    vertex -10.4198 3.24414 -0.5
    vertex -12.5508 6.04417 -0.5
  endloop
endfacet
facet normal -0 0 -1
  outer loop
    vertex -10.4198 3.24414 -0.5
    vertex -13.5811 3.0998 -0.5
    vertex -12.5508 6.04417 -0.5
  endloop
endfacet
facet normal 0 0 -1
  outer loop
    vertex -6.35081 -8.63651 -0.5
    vertex -3.36337 -10.2769 -0.5
    vertex -6.04417 -12.5508 -0.5
  endloop
endfacet
facet normal 0 -0 -1
  outer loop
    vertex -3.36337 -10.2769 -0.5
    vertex -3.0998 -13.5811 -0.5
    vertex -6.04417 -12.5508 -0.5
  endloop
endfacet
facet normal 0 0 -1
  outer loop
    vertex -4.07845 3.68544 -0.5
    vertex -6.06505 6.51987 -0.5
    vertex -3.18695 7.07343 -0.5
  endloop
endfacet
facet normal 0 0 -1
  outer loop
    vertex 8.68545 10.8912 -0.5
    vertex 8.61854 6.8738 -0.5
    vertex 6.32482 9.37653 -0.5
  endloop
endfacet
facet normal 0 0 -1
  outer loop
    vertex 7.89273 -7.79621 -0.5
    vertex 10.8912 -8.68545 -0.5
    vertex 8.68545 -10.8912 -0.5
  endloop
endfacet
facet normal 0 0 -1
  outer loop
    vertex -10.4198 3.24414 -0.5
    vertex -11.2213 0.693286 -0.5
    vertex -13.5811 3.0998 -0.5
  endloop
endfacet
facet normal -0 0 -1
  outer loop
    vertex -11.2213 0.693286 -0.5
    vertex -13.9304 6.97557e-14 -0.5
    vertex -13.5811 3.0998 -0.5
  endloop
endfacet
facet normal 0 -0 -1
  outer loop
    vertex 8.68545 10.8912 -0.5
    vertex 10.8912 8.68545 -0.5
    vertex 8.61854 6.8738 -0.5
  endloop
endfacet
facet normal 0 0 -1
  outer loop
    vertex -3.34553 0.18993 -0.5
    vertex -0.592292 2.42512 -0.5
    vertex 0.101367 -0.668876 -0.5
  endloop
endfacet
facet normal -0 0 -1
  outer loop
    vertex 2.16222 4.85708 -0.5
    vertex -0.592292 2.42512 -0.5
    vertex -1.05268 4.89357 -0.5
  endloop
endfacet
facet normal 0 0 -1
  outer loop
    vertex -11.2213 0.693286 -0.5
    vertex -11.6226 -1.64037 -0.5
    vertex -13.9304 6.97557e-14 -0.5
  endloop
endfacet
facet normal 0 0 -1
  outer loop
    vertex -3.18695 7.07343 -0.5
    vertex -1.39271 10.18 -0.5
    vertex 0.355482 7.31318 -0.5
  endloop
endfacet
facet normal 0 0 -1
  outer loop
    vertex 1.59283 -10.5589 -0.5
    vertex -3.9677e-14 -13.9304 -0.5
    vertex -1.0559 -11.2981 -0.5
  endloop
endfacet
facet normal 0 -0 -1
  outer loop
    vertex -9.16354 5.90778 -0.5
    vertex -7.35885 3.60995 -0.5
    vertex -10.4198 3.24414 -0.5
  endloop
endfacet
facet normal 0 0 -1
  outer loop
    vertex -9.16354 5.90778 -0.5
    vertex -6.06505 6.51987 -0.5
    vertex -7.35885 3.60995 -0.5
  endloop
endfacet
facet normal -0 0 -1
  outer loop
    vertex -11.6226 -1.64037 -0.5
    vertex -13.5811 -3.0998 -0.5
    vertex -13.9304 6.97557e-14 -0.5
  endloop
endfacet
facet normal -0 0 -1
  outer loop
    vertex -5.38313 -2.29129 -0.5
    vertex -7.79574 -5.16698 -0.5
    vertex -8.8046 -1.65642 -0.5
  endloop
endfacet
facet normal -0 0 -1
  outer loop
    vertex 13.5811 3.0998 -0.5
    vertex 11.4935 0.525914 -0.5
    vertex 10.1019 3.72673 -0.5
  endloop
endfacet
facet normal 0 -0 -1
  outer loop
    vertex 13.5811 3.0998 -0.5
    vertex 13.9304 0 -0.5
    vertex 11.4935 0.525914 -0.5
  endloop
endfacet
facet normal 0 0 -1
  outer loop
    vertex -8.8046 -1.65642 -0.5
    vertex -6.242 0.703658 -0.5
    vertex -5.38313 -2.29129 -0.5
  endloop
endfacet
facet normal -0 0 -1
  outer loop
    vertex 2.92258 9.76987 -0.5
    vertex 0.355482 7.31318 -0.5
    vertex -1.39271 10.18 -0.5
  endloop
endfacet
facet normal 0 0 -1
  outer loop
    vertex -8.68545 10.8912 -0.5
    vertex -5.19265 9.88383 -0.5
    vertex -7.87439 8.39029 -0.5
  endloop
endfacet
facet normal 0 0 -1
  outer loop
    vertex 7.41736 -4.40974 -0.5
    vertex 6.95074 -1.65144 -0.5
    vertex 9.64855 -2.07984 -0.5
  endloop
endfacet
facet normal 0 0 -1
  outer loop
    vertex -7.87439 8.39029 -0.5
    vertex -5.19265 9.88383 -0.5
    vertex -6.06505 6.51987 -0.5
  endloop
endfacet
facet normal 0 0 -1
  outer loop
    vertex 7.41736 -4.40974 -0.5
    vertex 4.49386 -3.52096 -0.5
    vertex 6.95074 -1.65144 -0.5
  endloop
endfacet
facet normal 0 0 -1
  outer loop
    vertex 0.101367 -0.668876 -0.5
    vertex 2.65931 1.59358 -0.5
    vertex 2.64994 -1.32631 -0.5
  endloop
endfacet
facet normal 0 0 -1
  outer loop
    vertex 7.89273 -7.79621 -0.5
    vertex 5.53786 -6.7119 -0.5
    vertex 7.41736 -4.40974 -0.5
  endloop
endfacet
facet normal 0 0 -1
  outer loop
    vertex -6.04417 -12.5508 -0.5
    vertex -8.68545 -10.8912 -0.5
    vertex -6.35081 -8.63651 -0.5
  endloop
endfacet
facet normal 0 0 -1
  outer loop
    vertex 5.53786 -6.7119 -0.5
    vertex 4.49386 -3.52096 -0.5
    vertex 7.41736 -4.40974 -0.5
  endloop
endfacet
facet normal -0 0 -1
  outer loop
    vertex 2.65931 1.59358 -0.5
    vertex 0.101367 -0.668876 -0.5
    vertex -0.592292 2.42512 -0.5
  endloop
endfacet
facet normal -0 0 -1
  outer loop
    vertex 8.68545 10.8912 -0.5
    vertex 6.32482 9.37653 -0.5
    vertex 6.04417 12.5508 -0.5
  endloop
endfacet
facet normal 0 -0 -1
  outer loop
    vertex 2.65931 1.59358 -0.5
    vertex 5.16993 0.0620272 -0.5
    vertex 2.64994 -1.32631 -0.5
  endloop
endfacet
facet normal 0 0 -1
  outer loop
    vertex -6.242 0.703658 -0.5
    vertex -3.34553 0.18993 -0.5
    vertex -5.38313 -2.29129 -0.5
  endloop
endfacet
facet normal 0 0 -1
  outer loop
    vertex 6.95074 -1.65144 -0.5
    vertex 8.11823 1.50859 -0.5
    vertex 9.64855 -2.07984 -0.5
  endloop
endfacet
facet normal 0 0 -1
  outer loop
    vertex 7.89273 -7.79621 -0.5
    vertex 10.3303 -5.35254 -0.5
    vertex 10.8912 -8.68545 -0.5
  endloop
endfacet
facet normal 0 0 -1
  outer loop
    vertex -8.68545 10.8912 -0.5
    vertex -6.04417 12.5508 -0.5
    vertex -5.19265 9.88383 -0.5
  endloop
endfacet
facet normal 0 0 -1
  outer loop
    vertex 6.32482 9.37653 -0.5
    vertex 2.92258 9.76987 -0.5
    vertex 6.04417 12.5508 -0.5
  endloop
endfacet
facet normal -0 0 -1
  outer loop
    vertex 6.04417 12.5508 -0.5
    vertex 2.92258 9.76987 -0.5
    vertex 3.0998 13.5811 -0.5
  endloop
endfacet
facet normal 0 0 -1
  outer loop
    vertex -3.0998 -13.5811 -0.5
    vertex -3.36337 -10.2769 -0.5
    vertex -1.0559 -11.2981 -0.5
  endloop
endfacet
facet normal 0 0 -1
  outer loop
    vertex 0.806498 -4.26641 -0.5
    vertex 2.64994 -1.32631 -0.5
    vertex 4.49386 -3.52096 -0.5
  endloop
endfacet
facet normal 0 -0 -1
  outer loop
    vertex -11.6226 -1.64037 -0.5
    vertex -10.8744 -4.3822 -0.5
    vertex -13.5811 -3.0998 -0.5
  endloop
endfacet
facet normal -0 0 -1
  outer loop
    vertex 5.10107 -9.89472 -0.5
    vertex 1.59283 -10.5589 -0.5
    vertex 2.85463 -7.17282 -0.5
  endloop
endfacet
facet normal 0 0 -1
  outer loop
    vertex -0.404353 -8.08398 -0.5
    vertex -1.0559 -11.2981 -0.5
    vertex -3.36337 -10.2769 -0.5
  endloop
endfacet
facet normal 0 0 -1
  outer loop
    vertex -5.19265 9.88383 -0.5
    vertex -3.0998 13.5811 -0.5
    vertex -1.39271 10.18 -0.5
  endloop
endfacet
facet normal -0 0 -1
  outer loop
    vertex 6.95074 -1.65144 -0.5
    vertex 4.49386 -3.52096 -0.5
    vertex 5.16993 0.0620272 -0.5
  endloop
endfacet
facet normal 0 0 -1
  outer loop
    vertex -0.592292 2.42512 -0.5
    vertex 2.16222 4.85708 -0.5
    vertex 2.65931 1.59358 -0.5
  endloop
endfacet
facet normal 0 0 -1
  outer loop
    vertex 10.3303 -5.35254 -0.5
    vertex 13.5811 -3.0998 -0.5
    vertex 12.5508 -6.04417 -0.5
  endloop
endfacet
facet normal 0 -0 -1
  outer loop
    vertex 10.1019 3.72673 -0.5
    vertex 11.4935 0.525914 -0.5
    vertex 8.11823 1.50859 -0.5
  endloop
endfacet
facet normal -0 0 -1
  outer loop
    vertex 11.4935 0.525914 -0.5
    vertex 9.64855 -2.07984 -0.5
    vertex 8.11823 1.50859 -0.5
  endloop
endfacet
facet normal -0 0 -1
  outer loop
    vertex 13.9304 0 -0.5
    vertex 13.5811 -3.0998 -0.5
    vertex 11.4935 0.525914 -0.5
  endloop
endfacet
facet normal 0 -0 -1
  outer loop
    vertex -0.404353 -8.08398 -0.5
    vertex 1.59283 -10.5589 -0.5
    vertex -1.0559 -11.2981 -0.5
  endloop
endfacet
facet normal 0 0 -1
  outer loop
    vertex 10.1019 3.72673 -0.5
    vertex 8.61854 6.8738 -0.5
    vertex 12.5508 6.04417 -0.5
  endloop
endfacet
facet normal 0 0 -1
  outer loop
    vertex 8.61854 6.8738 -0.5
    vertex 10.8912 8.68545 -0.5
    vertex 12.5508 6.04417 -0.5
  endloop
endfacet
facet normal 0 -0 -1
  outer loop
    vertex -8.68545 10.8912 -0.5
    vertex -7.87439 8.39029 -0.5
    vertex -10.8912 8.68545 -0.5
  endloop
endfacet
facet normal 0 0 -1
  outer loop
    vertex -7.35885 3.60995 -0.5
    vertex -4.07845 3.68544 -0.5
    vertex -6.242 0.703658 -0.5
  endloop
endfacet
facet normal 0 0 -1
  outer loop
    vertex -0.404353 -8.08398 -0.5
    vertex 0.806498 -4.26641 -0.5
    vertex 2.85463 -7.17282 -0.5
  endloop
endfacet
facet normal -0 0 -1
  outer loop
    vertex -1.8252 -5.62052 -0.5
    vertex -3.28636 -7.55203 -0.5
    vertex -4.51294 -5.36402 -0.5
  endloop
endfacet
facet normal 0 0 -1
  outer loop
    vertex 2.85463 -7.17282 -0.5
    vertex 1.59283 -10.5589 -0.5
    vertex -0.404353 -8.08398 -0.5
  endloop
endfacet
facet normal 0 0 -1
  outer loop
    vertex 5.10107 -9.89472 -0.5
    vertex 2.85463 -7.17282 -0.5
    vertex 5.53786 -6.7119 -0.5
  endloop
endfacet
facet normal 0 0 -1
  outer loop
    vertex -0.404353 -8.08398 -0.5
    vertex -1.8252 -5.62052 -0.5
    vertex 0.806498 -4.26641 -0.5
  endloop
endfacet
facet normal 0 0 -1
  outer loop
    vertex -11.6226 -1.64037 -0.5
    vertex -11.2213 0.693286 -0.5
    vertex -8.8046 -1.65642 -0.5
  endloop
endfacet
facet normal 0 0 -1
  outer loop
    vertex 10.8912 -8.68545 -0.5
    vertex 10.3303 -5.35254 -0.5
    vertex 12.5508 -6.04417 -0.5
  endloop
endfacet
facet normal -0 0 -1
  outer loop
    vertex -8.8046 -1.65642 -0.5
    vertex -10.8744 -4.3822 -0.5
    vertex -11.6226 -1.64037 -0.5
  endloop
endfacet
facet normal 0 -0 -1
  outer loop
    vertex -4.51294 -5.36402 -0.5
    vertex -3.28636 -7.55203 -0.5
    vertex -6.35081 -8.63651 -0.5
  endloop
endfacet
facet normal 0 0 -1
  outer loop
    vertex -6.35081 -8.63651 -0.5
    vertex -7.79574 -5.16698 -0.5
    vertex -4.51294 -5.36402 -0.5
  endloop
endfacet
facet normal 0 0 -1
  outer loop
    vertex 9.64855 -2.07984 -0.5
    vertex 11.4935 0.525914 -0.5
    vertex 13.5811 -3.0998 -0.5
  endloop
endfacet
facet normal 0 0 -1
  outer loop
    vertex 5.16993 0.0620272 -0.5
    vertex 4.49386 -3.52096 -0.5
    vertex 2.64994 -1.32631 -0.5
  endloop
endfacet
facet normal 0 0 -1
  outer loop
    vertex 5.16993 0.0620272 -0.5
    vertex 8.11823 1.50859 -0.5
    vertex 6.95074 -1.65144 -0.5
  endloop
endfacet
facet normal 0 0 -1
  outer loop
    vertex -5.19265 9.88383 -0.5
    vertex -6.04417 12.5508 -0.5
    vertex -3.0998 13.5811 -0.5
  endloop
endfacet
facet normal 0 0 -1
  outer loop
    vertex 4.86509 6.99912 -0.5
    vertex 2.92258 9.76987 -0.5
    vertex 6.32482 9.37653 -0.5
  endloop
endfacet
facet normal -0 0 -1
  outer loop
    vertex 13.5811 -3.0998 -0.5
    vertex 10.3303 -5.35254 -0.5
    vertex 9.64855 -2.07984 -0.5
  endloop
endfacet
facet normal 0 -0 -1
  outer loop
    vertex -1.0559 -11.2981 -0.5
    vertex -3.9677e-14 -13.9304 -0.5
    vertex -3.0998 -13.5811 -0.5
  endloop
endfacet
facet normal 0 0 -1
  outer loop
    vertex -7.79574 -5.16698 -0.5
    vertex -5.38313 -2.29129 -0.5
    vertex -4.51294 -5.36402 -0.5
  endloop
endfacet
facet normal 0 0 -1
  outer loop
    vertex -4.51294 -5.36402 -0.5
    vertex -5.38313 -2.29129 -0.5
    vertex -2.43639 -2.91677 -0.5
  endloop
endfacet
facet normal 0 0 -1
  outer loop
    vertex -1.8252 -5.62052 -0.5
    vertex -4.51294 -5.36402 -0.5
    vertex -2.43639 -2.91677 -0.5
  endloop
endfacet
facet normal 0 0 -1
  outer loop
    vertex -12.5508 6.04417 -0.5
    vertex -10.8912 8.68545 -0.5
    vertex -9.16354 5.90778 -0.5
  endloop
endfacet
facet normal 0 0 -1
  outer loop
    vertex -10.8912 -8.68545 -0.5
    vertex -10.8744 -4.3822 -0.5
    vertex -7.79574 -5.16698 -0.5
  endloop
endfacet
facet normal 0 0 -1
  outer loop
    vertex -10.8744 -4.3822 -0.5
    vertex -10.8912 -8.68545 -0.5
    vertex -12.5508 -6.04417 -0.5
  endloop
endfacet
facet normal 0 -0 -1
  outer loop
    vertex 12.5508 6.04417 -0.5
    vertex 13.5811 3.0998 -0.5
    vertex 10.1019 3.72673 -0.5
  endloop
endfacet
facet normal 0 -0 -1
  outer loop
    vertex -7.79574 -5.16698 -0.5
    vertex -6.35081 -8.63651 -0.5
    vertex -10.8912 -8.68545 -0.5
  endloop
endfacet
facet normal 0 0 -1
  outer loop
    vertex -9.16354 5.90778 -0.5
    vertex -7.87439 8.39029 -0.5
    vertex -6.06505 6.51987 -0.5
  endloop
endfacet
facet normal 0 0 -1
  outer loop
    vertex -9.16354 5.90778 -0.5
    vertex -10.8912 8.68545 -0.5
    vertex -7.87439 8.39029 -0.5
  endloop
endfacet
facet normal 0 0 -1
  outer loop
    vertex -6.35081 -8.63651 -0.5
    vertex -8.68545 -10.8912 -0.5
    vertex -10.8912 -8.68545 -0.5
  endloop
endfacet
facet normal 0 -0 -1
  outer loop
    vertex 6.14749 3.7687 -0.5
    vertex 8.11823 1.50859 -0.5
    vertex 5.16993 0.0620272 -0.5
  endloop
endfacet
facet normal 0 0 -1
  outer loop
    vertex -3.0998 13.5811 -0.5
    vertex 7.03932e-15 13.9304 -0.5
    vertex -1.39271 10.18 -0.5
  endloop
endfacet
facet normal 0 -0 -1
  outer loop
    vertex 1.59283 -10.5589 -0.5
    vertex 3.0998 -13.5811 -0.5
    vertex -3.9677e-14 -13.9304 -0.5
  endloop
endfacet
facet normal 0 0 -1
  outer loop
    vertex 2.65931 1.59358 -0.5
    vertex 6.14749 3.7687 -0.5
    vertex 5.16993 0.0620272 -0.5
  endloop
endfacet
facet normal 0 0 -1
  outer loop
    vertex -2.43639 -2.91677 -0.5
    vertex -5.38313 -2.29129 -0.5
    vertex -3.34553 0.18993 -0.5
  endloop
endfacet
facet normal -0 0 -1
  outer loop
    vertex -4.07845 3.68544 -0.5
    vertex -7.35885 3.60995 -0.5
    vertex -6.06505 6.51987 -0.5
  endloop
endfacet
facet normal 0 0 -1
  outer loop
    vertex 10.1019 3.72673 -0.5
    vertex 6.14749 3.7687 -0.5
    vertex 8.61854 6.8738 -0.5
  endloop
endfacet
facet normal 0 -0 -1
  outer loop
    vertex 5.53786 -6.7119 -0.5
    vertex 7.89273 -7.79621 -0.5
    vertex 5.10107 -9.89472 -0.5
  endloop
endfacet
facet normal 0 0 -1
  outer loop
    vertex 5.10107 -9.89472 -0.5
    vertex 7.89273 -7.79621 -0.5
    vertex 8.68545 -10.8912 -0.5
  endloop
endfacet
facet normal -0 0 -1
  outer loop
    vertex 8.68545 -10.8912 -0.5
    vertex 6.04417 -12.5508 -0.5
    vertex 5.10107 -9.89472 -0.5
  endloop
endfacet
facet normal 0 0 -1
  outer loop
    vertex -3.34553 0.18993 -0.5
    vertex 0.101367 -0.668876 -0.5
    vertex -2.43639 -2.91677 -0.5
  endloop
endfacet
facet normal -0 0 -1
  outer loop
    vertex -3.18695 7.07343 -0.5
    vertex -6.06505 6.51987 -0.5
    vertex -5.19265 9.88383 -0.5
  endloop
endfacet
facet normal 0 0 -1
  outer loop
    vertex -5.19265 9.88383 -0.5
    vertex -1.39271 10.18 -0.5
    vertex -3.18695 7.07343 -0.5
  endloop
endfacet
facet normal 0 -0 -1
  outer loop
    vertex 4.86509 6.99912 -0.5
    vertex 6.14749 3.7687 -0.5
    vertex 2.16222 4.85708 -0.5
  endloop
endfacet
facet normal 0 -0 -1
  outer loop
    vertex -1.8252 -5.62052 -0.5
    vertex -0.404353 -8.08398 -0.5
    vertex -3.28636 -7.55203 -0.5
  endloop
endfacet
facet normal 0 -0 -1
  outer loop
    vertex 6.32482 9.37653 -0.5
    vertex 8.61854 6.8738 -0.5
    vertex 4.86509 6.99912 -0.5
  endloop
endfacet
facet normal 0 0 -1
  outer loop
    vertex -3.36337 -10.2769 -0.5
    vertex -6.35081 -8.63651 -0.5
    vertex -3.28636 -7.55203 -0.5
  endloop
endfacet
facet normal 0 0 -1
  outer loop
    vertex 2.92258 9.76987 -0.5
    vertex -1.39271 10.18 -0.5
    vertex 1.41374 11.8246 -0.5
  endloop
endfacet
facet normal 0 0 -1
  outer loop
    vertex 2.16222 4.85708 -0.5
    vertex 6.14749 3.7687 -0.5
    vertex 2.65931 1.59358 -0.5
  endloop
endfacet
facet normal -0 0 -1
  outer loop
    vertex 5.53786 -6.7119 -0.5
    vertex 2.85463 -7.17282 -0.5
    vertex 4.49386 -3.52096 -0.5
  endloop
endfacet
facet normal 0 -0 -1
  outer loop
    vertex 5.10107 -9.89472 -0.5
    vertex 6.04417 -12.5508 -0.5
    vertex 3.0998 -13.5811 -0.5
  endloop
endfacet
facet normal 0 0 -1
  outer loop
    vertex 3.0998 -13.5811 -0.5
    vertex 1.59283 -10.5589 -0.5
    vertex 5.10107 -9.89472 -0.5
  endloop
endfacet
facet normal 0 0 -1
  outer loop
    vertex 7.03932e-15 13.9304 -0.5
    vertex 3.0998 13.5811 -0.5
    vertex 1.41374 11.8246 -0.5
  endloop
endfacet
facet normal 0 0 -1
  outer loop
    vertex 7.41736 -4.40974 -0.5
    vertex 10.3303 -5.35254 -0.5
    vertex 7.89273 -7.79621 -0.5
  endloop
endfacet
facet normal 0 -0 -1
  outer loop
    vertex 9.64855 -2.07984 -0.5
    vertex 10.3303 -5.35254 -0.5
    vertex 7.41736 -4.40974 -0.5
  endloop
endfacet
facet normal 0 0 -1
  outer loop
    vertex -8.8046 -1.65642 -0.5
    vertex -8.96933 1.11257 -0.5
    vertex -6.242 0.703658 -0.5
  endloop
endfacet
facet normal 0 0 -1
  outer loop
    vertex -11.2213 0.693286 -0.5
    vertex -8.96933 1.11257 -0.5
    vertex -8.8046 -1.65642 -0.5
  endloop
endfacet
facet normal -0 0 -1
  outer loop
    vertex 2.64994 -1.32631 -0.5
    vertex 0.806498 -4.26641 -0.5
    vertex 0.101367 -0.668876 -0.5
  endloop
endfacet
facet normal 0 0 -1
  outer loop
    vertex -10.4198 3.24414 -0.5
    vertex -7.35885 3.60995 -0.5
    vertex -8.96933 1.11257 -0.5
  endloop
endfacet
facet normal -0 0 -1
  outer loop
    vertex -8.96933 1.11257 -0.5
    vertex -11.2213 0.693286 -0.5
    vertex -10.4198 3.24414 -0.5
  endloop
endfacet
facet normal 0 0 -1
  outer loop
    vertex 0.806498 -4.26641 -0.5
    vertex 4.49386 -3.52096 -0.5
    vertex 2.85463 -7.17282 -0.5
  endloop
endfacet
facet normal 0 0 -1
  outer loop
    vertex -8.96933 1.11257 -0.5
    vertex -7.35885 3.60995 -0.5
    vertex -6.242 0.703658 -0.5
  endloop
endfacet
facet normal 0 0 -1
  outer loop
    vertex -6.242 0.703658 -0.5
    vertex -4.07845 3.68544 -0.5
    vertex -3.34553 0.18993 -0.5
  endloop
endfacet
facet normal 0 0 -1
  outer loop
    vertex -2.43639 -2.91677 -0.5
    vertex 0.806498 -4.26641 -0.5
    vertex -1.8252 -5.62052 -0.5
  endloop
endfacet
facet normal 0 0 -1
  outer loop
    vertex -3.34553 0.18993 -0.5
    vertex -4.07845 3.68544 -0.5
    vertex -0.592292 2.42512 -0.5
  endloop
endfacet
facet normal 0 -0 -1
  outer loop
    vertex 0.101367 -0.668876 -0.5
    vertex 0.806498 -4.26641 -0.5
    vertex -2.43639 -2.91677 -0.5
  endloop
endfacet
facet normal 0 0 -1
  outer loop
    vertex 4.86509 6.99912 -0.5
    vertex 8.61854 6.8738 -0.5
    vertex 6.14749 3.7687 -0.5
  endloop
endfacet
facet normal 0 -0 -1
  outer loop
    vertex -3.28636 -7.55203 -0.5
    vertex -0.404353 -8.08398 -0.5
    vertex -3.36337 -10.2769 -0.5
  endloop
endfacet
facet normal 0 -0 -1
  outer loop
    vertex -1.05268 4.89357 -0.5
    vertex -0.592292 2.42512 -0.5
    vertex -4.07845 3.68544 -0.5
  endloop
endfacet
facet normal 0 0 -1
  outer loop
    vertex 1.41374 11.8246 -0.5
    vertex 3.0998 13.5811 -0.5
    vertex 2.92258 9.76987 -0.5
  endloop
endfacet
facet normal -0 0 -1
  outer loop
    vertex 1.41374 11.8246 -0.5
    vertex -1.39271 10.18 -0.5
    vertex 7.03932e-15 13.9304 -0.5
  endloop
endfacet
facet normal 0 -0 -1
  outer loop
    vertex -8.8046 -1.65642 -0.5
    vertex -7.79574 -5.16698 -0.5
    vertex -10.8744 -4.3822 -0.5
  endloop
endfacet
facet normal 0 0 -1
  outer loop
    vertex -12.5508 -6.04417 -0.5
    vertex -13.5811 -3.0998 -0.5
    vertex -10.8744 -4.3822 -0.5
  endloop
endfacet
facet normal 0 0 -1
  outer loop
    vertex -1.05268 4.89357 -0.5
    vertex -3.18695 7.07343 -0.5
    vertex 0.355482 7.31318 -0.5
  endloop
endfacet
facet normal 0 0 -1
  outer loop
    vertex -4.07845 3.68544 -0.5
    vertex -3.18695 7.07343 -0.5
    vertex -1.05268 4.89357 -0.5
  endloop
endfacet
facet normal 0 0 -1
  outer loop
    vertex 2.16222 4.85708 -0.5
    vertex 0.355482 7.31318 -0.5
    vertex 2.68043 7.10511 -0.5
  endloop
endfacet
facet normal 0 -0 -1
  outer loop
    vertex 2.92258 9.76987 -0.5
    vertex 4.86509 6.99912 -0.5
    vertex 2.68043 7.10511 -0.5
  endloop
endfacet
facet normal 0 0 -1
  outer loop
    vertex 2.68043 7.10511 -0.5
    vertex 0.355482 7.31318 -0.5
    vertex 2.92258 9.76987 -0.5
  endloop
endfacet
facet normal 0 -0 -1
  outer loop
    vertex 2.68043 7.10511 -0.5
    vertex 4.86509 6.99912 -0.5
    vertex 2.16222 4.85708 -0.5
  endloop
endfacet
facet normal 0 0 1
  outer loop
    vertex 3.37903 -0.49883 0.5
    vertex 2.80751 2.26469 0.5
    vertex 0.976723 -0.0470566 0.5
  endloop
endfacet
facet normal 0 0 1
  outer loop
    vertex 0.845776 10.8856 0.5
    vertex 2.87095 7.89982 0.5
    vertex 5.01988 10.1588 0.5
  endloop
endfacet
facet normal 0 -0 1
  outer loop
    vertex 0.976723 -0.0470566 0.5
    vertex 2.80751 2.26469 0.5
    vertex -0.304592 2.25401 0.5
  endloop
endfacet
facet normal 0 0 1
  outer loop
    vertex 3.75306 -9.87543 0.5
    vertex 3.73283 -5.97329 0.5
    vertex 1.25069 -7.7651 0.5
  endloop
endfacet
facet normal 0 0 1
  outer loop
    vertex 3.75306 -9.87543 0.5
    vertex 1.25069 -7.7651 0.5
    vertex 1.45957 -10.9861 0.5
  endloop
endfacet
facet normal 0 -0 1
  outer loop
    vertex -0.547206 7.917 0.5
    vertex 0.845776 10.8856 0.5
    vertex -2.64797 10.9491 0.5
  endloop
endfacet
facet normal -0 0 1
  outer loop
    vertex 6.93128 -8.39616 0.5
    vertex 10.8912 -8.68545 0.5
    vertex 8.87252 -5.03485 0.5
  endloop
endfacet
facet normal 0 0 1
  outer loop
    vertex 8.87252 -5.03485 0.5
    vertex 10.8912 -8.68545 0.5
    vertex 12.5508 -6.04417 0.5
  endloop
endfacet
facet normal 0 0 1
  outer loop
    vertex 1.25069 -7.7651 0.5
    vertex 0.216104 -4.73595 0.5
    vertex -1.92318 -6.73382 0.5
  endloop
endfacet
facet normal -0 0 1
  outer loop
    vertex -2.64797 10.9491 0.5
    vertex 0.845776 10.8856 0.5
    vertex 7.03932e-15 13.9304 0.5
  endloop
endfacet
facet normal 0 0 1
  outer loop
    vertex -3.67185 1.84093 0.5
    vertex -7.45736 3.29796 0.5
    vertex -6.44231 0.443059 0.5
  endloop
endfacet
facet normal 0 0 1
  outer loop
    vertex -1.21878 -1.23631 0.5
    vertex -3.09682 -3.96379 0.5
    vertex 0.216104 -4.73595 0.5
  endloop
endfacet
facet normal 0 0 1
  outer loop
    vertex 5.01988 10.1588 0.5
    vertex 5.79222 6.83384 0.5
    vertex 7.80079 8.46921 0.5
  endloop
endfacet
facet normal 0 0 1
  outer loop
    vertex -3.67185 1.84093 0.5
    vertex -6.44231 0.443059 0.5
    vertex -4.75617 -1.44092 0.5
  endloop
endfacet
facet normal 0 0 1
  outer loop
    vertex -1.21878 -1.23631 0.5
    vertex 0.216104 -4.73595 0.5
    vertex 2.10516 -2.56141 0.5
  endloop
endfacet
facet normal 0 0 1
  outer loop
    vertex 10.8912 -8.68545 0.5
    vertex 6.93128 -8.39616 0.5
    vertex 8.68545 -10.8912 0.5
  endloop
endfacet
facet normal -0 0 1
  outer loop
    vertex 5.01988 10.1588 0.5
    vertex 7.80079 8.46921 0.5
    vertex 8.68545 10.8912 0.5
  endloop
endfacet
facet normal 0 -0 1
  outer loop
    vertex -7.45736 3.29796 0.5
    vertex -4.81772 5.00158 0.5
    vertex -7.57521 7.37568 0.5
  endloop
endfacet
facet normal -0 0 1
  outer loop
    vertex -11.0211 2.49942 0.5
    vertex -8.72473 0.648065 0.5
    vertex -7.45736 3.29796 0.5
  endloop
endfacet
facet normal -0 0 1
  outer loop
    vertex -8.72473 0.648065 0.5
    vertex -6.44231 0.443059 0.5
    vertex -7.45736 3.29796 0.5
  endloop
endfacet
facet normal 0 0 1
  outer loop
    vertex 3.73283 -5.97329 0.5
    vertex 3.75306 -9.87543 0.5
    vertex 6.93128 -8.39616 0.5
  endloop
endfacet
facet normal 0 0 1
  outer loop
    vertex 13.5811 -3.0998 0.5
    vertex 11.3795 -2.40661 0.5
    vertex 12.5508 -6.04417 0.5
  endloop
endfacet
facet normal 0 0 1
  outer loop
    vertex 6.93128 -8.39616 0.5
    vertex 6.04417 -12.5508 0.5
    vertex 8.68545 -10.8912 0.5
  endloop
endfacet
facet normal 0 0 1
  outer loop
    vertex 11.3795 -2.40661 0.5
    vertex 8.87252 -5.03485 0.5
    vertex 12.5508 -6.04417 0.5
  endloop
endfacet
facet normal 0 -0 1
  outer loop
    vertex 8.87252 -5.03485 0.5
    vertex 11.3795 -2.40661 0.5
    vertex 8.29255 -1.26339 0.5
  endloop
endfacet
facet normal -0 0 1
  outer loop
    vertex -0.925926 -9.37596 0.5
    vertex 1.45957 -10.9861 0.5
    vertex 1.25069 -7.7651 0.5
  endloop
endfacet
facet normal -0 0 1
  outer loop
    vertex 0.845776 10.8856 0.5
    vertex 5.01988 10.1588 0.5
    vertex 3.0998 13.5811 0.5
  endloop
endfacet
facet normal -0 0 1
  outer loop
    vertex -13.5811 3.0998 0.5
    vertex -11.0211 2.49942 0.5
    vertex -12.5508 6.04417 0.5
  endloop
endfacet
facet normal 0 0 1
  outer loop
    vertex 3.7089 5.42091 0.5
    vertex 1.18801 5.07181 0.5
    vertex 2.80751 2.26469 0.5
  endloop
endfacet
facet normal 0 0 1
  outer loop
    vertex 2.80751 2.26469 0.5
    vertex 1.18801 5.07181 0.5
    vertex -0.304592 2.25401 0.5
  endloop
endfacet
facet normal 0 0 1
  outer loop
    vertex -7.57521 7.37568 0.5
    vertex -10.8912 8.68545 0.5
    vertex -9.9172 5.28687 0.5
  endloop
endfacet
facet normal 0 0 1
  outer loop
    vertex -9.9172 5.28687 0.5
    vertex -10.8912 8.68545 0.5
    vertex -12.5508 6.04417 0.5
  endloop
endfacet
facet normal 0 0 1
  outer loop
    vertex 10.8912 8.68545 0.5
    vertex 8.24194 5.71373 0.5
    vertex 10.7734 4.45349 0.5
  endloop
endfacet
facet normal 0 0 1
  outer loop
    vertex 10.8912 8.68545 0.5
    vertex 10.7734 4.45349 0.5
    vertex 12.5508 6.04417 0.5
  endloop
endfacet
facet normal 0 0 1
  outer loop
    vertex 5.86783 3.66515 0.5
    vertex 5.67468 0.638631 0.5
    vertex 8.32615 2.17523 0.5
  endloop
endfacet
facet normal -0 0 1
  outer loop
    vertex 8.32615 2.17523 0.5
    vertex 11.0493 1.00257 0.5
    vertex 10.7734 4.45349 0.5
  endloop
endfacet
facet normal 0 0 1
  outer loop
    vertex 8.68545 10.8912 0.5
    vertex 6.04417 12.5508 0.5
    vertex 5.01988 10.1588 0.5
  endloop
endfacet
facet normal 0 0 1
  outer loop
    vertex 8.24194 5.71373 0.5
    vertex 5.86783 3.66515 0.5
    vertex 8.32615 2.17523 0.5
  endloop
endfacet
facet normal 0 0 1
  outer loop
    vertex 8.24194 5.71373 0.5
    vertex 8.32615 2.17523 0.5
    vertex 10.7734 4.45349 0.5
  endloop
endfacet
facet normal 0 0 1
  outer loop
    vertex 5.86783 3.66515 0.5
    vertex 3.7089 5.42091 0.5
    vertex 2.80751 2.26469 0.5
  endloop
endfacet
facet normal 0 0 1
  outer loop
    vertex 5.86783 3.66515 0.5
    vertex 2.80751 2.26469 0.5
    vertex 5.67468 0.638631 0.5
  endloop
endfacet
facet normal 0 0 1
  outer loop
    vertex 1.45957 -10.9861 0.5
    vertex -0.925926 -9.37596 0.5
    vertex -1.32629 -11.5571 0.5
  endloop
endfacet
facet normal 0 0 1
  outer loop
    vertex 1.45957 -10.9861 0.5
    vertex -1.32629 -11.5571 0.5
    vertex -3.9677e-14 -13.9304 0.5
  endloop
endfacet
facet normal 0 0 1
  outer loop
    vertex -6.52697 -3.94798 0.5
    vertex -7.85502 -1.58781 0.5
    vertex -10.0262 -3.6438 0.5
  endloop
endfacet
facet normal 0 0 1
  outer loop
    vertex -10.9862 -0.88096 0.5
    vertex -10.0262 -3.6438 0.5
    vertex -7.85502 -1.58781 0.5
  endloop
endfacet
facet normal 0 0 1
  outer loop
    vertex -3.51988 -9.99758 0.5
    vertex -4.98914 -6.8639 0.5
    vertex -6.33065 -9.3203 0.5
  endloop
endfacet
facet normal 0 -0 1
  outer loop
    vertex -6.33065 -9.3203 0.5
    vertex -4.98914 -6.8639 0.5
    vertex -8.57149 -7.05669 0.5
  endloop
endfacet
facet normal 0 0 1
  outer loop
    vertex 3.0998 -13.5811 0.5
    vertex 1.45957 -10.9861 0.5
    vertex -3.9677e-14 -13.9304 0.5
  endloop
endfacet
facet normal -0 0 1
  outer loop
    vertex 8.29255 -1.26339 0.5
    vertex 11.3795 -2.40661 0.5
    vertex 11.0493 1.00257 0.5
  endloop
endfacet
facet normal 0 0 1
  outer loop
    vertex -1.32629 -11.5571 0.5
    vertex -3.51988 -9.99758 0.5
    vertex -3.0998 -13.5811 0.5
  endloop
endfacet
facet normal 0 0 1
  outer loop
    vertex -3.51988 -9.99758 0.5
    vertex -6.04417 -12.5508 0.5
    vertex -3.0998 -13.5811 0.5
  endloop
endfacet
facet normal -0 0 1
  outer loop
    vertex -3.51988 -9.99758 0.5
    vertex -1.32629 -11.5571 0.5
    vertex -0.925926 -9.37596 0.5
  endloop
endfacet
facet normal 0 -0 1
  outer loop
    vertex -4.81772 5.00158 0.5
    vertex -3.80747 7.79264 0.5
    vertex -7.57521 7.37568 0.5
  endloop
endfacet
facet normal 0 0 1
  outer loop
    vertex -4.75617 -1.44092 0.5
    vertex -7.85502 -1.58781 0.5
    vertex -6.52697 -3.94798 0.5
  endloop
endfacet
facet normal 0 0 1
  outer loop
    vertex -4.75617 -1.44092 0.5
    vertex -6.52697 -3.94798 0.5
    vertex -3.09682 -3.96379 0.5
  endloop
endfacet
facet normal 0 0 1
  outer loop
    vertex -6.52697 -3.94798 0.5
    vertex -4.98914 -6.8639 0.5
    vertex -3.09682 -3.96379 0.5
  endloop
endfacet
facet normal 0 0 1
  outer loop
    vertex -11.0211 2.49942 0.5
    vertex -13.9304 6.97557e-14 0.5
    vertex -10.9862 -0.88096 0.5
  endloop
endfacet
facet normal 0 0 1
  outer loop
    vertex 8.29255 -1.26339 0.5
    vertex 5.67468 0.638631 0.5
    vertex 5.54508 -2.87704 0.5
  endloop
endfacet
facet normal 0 0 1
  outer loop
    vertex -8.72473 0.648065 0.5
    vertex -11.0211 2.49942 0.5
    vertex -10.9862 -0.88096 0.5
  endloop
endfacet
facet normal -0 0 1
  outer loop
    vertex -13.5811 -3.0998 0.5
    vertex -10.0262 -3.6438 0.5
    vertex -10.9862 -0.88096 0.5
  endloop
endfacet
facet normal 0 -0 1
  outer loop
    vertex -13.5811 -3.0998 0.5
    vertex -10.9862 -0.88096 0.5
    vertex -13.9304 6.97557e-14 0.5
  endloop
endfacet
facet normal 0 0 1
  outer loop
    vertex -4.98914 -6.8639 0.5
    vertex -6.52697 -3.94798 0.5
    vertex -8.57149 -7.05669 0.5
  endloop
endfacet
facet normal 0 0 1
  outer loop
    vertex 1.18801 5.07181 0.5
    vertex 3.7089 5.42091 0.5
    vertex 2.87095 7.89982 0.5
  endloop
endfacet
facet normal 0 0 1
  outer loop
    vertex -6.33065 -9.3203 0.5
    vertex -8.57149 -7.05669 0.5
    vertex -8.68545 -10.8912 0.5
  endloop
endfacet
facet normal 0 -0 1
  outer loop
    vertex -1.85297 4.93841 0.5
    vertex -0.547206 7.917 0.5
    vertex -3.80747 7.79264 0.5
  endloop
endfacet
facet normal 0 0 1
  outer loop
    vertex 2.87095 7.89982 0.5
    vertex -0.547206 7.917 0.5
    vertex 1.18801 5.07181 0.5
  endloop
endfacet
facet normal -0 0 1
  outer loop
    vertex -0.547206 7.917 0.5
    vertex 2.87095 7.89982 0.5
    vertex 0.845776 10.8856 0.5
  endloop
endfacet
facet normal 0 -0 1
  outer loop
    vertex -8.68545 -10.8912 0.5
    vertex -8.57149 -7.05669 0.5
    vertex -10.8912 -8.68545 0.5
  endloop
endfacet
facet normal -0 0 1
  outer loop
    vertex -12.5508 -6.04417 0.5
    vertex -8.57149 -7.05669 0.5
    vertex -10.0262 -3.6438 0.5
  endloop
endfacet
facet normal 0 0 1
  outer loop
    vertex -0.547206 7.917 0.5
    vertex -1.85297 4.93841 0.5
    vertex 1.18801 5.07181 0.5
  endloop
endfacet
facet normal 0 0 1
  outer loop
    vertex 13.5811 3.0998 0.5
    vertex 10.7734 4.45349 0.5
    vertex 11.0493 1.00257 0.5
  endloop
endfacet
facet normal -0 0 1
  outer loop
    vertex 10.7734 4.45349 0.5
    vertex 13.5811 3.0998 0.5
    vertex 12.5508 6.04417 0.5
  endloop
endfacet
facet normal -0 0 1
  outer loop
    vertex 11.0493 1.00257 0.5
    vertex 13.9304 0 0.5
    vertex 13.5811 3.0998 0.5
  endloop
endfacet
facet normal -0 0 1
  outer loop
    vertex -4.81772 5.00158 0.5
    vertex -1.85297 4.93841 0.5
    vertex -3.80747 7.79264 0.5
  endloop
endfacet
facet normal 0 0 1
  outer loop
    vertex -8.57149 -7.05669 0.5
    vertex -12.5508 -6.04417 0.5
    vertex -10.8912 -8.68545 0.5
  endloop
endfacet
facet normal 0 0 1
  outer loop
    vertex -0.547206 7.917 0.5
    vertex -2.64797 10.9491 0.5
    vertex -3.80747 7.79264 0.5
  endloop
endfacet
facet normal 0 -0 1
  outer loop
    vertex 5.01988 10.1588 0.5
    vertex 6.04417 12.5508 0.5
    vertex 3.0998 13.5811 0.5
  endloop
endfacet
facet normal -0 0 1
  outer loop
    vertex 5.54508 -2.87704 0.5
    vertex 8.87252 -5.03485 0.5
    vertex 8.29255 -1.26339 0.5
  endloop
endfacet
facet normal 0 0 1
  outer loop
    vertex -3.80747 7.79264 0.5
    vertex -5.88293 9.98593 0.5
    vertex -7.57521 7.37568 0.5
  endloop
endfacet
facet normal 0 0 1
  outer loop
    vertex -10.0262 -3.6438 0.5
    vertex -8.57149 -7.05669 0.5
    vertex -6.52697 -3.94798 0.5
  endloop
endfacet
facet normal 0 -0 1
  outer loop
    vertex -3.80747 7.79264 0.5
    vertex -2.64797 10.9491 0.5
    vertex -5.88293 9.98593 0.5
  endloop
endfacet
facet normal 0 0 1
  outer loop
    vertex -7.57521 7.37568 0.5
    vertex -8.68545 10.8912 0.5
    vertex -10.8912 8.68545 0.5
  endloop
endfacet
facet normal 0 -0 1
  outer loop
    vertex -5.88293 9.98593 0.5
    vertex -2.64797 10.9491 0.5
    vertex -6.04417 12.5508 0.5
  endloop
endfacet
facet normal 0 0 1
  outer loop
    vertex -13.9304 6.97557e-14 0.5
    vertex -11.0211 2.49942 0.5
    vertex -13.5811 3.0998 0.5
  endloop
endfacet
facet normal 0 -0 1
  outer loop
    vertex 1.25069 -7.7651 0.5
    vertex 3.73283 -5.97329 0.5
    vertex 0.216104 -4.73595 0.5
  endloop
endfacet
facet normal 0 0 1
  outer loop
    vertex 2.10516 -2.56141 0.5
    vertex 0.216104 -4.73595 0.5
    vertex 3.73283 -5.97329 0.5
  endloop
endfacet
facet normal 0 0 1
  outer loop
    vertex 2.10516 -2.56141 0.5
    vertex 3.73283 -5.97329 0.5
    vertex 5.54508 -2.87704 0.5
  endloop
endfacet
facet normal 0 -0 1
  outer loop
    vertex -1.92318 -6.73382 0.5
    vertex 0.216104 -4.73595 0.5
    vertex -3.09682 -3.96379 0.5
  endloop
endfacet
facet normal 0 0 1
  outer loop
    vertex 2.10516 -2.56141 0.5
    vertex 0.976723 -0.0470566 0.5
    vertex -1.21878 -1.23631 0.5
  endloop
endfacet
facet normal 0 0 1
  outer loop
    vertex 0.976723 -0.0470566 0.5
    vertex 2.10516 -2.56141 0.5
    vertex 3.37903 -0.49883 0.5
  endloop
endfacet
facet normal 0 0 1
  outer loop
    vertex 0.976723 -0.0470566 0.5
    vertex -0.304592 2.25401 0.5
    vertex -1.21878 -1.23631 0.5
  endloop
endfacet
facet normal 0 -0 1
  outer loop
    vertex 0.845776 10.8856 0.5
    vertex 3.0998 13.5811 0.5
    vertex 7.03932e-15 13.9304 0.5
  endloop
endfacet
facet normal 0 0 1
  outer loop
    vertex 7.03932e-15 13.9304 0.5
    vertex -3.0998 13.5811 0.5
    vertex -2.64797 10.9491 0.5
  endloop
endfacet
facet normal -0 0 1
  outer loop
    vertex 3.7089 5.42091 0.5
    vertex 5.86783 3.66515 0.5
    vertex 5.79222 6.83384 0.5
  endloop
endfacet
facet normal 0 0 1
  outer loop
    vertex 5.79222 6.83384 0.5
    vertex 2.87095 7.89982 0.5
    vertex 3.7089 5.42091 0.5
  endloop
endfacet
facet normal -0 0 1
  outer loop
    vertex 2.87095 7.89982 0.5
    vertex 5.79222 6.83384 0.5
    vertex 5.01988 10.1588 0.5
  endloop
endfacet
facet normal 0 0 1
  outer loop
    vertex 5.79222 6.83384 0.5
    vertex 5.86783 3.66515 0.5
    vertex 8.24194 5.71373 0.5
  endloop
endfacet
facet normal 0 0 1
  outer loop
    vertex -1.92318 -6.73382 0.5
    vertex -3.09682 -3.96379 0.5
    vertex -4.98914 -6.8639 0.5
  endloop
endfacet
facet normal -0 0 1
  outer loop
    vertex 1.45957 -10.9861 0.5
    vertex 3.0998 -13.5811 0.5
    vertex 3.75306 -9.87543 0.5
  endloop
endfacet
facet normal 0 0 1
  outer loop
    vertex -7.57521 7.37568 0.5
    vertex -9.9172 5.28687 0.5
    vertex -7.45736 3.29796 0.5
  endloop
endfacet
facet normal 0 -0 1
  outer loop
    vertex -11.0211 2.49942 0.5
    vertex -9.9172 5.28687 0.5
    vertex -12.5508 6.04417 0.5
  endloop
endfacet
facet normal 0 0 1
  outer loop
    vertex -1.21878 -1.23631 0.5
    vertex -4.75617 -1.44092 0.5
    vertex -3.09682 -3.96379 0.5
  endloop
endfacet
facet normal 0 0 1
  outer loop
    vertex -9.9172 5.28687 0.5
    vertex -11.0211 2.49942 0.5
    vertex -7.45736 3.29796 0.5
  endloop
endfacet
facet normal 0 0 1
  outer loop
    vertex 8.87252 -5.03485 0.5
    vertex 6.3284 -5.60194 0.5
    vertex 6.93128 -8.39616 0.5
  endloop
endfacet
facet normal 0 0 1
  outer loop
    vertex -1.92318 -6.73382 0.5
    vertex -3.51988 -9.99758 0.5
    vertex -0.925926 -9.37596 0.5
  endloop
endfacet
facet normal 0 -0 1
  outer loop
    vertex -3.51988 -9.99758 0.5
    vertex -1.92318 -6.73382 0.5
    vertex -4.98914 -6.8639 0.5
  endloop
endfacet
facet normal 0 0 1
  outer loop
    vertex -10.0262 -3.6438 0.5
    vertex -13.5811 -3.0998 0.5
    vertex -12.5508 -6.04417 0.5
  endloop
endfacet
facet normal 0 0 1
  outer loop
    vertex -1.85297 4.93841 0.5
    vertex -4.81772 5.00158 0.5
    vertex -3.67185 1.84093 0.5
  endloop
endfacet
facet normal 0 0 1
  outer loop
    vertex -0.304592 2.25401 0.5
    vertex -1.85297 4.93841 0.5
    vertex -3.67185 1.84093 0.5
  endloop
endfacet
facet normal -0 0 1
  outer loop
    vertex -1.85297 4.93841 0.5
    vertex -0.304592 2.25401 0.5
    vertex 1.18801 5.07181 0.5
  endloop
endfacet
facet normal 0 0 1
  outer loop
    vertex 3.37903 -0.49883 0.5
    vertex 2.10516 -2.56141 0.5
    vertex 5.54508 -2.87704 0.5
  endloop
endfacet
facet normal 0 0 1
  outer loop
    vertex 5.67468 0.638631 0.5
    vertex 3.37903 -0.49883 0.5
    vertex 5.54508 -2.87704 0.5
  endloop
endfacet
facet normal 0 0 1
  outer loop
    vertex 11.0493 1.00257 0.5
    vertex 11.3795 -2.40661 0.5
    vertex 13.9304 0 0.5
  endloop
endfacet
facet normal 0 0 1
  outer loop
    vertex -3.67185 1.84093 0.5
    vertex -4.75617 -1.44092 0.5
    vertex -1.21878 -1.23631 0.5
  endloop
endfacet
facet normal -0 0 1
  outer loop
    vertex 11.3795 -2.40661 0.5
    vertex 13.5811 -3.0998 0.5
    vertex 13.9304 0 0.5
  endloop
endfacet
facet normal 0 0 1
  outer loop
    vertex -0.304592 2.25401 0.5
    vertex -3.67185 1.84093 0.5
    vertex -1.21878 -1.23631 0.5
  endloop
endfacet
facet normal 0 0 1
  outer loop
    vertex -8.72473 0.648065 0.5
    vertex -10.9862 -0.88096 0.5
    vertex -7.85502 -1.58781 0.5
  endloop
endfacet
facet normal 0 0 1
  outer loop
    vertex 11.0493 1.00257 0.5
    vertex 8.32615 2.17523 0.5
    vertex 8.29255 -1.26339 0.5
  endloop
endfacet
facet normal 0 0 1
  outer loop
    vertex 8.32615 2.17523 0.5
    vertex 5.67468 0.638631 0.5
    vertex 8.29255 -1.26339 0.5
  endloop
endfacet
facet normal 0 0 1
  outer loop
    vertex 1.25069 -7.7651 0.5
    vertex -1.92318 -6.73382 0.5
    vertex -0.925926 -9.37596 0.5
  endloop
endfacet
facet normal -0 0 1
  outer loop
    vertex -8.68545 10.8912 0.5
    vertex -5.88293 9.98593 0.5
    vertex -6.04417 12.5508 0.5
  endloop
endfacet
facet normal 0 0 1
  outer loop
    vertex -6.44231 0.443059 0.5
    vertex -8.72473 0.648065 0.5
    vertex -7.85502 -1.58781 0.5
  endloop
endfacet
facet normal 0 0 1
  outer loop
    vertex -5.88293 9.98593 0.5
    vertex -8.68545 10.8912 0.5
    vertex -7.57521 7.37568 0.5
  endloop
endfacet
facet normal -0 0 1
  outer loop
    vertex -6.04417 12.5508 0.5
    vertex -2.64797 10.9491 0.5
    vertex -3.0998 13.5811 0.5
  endloop
endfacet
facet normal 0 0 1
  outer loop
    vertex 3.73283 -5.97329 0.5
    vertex 6.3284 -5.60194 0.5
    vertex 5.54508 -2.87704 0.5
  endloop
endfacet
facet normal 0 0 1
  outer loop
    vertex -4.75617 -1.44092 0.5
    vertex -6.44231 0.443059 0.5
    vertex -7.85502 -1.58781 0.5
  endloop
endfacet
facet normal 0 0 1
  outer loop
    vertex -4.81772 5.00158 0.5
    vertex -7.45736 3.29796 0.5
    vertex -3.67185 1.84093 0.5
  endloop
endfacet
facet normal -0 0 1
  outer loop
    vertex 3.75306 -9.87543 0.5
    vertex 6.04417 -12.5508 0.5
    vertex 6.93128 -8.39616 0.5
  endloop
endfacet
facet normal 0 0 1
  outer loop
    vertex 5.67468 0.638631 0.5
    vertex 2.80751 2.26469 0.5
    vertex 3.37903 -0.49883 0.5
  endloop
endfacet
facet normal 0 0 1
  outer loop
    vertex -3.9677e-14 -13.9304 0.5
    vertex -1.32629 -11.5571 0.5
    vertex -3.0998 -13.5811 0.5
  endloop
endfacet
facet normal 0 0 1
  outer loop
    vertex 3.0998 -13.5811 0.5
    vertex 6.04417 -12.5508 0.5
    vertex 3.75306 -9.87543 0.5
  endloop
endfacet
facet normal 0 0 1
  outer loop
    vertex -6.33065 -9.3203 0.5
    vertex -6.04417 -12.5508 0.5
    vertex -3.51988 -9.99758 0.5
  endloop
endfacet
facet normal 0 0 1
  outer loop
    vertex 6.3284 -5.60194 0.5
    vertex 3.73283 -5.97329 0.5
    vertex 6.93128 -8.39616 0.5
  endloop
endfacet
facet normal 0 0 1
  outer loop
    vertex 10.8912 8.68545 0.5
    vertex 7.80079 8.46921 0.5
    vertex 8.24194 5.71373 0.5
  endloop
endfacet
facet normal 0 0 1
  outer loop
    vertex -6.04417 -12.5508 0.5
    vertex -6.33065 -9.3203 0.5
    vertex -8.68545 -10.8912 0.5
  endloop
endfacet
facet normal 0 0 1
  outer loop
    vertex 7.80079 8.46921 0.5
    vertex 10.8912 8.68545 0.5
    vertex 8.68545 10.8912 0.5
  endloop
endfacet
facet normal 0 0 1
  outer loop
    vertex 7.80079 8.46921 0.5
    vertex 5.79222 6.83384 0.5
    vertex 8.24194 5.71373 0.5
  endloop
endfacet
facet normal 0 -0 1
  outer loop
    vertex 6.3284 -5.60194 0.5
    vertex 8.87252 -5.03485 0.5
    vertex 5.54508 -2.87704 0.5
  endloop
endfacet
endsolid Created by Gmsh
