DBRep_DrawableShape

CASCADE Topology V1, (c) Matra-Datavision
Locations 15
1
              1               0               0               0 
              0               1               0               0 
              0               0               1               0 
1
              1               0               0               0 
              0 2.22044604925031e-16              -1               0 
              0               1 2.22044604925031e-16               0 
2  2 -1 0
1
              1               0               0               0 
              0 2.22044604925031e-16              -1               0 
              0               1 2.22044604925031e-16               0 
1
              1               0               0               0 
              0 -2.22044604925031e-16              -1               0 
              0               1 -2.22044604925031e-16               0 
2  4 1 5 -1 0
2  5 1 4 -1 0
2  4 -1 0
2  2 -1 5 1 4 -1 0
1
              1               0               0               0 
              0               1               0 8.88178419700125e-15 
              0               0               1              20 
2  4 1 5 -1 10 1 0
2  10 -1 5 1 4 -1 0
2  2 -1 10 -1 5 1 4 -1 0
2  5 -1 0
2  5 -1 10 1 0
Curve2ds 0
Curves 12
1 0 0 0 0 -1 6.6613381477509392e-16 
1 9.9999999999999982 0 0 0 -1 6.6613381477509392e-16 
1 0 0 0 1 0 0 
1 0 -19.999999999999996 -19.999999999999996 1 0 0 
1 9.9999999999999982 6.6613381477509385e-15 9.9999999999999982 0 -1 6.6613381477509392e-16 
1 9.9999999999999982 0 0 0 2.2204460492503136e-16 1 
1 9.9999999999999982 -19.999999999999996 -19.999999999999996 0 2.2204460492503136e-16 1 
1 0 6.6613381477509385e-15 9.9999999999999982 0 -1 6.6613381477509392e-16 
1 9.9999999999999982 2.2204460492503131e-15 9.9999999999999982 -1 0 0 
1 9.9999999999999982 -19.999999999999993 -9.9999999999999982 -1 0 0 
1 0 2.2204460492503131e-15 9.9999999999999982 0 -2.2204460492503136e-16 -1 
1 0 -19.999999999999993 -9.9999999999999982 0 -2.2204460492503136e-16 -1 
Polygon3D 0
PolygonOnTriangulations 24
2 1 2 
p 0.026666667064031 1 0 20 
2 3 4 
p 0.026666667064031 1 0 20 
2 3 4 
p 0.026666667064031 1 0 20 
2 1 2 
p 0.026666667064031 1 0 20 
2 1 3 
p 0.026666667064031 1 0 10 
2 1 2 
p 0.026666667064031 1 0 10 
2 2 4 
p 0.026666667064031 1 0 10 
2 1 2 
p 0.026666667064031 1 0 10 
2 3 4 
p 0.026666667064031 1 0 20 
2 1 2 
p 0.026666667064031 1 0 20 
2 1 3 
p 0.026666667064031 1 0 10 
2 2 3 
p 0.026666667064031 1 0 10 
2 2 4 
p 0.026666667064031 1 0 10 
2 2 3 
p 0.026666667064031 1 0 10 
2 3 4 
p 0.026666667064031 1 0 20 
2 1 2 
p 0.026666667064031 1 0 20 
2 1 3 
p 0.026666667064031 1 0 10 
2 3 4 
p 0.026666667064031 1 0 10 
2 2 4 
p 0.026666667064031 1 0 10 
2 3 4 
p 0.026666667064031 1 0 10 
2 1 3 
p 0.026666667064031 1 0 10 
2 4 1 
p 0.026666667064031 1 0 10 
2 2 4 
p 0.026666667064031 1 0 10 
2 4 1 
p 0.026666667064031 1 0 10 
Surfaces 6
1 0 0 0 0 6.6613381477509392e-16 1 1 0 0 0 1 -6.6613381477509392e-16 
1 9.9999999999999982 0 0 -1 0 0 0 6.6613381477509392e-16 1 -0 1 -6.6613381477509392e-16 
1 9.9999999999999982 6.6613381477509385e-15 9.9999999999999982 0 -6.6613381477509392e-16 -1 -1 0 0 -0 1 -6.6613381477509392e-16 
1 0 6.6613381477509385e-15 9.9999999999999982 1 0 0 0 -6.6613381477509392e-16 -1 0 1 -6.6613381477509392e-16 
1 4.9999999999999991 -4.9999999999999991 2.2204460492503127e-15 0 -4.4408920985006262e-16 -1 0 1 -4.4408920985006262e-16 1 0 0 
1 4.9999999999999991 14.999999999999993 -19.999999999999996 0 -4.4408920985006262e-16 -1 0 1 -4.4408920985006262e-16 1 0 0 
Triangulations 6
4 2 1 1.57772181044202e-30
0 0 0 0 -20 1.33226762955019e-14 10 0 0 10 -20 1.33226762955019e-14 0 0 0 -20 10 0 10 -20 3 1 2 3 2 4 
4 2 1 0
0 6.66133814775094e-15 10 0 -20 10 0 0 0 0 -20 1.33226762955019e-14 0 0 0 -20 10 0 10 -20 3 1 2 3 2 4 
4 2 1 8.88178419700125e-16
10 0 0 10 -20 1.33226762955019e-14 10 6.66133814775094e-15 10 10 -20 10 0 0 3.15544362088405e-30 -20 10 0 10 -20 3 1 2 3 2 4 
4 2 1 1.11561779098947e-30
0 0 0 10 0 0 10 -10 4.44089209850063e-15 0 -10 4.44089209850063e-15 5 -5 5 5 -5 5 -5 -5 2 3 4 2 4 1 
4 2 1 1.77635683940025e-15
0 20 -20 10 20 -20 10 9.99999999999999 -20 0 9.99999999999999 -20 5 -5 5 5 -5 5 -5 -5 2 3 4 2 4 1 
4 2 1 8.88178419700124e-16
10 6.66133814775094e-15 10 10 -20 10 0 6.66133814775094e-15 10 0 -20 10 0 0 0 -20 10 0 10 -20 3 1 2 3 2 4 

TShapes 35
Ve
1e-07
0 0 0
0 0

0101101
*
Ve
1e-07
0 -1.77635683940025e-14 -20
0 0

0101101
*
Ed
 1e-07 1 1 0
1  1 0 0 20
6  1 1 0
6  2 2 0
0

0101000
+35 3 -34 3 *
Ve
1e-07
10 0 0
0 0

0101101
*
Ve
1e-07
10 -1.77635683940025e-14 -20
0 0

0101101
*
Ed
 1e-07 1 1 0
1  2 0 0 20
6  3 1 0
6  4 3 0
0

0101000
+32 3 -31 3 *
Ed
 1e-07 1 1 0
1  3 0 0 10
6  5 1 7
6  6 4 8
0

0101000
+35 9 -32 9 *
Ed
 1e-07 1 1 0
1  4 0 0 10
6  7 1 12
6  8 5 8
0

0101000
+34 13 -31 13 *
Wi

0101100
+33 0 -30 0 -29 6 +28 11 *
Fa
0  1e-07 1 0
2  1
0101000
+27 0 *
Ve
1e-07
10 -10 8.88178419700125e-15
0 0

0101101
*
Ve
1e-07
10 -10 -20
0 0

0101101
*
Ed
 1e-07 1 1 0
1  5 0 0 20
6  9 3 0
6  10 6 0
0

0101000
+25 3 -24 3 *
Ed
 1e-07 1 1 0
1  6 0 0 10
6  11 3 7
6  12 4 8
0

0101000
+32 9 -25 9 *
Ed
 1e-07 1 1 0
1  7 0 0 10
6  13 3 12
6  14 5 8
0

0101000
+31 13 -24 13 *
Wi

0101100
+30 0 -23 0 -22 6 +21 11 *
Fa
0  1e-07 2 0
2  3
0101000
+20 0 *
Ve
1e-07
0 -10 8.88178419700125e-15
0 0

0101101
*
Ve
1e-07
0 -10 -20
0 0

0101101
*
Ed
 1e-07 1 1 0
1  8 0 0 20
6  15 6 0
6  16 2 0
0

0101000
+18 3 -17 3 *
Ed
 1e-07 1 1 0
1  9 0 0 10
6  17 6 7
6  18 4 8
0

0101000
+25 9 -18 9 *
Ed
 1e-07 1 1 0
1  10 0 0 10
6  19 6 12
6  20 5 8
0

0101000
+24 13 -17 13 *
Wi

0101100
+23 0 -16 0 -15 6 +14 11 *
Fa
0  1e-07 3 0
2  6
0101000
+13 0 *
Ed
 1e-07 1 1 0
1  11 0 0 10
6  21 2 7
6  22 4 8
0

0101000
+18 9 -35 9 *
Ed
 1e-07 1 1 0
1  12 0 0 10
6  23 2 12
6  24 5 8
0

0101000
+17 13 -34 13 *
Wi

0101100
+16 0 -33 0 -11 6 +10 11 *
Fa
0  1e-07 4 0
2  2
0101000
+9 0 *
Wi

0101100
+29 0 +22 0 +15 0 +11 0 *
Fa
0  1e-07 5 0
2  4
0101000
+7 4 *
Wi

0101100
+28 0 +21 0 +14 0 +10 0 *
Fa
0  1e-07 6 0
2  5
0101000
+5 4 *
Sh

0101100
+26 0 +19 0 +12 0 +8 0 +6 14 -4 15 *
So

0100000
-3 0 *
Co

1100000
+2 1 *

+1 0 